<svg xmlns="http://www.w3.org/2000/svg" xmlns:xlink="http://www.w3.org/1999/xlink" width="60" zoomAndPan="magnify" viewBox="0 0 45 44.999999" height="60" preserveAspectRatio="xMidYMid meet" version="1.0"><defs><clipPath id="85cf715d9a"><path d="M 2.25 2.25 L 42.75 2.25 L 42.75 42.75 L 2.25 42.75 Z M 2.25 2.25 " clip-rule="nonzero"/></clipPath><clipPath id="3eba6127a3"><path d="M 2.25 3 L 42 3 L 42 42.75 L 2.25 42.75 Z M 2.25 3 " clip-rule="nonzero"/></clipPath><clipPath id="b724cd4408"><path d="M 2.25 16 L 42.75 16 L 42.75 42.75 L 2.25 42.75 Z M 2.25 16 " clip-rule="nonzero"/></clipPath><clipPath id="7f24ba6137"><path d="M 2.25 31 L 42 31 L 42 42.75 L 2.25 42.75 Z M 2.25 31 " clip-rule="nonzero"/></clipPath></defs><g clip-path="url(#85cf715d9a)"><path fill="#faf7f5" d="M 9 2.25 L 36 2.25 C 36.445312 2.25 36.882812 2.292969 37.316406 2.378906 C 37.75 2.464844 38.171875 2.59375 38.582031 2.765625 C 38.992188 2.933594 39.382812 3.140625 39.75 3.386719 C 40.117188 3.632812 40.460938 3.914062 40.773438 4.226562 C 41.085938 4.539062 41.367188 4.882812 41.613281 5.25 C 41.859375 5.617188 42.066406 6.007812 42.234375 6.417969 C 42.40625 6.828125 42.535156 7.25 42.621094 7.683594 C 42.707031 8.117188 42.75 8.554688 42.75 9 L 42.75 36 C 42.75 36.445312 42.707031 36.882812 42.621094 37.316406 C 42.535156 37.75 42.40625 38.171875 42.234375 38.582031 C 42.066406 38.992188 41.859375 39.382812 41.613281 39.75 C 41.367188 40.117188 41.085938 40.460938 40.773438 40.773438 C 40.460938 41.085938 40.117188 41.367188 39.75 41.613281 C 39.382812 41.859375 38.992188 42.066406 38.582031 42.234375 C 38.171875 42.40625 37.75 42.535156 37.316406 42.621094 C 36.882812 42.707031 36.445312 42.75 36 42.75 L 9 42.75 C 8.554688 42.75 8.117188 42.707031 7.683594 42.621094 C 7.25 42.535156 6.828125 42.40625 6.417969 42.234375 C 6.007812 42.066406 5.617188 41.859375 5.25 41.613281 C 4.882812 41.367188 4.539062 41.085938 4.226562 40.773438 C 3.914062 40.460938 3.632812 40.117188 3.386719 39.75 C 3.140625 39.382812 2.933594 38.992188 2.765625 38.582031 C 2.59375 38.171875 2.464844 37.75 2.378906 37.316406 C 2.292969 36.882812 2.25 36.445312 2.25 36 L 2.25 9 C 2.25 8.554688 2.292969 8.117188 2.378906 7.683594 C 2.464844 7.25 2.59375 6.828125 2.765625 6.417969 C 2.933594 6.007812 3.140625 5.617188 3.386719 5.25 C 3.632812 4.882812 3.914062 4.539062 4.226562 4.226562 C 4.539062 3.914062 4.882812 3.632812 5.25 3.386719 C 5.617188 3.140625 6.007812 2.933594 6.417969 2.765625 C 6.828125 2.59375 7.25 2.464844 7.683594 2.378906 C 8.117188 2.292969 8.554688 2.25 9 2.25 Z M 9 2.25 " fill-opacity="1" fill-rule="nonzero"/></g><g clip-path="url(#3eba6127a3)"><path fill="#f0e5e1" d="M 38.699219 40.050781 L 11.699219 40.050781 C 11.257812 40.050781 10.820312 40.007812 10.382812 39.917969 C 9.949219 39.832031 9.527344 39.703125 9.117188 39.535156 C 8.710938 39.363281 8.320312 39.15625 7.953125 38.910156 C 7.582031 38.664062 7.242188 38.382812 6.929688 38.070312 C 6.617188 37.757812 6.335938 37.417969 6.089844 37.046875 C 5.84375 36.679688 5.636719 36.289062 5.464844 35.882812 C 5.296875 35.472656 5.167969 35.050781 5.082031 34.617188 C 4.992188 34.179688 4.949219 33.742188 4.949219 33.300781 L 4.949219 6.300781 C 4.957031 5.160156 5.238281 4.09375 5.796875 3.097656 C 3.695312 4.242188 2.25 6.441406 2.25 9 L 2.25 36 C 2.25 36.441406 2.292969 36.882812 2.382812 37.316406 C 2.46875 37.75 2.597656 38.171875 2.765625 38.582031 C 2.9375 38.992188 3.144531 39.378906 3.390625 39.75 C 3.636719 40.117188 3.914062 40.457031 4.230469 40.769531 C 4.542969 41.085938 4.882812 41.363281 5.25 41.609375 C 5.621094 41.855469 6.007812 42.0625 6.417969 42.234375 C 6.828125 42.402344 7.25 42.53125 7.683594 42.617188 C 8.117188 42.707031 8.558594 42.75 9 42.75 L 36 42.75 C 38.554688 42.75 40.757812 41.304688 41.902344 39.203125 C 40.90625 39.761719 39.839844 40.042969 38.699219 40.050781 Z M 38.699219 40.050781 " fill-opacity="1" fill-rule="nonzero"/></g><path fill="#ffcd69" d="M 37.351562 13.050781 C 37.351562 13.40625 37.316406 13.753906 37.246094 14.101562 C 37.175781 14.449219 37.074219 14.789062 36.9375 15.117188 C 36.804688 15.445312 36.636719 15.753906 36.441406 16.050781 C 36.242188 16.34375 36.019531 16.617188 35.769531 16.867188 C 35.519531 17.117188 35.246094 17.34375 34.949219 17.539062 C 34.65625 17.738281 34.34375 17.902344 34.015625 18.039062 C 33.6875 18.175781 33.351562 18.277344 33.003906 18.347656 C 32.65625 18.414062 32.304688 18.449219 31.949219 18.449219 C 31.59375 18.449219 31.246094 18.414062 30.898438 18.347656 C 30.550781 18.277344 30.210938 18.175781 29.882812 18.039062 C 29.554688 17.902344 29.246094 17.738281 28.949219 17.539062 C 28.65625 17.34375 28.382812 17.117188 28.132812 16.867188 C 27.882812 16.617188 27.65625 16.34375 27.460938 16.050781 C 27.261719 15.753906 27.097656 15.445312 26.960938 15.117188 C 26.824219 14.789062 26.722656 14.449219 26.652344 14.101562 C 26.585938 13.753906 26.550781 13.40625 26.550781 13.050781 C 26.550781 12.695312 26.585938 12.34375 26.652344 11.996094 C 26.722656 11.648438 26.824219 11.3125 26.960938 10.984375 C 27.097656 10.65625 27.261719 10.34375 27.460938 10.050781 C 27.65625 9.753906 27.882812 9.480469 28.132812 9.230469 C 28.382812 8.980469 28.65625 8.757812 28.949219 8.558594 C 29.246094 8.363281 29.554688 8.195312 29.882812 8.058594 C 30.210938 7.925781 30.550781 7.824219 30.898438 7.753906 C 31.246094 7.683594 31.59375 7.648438 31.949219 7.648438 C 32.304688 7.648438 32.65625 7.683594 33.003906 7.753906 C 33.351562 7.824219 33.6875 7.925781 34.015625 8.058594 C 34.34375 8.195312 34.65625 8.363281 34.949219 8.558594 C 35.246094 8.757812 35.519531 8.980469 35.769531 9.230469 C 36.019531 9.480469 36.242188 9.753906 36.441406 10.050781 C 36.636719 10.34375 36.804688 10.65625 36.9375 10.984375 C 37.074219 11.3125 37.175781 11.648438 37.246094 11.996094 C 37.316406 12.34375 37.351562 12.695312 37.351562 13.050781 Z M 37.351562 13.050781 " fill-opacity="1" fill-rule="nonzero"/><path fill="#ffc144" d="M 29.25 14.398438 C 29.246094 14.003906 29.285156 13.613281 29.367188 13.226562 C 29.449219 12.839844 29.574219 12.464844 29.742188 12.105469 C 29.90625 11.746094 30.109375 11.410156 30.351562 11.09375 C 30.589844 10.78125 30.863281 10.496094 31.167969 10.242188 C 31.472656 9.988281 31.800781 9.773438 32.152344 9.589844 C 32.503906 9.410156 32.871094 9.269531 33.253906 9.171875 C 33.640625 9.074219 34.027344 9.019531 34.425781 9.007812 C 34.820312 8.992188 35.210938 9.023438 35.601562 9.101562 C 35.292969 8.816406 34.957031 8.570312 34.59375 8.363281 C 34.230469 8.15625 33.847656 7.992188 33.445312 7.875 C 33.042969 7.757812 32.632812 7.6875 32.210938 7.667969 C 31.792969 7.644531 31.378906 7.671875 30.964844 7.746094 C 30.554688 7.824219 30.15625 7.945312 29.773438 8.113281 C 29.390625 8.28125 29.03125 8.492188 28.695312 8.742188 C 28.359375 8.992188 28.058594 9.28125 27.789062 9.601562 C 27.523438 9.925781 27.296875 10.273438 27.109375 10.648438 C 26.921875 11.023438 26.78125 11.417969 26.6875 11.824219 C 26.589844 12.230469 26.542969 12.644531 26.546875 13.066406 C 26.546875 13.484375 26.597656 13.898438 26.695312 14.304688 C 26.792969 14.710938 26.933594 15.101562 27.125 15.476562 C 27.3125 15.851562 27.542969 16.199219 27.8125 16.519531 C 28.082031 16.839844 28.386719 17.125 28.722656 17.375 C 29.058594 17.625 29.417969 17.832031 29.804688 17.996094 C 30.1875 18.164062 30.585938 18.28125 31 18.355469 C 30.445312 17.847656 30.011719 17.25 29.707031 16.5625 C 29.402344 15.875 29.25 15.152344 29.25 14.398438 Z M 29.25 14.398438 " fill-opacity="1" fill-rule="nonzero"/><g clip-path="url(#b724cd4408)"><path fill="#80b6ff" d="M 32.9375 22.832031 C 32.417969 22.183594 31.742188 21.847656 30.914062 21.820312 C 30.082031 21.785156 29.390625 22.078125 28.835938 22.699219 L 25.132812 26.753906 L 19.039062 18.023438 C 18.789062 17.660156 18.464844 17.378906 18.074219 17.175781 C 17.6875 16.972656 17.269531 16.867188 16.828125 16.867188 L 16.824219 16.867188 C 16.386719 16.867188 15.972656 16.96875 15.582031 17.171875 C 15.191406 17.375 14.867188 17.65625 14.617188 18.015625 L 2.25 35.625 L 2.25 36 C 2.25 36.441406 2.292969 36.882812 2.382812 37.316406 C 2.46875 37.75 2.597656 38.171875 2.765625 38.582031 C 2.9375 38.992188 3.144531 39.378906 3.390625 39.75 C 3.636719 40.117188 3.914062 40.457031 4.230469 40.769531 C 4.542969 41.085938 4.882812 41.363281 5.25 41.609375 C 5.621094 41.855469 6.007812 42.0625 6.417969 42.234375 C 6.828125 42.402344 7.25 42.53125 7.683594 42.617188 C 8.117188 42.707031 8.558594 42.75 9 42.75 L 36 42.75 C 36.441406 42.75 36.882812 42.707031 37.316406 42.617188 C 37.75 42.53125 38.171875 42.402344 38.582031 42.234375 C 38.992188 42.0625 39.378906 41.855469 39.75 41.609375 C 40.117188 41.363281 40.457031 41.085938 40.769531 40.769531 C 41.085938 40.457031 41.363281 40.117188 41.609375 39.75 C 41.855469 39.378906 42.0625 38.992188 42.234375 38.582031 C 42.402344 38.171875 42.53125 37.75 42.617188 37.316406 C 42.707031 36.882812 42.75 36.441406 42.75 36 L 42.75 35.089844 Z M 32.9375 22.832031 " fill-opacity="1" fill-rule="nonzero"/></g><g clip-path="url(#7f24ba6137)"><path fill="#60a4ff" d="M 38.699219 40.050781 L 11.699219 40.050781 C 11.257812 40.050781 10.820312 40.007812 10.382812 39.917969 C 9.949219 39.832031 9.527344 39.703125 9.117188 39.535156 C 8.710938 39.363281 8.320312 39.15625 7.953125 38.910156 C 7.582031 38.664062 7.242188 38.382812 6.929688 38.070312 C 6.617188 37.757812 6.335938 37.417969 6.089844 37.046875 C 5.84375 36.679688 5.636719 36.289062 5.464844 35.882812 C 5.296875 35.472656 5.167969 35.050781 5.082031 34.617188 C 4.992188 34.179688 4.949219 33.742188 4.949219 33.300781 L 4.949219 31.78125 L 2.25 35.625 L 2.25 36 C 2.25 36.441406 2.292969 36.882812 2.382812 37.316406 C 2.46875 37.75 2.597656 38.171875 2.765625 38.582031 C 2.9375 38.992188 3.144531 39.378906 3.390625 39.75 C 3.636719 40.117188 3.914062 40.457031 4.230469 40.769531 C 4.542969 41.085938 4.882812 41.363281 5.25 41.609375 C 5.621094 41.855469 6.007812 42.0625 6.417969 42.234375 C 6.828125 42.402344 7.25 42.53125 7.683594 42.617188 C 8.117188 42.707031 8.558594 42.75 9 42.75 L 36 42.75 C 38.554688 42.75 40.757812 41.304688 41.902344 39.203125 C 40.90625 39.761719 39.839844 40.042969 38.699219 40.050781 Z M 38.699219 40.050781 " fill-opacity="1" fill-rule="nonzero"/></g></svg>