<svg xmlns="http://www.w3.org/2000/svg" xmlns:xlink="http://www.w3.org/1999/xlink" width="500" zoomAndPan="magnify" viewBox="0 0 375 374.999991" height="500" preserveAspectRatio="xMidYMid meet" version="1.0"><defs><filter x="0%" y="0%" width="100%" height="100%" id="79cfabb04b"><feColorMatrix values="0 0 0 0 1 0 0 0 0 1 0 0 0 0 1 0 0 0 1 0" color-interpolation-filters="sRGB"/></filter><mask id="96b194225b"><g filter="url(#79cfabb04b)"><rect x="-37.5" width="450" fill="#000000" y="-37.499999" height="449.999989" fill-opacity="0.84"/></g></mask><clipPath id="43b3871f21"><path d="M 0.046875 1.058594 L 341.558594 1.058594 L 341.558594 310.808594 L 0.046875 310.808594 Z M 0.046875 1.058594 " clip-rule="nonzero"/></clipPath><clipPath id="16e6581aed"><rect x="0" width="342" y="0" height="312"/></clipPath><mask id="d7530f3530"><g filter="url(#79cfabb04b)"><rect x="-37.5" width="450" fill="#000000" y="-37.499999" height="449.999989" fill-opacity="0.55"/></g></mask><clipPath id="8acdf843b6"><path d="M 0.0976562 0.546875 L 341.800781 0.546875 L 341.800781 310.296875 L 0.0976562 310.296875 Z M 0.0976562 0.546875 " clip-rule="nonzero"/></clipPath><clipPath id="773d0f34f9"><rect x="0" width="342" y="0" height="312"/></clipPath></defs><g mask="url(#96b194225b)"><g transform="matrix(1, 0, 0, 1, 5, 13)"><g clip-path="url(#16e6581aed)"><g clip-path="url(#43b3871f21)"><path fill="#ffffff" d="M 14.753906 144.015625 C 22.878906 144.015625 29.464844 150.601562 29.464844 158.726562 C 29.464844 166.851562 22.878906 173.441406 14.753906 173.441406 C 6.636719 173.441406 0.046875 166.851562 0.046875 158.726562 C 0.046875 150.609375 6.636719 144.015625 14.753906 144.015625 M 24.113281 61.289062 C 31.058594 61.289062 36.6875 66.914062 36.6875 73.859375 C 36.6875 80.804688 31.058594 86.433594 24.113281 86.433594 C 17.171875 86.433594 11.542969 80.804688 11.542969 73.859375 C 11.542969 66.914062 17.171875 61.289062 24.113281 61.289062 Z M 78.085938 99.40625 C 89.023438 99.40625 97.894531 108.277344 97.894531 119.214844 C 97.894531 130.148438 89.023438 139.015625 78.085938 139.015625 C 67.152344 139.015625 58.28125 130.144531 58.28125 119.214844 C 58.285156 108.269531 67.152344 99.40625 78.085938 99.40625 Z M 100.96875 23.195312 C 111.085938 23.195312 119.296875 31.398438 119.296875 41.523438 C 119.296875 51.640625 111.085938 59.851562 100.96875 59.851562 C 90.851562 59.851562 82.648438 51.640625 82.648438 41.523438 C 82.648438 31.398438 90.851562 23.195312 100.96875 23.195312 Z M 209.433594 36.097656 L 245.578125 89.121094 L 247.03125 89.089844 C 265.226562 89.089844 279.976562 103.847656 279.976562 122.035156 C 279.976562 140.226562 265.226562 154.988281 247.03125 154.988281 C 238.46875 154.988281 230.390625 151.675781 224.34375 145.933594 L 204.566406 153.101562 C 202.496094 160.117188 197.671875 165.9375 191.375 169.339844 C 196.566406 171.066406 201.117188 174.378906 204.339844 178.820312 L 229.121094 178.710938 C 233.882812 172.492188 241.351562 168.671875 249.453125 168.671875 C 263.582031 168.671875 275.050781 180.132812 275.050781 194.269531 C 275.050781 208.40625 263.589844 219.867188 249.453125 219.867188 C 241.394531 219.867188 233.960938 216.089844 229.191406 209.921875 L 204.113281 210.03125 C 200.148438 215.3125 194.304688 218.941406 187.75 220.125 L 178.382812 240.1875 C 179.441406 242.945312 179.984375 245.882812 179.984375 248.875 C 179.984375 256.597656 176.378906 263.488281 170.753906 267.941406 C 186.96875 272.539062 201.527344 282.03125 212.328125 295.308594 L 265.738281 295.308594 L 285.082031 257.125 C 311.730469 250.4375 330.527344 251.410156 320.855469 219.003906 C 329.453125 210.78125 334.761719 207.785156 325.078125 200.605469 C 329.105469 198.527344 330.382812 196.507812 330.964844 193.738281 L 323.960938 180.484375 C 337.964844 172.460938 344.378906 164.453125 339.433594 158.738281 L 307.503906 122.078125 C 302.082031 55.246094 258.324219 24.953125 211.402344 22.382812 C 211.449219 23.128906 211.480469 23.875 211.480469 24.636719 C 211.480469 28.570312 210.78125 32.445312 209.433594 36.097656 Z M 201.953125 22.242188 C 200.753906 10.367188 190.722656 1.097656 178.535156 1.097656 C 165.53125 1.097656 154.988281 11.640625 154.988281 24.636719 C 154.988281 27.179688 155.394531 29.632812 156.140625 31.925781 C 159.210938 41.355469 168.074219 48.179688 178.535156 48.179688 C 182.472656 48.179688 186.179688 47.210938 189.441406 45.503906 L 230.320312 105.457031 C 226.101562 109.714844 223.492188 115.570312 223.492188 122.03125 L 223.515625 123.027344 L 192.4375 134.296875 C 189.171875 130.171875 184.121094 127.523438 178.449219 127.523438 C 168.605469 127.523438 160.613281 135.511719 160.613281 145.359375 C 160.613281 155.210938 168.605469 163.191406 178.449219 163.191406 C 188.050781 163.191406 195.875 155.605469 196.269531 146.105469 L 227.289062 134.851562 C 231.492188 141.308594 238.761719 145.574219 247.03125 145.574219 C 260.03125 145.574219 270.574219 135.027344 270.574219 122.03125 C 270.574219 109.027344 260.039062 98.484375 247.03125 98.484375 C 244.980469 98.484375 242.992188 98.75 241.101562 99.238281 L 198.617188 36.925781 C 200.8125 33.34375 202.070312 29.136719 202.070312 24.636719 C 202.070312 23.828125 202.03125 23.027344 201.953125 22.242188 Z M 147.300781 236.554688 C 143.367188 239.234375 140.78125 243.753906 140.78125 248.867188 C 140.78125 256.59375 146.660156 262.953125 154.183594 263.703125 C 154.679688 263.75 155.175781 263.773438 155.679688 263.773438 C 163.914062 263.773438 170.585938 257.101562 170.585938 248.867188 C 170.585938 245.710938 169.601562 242.78125 167.925781 240.367188 L 181.609375 211.0625 L 183.101562 211.128906 C 190.15625 211.128906 196.203125 206.792969 198.71875 200.640625 L 234.511719 200.484375 C 236.945312 206.339844 242.726562 210.453125 249.460938 210.453125 C 258.402344 210.453125 265.648438 203.207031 265.648438 194.265625 C 265.648438 185.328125 258.402344 178.074219 249.460938 178.074219 C 242.703125 178.074219 236.917969 182.210938 234.488281 188.089844 L 198.859375 188.246094 C 196.4375 181.90625 190.292969 177.40625 183.105469 177.40625 C 177.542969 177.40625 172.605469 180.105469 169.53125 184.265625 L 140.035156 168.109375 C 140.339844 166.714844 140.5 165.257812 140.5 163.769531 C 140.5 157.429688 137.636719 151.765625 133.128906 148 L 145.46875 117.492188 C 146.75 117.65625 148.058594 117.746094 149.378906 117.746094 C 166.222656 117.746094 179.871094 104.089844 179.871094 87.246094 C 179.871094 70.40625 166.21875 56.753906 149.378906 56.753906 C 132.535156 56.753906 118.882812 70.40625 118.882812 87.246094 C 118.882812 98.367188 124.835938 108.089844 133.726562 113.421875 L 121.648438 143.289062 L 119.945312 143.21875 C 108.597656 143.21875 99.394531 152.417969 99.394531 163.769531 C 99.394531 175.117188 108.597656 184.320312 119.945312 184.320312 C 125.324219 184.320312 130.21875 182.253906 133.878906 178.875 L 166.414062 196.695312 C 166.898438 200.054688 168.371094 203.085938 170.527344 205.503906 L 157.203125 234.050781 L 155.6875 233.972656 C 152.578125 233.96875 149.6875 234.921875 147.300781 236.554688 Z M 178.445312 118.121094 C 184.367188 118.121094 190.03125 120.035156 194.675781 123.480469 L 214.589844 116.257812 C 215.289062 112.328125 216.691406 108.574219 218.726562 105.160156 L 185.75 56.792969 C 183.394531 57.320312 180.976562 57.59375 178.535156 57.59375 L 175.953125 57.492188 C 184.125 64.800781 189.273438 75.417969 189.273438 87.246094 C 189.273438 99.871094 183.40625 111.128906 174.246094 118.449219 C 175.613281 118.226562 177.015625 118.121094 178.445312 118.121094 Z M 146.996094 276.710938 C 156.453125 276.710938 164.117188 284.375 164.117188 293.832031 C 164.117188 303.289062 156.453125 310.953125 146.996094 310.953125 C 137.546875 310.953125 129.875 303.289062 129.875 293.832031 C 129.875 284.375 137.539062 276.710938 146.996094 276.710938 Z M 93.738281 250.765625 C 103.195312 250.765625 110.859375 258.433594 110.859375 267.886719 C 110.859375 277.34375 103.195312 285.007812 93.738281 285.007812 C 84.285156 285.007812 76.617188 277.34375 76.617188 267.886719 C 76.617188 258.433594 84.285156 250.765625 93.738281 250.765625 Z M 67.289062 191.367188 C 75.261719 191.367188 81.730469 197.832031 81.730469 205.808594 C 81.730469 213.785156 75.261719 220.25 67.289062 220.25 C 59.304688 220.25 52.847656 213.777344 52.847656 205.808594 C 52.847656 197.828125 59.3125 191.367188 67.289062 191.367188 Z M 67.289062 191.367188 " fill-opacity="1" fill-rule="evenodd"/></g></g></g></g><g mask="url(#d7530f3530)"><g transform="matrix(1, 0, 0, 1, 23, 32)"><g clip-path="url(#773d0f34f9)"><g clip-path="url(#8acdf843b6)"><path fill="#ffffff" d="M 14.804688 143.507812 C 22.929688 143.507812 29.515625 150.089844 29.515625 158.214844 C 29.515625 166.339844 22.929688 172.929688 14.804688 172.929688 C 6.6875 172.929688 0.0976562 166.339844 0.0976562 158.214844 C 0.0976562 150.097656 6.6875 143.507812 14.804688 143.507812 M 24.164062 60.777344 C 31.109375 60.777344 36.738281 66.402344 36.738281 73.351562 C 36.738281 80.292969 31.109375 85.921875 24.164062 85.921875 C 17.222656 85.921875 11.59375 80.292969 11.59375 73.351562 C 11.59375 66.402344 17.222656 60.777344 24.164062 60.777344 Z M 78.136719 98.894531 C 89.074219 98.894531 97.945312 107.765625 97.945312 118.703125 C 97.945312 129.640625 89.074219 138.503906 78.136719 138.503906 C 67.199219 138.503906 58.332031 129.632812 58.332031 118.703125 C 58.335938 107.761719 67.199219 98.894531 78.136719 98.894531 Z M 101.019531 22.6875 C 111.136719 22.6875 119.347656 30.886719 119.347656 41.011719 C 119.347656 51.132812 111.136719 59.339844 101.019531 59.339844 C 90.902344 59.339844 82.699219 51.132812 82.699219 41.011719 C 82.699219 30.886719 90.902344 22.6875 101.019531 22.6875 Z M 209.484375 35.585938 L 245.628906 88.609375 L 247.078125 88.578125 C 265.277344 88.578125 280.027344 103.335938 280.027344 121.527344 C 280.027344 139.714844 265.277344 154.480469 247.078125 154.480469 C 238.519531 154.480469 230.441406 151.164062 224.394531 145.421875 L 204.617188 152.59375 C 202.546875 159.605469 197.722656 165.425781 191.425781 168.832031 C 196.617188 170.554688 201.167969 173.867188 204.390625 178.308594 L 229.171875 178.203125 C 233.933594 171.980469 241.402344 168.160156 249.503906 168.160156 C 263.632812 168.160156 275.101562 179.625 275.101562 193.757812 C 275.101562 207.894531 263.640625 219.359375 249.503906 219.359375 C 241.445312 219.359375 234.011719 215.578125 229.242188 209.414062 L 204.164062 209.519531 C 200.199219 214.804688 194.355469 218.433594 187.800781 219.613281 L 178.433594 239.679688 C 179.492188 242.4375 180.035156 245.375 180.035156 248.363281 C 180.035156 256.089844 176.429688 262.976562 170.804688 267.433594 C 187.019531 272.027344 201.578125 281.519531 212.378906 294.796875 L 265.789062 294.796875 L 285.128906 256.613281 C 311.78125 249.929688 330.578125 250.902344 320.90625 218.492188 C 329.503906 210.273438 334.808594 207.273438 325.128906 200.09375 C 329.15625 198.015625 330.433594 196 331.015625 193.226562 L 324.011719 179.976562 C 338.015625 171.953125 344.429688 163.941406 339.484375 158.226562 L 307.554688 121.566406 C 302.132812 54.738281 258.375 24.441406 211.453125 21.875 C 211.5 22.621094 211.53125 23.367188 211.53125 24.125 C 211.53125 28.058594 210.832031 31.933594 209.484375 35.585938 Z M 202.003906 21.730469 C 200.804688 9.855469 190.773438 0.585938 178.582031 0.585938 C 165.582031 0.585938 155.039062 11.128906 155.039062 24.125 C 155.039062 26.667969 155.445312 29.121094 156.191406 31.414062 C 159.257812 40.847656 168.125 47.667969 178.582031 47.667969 C 182.523438 47.667969 186.230469 46.703125 189.492188 44.996094 L 230.371094 104.949219 C 226.148438 109.203125 223.542969 115.0625 223.542969 121.519531 L 223.566406 122.515625 L 192.488281 133.789062 C 189.222656 129.664062 184.171875 127.011719 178.5 127.011719 C 168.65625 127.011719 160.664062 135 160.664062 144.851562 C 160.664062 154.699219 168.65625 162.679688 178.5 162.679688 C 188.097656 162.679688 195.925781 155.09375 196.320312 145.597656 L 227.339844 134.34375 C 231.539062 140.796875 238.8125 145.066406 247.078125 145.066406 C 260.082031 145.066406 270.625 134.515625 270.625 121.519531 C 270.625 108.519531 260.089844 97.976562 247.078125 97.976562 C 245.03125 97.976562 243.042969 98.238281 241.152344 98.726562 L 198.664062 36.417969 C 200.863281 32.835938 202.121094 28.625 202.121094 24.125 C 202.121094 23.320312 202.082031 22.519531 202.003906 21.730469 Z M 147.351562 236.042969 C 143.417969 238.722656 140.832031 243.242188 140.832031 248.359375 C 140.832031 256.082031 146.710938 262.441406 154.234375 263.191406 C 154.730469 263.242188 155.222656 263.265625 155.730469 263.265625 C 163.964844 263.265625 170.636719 256.589844 170.636719 248.359375 C 170.636719 245.199219 169.652344 242.269531 167.976562 239.859375 L 181.65625 210.550781 L 183.152344 210.617188 C 190.207031 210.617188 196.253906 206.285156 198.765625 200.128906 L 234.5625 199.972656 C 236.996094 205.832031 242.777344 209.945312 249.507812 209.945312 C 258.453125 209.945312 265.699219 202.695312 265.699219 193.753906 C 265.699219 184.816406 258.453125 177.5625 249.507812 177.5625 C 242.75 177.5625 236.96875 181.699219 234.539062 187.582031 L 198.910156 187.734375 C 196.488281 181.394531 190.34375 176.894531 183.15625 176.894531 C 177.59375 176.894531 172.65625 179.59375 169.582031 183.753906 L 140.085938 167.601562 C 140.390625 166.203125 140.550781 164.746094 140.550781 163.261719 C 140.550781 156.921875 137.683594 151.253906 133.179688 147.488281 L 145.515625 116.984375 C 146.800781 117.144531 148.109375 117.234375 149.425781 117.234375 C 166.273438 117.234375 179.921875 103.582031 179.921875 86.734375 C 179.921875 69.894531 166.269531 56.242188 149.425781 56.242188 C 132.585938 56.242188 118.933594 69.894531 118.933594 86.734375 C 118.933594 97.855469 124.886719 107.582031 133.773438 112.910156 L 121.699219 142.777344 L 119.996094 142.707031 C 108.648438 142.707031 99.445312 151.90625 99.445312 163.261719 C 99.445312 174.609375 108.648438 183.808594 119.996094 183.808594 C 125.375 183.808594 130.269531 181.742188 133.929688 178.363281 L 166.464844 196.183594 C 166.949219 199.542969 168.421875 202.578125 170.578125 204.996094 L 157.253906 233.542969 L 155.738281 233.464844 C 152.628906 233.457031 149.738281 234.414062 147.351562 236.042969 Z M 178.492188 117.609375 C 184.417969 117.609375 190.082031 119.527344 194.726562 122.972656 L 214.640625 115.746094 C 215.339844 111.820312 216.742188 108.066406 218.777344 104.648438 L 185.800781 56.285156 C 183.441406 56.808594 181.023438 57.082031 178.582031 57.082031 L 176.003906 56.980469 C 184.175781 64.289062 189.324219 74.910156 189.324219 86.734375 C 189.324219 99.359375 183.453125 110.621094 174.296875 117.9375 C 175.664062 117.71875 177.066406 117.609375 178.492188 117.609375 Z M 147.046875 276.199219 C 156.5 276.199219 164.167969 283.867188 164.167969 293.320312 C 164.167969 302.777344 156.5 310.441406 147.046875 310.441406 C 137.597656 310.441406 129.925781 302.777344 129.925781 293.320312 C 129.925781 283.867188 137.589844 276.199219 147.046875 276.199219 Z M 93.789062 250.257812 C 103.246094 250.257812 110.910156 257.921875 110.910156 267.378906 C 110.910156 276.832031 103.246094 284.5 93.789062 284.5 C 84.335938 284.5 76.667969 276.832031 76.667969 267.378906 C 76.667969 257.921875 84.335938 250.257812 93.789062 250.257812 Z M 67.339844 190.859375 C 75.3125 190.859375 81.777344 197.324219 81.777344 205.300781 C 81.777344 213.273438 75.3125 219.738281 67.339844 219.738281 C 59.355469 219.738281 52.898438 213.269531 52.898438 205.300781 C 52.898438 197.316406 59.363281 190.859375 67.339844 190.859375 Z M 67.339844 190.859375 " fill-opacity="1" fill-rule="evenodd"/></g></g></g></g></svg>