<svg xmlns="http://www.w3.org/2000/svg" xmlns:xlink="http://www.w3.org/1999/xlink" width="60" zoomAndPan="magnify" viewBox="0 0 45 44.999999" height="60" preserveAspectRatio="xMidYMid meet" version="1.0"><defs><clipPath id="dc601625b5"><path d="M 3 4.949219 L 39 4.949219 L 39 34 L 3 34 Z M 3 4.949219 " clip-rule="nonzero"/></clipPath><clipPath id="9760d96de2"><path d="M 1.292969 8 L 28 8 L 28 36 L 1.292969 36 Z M 1.292969 8 " clip-rule="nonzero"/></clipPath><clipPath id="d2859acfcc"><path d="M 28.757812 25.460938 L 44.003906 25.460938 L 44.003906 40.199219 L 28.757812 40.199219 Z M 28.757812 25.460938 " clip-rule="nonzero"/></clipPath></defs><path fill="#000000" d="M 11.867188 19.980469 C 12.09375 18.933594 12.273438 17.90625 12.402344 16.902344 L 12.425781 16.902344 C 12.550781 17.878906 12.730469 18.90625 12.96875 19.980469 C 13.003906 20.140625 12.882812 20.292969 12.714844 20.292969 L 12.117188 20.292969 C 11.953125 20.292969 11.832031 20.140625 11.867188 19.980469 Z M 9.628906 23.058594 L 10.945312 23.058594 C 11.0625 23.058594 11.167969 22.980469 11.195312 22.863281 L 11.417969 21.925781 C 11.449219 21.808594 11.550781 21.726562 11.671875 21.726562 L 13.179688 21.726562 C 13.300781 21.726562 13.40625 21.808594 13.433594 21.925781 L 13.648438 22.859375 C 13.675781 22.976562 13.777344 23.058594 13.898438 23.058594 L 15.246094 23.058594 C 15.417969 23.058594 15.542969 22.898438 15.496094 22.738281 L 13.511719 15.269531 C 13.480469 15.15625 13.378906 15.078125 13.261719 15.078125 L 11.617188 15.078125 C 11.5 15.078125 11.398438 15.15625 11.367188 15.269531 L 9.378906 22.738281 C 9.335938 22.898438 9.460938 23.058594 9.628906 23.058594 " fill-opacity="1" fill-rule="nonzero"/><path fill="#000000" d="M 31.6875 15.441406 C 31.761719 15.269531 31.640625 15.078125 31.453125 15.078125 L 26.933594 15.078125 C 26.792969 15.078125 26.675781 15.195312 26.675781 15.335938 L 26.675781 16.53125 C 26.675781 16.671875 26.792969 16.789062 26.933594 16.789062 L 28.648438 16.789062 C 28.835938 16.789062 28.960938 16.980469 28.886719 17.148438 L 26.4375 22.699219 C 26.363281 22.871094 26.488281 23.058594 26.675781 23.058594 L 31.34375 23.058594 C 31.488281 23.058594 31.601562 22.945312 31.601562 22.804688 L 31.601562 21.613281 C 31.601562 21.472656 31.488281 21.355469 31.34375 21.355469 L 29.457031 21.355469 C 29.269531 21.355469 29.144531 21.164062 29.21875 20.996094 L 31.6875 15.441406 " fill-opacity="1" fill-rule="nonzero"/><g clip-path="url(#dc601625b5)"><path fill="#000000" d="M 20.042969 31.753906 C 19.742188 31.636719 19.464844 31.527344 19.277344 31.46875 C 15.230469 30.265625 11.328125 29.71875 6.589844 29.71875 C 6.019531 29.71875 5.433594 29.726562 4.835938 29.742188 L 4.835938 6.382812 L 7.539062 6.511719 C 11.804688 6.714844 16.007812 7.546875 20.042969 8.980469 Z M 28.050781 30.179688 C 26.070312 30.464844 24.164062 30.890625 22.226562 31.46875 C 22.039062 31.527344 21.761719 31.636719 21.460938 31.753906 L 21.460938 8.980469 C 25.496094 7.546875 29.699219 6.714844 33.964844 6.511719 L 36.667969 6.382812 L 36.667969 24.503906 C 36.667969 24.871094 36.957031 25.175781 37.324219 25.195312 C 37.332031 25.195312 37.339844 25.195312 37.34375 25.195312 C 37.738281 25.214844 38.070312 24.902344 38.070312 24.507812 L 38.070312 5.648438 C 38.070312 5.457031 37.992188 5.277344 37.851562 5.144531 C 37.722656 5.019531 37.546875 4.949219 37.367188 4.949219 C 37.359375 4.949219 37.347656 4.953125 37.335938 4.953125 L 33.898438 5.117188 C 29.410156 5.332031 24.988281 6.21875 20.75 7.75 C 16.515625 6.21875 12.09375 5.332031 7.605469 5.117188 L 4.167969 4.953125 C 4.15625 4.953125 4.144531 4.949219 4.136719 4.949219 C 3.957031 4.949219 3.78125 5.019531 3.652344 5.144531 C 3.511719 5.277344 3.433594 5.457031 3.433594 5.648438 L 3.433594 30.445312 C 3.433594 30.589844 3.472656 30.734375 3.550781 30.851562 C 3.6875 31.046875 3.90625 31.160156 4.136719 31.160156 L 4.160156 31.160156 L 4.238281 31.15625 C 5.046875 31.128906 5.824219 31.113281 6.582031 31.113281 C 11.183594 31.113281 14.964844 31.644531 18.875 32.808594 C 19.027344 32.855469 19.355469 32.988281 19.644531 33.105469 C 19.996094 33.246094 20.328125 33.378906 20.542969 33.441406 C 20.589844 33.457031 20.640625 33.464844 20.691406 33.46875 C 20.703125 33.46875 20.710938 33.46875 20.722656 33.472656 C 20.730469 33.472656 20.738281 33.472656 20.742188 33.472656 C 20.746094 33.472656 20.75 33.472656 20.75 33.472656 C 20.753906 33.472656 20.757812 33.472656 20.761719 33.472656 C 20.765625 33.472656 20.773438 33.472656 20.78125 33.472656 C 20.792969 33.46875 20.800781 33.46875 20.8125 33.46875 C 20.863281 33.464844 20.914062 33.457031 20.960938 33.441406 C 21.175781 33.378906 21.507812 33.246094 21.855469 33.105469 C 22.148438 32.988281 22.476562 32.855469 22.628906 32.808594 C 24.5 32.25 26.339844 31.839844 28.253906 31.5625 C 28.726562 31.492188 28.996094 30.980469 28.777344 30.554688 C 28.640625 30.285156 28.347656 30.136719 28.050781 30.179688 " fill-opacity="1" fill-rule="nonzero"/></g><g clip-path="url(#9760d96de2)"><path fill="#000000" d="M 27.148438 32.628906 L 25.023438 32.628906 C 24.757812 32.628906 24.519531 32.777344 24.398438 33.007812 C 24.390625 33.015625 24.378906 33.035156 24.355469 33.0625 C 23.703125 33.875 22.71875 34.339844 21.65625 34.339844 L 19.847656 34.339844 C 18.785156 34.339844 17.800781 33.875 17.148438 33.0625 C 17.125 33.035156 17.113281 33.015625 17.105469 33.007812 C 16.984375 32.777344 16.746094 32.628906 16.480469 32.628906 L 2.730469 32.628906 L 2.730469 9.238281 C 2.730469 8.851562 2.429688 8.523438 2.042969 8.515625 C 1.648438 8.507812 1.328125 8.824219 1.328125 9.214844 L 1.328125 33.328125 C 1.328125 33.714844 1.644531 34.027344 2.03125 34.027344 L 16.128906 34.027344 C 17.046875 35.117188 18.394531 35.738281 19.847656 35.738281 L 21.65625 35.738281 C 23.109375 35.738281 24.457031 35.117188 25.375 34.027344 L 27.132812 34.027344 C 27.402344 34.027344 27.644531 33.871094 27.757812 33.628906 C 27.761719 33.625 27.761719 33.621094 27.765625 33.613281 C 27.984375 33.15625 27.65625 32.628906 27.148438 32.628906 " fill-opacity="1" fill-rule="nonzero"/></g><path fill="#000000" d="M 39.5 24.8125 C 39.507812 24.8125 39.511719 24.8125 39.519531 24.8125 C 39.886719 24.792969 40.175781 24.492188 40.175781 24.125 L 40.175781 9.238281 C 40.175781 8.851562 39.871094 8.523438 39.488281 8.515625 C 39.09375 8.507812 38.773438 8.824219 38.773438 9.214844 L 38.773438 24.128906 C 38.773438 24.523438 39.105469 24.835938 39.5 24.8125 " fill-opacity="1" fill-rule="nonzero"/><g clip-path="url(#d2859acfcc)"><path fill="#000000" d="M 41.941406 36.011719 C 41.847656 36.144531 41.742188 36.277344 41.632812 36.402344 C 41.613281 36.425781 41.597656 36.445312 41.578125 36.464844 C 41.476562 36.570312 41.324219 36.730469 41.320312 36.738281 L 41.167969 36.882812 L 40.953125 37.070312 L 40.667969 37.296875 C 40.660156 37.304688 40.648438 37.3125 40.636719 37.320312 L 40.332031 37.535156 C 40.308594 37.554688 40.285156 37.570312 40.257812 37.585938 C 40.234375 37.601562 40.210938 37.617188 40.183594 37.632812 L 40.171875 37.640625 C 40.152344 37.65625 40.128906 37.667969 40.105469 37.683594 C 40.082031 37.699219 40.054688 37.714844 40.03125 37.730469 C 40.003906 37.746094 39.976562 37.761719 39.953125 37.777344 L 39.40625 38.074219 C 39.171875 38.179688 38.933594 38.277344 38.695312 38.367188 C 38.617188 38.398438 38.535156 38.425781 38.453125 38.457031 C 38.261719 38.523438 38.070312 38.585938 37.886719 38.640625 C 37.847656 38.652344 37.8125 38.660156 37.773438 38.671875 L 37.75 38.679688 C 37.710938 38.691406 37.671875 38.699219 37.632812 38.710938 L 37.625 38.710938 C 37.589844 38.722656 37.550781 38.730469 37.515625 38.738281 L 37.425781 38.761719 C 37.386719 38.769531 37.347656 38.78125 37.304688 38.789062 L 37.136719 38.824219 L 36.757812 38.890625 L 36.570312 38.917969 L 36.085938 38.957031 L 35.738281 38.964844 L 35.574219 38.960938 L 35.1875 38.929688 L 34.632812 38.828125 L 34.628906 38.828125 C 34.628906 38.828125 34.441406 38.777344 34.429688 38.769531 L 34.308594 38.734375 C 34.285156 38.726562 34.207031 38.699219 34.207031 38.699219 C 34.191406 38.691406 34.175781 38.6875 34.15625 38.679688 L 34.039062 38.632812 C 34.019531 38.625 33.902344 38.574219 33.902344 38.574219 C 33.882812 38.566406 33.863281 38.554688 33.847656 38.546875 L 33.726562 38.488281 L 33.609375 38.425781 L 33.296875 38.230469 C 33.289062 38.226562 33.28125 38.21875 33.273438 38.214844 L 33.226562 38.179688 C 33.214844 38.171875 33.203125 38.164062 33.191406 38.15625 L 33.015625 38.019531 C 33.007812 38.011719 33 38.007812 32.988281 37.996094 L 32.90625 37.925781 L 32.902344 37.921875 L 32.796875 37.820312 L 32.777344 37.800781 C 32.695312 37.714844 32.578125 37.585938 32.4375 37.433594 L 30.277344 35.066406 L 30.230469 35.011719 L 30.144531 34.859375 L 30.109375 34.738281 L 30.101562 34.65625 L 30.101562 34.585938 C 30.105469 34.578125 30.105469 34.574219 30.105469 34.558594 L 30.109375 34.546875 C 30.109375 34.539062 30.109375 34.53125 30.113281 34.519531 L 30.113281 34.503906 C 30.117188 34.496094 30.117188 34.488281 30.121094 34.476562 L 30.148438 34.394531 L 30.1875 34.3125 C 30.191406 34.304688 30.195312 34.296875 30.199219 34.289062 L 30.214844 34.265625 C 30.21875 34.257812 30.222656 34.253906 30.230469 34.246094 L 30.257812 34.214844 C 30.273438 34.203125 30.332031 34.164062 30.34375 34.152344 L 30.597656 34.101562 L 30.667969 34.097656 L 30.789062 34.105469 C 30.792969 34.105469 30.800781 34.105469 30.8125 34.109375 L 31.003906 34.152344 L 31.097656 34.1875 C 31.109375 34.191406 31.121094 34.199219 31.128906 34.203125 C 31.140625 34.207031 31.152344 34.214844 31.160156 34.21875 L 31.316406 34.320312 L 31.351562 34.355469 C 31.363281 34.363281 31.375 34.375 31.382812 34.386719 L 33.191406 36.339844 C 33.199219 36.347656 33.207031 36.355469 33.210938 36.359375 L 33.21875 36.367188 C 33.226562 36.375 33.234375 36.382812 33.246094 36.394531 C 33.269531 36.414062 33.296875 36.433594 33.328125 36.453125 L 33.40625 36.496094 C 33.414062 36.5 33.421875 36.5 33.429688 36.503906 L 33.433594 36.507812 C 33.441406 36.507812 33.449219 36.511719 33.457031 36.515625 L 33.480469 36.519531 C 33.484375 36.523438 33.492188 36.523438 33.496094 36.523438 C 33.507812 36.527344 33.519531 36.53125 33.535156 36.53125 L 33.621094 36.542969 C 33.628906 36.542969 33.632812 36.542969 33.640625 36.542969 C 33.640625 36.542969 33.644531 36.542969 33.644531 36.542969 L 33.652344 36.542969 C 33.667969 36.542969 33.683594 36.542969 33.703125 36.539062 L 33.722656 36.539062 C 33.738281 36.535156 33.753906 36.53125 33.773438 36.527344 L 33.882812 36.492188 L 33.910156 36.480469 C 33.972656 36.449219 34.027344 36.40625 34.078125 36.355469 C 34.089844 36.339844 34.101562 36.328125 34.113281 36.3125 C 34.253906 36.132812 34.277344 35.886719 34.171875 35.679688 L 30.078125 27.652344 C 30.058594 27.613281 30.042969 27.574219 30.03125 27.53125 L 30.03125 27.523438 C 29.980469 27.332031 30.023438 27.121094 30.148438 26.964844 C 30.152344 26.960938 30.15625 26.953125 30.164062 26.949219 C 30.207031 26.898438 30.257812 26.855469 30.316406 26.820312 C 30.328125 26.8125 30.34375 26.804688 30.359375 26.796875 C 30.371094 26.789062 30.386719 26.78125 30.398438 26.777344 C 30.410156 26.773438 30.417969 26.769531 30.425781 26.765625 L 30.449219 26.757812 C 30.511719 26.738281 30.574219 26.726562 30.640625 26.726562 C 30.882812 26.726562 31.113281 26.871094 31.226562 27.09375 L 33.917969 32.371094 L 33.921875 32.386719 L 34.011719 32.519531 L 34.019531 32.519531 L 34.058594 32.558594 C 34.0625 32.5625 34.070312 32.570312 34.074219 32.574219 L 34.085938 32.582031 C 34.089844 32.585938 34.097656 32.589844 34.097656 32.589844 L 34.125 32.613281 C 34.128906 32.617188 34.136719 32.621094 34.140625 32.621094 L 34.144531 32.625 C 34.152344 32.628906 34.15625 32.632812 34.164062 32.636719 C 34.167969 32.640625 34.171875 32.644531 34.175781 32.644531 L 34.253906 32.683594 C 34.261719 32.683594 34.269531 32.6875 34.277344 32.691406 L 34.308594 32.703125 L 34.363281 32.714844 C 34.375 32.71875 34.386719 32.71875 34.402344 32.722656 L 34.410156 32.722656 L 34.417969 32.726562 L 34.496094 32.730469 L 34.542969 32.726562 L 34.695312 32.707031 L 34.703125 32.695312 C 34.707031 32.691406 34.710938 32.691406 34.71875 32.6875 L 34.871094 32.617188 L 34.871094 32.605469 C 34.875 32.605469 34.875 32.605469 34.875 32.601562 C 34.882812 32.597656 34.886719 32.59375 34.894531 32.589844 L 34.914062 32.574219 C 34.925781 32.5625 34.9375 32.554688 34.945312 32.546875 C 34.945312 32.542969 34.949219 32.542969 34.953125 32.539062 L 34.957031 32.53125 C 34.964844 32.523438 34.972656 32.515625 34.980469 32.507812 L 34.984375 32.503906 C 34.992188 32.492188 35 32.480469 35.011719 32.46875 L 35.015625 32.464844 C 35.03125 32.441406 35.046875 32.417969 35.058594 32.390625 L 35.078125 32.355469 L 35.082031 32.347656 L 35.082031 32.34375 C 35.085938 32.339844 35.085938 32.335938 35.089844 32.332031 L 35.109375 32.28125 L 35.109375 32.269531 C 35.113281 32.257812 35.117188 32.246094 35.121094 32.234375 C 35.125 32.210938 35.128906 32.191406 35.132812 32.167969 L 35.132812 32.148438 C 35.136719 32.140625 35.136719 32.128906 35.136719 32.121094 C 35.136719 32.109375 35.136719 32.097656 35.136719 32.082031 C 35.136719 32.074219 35.136719 32.066406 35.136719 32.066406 L 35.136719 32.03125 C 35.132812 32.023438 35.132812 32.015625 35.132812 32.007812 L 35.128906 31.964844 L 35.121094 31.949219 C 35.121094 31.945312 35.121094 31.941406 35.121094 31.941406 C 35.121094 31.9375 35.117188 31.929688 35.113281 31.917969 L 35.09375 31.855469 C 35.089844 31.847656 35.085938 31.835938 35.082031 31.828125 L 35.078125 31.820312 C 35.074219 31.8125 35.070312 31.804688 35.066406 31.796875 L 33.609375 28.933594 C 33.546875 28.816406 33.527344 28.683594 33.546875 28.550781 C 33.578125 28.359375 33.6875 28.195312 33.851562 28.097656 C 33.863281 28.09375 33.875 28.085938 33.886719 28.078125 L 33.902344 28.070312 C 33.910156 28.066406 33.917969 28.0625 33.929688 28.058594 L 33.9375 28.058594 L 34.007812 28.03125 L 34.023438 28.027344 C 34.027344 28.027344 34.03125 28.027344 34.035156 28.027344 L 34.039062 28.023438 L 34.058594 28.019531 C 34.066406 28.019531 34.074219 28.019531 34.078125 28.015625 L 34.089844 28.015625 C 34.097656 28.015625 34.101562 28.015625 34.109375 28.015625 L 34.121094 28.011719 C 34.128906 28.011719 34.136719 28.011719 34.144531 28.011719 L 34.183594 28.011719 L 34.320312 28.03125 L 34.40625 28.058594 C 34.414062 28.0625 34.421875 28.0625 34.429688 28.066406 C 34.453125 28.078125 34.472656 28.085938 34.492188 28.097656 C 34.5 28.101562 34.507812 28.109375 34.519531 28.113281 C 34.523438 28.117188 34.527344 28.121094 34.535156 28.125 C 34.542969 28.132812 34.554688 28.140625 34.5625 28.144531 L 34.625 28.199219 L 34.691406 28.273438 L 36.40625 31.613281 C 36.4375 31.667969 36.472656 31.722656 36.519531 31.769531 C 36.574219 31.824219 36.636719 31.867188 36.703125 31.898438 C 36.707031 31.902344 36.714844 31.90625 36.714844 31.90625 C 36.753906 31.921875 36.792969 31.9375 36.832031 31.945312 L 36.917969 31.957031 C 36.925781 31.960938 36.933594 31.960938 36.9375 31.960938 L 37.007812 31.960938 C 37.023438 31.960938 37.039062 31.960938 37.054688 31.957031 L 37.097656 31.953125 L 37.144531 31.941406 C 37.152344 31.9375 37.15625 31.9375 37.164062 31.933594 L 37.304688 31.886719 L 37.304688 31.875 L 37.308594 31.871094 C 37.3125 31.867188 37.320312 31.863281 37.320312 31.863281 L 37.359375 31.839844 C 37.363281 31.835938 37.367188 31.832031 37.371094 31.828125 L 37.390625 31.8125 C 37.394531 31.808594 37.398438 31.804688 37.40625 31.800781 L 37.4375 31.769531 C 37.449219 31.757812 37.460938 31.75 37.464844 31.742188 L 37.472656 31.734375 C 37.488281 31.714844 37.503906 31.695312 37.519531 31.671875 L 37.527344 31.660156 C 37.542969 31.632812 37.558594 31.605469 37.570312 31.578125 L 37.574219 31.5625 C 37.578125 31.554688 37.578125 31.550781 37.582031 31.546875 L 37.589844 31.527344 C 37.589844 31.523438 37.589844 31.519531 37.589844 31.519531 C 37.59375 31.511719 37.59375 31.503906 37.597656 31.496094 L 37.609375 31.449219 L 37.617188 31.414062 C 37.617188 31.40625 37.617188 31.398438 37.617188 31.390625 L 37.621094 31.34375 L 37.621094 31.339844 C 37.621094 31.320312 37.621094 31.304688 37.621094 31.285156 L 37.605469 31.167969 C 37.59375 31.121094 37.574219 31.074219 37.554688 31.03125 L 36.316406 28.609375 L 36.308594 28.589844 C 36.300781 28.574219 36.296875 28.558594 36.289062 28.546875 L 36.277344 28.503906 L 36.253906 28.402344 L 36.25 28.324219 L 36.25 28.3125 C 36.25 28.300781 36.25 28.289062 36.25 28.277344 L 36.253906 28.246094 C 36.253906 28.230469 36.257812 28.21875 36.257812 28.207031 L 36.261719 28.191406 C 36.265625 28.179688 36.265625 28.167969 36.269531 28.15625 L 36.273438 28.144531 L 36.371094 27.941406 C 36.375 27.9375 36.382812 27.929688 36.386719 27.921875 C 36.394531 27.914062 36.402344 27.902344 36.410156 27.894531 C 36.460938 27.835938 36.527344 27.789062 36.597656 27.75 L 36.648438 27.726562 L 36.785156 27.691406 L 36.8125 27.6875 C 36.820312 27.6875 36.828125 27.683594 36.839844 27.683594 L 36.871094 27.683594 L 37 27.695312 C 37.007812 27.695312 37.015625 27.695312 37.027344 27.699219 C 37.035156 27.699219 37.039062 27.703125 37.050781 27.703125 L 37.054688 27.707031 C 37.066406 27.707031 37.074219 27.710938 37.085938 27.714844 C 37.089844 27.714844 37.09375 27.71875 37.101562 27.71875 L 37.140625 27.734375 L 37.285156 27.820312 C 37.289062 27.824219 37.292969 27.828125 37.296875 27.832031 L 37.363281 27.894531 C 37.375 27.910156 37.390625 27.925781 37.402344 27.941406 C 37.410156 27.953125 37.417969 27.964844 37.425781 27.976562 L 37.4375 28 C 37.445312 28.007812 37.449219 28.019531 37.457031 28.03125 L 39.015625 31.085938 L 39.0625 31.171875 L 39.074219 31.179688 C 39.082031 31.195312 39.09375 31.210938 39.105469 31.222656 C 39.230469 31.359375 39.40625 31.441406 39.589844 31.441406 C 39.691406 31.441406 39.789062 31.414062 39.878906 31.371094 C 40.144531 31.238281 40.28125 30.941406 40.214844 30.652344 C 40.203125 30.601562 40.1875 30.554688 40.164062 30.507812 L 39.011719 28.25 C 39 28.230469 38.992188 28.207031 38.980469 28.1875 C 38.957031 28.117188 38.941406 28.042969 38.9375 27.972656 C 38.9375 27.960938 38.9375 27.953125 38.9375 27.9375 L 38.9375 27.933594 C 38.941406 27.816406 38.972656 27.703125 39.03125 27.609375 C 39.039062 27.589844 39.050781 27.570312 39.066406 27.554688 C 39.105469 27.5 39.15625 27.453125 39.214844 27.414062 L 39.375 27.335938 L 39.511719 27.308594 L 39.566406 27.304688 L 39.660156 27.3125 L 39.695312 27.320312 L 39.707031 27.324219 L 39.722656 27.324219 L 39.882812 27.386719 L 39.925781 27.414062 L 39.980469 27.453125 L 40.09375 27.574219 L 40.15625 27.683594 L 40.296875 27.96875 L 40.511719 28.378906 L 42.335938 31.960938 L 42.398438 32.085938 L 42.464844 32.230469 C 42.472656 32.242188 42.480469 32.257812 42.484375 32.273438 L 42.527344 32.378906 C 42.535156 32.394531 42.542969 32.414062 42.546875 32.429688 L 42.550781 32.4375 C 42.558594 32.453125 42.5625 32.472656 42.570312 32.488281 L 42.605469 32.597656 C 42.609375 32.617188 42.617188 32.632812 42.621094 32.648438 L 42.703125 32.988281 C 42.730469 33.128906 42.746094 33.273438 42.757812 33.414062 C 42.8125 34.296875 42.53125 35.195312 41.941406 36.011719 Z M 43.527344 31.570312 C 43.519531 31.554688 43.476562 31.46875 43.171875 30.867188 L 41.246094 27.09375 C 40.925781 26.460938 40.28125 26.070312 39.566406 26.070312 C 39.269531 26.070312 38.984375 26.136719 38.71875 26.273438 C 38.65625 26.304688 38.589844 26.34375 38.523438 26.386719 C 38.507812 26.398438 38.492188 26.410156 38.476562 26.417969 C 38.308594 26.539062 38.164062 26.679688 38.046875 26.847656 C 37.886719 26.722656 37.710938 26.625 37.515625 26.554688 C 37.386719 26.507812 37.25 26.476562 37.113281 26.460938 C 37.082031 26.457031 37.046875 26.453125 37.019531 26.453125 C 36.984375 26.449219 36.949219 26.449219 36.914062 26.445312 L 36.882812 26.445312 C 36.585938 26.445312 36.300781 26.515625 36.035156 26.648438 C 35.9375 26.699219 35.84375 26.757812 35.753906 26.824219 L 35.746094 26.824219 L 35.707031 26.863281 C 35.582031 26.960938 35.46875 27.078125 35.375 27.207031 C 35.269531 27.121094 35.160156 27.050781 35.039062 26.988281 C 34.699219 26.808594 34.300781 26.738281 33.921875 26.789062 C 33.789062 26.808594 33.660156 26.839844 33.535156 26.886719 C 33.460938 26.914062 33.390625 26.941406 33.324219 26.976562 C 33.117188 27.082031 32.929688 27.226562 32.773438 27.398438 L 32.332031 26.535156 C 32.003906 25.890625 31.355469 25.492188 30.640625 25.492188 C 30.421875 25.492188 30.210938 25.527344 30.003906 25.601562 C 29.933594 25.628906 29.863281 25.660156 29.796875 25.695312 C 29.347656 25.917969 29.015625 26.304688 28.863281 26.78125 C 28.707031 27.257812 28.746094 27.765625 28.972656 28.210938 L 31.402344 32.980469 C 31.167969 32.902344 30.917969 32.859375 30.667969 32.859375 C 30.398438 32.859375 30.136719 32.910156 29.894531 33 C 29.832031 33.027344 29.769531 33.054688 29.707031 33.082031 C 29.621094 33.128906 29.539062 33.183594 29.464844 33.253906 C 29.34375 33.363281 29.238281 33.488281 29.152344 33.625 C 28.976562 33.902344 28.875 34.222656 28.863281 34.554688 C 28.859375 34.644531 28.863281 34.738281 28.871094 34.828125 C 28.914062 35.226562 29.082031 35.597656 29.355469 35.894531 L 31.472656 38.210938 C 31.9375 38.722656 32.03125 38.808594 32.074219 38.84375 C 33.09375 39.746094 34.351562 40.199219 35.808594 40.199219 C 37.054688 40.199219 38.441406 39.863281 39.925781 39.195312 L 40.015625 39.152344 C 40.839844 38.734375 41.558594 38.230469 42.15625 37.652344 C 42.742188 37.082031 43.199219 36.449219 43.515625 35.769531 C 44.164062 34.378906 44.167969 32.886719 43.527344 31.570312 " fill-opacity="1" fill-rule="nonzero"/></g></svg>