<svg xmlns="http://www.w3.org/2000/svg" xmlns:xlink="http://www.w3.org/1999/xlink" width="60" zoomAndPan="magnify" viewBox="0 0 45 44.999999" height="60" preserveAspectRatio="xMidYMid meet" version="1.0"><defs><clipPath id="4ae5837e9a"><path d="M 0 3.515625 L 45 3.515625 L 45 41.765625 L 0 41.765625 Z M 0 3.515625 " clip-rule="nonzero"/></clipPath></defs><g clip-path="url(#4ae5837e9a)"><path fill="#000000" d="M 41.132812 33.75 C 40.988281 33.585938 40.839844 33.421875 40.6875 33.265625 C 40.679688 33.292969 40.671875 33.320312 40.671875 33.351562 C 40.65625 33.421875 40.578125 33.503906 40.507812 33.511719 C 38.835938 33.753906 37.183594 34.707031 35.597656 35.28125 C 34.023438 35.855469 32.535156 36.683594 30.941406 37.179688 C 27.375 38.285156 23.875 39.65625 20.273438 40.640625 C 20.347656 40.746094 20.457031 40.820312 20.605469 40.847656 C 21.046875 40.832031 21.546875 40.683594 21.894531 40.601562 C 24.277344 40.039062 26.574219 39.144531 28.882812 38.328125 C 31.21875 37.503906 33.550781 36.667969 35.855469 35.753906 C 36.832031 35.367188 37.792969 34.90625 38.792969 34.574219 C 39.578125 34.3125 40.378906 34.089844 41.132812 33.75 Z M 41.632812 30.328125 C 41.667969 30.289062 41.699219 30.242188 41.734375 30.207031 C 39.054688 30.9375 36.3125 31.507812 33.648438 32.277344 C 30.042969 33.316406 26.457031 34.414062 22.832031 35.40625 C 22.828125 35.410156 22.828125 35.410156 22.820312 35.414062 C 22.492188 35.632812 22.175781 35.902344 21.878906 36.199219 C 22.667969 36.066406 23.335938 35.851562 23.898438 35.675781 C 24.59375 35.453125 25.136719 35.269531 25.554688 35.144531 C 26.394531 34.886719 26.734375 34.851562 26.746094 34.898438 C 26.761719 34.953125 26.457031 35.082031 25.644531 35.40625 C 25.242188 35.5625 24.707031 35.773438 24.011719 36.015625 C 23.339844 36.246094 22.515625 36.523438 21.46875 36.65625 C 21.269531 36.90625 21.082031 37.164062 20.921875 37.441406 C 21.128906 37.386719 21.324219 37.339844 21.507812 37.289062 C 21.863281 37.1875 22.179688 37.097656 22.460938 37.015625 C 23.039062 36.855469 23.484375 36.722656 23.835938 36.652344 C 24.535156 36.511719 24.808594 36.492188 24.820312 36.546875 C 24.832031 36.597656 24.578125 36.710938 23.910156 36.917969 C 23.570312 37.027344 23.128906 37.175781 22.566406 37.359375 C 22.28125 37.449219 21.964844 37.550781 21.613281 37.65625 C 21.324219 37.738281 21.007812 37.816406 20.671875 37.902344 C 20.566406 38.121094 20.476562 38.34375 20.40625 38.566406 C 20.574219 38.507812 20.734375 38.453125 20.890625 38.402344 C 21.203125 38.289062 21.488281 38.191406 21.746094 38.097656 C 22.265625 37.929688 22.667969 37.796875 22.988281 37.722656 C 23.632812 37.578125 23.875 37.558594 23.890625 37.613281 C 23.902344 37.664062 23.675781 37.777344 23.066406 37.984375 C 22.765625 38.089844 22.375 38.253906 21.867188 38.433594 C 21.613281 38.535156 21.328125 38.640625 21.015625 38.761719 C 20.789062 38.839844 20.539062 38.925781 20.277344 39.015625 C 20.246094 39.144531 20.214844 39.292969 20.183594 39.441406 C 20.300781 39.417969 20.414062 39.390625 20.519531 39.367188 C 20.734375 39.3125 20.929688 39.261719 21.105469 39.21875 C 21.460938 39.132812 21.738281 39.058594 21.957031 39.03125 C 22.394531 38.96875 22.5625 38.980469 22.574219 39.035156 C 22.582031 39.085938 22.429688 39.171875 22.019531 39.296875 C 21.816406 39.359375 21.550781 39.457031 21.203125 39.558594 C 21.027344 39.613281 20.828125 39.671875 20.613281 39.738281 C 20.46875 39.777344 20.300781 39.8125 20.132812 39.847656 C 20.121094 39.96875 20.121094 40.089844 20.132812 40.199219 C 22.171875 39.636719 24.132812 38.859375 26.152344 38.234375 C 27.988281 37.664062 29.925781 37.160156 31.703125 36.414062 C 33.507812 35.652344 35.320312 34.9375 37.144531 34.210938 C 37.941406 33.894531 38.742188 33.464844 39.570312 33.234375 C 39.957031 33.128906 40.167969 32.917969 40.316406 32.65625 C 39.707031 32.84375 39.183594 33.085938 38.714844 33.207031 C 38.140625 33.371094 37.6875 33.5 37.347656 33.574219 C 36.660156 33.738281 36.390625 33.765625 36.371094 33.714844 C 36.355469 33.664062 36.601562 33.542969 37.269531 33.3125 C 37.609375 33.199219 38.042969 33.046875 38.601562 32.867188 C 38.742188 32.824219 38.890625 32.773438 39.042969 32.714844 C 39.195312 32.65625 39.355469 32.59375 39.523438 32.527344 C 39.8125 32.410156 40.136719 32.296875 40.5 32.203125 C 40.558594 32.039062 40.632812 31.882812 40.707031 31.726562 C 40.238281 31.882812 39.820312 32.011719 39.460938 32.109375 C 38.949219 32.246094 38.542969 32.328125 38.226562 32.367188 C 37.914062 32.40625 37.695312 32.40625 37.554688 32.394531 C 37.414062 32.386719 37.351562 32.367188 37.351562 32.34375 C 37.351562 32.316406 37.40625 32.28125 37.539062 32.246094 C 37.671875 32.210938 37.882812 32.167969 38.179688 32.09375 C 38.480469 32.023438 38.867188 31.917969 39.363281 31.765625 C 39.808594 31.628906 40.347656 31.441406 40.988281 31.222656 C 41.066406 31.09375 41.148438 30.96875 41.238281 30.847656 C 40.9375 30.929688 40.671875 31.003906 40.4375 31.066406 C 40.050781 31.152344 39.738281 31.199219 39.507812 31.234375 C 39.035156 31.304688 38.851562 31.296875 38.84375 31.242188 C 38.835938 31.1875 39.003906 31.101562 39.453125 30.964844 C 39.675781 30.898438 39.96875 30.824219 40.347656 30.71875 C 40.699219 30.609375 41.125 30.476562 41.632812 30.328125 Z M 44.039062 28.699219 C 42.679688 26.546875 40.902344 24.699219 39.339844 22.699219 C 37.574219 20.441406 35.808594 18.1875 34.046875 15.929688 C 32.332031 13.742188 30.625 11.558594 28.917969 9.363281 C 28.167969 8.402344 27.570312 7.25 26.765625 6.347656 C 26.21875 5.734375 25.617188 5.210938 25.179688 4.523438 C 21.472656 5.558594 17.601562 6.136719 13.839844 6.945312 C 11.101562 7.527344 7.949219 7.511719 5.457031 8.914062 C 6.222656 9.699219 6.746094 10.734375 7.378906 11.625 C 8.3125 12.925781 9.242188 14.226562 10.160156 15.535156 C 11.71875 17.746094 13.503906 19.636719 14.796875 22.023438 C 16.011719 24.265625 17.867188 26.082031 19.238281 28.25 C 20.554688 30.335938 22.460938 32.167969 23.523438 34.40625 C 26.839844 33.480469 30.136719 32.476562 33.445312 31.527344 C 36.949219 30.519531 40.589844 29.851562 44.039062 28.699219 Z M 44.910156 28.632812 C 45.003906 28.78125 44.96875 28.980469 44.851562 29.105469 C 44.289062 29.683594 43.648438 29.894531 42.890625 30.085938 C 42.886719 30.085938 42.886719 30.09375 42.882812 30.09375 C 42.164062 30.832031 41.488281 31.65625 41.164062 32.648438 C 41.46875 32.953125 41.746094 33.277344 42.03125 33.597656 C 42.191406 33.777344 42.183594 34.085938 41.953125 34.210938 C 41.132812 34.648438 40.25 34.90625 39.367188 35.199219 C 38.242188 35.574219 37.164062 36.070312 36.0625 36.5 C 33.597656 37.46875 31.105469 38.371094 28.609375 39.246094 C 26.167969 40.105469 23.746094 41.054688 21.199219 41.542969 C 21.148438 41.550781 21.097656 41.558594 21.050781 41.566406 C 21.003906 41.597656 20.941406 41.621094 20.871094 41.632812 C 20.570312 41.671875 20.324219 41.632812 20.121094 41.542969 C 19.332031 41.351562 18.835938 40.695312 18.265625 39.839844 C 16.914062 37.828125 15.402344 35.917969 14.039062 33.910156 C 12.539062 31.714844 11.101562 29.472656 9.585938 27.289062 C 8.109375 25.15625 6.582031 23.054688 5.066406 20.949219 C 4.375 19.992188 3.625 19.066406 3.003906 18.066406 C 2.53125 17.296875 2.089844 16.417969 1.335938 15.886719 C 1.230469 15.8125 1.183594 15.710938 1.171875 15.605469 C -0.0117188 13.246094 1.90625 9.683594 4.035156 8.535156 C 4.074219 8.511719 4.117188 8.5 4.160156 8.492188 C 4.214844 8.457031 4.277344 8.4375 4.355469 8.4375 C 4.472656 8.4375 4.578125 8.449219 4.683594 8.476562 C 7.1875 6.867188 10.328125 6.902344 13.152344 6.296875 C 17.097656 5.449219 21.164062 4.847656 25.050781 3.753906 C 25.109375 3.738281 25.164062 3.734375 25.214844 3.742188 C 25.378906 3.660156 25.585938 3.679688 25.699219 3.886719 C 26.261719 4.925781 27.265625 5.621094 27.910156 6.609375 C 28.664062 7.773438 29.496094 8.859375 30.347656 9.949219 C 32.070312 12.160156 33.796875 14.367188 35.523438 16.578125 C 37.261719 18.796875 38.949219 21.0625 40.746094 23.230469 C 42.195312 24.988281 43.734375 26.671875 44.910156 28.632812 Z M 4.476562 9.210938 C 4.480469 9.214844 4.480469 9.21875 4.480469 9.21875 C 4.476562 9.21875 4.472656 9.21875 4.46875 9.21875 C 4.449219 9.21875 4.425781 9.21875 4.402344 9.21875 C 2.628906 10.191406 0.796875 13.386719 1.90625 15.355469 C 3.050781 16.261719 3.722656 17.789062 4.574219 18.953125 C 6.015625 20.945312 7.433594 22.957031 8.871094 24.953125 C 11.640625 28.800781 14.140625 32.835938 16.914062 36.679688 C 17.578125 37.609375 18.300781 38.5 18.929688 39.449219 C 19.066406 39.660156 19.21875 39.921875 19.386719 40.160156 C 19.363281 39.816406 19.398438 39.453125 19.464844 39.128906 C 19.824219 37.375 20.957031 35.730469 22.433594 34.746094 C 22.460938 34.726562 22.488281 34.710938 22.515625 34.699219 C 22.542969 34.683594 22.574219 34.671875 22.609375 34.660156 C 22.664062 34.648438 22.71875 34.632812 22.769531 34.617188 C 21.699219 32.464844 19.855469 30.671875 18.574219 28.640625 C 17.203125 26.46875 15.339844 24.679688 14.128906 22.414062 C 12.863281 20.039062 11.050781 18.117188 9.496094 15.925781 C 8.664062 14.753906 7.832031 13.578125 6.992188 12.40625 C 6.28125 11.410156 5.660156 10.15625 4.769531 9.320312 C 4.75 9.300781 4.734375 9.28125 4.722656 9.261719 C 4.703125 9.261719 4.6875 9.257812 4.671875 9.25 C 4.609375 9.25 4.539062 9.238281 4.476562 9.210938 " fill-opacity="1" fill-rule="nonzero"/></g><path fill="#000000" d="M 42.359375 27.820312 L 42.535156 28.042969 L 42.261719 28.148438 C 41.09375 28.597656 40.011719 28.847656 39.230469 29.003906 C 38.445312 29.148438 37.957031 29.195312 37.945312 29.140625 C 37.933594 29.082031 38.402344 28.933594 39.160156 28.714844 C 39.855469 28.503906 40.800781 28.234375 41.828125 27.847656 C 41.824219 27.84375 41.816406 27.835938 41.8125 27.828125 C 41.617188 27.589844 41.386719 27.367188 41.167969 27.109375 C 41.050781 26.988281 40.984375 26.859375 40.894531 26.738281 L 40.828125 26.648438 C 40.792969 26.589844 40.789062 26.570312 40.769531 26.53125 C 40.730469 26.46875 40.695312 26.402344 40.664062 26.335938 C 40.40625 25.816406 40.210938 25.351562 40.011719 24.976562 C 39.816406 24.609375 39.625 24.328125 39.472656 24.15625 C 39.324219 23.992188 39.207031 23.898438 39.230469 23.871094 C 39.246094 23.855469 39.375 23.878906 39.585938 24.03125 C 39.789062 24.179688 40.035156 24.449219 40.277344 24.820312 C 40.519531 25.191406 40.75 25.660156 41.015625 26.148438 C 41.050781 26.207031 41.082031 26.269531 41.121094 26.332031 L 41.164062 26.410156 L 41.230469 26.496094 C 41.324219 26.609375 41.40625 26.753906 41.503906 26.851562 C 41.605469 26.960938 41.707031 27.070312 41.808594 27.179688 C 41.921875 27.300781 42.039062 27.40625 42.144531 27.550781 C 42.21875 27.640625 42.289062 27.734375 42.359375 27.820312 " fill-opacity="1" fill-rule="nonzero"/><path fill="#000000" d="M 32.976562 15.253906 C 34.0625 16.699219 34.875 17.933594 34.78125 18.007812 C 34.683594 18.085938 33.726562 16.96875 32.632812 15.515625 C 31.546875 14.0625 30.746094 12.824219 30.839844 12.75 C 30.9375 12.675781 31.890625 13.796875 32.976562 15.253906 " fill-opacity="1" fill-rule="nonzero"/><path fill="#000000" d="M 29.425781 22.941406 C 29.335938 22.625 28.484375 21.925781 28.316406 21.71875 C 27.878906 21.160156 27.449219 20.59375 27.011719 20.035156 C 26.234375 19.046875 25.222656 18.078125 24.597656 16.988281 C 24.347656 16.554688 24.699219 16.199219 25.0625 16.039062 C 25.980469 15.636719 27.085938 15.296875 28.09375 15.042969 C 27.980469 14.855469 27.890625 14.660156 27.765625 14.472656 C 27.335938 13.8125 26.351562 14.488281 25.863281 14.632812 C 25.164062 14.828125 24 15.425781 23.253906 15.214844 C 22.679688 15.054688 22.160156 13.839844 21.816406 13.410156 C 21.296875 12.753906 21.179688 12.210938 20.320312 12.632812 C 20.046875 12.769531 19.757812 12.839844 19.464844 12.898438 C 20.144531 13.785156 20.847656 14.667969 21.453125 15.601562 C 21.53125 15.71875 21.464844 15.925781 21.316406 15.945312 C 20.355469 16.074219 19.480469 16.53125 18.527344 16.679688 C 18.484375 16.6875 17.128906 16.859375 17.253906 16.996094 C 17.4375 17.199219 17.605469 17.496094 17.761719 17.722656 C 18.15625 18.296875 21.144531 16.800781 21.988281 16.992188 C 23.441406 17.324219 24.332031 19.214844 25.1875 20.300781 C 25.742188 21.011719 26.347656 21.703125 26.859375 22.445312 C 27.269531 23.050781 27.613281 23.769531 28.660156 23.28125 C 28.859375 23.191406 29.203125 23.050781 29.425781 22.941406 Z M 29.535156 22.214844 C 29.890625 22.492188 30.003906 22.726562 29.878906 23.128906 C 29.871094 23.191406 29.839844 23.246094 29.769531 23.285156 C 29.269531 23.566406 28.132812 24.316406 27.523438 23.878906 C 26.664062 23.269531 26.097656 22.210938 25.457031 21.390625 C 24.578125 20.269531 23.746094 18.71875 22.65625 17.824219 C 21.507812 16.882812 19.09375 18.058594 17.855469 18.40625 C 17.75 18.433594 17.65625 18.386719 17.597656 18.296875 C 17.160156 17.667969 16.1875 16.992188 17.011719 16.390625 C 17.4375 16.085938 18.382812 16.253906 18.875 16.109375 C 19.53125 15.917969 20.183594 15.683594 20.859375 15.554688 C 20.234375 14.632812 19.523438 13.746094 18.859375 12.859375 C 18.773438 12.742188 18.859375 12.542969 18.996094 12.515625 C 19.703125 12.378906 20.316406 12.078125 20.992188 11.855469 C 21.066406 11.832031 21.167969 11.859375 21.21875 11.914062 C 21.847656 12.644531 22.535156 13.414062 23.023438 14.242188 C 23.558594 15.148438 25.210938 14.398438 25.976562 14.101562 C 26.394531 13.9375 27.136719 13.496094 27.605469 13.703125 C 28.171875 13.953125 28.25 14.585938 28.632812 15.023438 C 28.742188 15.152344 28.707031 15.371094 28.53125 15.410156 C 27.488281 15.664062 26.507812 16.113281 25.472656 16.398438 C 24.617188 16.636719 26 17.996094 26.136719 18.175781 C 26.535156 18.683594 26.9375 19.195312 27.335938 19.703125 C 28.03125 20.589844 28.644531 21.527344 29.535156 22.214844 " fill-opacity="1" fill-rule="nonzero"/><path fill="#000000" d="M 28.832031 31.824219 C 28.84375 31.882812 28.398438 32.046875 27.664062 32.253906 C 27.300781 32.359375 26.859375 32.480469 26.371094 32.601562 C 25.933594 32.734375 25.429688 33.003906 24.851562 33.179688 C 24.554688 33.257812 24.234375 33.355469 23.875 33.191406 C 23.558594 33.035156 23.378906 32.796875 23.222656 32.582031 C 22.921875 32.144531 22.730469 31.734375 22.546875 31.398438 C 22.371094 31.066406 22.214844 30.804688 22.09375 30.644531 C 22.0625 30.605469 22.035156 30.570312 22.011719 30.535156 C 21.988281 30.503906 21.960938 30.476562 21.945312 30.457031 C 21.90625 30.414062 21.890625 30.382812 21.898438 30.371094 C 21.90625 30.359375 21.941406 30.363281 21.996094 30.382812 C 22.019531 30.398438 22.054688 30.410156 22.089844 30.429688 C 22.125 30.457031 22.167969 30.484375 22.210938 30.519531 C 22.390625 30.667969 22.59375 30.917969 22.808594 31.238281 C 23.027344 31.558594 23.253906 31.960938 23.542969 32.34375 C 23.6875 32.53125 23.859375 32.714844 24.046875 32.800781 C 24.089844 32.820312 24.144531 32.824219 24.179688 32.839844 C 24.214844 32.839844 24.25 32.847656 24.277344 32.847656 C 24.300781 32.84375 24.324219 32.84375 24.347656 32.84375 C 24.46875 32.832031 24.597656 32.800781 24.726562 32.761719 C 24.992188 32.679688 25.25 32.578125 25.503906 32.480469 C 25.761719 32.378906 26.007812 32.277344 26.28125 32.210938 C 26.777344 32.109375 27.21875 32.019531 27.597656 31.953125 C 28.347656 31.820312 28.816406 31.765625 28.832031 31.824219 " fill-opacity="1" fill-rule="nonzero"/><path fill="#000000" d="M 27.941406 9.019531 C 28.046875 9.269531 28.089844 9.40625 28.0625 9.417969 C 28.035156 9.429688 27.941406 9.320312 27.796875 9.109375 C 27.652344 8.898438 27.414062 8.613281 27.101562 8.277344 C 26.949219 8.101562 26.765625 7.9375 26.59375 7.707031 C 26.421875 7.492188 26.242188 7.261719 26.050781 7.019531 C 25.863281 6.777344 25.664062 6.523438 25.460938 6.261719 C 25.359375 6.125 25.257812 5.988281 25.152344 5.847656 C 25.050781 5.71875 24.949219 5.601562 24.84375 5.535156 C 24.742188 5.457031 24.601562 5.457031 24.46875 5.445312 C 24.382812 5.449219 24.296875 5.457031 24.214844 5.464844 C 24.136719 5.476562 24.066406 5.492188 23.988281 5.507812 C 23.667969 5.574219 23.355469 5.621094 23.058594 5.691406 C 22.472656 5.839844 21.9375 5.96875 21.488281 6.089844 C 20.589844 6.3125 20.019531 6.402344 20.003906 6.347656 C 19.988281 6.285156 20.53125 6.089844 21.40625 5.789062 C 21.839844 5.636719 22.367188 5.472656 22.964844 5.300781 C 23.261719 5.222656 23.582031 5.160156 23.914062 5.085938 L 24.039062 5.058594 L 24.101562 5.046875 L 24.132812 5.039062 L 24.140625 5.035156 L 24.167969 5.035156 L 24.183594 5.03125 C 24.269531 5.027344 24.355469 5.019531 24.441406 5.011719 C 24.640625 5.019531 24.871094 5.027344 25.066406 5.160156 C 25.261719 5.285156 25.386719 5.445312 25.492188 5.582031 C 25.59375 5.722656 25.695312 5.859375 25.792969 5.992188 C 25.992188 6.265625 26.183594 6.523438 26.363281 6.773438 C 26.542969 7.023438 26.714844 7.261719 26.875 7.480469 C 27.015625 7.695312 27.199219 7.890625 27.335938 8.074219 C 27.625 8.449219 27.835938 8.777344 27.941406 9.019531 " fill-opacity="1" fill-rule="nonzero"/><path fill="#000000" d="M 22.027344 34.496094 C 22.042969 34.566406 21.730469 34.636719 21.382812 34.964844 C 21.210938 35.125 21.03125 35.351562 20.851562 35.621094 C 20.671875 35.890625 20.496094 36.210938 20.285156 36.550781 C 19.859375 37.199219 19.5 37.785156 19.292969 38.238281 C 19.082031 38.664062 19.015625 38.992188 18.945312 38.980469 C 18.898438 38.972656 18.847656 38.652344 19.007812 38.125 C 19.15625 37.617188 19.496094 36.96875 19.917969 36.3125 C 20.121094 35.992188 20.316406 35.664062 20.527344 35.386719 C 20.734375 35.109375 20.96875 34.875 21.195312 34.722656 C 21.425781 34.570312 21.636719 34.492188 21.789062 34.472656 C 21.9375 34.453125 22.023438 34.46875 22.027344 34.496094 " fill-opacity="1" fill-rule="nonzero"/><path fill="#000000" d="M 17.253906 23.304688 C 17.710938 23.953125 17.875 24.433594 17.824219 24.453125 C 17.765625 24.484375 17.519531 24.074219 17.011719 23.492188 C 16.765625 23.199219 16.453125 22.859375 16.128906 22.449219 C 15.96875 22.242188 15.789062 22.007812 15.652344 21.773438 C 15.503906 21.535156 15.351562 21.289062 15.195312 21.039062 C 14.550781 20.066406 13.898438 19.195312 13.53125 18.488281 C 13.351562 18.128906 13.214844 17.832031 13.164062 17.621094 C 13.101562 17.410156 13.078125 17.289062 13.105469 17.277344 C 13.171875 17.242188 13.375 17.699219 13.792969 18.324219 C 14.210938 18.972656 14.894531 19.796875 15.558594 20.800781 C 15.71875 21.050781 15.875 21.328125 16.011719 21.550781 C 16.152344 21.796875 16.300781 22 16.445312 22.207031 C 16.742188 22.613281 17.03125 22.980469 17.253906 23.304688 " fill-opacity="1" fill-rule="nonzero"/><path fill="#000000" d="M 17.683594 28.570312 C 17.710938 28.632812 17.4375 28.800781 17.074219 29.15625 C 16.886719 29.324219 16.691406 29.558594 16.480469 29.820312 C 16.285156 30.09375 16.085938 30.402344 15.90625 30.746094 C 15.726562 31.089844 15.59375 31.433594 15.488281 31.753906 C 15.394531 32.074219 15.320312 32.367188 15.292969 32.621094 C 15.21875 33.113281 15.25 33.457031 15.179688 33.460938 C 15.132812 33.46875 14.992188 33.167969 14.984375 32.601562 C 14.976562 32.324219 15.023438 31.996094 15.101562 31.644531 C 15.195312 31.292969 15.332031 30.917969 15.519531 30.546875 C 15.714844 30.175781 15.941406 29.847656 16.175781 29.566406 C 16.414062 29.296875 16.648438 29.070312 16.878906 28.917969 C 17.328125 28.597656 17.667969 28.523438 17.683594 28.570312 " fill-opacity="1" fill-rule="nonzero"/><path fill="#000000" d="M 14.359375 7.449219 C 14.371094 7.507812 14.027344 7.636719 13.453125 7.800781 C 12.875 7.945312 12.070312 8.09375 11.195312 8.238281 C 10.972656 8.277344 10.757812 8.320312 10.546875 8.359375 C 10.445312 8.375 10.34375 8.394531 10.242188 8.410156 L 10.167969 8.425781 L 10.109375 8.441406 C 10.0625 8.453125 10.015625 8.46875 9.96875 8.480469 C 9.601562 8.574219 9.265625 8.679688 8.96875 8.75 C 8.820312 8.78125 8.691406 8.8125 8.574219 8.835938 C 8.457031 8.847656 8.355469 8.859375 8.273438 8.863281 C 8.105469 8.875 8.011719 8.867188 8.003906 8.839844 C 7.996094 8.808594 8.078125 8.761719 8.234375 8.699219 C 8.3125 8.667969 8.410156 8.632812 8.519531 8.597656 C 8.625 8.550781 8.75 8.507812 8.882812 8.449219 C 9.15625 8.351562 9.476562 8.214844 9.859375 8.09375 C 9.90625 8.078125 9.953125 8.0625 10 8.046875 C 10.03125 8.035156 10.035156 8.03125 10.085938 8.019531 L 10.160156 8.003906 C 10.261719 7.984375 10.363281 7.960938 10.464844 7.941406 C 10.675781 7.894531 10.890625 7.851562 11.113281 7.808594 C 12.011719 7.664062 12.816406 7.566406 13.398438 7.492188 C 13.972656 7.410156 14.34375 7.386719 14.359375 7.449219 " fill-opacity="1" fill-rule="nonzero"/><path fill="#000000" d="M 14.324219 23.785156 C 14.347656 23.855469 14.054688 23.976562 13.652344 24.253906 C 13.453125 24.390625 13.230469 24.574219 13.015625 24.8125 C 12.804688 25.050781 12.597656 25.335938 12.417969 25.664062 C 12.0625 26.320312 11.859375 26.988281 11.703125 27.46875 C 11.554688 27.949219 11.457031 28.257812 11.394531 28.246094 C 11.335938 28.234375 11.332031 27.917969 11.40625 27.398438 C 11.488281 26.886719 11.652344 26.171875 12.039062 25.453125 C 12.234375 25.09375 12.476562 24.78125 12.730469 24.53125 C 12.988281 24.28125 13.257812 24.105469 13.496094 23.984375 C 13.980469 23.753906 14.3125 23.738281 14.324219 23.785156 " fill-opacity="1" fill-rule="nonzero"/><path fill="#000000" d="M 11.097656 18.785156 C 11.125 18.839844 10.859375 19.039062 10.457031 19.375 C 10.054688 19.714844 9.523438 20.203125 9.144531 20.886719 C 8.765625 21.566406 8.621094 22.285156 8.527344 22.800781 C 8.445312 23.3125 8.398438 23.65625 8.335938 23.65625 C 8.277344 23.652344 8.214844 23.328125 8.222656 22.769531 C 8.242188 22.226562 8.34375 21.433594 8.765625 20.671875 C 9.1875 19.910156 9.8125 19.410156 10.273438 19.125 C 10.746094 18.839844 11.066406 18.738281 11.097656 18.785156 " fill-opacity="1" fill-rule="nonzero"/><path fill="#000000" d="M 8.503906 11.25 C 9.335938 12.453125 9.929688 13.488281 9.832031 13.554688 C 9.734375 13.628906 8.980469 12.707031 8.148438 11.5 C 7.316406 10.296875 6.71875 9.261719 6.816406 9.195312 C 6.914062 9.125 7.667969 10.046875 8.503906 11.25 " fill-opacity="1" fill-rule="nonzero"/><path fill="#000000" d="M 7.328125 14.214844 C 7.367188 14.269531 7.148438 14.484375 6.820312 14.832031 C 6.738281 14.921875 6.65625 15.019531 6.5625 15.125 C 6.464844 15.222656 6.398438 15.355469 6.308594 15.472656 C 6.261719 15.535156 6.21875 15.597656 6.171875 15.660156 C 6.128906 15.738281 6.089844 15.816406 6.046875 15.890625 C 6.007812 15.96875 5.964844 16.050781 5.921875 16.132812 L 5.855469 16.253906 L 5.808594 16.359375 C 5.507812 17.042969 5.277344 17.664062 5.160156 18.125 C 5.035156 18.566406 5.042969 18.890625 4.976562 18.894531 C 4.925781 18.894531 4.804688 18.609375 4.855469 18.074219 C 4.90625 17.558594 5.105469 16.882812 5.410156 16.1875 L 5.441406 16.121094 L 5.453125 16.089844 L 5.460938 16.074219 L 5.480469 16.039062 L 5.546875 15.917969 C 5.589844 15.839844 5.632812 15.761719 5.679688 15.683594 C 5.722656 15.609375 5.769531 15.53125 5.808594 15.457031 C 5.867188 15.386719 5.921875 15.316406 5.976562 15.25 C 6.089844 15.117188 6.183594 14.976562 6.296875 14.878906 C 6.410156 14.78125 6.515625 14.691406 6.609375 14.605469 C 7.015625 14.300781 7.300781 14.171875 7.328125 14.214844 " fill-opacity="1" fill-rule="nonzero"/><path fill="#000000" d="M 4.480469 9.21875 C 4.5 9.234375 4.425781 9.21875 4.46875 9.21875 C 4.472656 9.21875 4.476562 9.21875 4.480469 9.21875 " fill-opacity="1" fill-rule="nonzero"/><path fill="#000000" d="M 4.398438 9.753906 C 4.433594 9.808594 4.171875 10.03125 3.816406 10.433594 C 3.457031 10.835938 3 11.429688 2.632812 12.160156 C 2.449219 12.527344 2.3125 12.886719 2.21875 13.222656 C 2.140625 13.5625 2.085938 13.871094 2.09375 14.136719 C 2.085938 14.644531 2.222656 14.992188 2.152344 15.011719 C 2.109375 15.027344 1.875 14.761719 1.785156 14.15625 C 1.734375 13.863281 1.765625 13.511719 1.828125 13.132812 C 1.910156 12.753906 2.050781 12.355469 2.242188 11.964844 C 2.644531 11.179688 3.164062 10.574219 3.601562 10.210938 C 4.039062 9.839844 4.371094 9.707031 4.398438 9.753906 " fill-opacity="1" fill-rule="nonzero"/></svg>