<svg xmlns="http://www.w3.org/2000/svg" xmlns:xlink="http://www.w3.org/1999/xlink" width="60" zoomAndPan="magnify" viewBox="0 0 45 44.999999" height="60" preserveAspectRatio="xMidYMid meet" version="1.0"><defs><clipPath id="e2a8f775bd"><path d="M 0 5.457031 L 45 5.457031 L 45 39.207031 L 0 39.207031 Z M 0 5.457031 " clip-rule="nonzero"/></clipPath></defs><g clip-path="url(#e2a8f775bd)"><path fill="#000000" d="M 10.144531 28.347656 C 10.636719 28.574219 11.15625 28.820312 11.726562 29.050781 C 10.777344 28.390625 9.859375 27.675781 8.925781 27.082031 C 7.230469 26 5.578125 24.851562 3.910156 23.726562 C 3.414062 24.832031 2.753906 25.804688 1.894531 26.640625 C 2.789062 26.941406 3.609375 27.398438 4.585938 27.542969 C 5.886719 27.738281 7.144531 27.964844 8.414062 28.3125 C 8.929688 28.453125 9.445312 28.582031 9.964844 28.707031 C 9.300781 28.390625 8.703125 28.105469 8.152344 27.886719 C 7.882812 27.765625 7.617188 27.6875 7.367188 27.59375 C 7.121094 27.503906 6.875 27.453125 6.652344 27.386719 C 6.195312 27.253906 5.796875 27.136719 5.449219 27.039062 C 5.101562 26.941406 4.816406 26.84375 4.578125 26.753906 C 4.339844 26.664062 4.152344 26.589844 4.007812 26.527344 C 3.710938 26.410156 3.59375 26.34375 3.601562 26.316406 C 3.609375 26.289062 3.75 26.308594 4.054688 26.378906 C 4.207031 26.414062 4.40625 26.464844 4.648438 26.53125 C 4.769531 26.566406 4.902344 26.605469 5.046875 26.644531 C 5.195312 26.683594 5.355469 26.71875 5.53125 26.761719 C 5.875 26.84375 6.273438 26.941406 6.730469 27.058594 C 6.964844 27.117188 7.21875 27.164062 7.480469 27.25 C 7.734375 27.339844 8.015625 27.417969 8.296875 27.535156 C 8.867188 27.753906 9.476562 28.035156 10.144531 28.347656 Z M 11.871094 31.527344 C 12.121094 31.550781 13.007812 31.730469 13.5 31.644531 C 12.769531 31.484375 12.066406 31.242188 11.34375 30.996094 C 10.109375 30.578125 8.894531 30.410156 7.589844 30.296875 C 6.367188 30.1875 4.992188 30.160156 3.8125 29.777344 C 2.925781 29.484375 2.085938 29.0625 1.191406 28.804688 C 1.15625 28.871094 1.113281 28.933594 1.070312 29 C 3.015625 30.132812 5.28125 30.511719 7.488281 30.867188 C 8.941406 31.105469 10.398438 31.402344 11.871094 31.527344 Z M 14.21875 29.613281 C 13.914062 29.304688 13.605469 29.007812 13.359375 28.742188 C 12.003906 27.296875 10.648438 25.855469 9.285156 24.417969 C 7.652344 22.691406 6.039062 20.941406 4.386719 19.230469 C 3.546875 19.941406 2.742188 20.6875 2.007812 21.503906 C 4.339844 22.988281 6.574219 24.617188 8.910156 26.101562 C 10.601562 27.179688 12.328125 28.742188 14.21875 29.613281 Z M 14.261719 30.960938 C 14.359375 30.894531 14.464844 30.835938 14.578125 30.78125 C 13.75 30.613281 12.96875 30.3125 12.136719 30.105469 C 10.816406 29.78125 9.507812 29.449219 8.195312 29.097656 C 6.921875 28.757812 5.664062 28.550781 4.367188 28.328125 C 3.398438 28.164062 2.585938 27.726562 1.707031 27.433594 C 1.671875 27.660156 1.613281 27.871094 1.542969 28.066406 C 2.386719 28.347656 3.167969 28.78125 4.03125 28.988281 C 5.382812 29.308594 6.753906 29.390625 8.128906 29.527344 C 9.148438 29.628906 10.160156 29.734375 11.136719 30.0625 C 12.167969 30.414062 13.175781 30.816406 14.261719 30.960938 Z M 16.574219 33.019531 C 16.574219 33.019531 16.527344 32.589844 16.492188 32.46875 C 16.46875 32.386719 16.441406 32.3125 16.410156 32.234375 C 16.277344 32.160156 16.226562 32.023438 16.238281 31.882812 C 16.042969 31.546875 15.753906 31.269531 15.367188 31.171875 C 15.285156 31.242188 15.210938 31.320312 15.136719 31.398438 C 15.105469 31.457031 15.058594 31.507812 14.988281 31.550781 C 14.953125 31.59375 14.914062 31.636719 14.875 31.683594 C 14.855469 31.703125 14.832031 31.722656 14.8125 31.734375 C 14.6875 31.867188 14.566406 31.996094 14.445312 32.125 C 14.527344 32.632812 15.414062 33.171875 15.96875 33.125 C 16.140625 33.113281 16.429688 33.121094 16.574219 33.019531 Z M 27.78125 16.953125 C 26.582031 14.691406 24.789062 12.546875 22.785156 10.933594 C 21.15625 9.621094 19.320312 8.40625 18.261719 6.574219 C 15.566406 8.34375 13.101562 10.34375 10.65625 12.441406 C 8.539062 14.25 6.207031 15.929688 4.304688 17.96875 C 6.324219 20.027344 8.273438 22.148438 10.25 24.242188 C 11.582031 25.652344 12.910156 27.058594 14.230469 28.472656 C 14.746094 29.023438 15.375 29.574219 15.84375 30.191406 C 17.972656 28.335938 19.417969 25.703125 21.320312 23.632812 C 23.417969 21.347656 25.855469 19.390625 27.78125 16.953125 Z M 32.371094 36.441406 C 32.34375 36.207031 32.328125 35.96875 32.304688 35.730469 C 31.363281 35.679688 30.484375 35.402344 29.570312 35.132812 C 28.359375 34.78125 27.113281 34.613281 25.871094 34.390625 C 25.359375 34.300781 24.851562 34.195312 24.339844 34.09375 C 24.761719 34.21875 25.175781 34.347656 25.59375 34.472656 C 27.824219 35.160156 30.050781 36.082031 32.371094 36.441406 Z M 33.566406 21.40625 C 34.996094 18.929688 36.621094 16.496094 38.335938 14.1875 C 35.019531 15.09375 31.867188 16.492188 28.554688 17.421875 C 28.511719 17.433594 28.472656 17.4375 28.433594 17.4375 C 26.570312 19.777344 24.25 21.65625 22.226562 23.855469 C 20.378906 25.867188 18.925781 28.382812 16.945312 30.292969 C 19.097656 29.945312 21.113281 29.136719 23.191406 28.507812 C 25.140625 27.921875 27.144531 27.617188 29.132812 27.203125 C 29.484375 27.097656 29.6875 27.023438 29.996094 26.613281 C 30.347656 26.152344 30.804688 25.792969 31.195312 25.378906 C 32.265625 24.246094 32.800781 22.738281 33.566406 21.40625 Z M 40.679688 15.269531 C 40.628906 15.167969 40.585938 15.066406 40.550781 14.960938 C 39.945312 14.996094 39.34375 15.09375 38.742188 15.171875 C 38.699219 15.175781 38.660156 15.171875 38.625 15.167969 C 36.855469 17.566406 35.15625 20.097656 33.800781 22.707031 C 33.132812 23.988281 32.542969 25.226562 31.492188 26.238281 C 31.003906 26.707031 30.660156 27.316406 30.195312 27.777344 C 29.914062 28.054688 29.332031 27.984375 28.96875 28.113281 C 28.871094 28.148438 28.789062 28.144531 28.714844 28.121094 C 26.617188 28.550781 24.519531 28.917969 22.472656 29.597656 C 22.050781 29.738281 21.628906 29.875 21.207031 30.015625 C 21.453125 29.957031 21.691406 29.894531 21.929688 29.839844 C 22.820312 29.625 23.652344 29.464844 24.40625 29.390625 C 25.898438 29.300781 27.003906 29.023438 27.882812 28.84375 C 28.75 28.660156 29.363281 28.5625 29.757812 28.53125 C 30.148438 28.503906 30.320312 28.507812 30.320312 28.539062 C 30.320312 28.609375 29.648438 28.675781 27.945312 29.125 C 27.515625 29.230469 27.019531 29.363281 26.4375 29.484375 C 26.148438 29.542969 25.835938 29.597656 25.5 29.648438 C 25.167969 29.6875 24.816406 29.726562 24.445312 29.765625 C 23.714844 29.851562 22.910156 30.007812 22.023438 30.230469 C 21.859375 30.269531 21.6875 30.3125 21.507812 30.359375 C 22.375 30.273438 23.234375 30.179688 24.09375 30.078125 C 26.355469 29.804688 28.660156 29.644531 30.875 29.089844 C 31.914062 28.054688 32.539062 26.671875 33.410156 25.5 C 34.261719 24.363281 35.136719 23.246094 36.019531 22.132812 C 37.746094 19.960938 39.046875 17.503906 40.679688 15.269531 Z M 41.125 18.0625 C 40.679688 18.058594 40.238281 18.0625 39.792969 18.113281 C 39.773438 18.117188 39.757812 18.117188 39.738281 18.117188 C 38.734375 19.675781 37.761719 21.253906 36.601562 22.710938 C 35.558594 24.027344 34.429688 25.335938 33.515625 26.75 C 32.882812 27.726562 32.34375 28.753906 31.527344 29.589844 C 31.492188 29.703125 31.40625 29.796875 31.253906 29.839844 C 28.925781 30.445312 26.484375 30.613281 24.09375 30.894531 C 24.066406 30.894531 24.03125 30.898438 24 30.902344 C 24.066406 30.90625 24.128906 30.90625 24.191406 30.910156 C 26.523438 30.988281 28.824219 31.5625 31.148438 31.570312 C 32.160156 30.503906 32.679688 29.164062 33.53125 27.976562 C 34.402344 26.761719 35.277344 25.550781 36.195312 24.371094 C 37.828125 22.265625 39.445312 20.132812 41.125 18.0625 Z M 42.023438 18.945312 C 41.863281 18.902344 41.699219 18.867188 41.535156 18.847656 C 39.632812 21.183594 37.765625 23.589844 35.980469 26.011719 C 35.152344 27.136719 34.28125 28.238281 33.589844 29.453125 C 33.015625 30.460938 32.449219 31.445312 31.621094 32.269531 C 31.515625 32.371094 31.398438 32.402344 31.289062 32.382812 C 31.269531 32.386719 31.253906 32.386719 31.238281 32.386719 C 28.703125 32.394531 26.21875 31.742188 23.675781 31.710938 C 22.082031 31.6875 20.488281 31.730469 18.894531 31.765625 C 19.636719 31.816406 20.378906 31.847656 21.125 31.9375 C 22.308594 32.074219 23.484375 32.269531 24.65625 32.453125 C 26.765625 32.785156 29.003906 32.703125 31.066406 33.273438 C 34.851562 28.597656 38.457031 23.785156 42.023438 18.945312 Z M 42.152344 21.105469 C 41.945312 21.066406 41.742188 21.039062 41.53125 21.015625 C 41.523438 21.015625 41.519531 21.011719 41.511719 21.011719 C 38.28125 25.367188 35.011719 29.695312 31.601562 33.914062 C 31.53125 34.089844 31.363281 34.210938 31.128906 34.140625 C 28.859375 33.4375 26.300781 33.542969 23.953125 33.160156 C 23.816406 33.140625 23.675781 33.121094 23.539062 33.101562 C 24.226562 33.25 24.910156 33.390625 25.597656 33.515625 C 26.847656 33.738281 28.15625 33.871094 29.371094 34.222656 C 30.324219 34.503906 31.253906 34.839844 32.238281 34.910156 C 34.496094 33.050781 35.910156 30.21875 37.601562 27.882812 C 39.179688 25.703125 40.832031 23.453125 42.152344 21.105469 Z M 42.648438 22.949219 C 42.648438 22.945312 42.648438 22.941406 42.644531 22.9375 C 42.59375 22.792969 42.554688 22.613281 42.527344 22.421875 C 42.484375 22.367188 42.457031 22.304688 42.453125 22.234375 C 41.050781 24.601562 39.359375 26.867188 37.742188 29.074219 C 36.210938 31.160156 35.015625 33.570312 33.050781 35.296875 C 33.050781 35.316406 33.050781 35.339844 33.050781 35.363281 C 33.082031 35.421875 33.105469 35.492188 33.113281 35.5625 C 33.140625 35.832031 33.152344 36.101562 33.183594 36.371094 C 35.085938 34.097656 37.101562 31.894531 38.605469 29.335938 C 39.886719 27.15625 41.035156 24.902344 42.648438 22.949219 Z M 44.023438 22.808594 C 43.828125 22.761719 43.628906 22.71875 43.433594 22.675781 C 43.433594 22.683594 43.433594 22.691406 43.4375 22.695312 C 43.464844 22.777344 43.464844 22.855469 43.449219 22.917969 C 43.5 23.050781 43.496094 23.207031 43.378906 23.34375 C 41.425781 25.640625 40.261719 28.417969 38.597656 30.898438 C 37.042969 33.21875 35.128906 35.28125 33.359375 37.433594 C 33.144531 37.699219 32.828125 37.550781 32.71875 37.304688 C 30.191406 36.984375 27.796875 36.003906 25.375 35.261719 C 22.714844 34.445312 20.042969 33.660156 17.402344 32.78125 C 17.390625 32.78125 17.382812 32.773438 17.371094 32.769531 C 17.378906 32.863281 17.378906 32.949219 17.367188 33.035156 C 22.632812 34.828125 27.589844 37.675781 33.203125 38.277344 C 33.214844 38.277344 33.21875 38.28125 33.230469 38.285156 C 34.417969 37.3125 35.078125 35.972656 35.945312 34.734375 C 36.84375 33.453125 37.917969 32.300781 38.859375 31.050781 C 39.925781 29.632812 40.914062 28.164062 41.910156 26.703125 C 42.753906 25.472656 43.550781 24.222656 44.023438 22.808594 Z M 44.660156 22.117188 C 44.878906 22.171875 45.007812 22.410156 44.949219 22.621094 C 44.484375 24.265625 43.59375 25.714844 42.621094 27.113281 C 41.613281 28.570312 40.648438 30.054688 39.570312 31.460938 C 38.457031 32.914062 37.195312 34.273438 36.21875 35.820312 C 35.488281 36.972656 34.78125 38.128906 33.679688 38.976562 C 33.589844 39.042969 33.496094 39.066406 33.402344 39.066406 C 33.347656 39.089844 33.285156 39.105469 33.203125 39.09375 C 27.414062 38.472656 22.34375 35.550781 16.902344 33.734375 C 16.65625 33.871094 16.332031 33.9375 15.96875 33.941406 C 15.128906 33.949219 14.105469 33.472656 13.753906 32.667969 C 13.722656 32.585938 13.691406 32.503906 13.671875 32.429688 C 11.242188 32.402344 8.824219 31.933594 6.4375 31.519531 C 4.289062 31.144531 2.132812 30.675781 0.285156 29.480469 C 0.105469 29.363281 0 29.109375 0.136719 28.921875 C 0.265625 28.738281 0.386719 28.5625 0.5 28.382812 C 0.488281 28.21875 0.570312 28.039062 0.726562 27.957031 C 0.808594 27.761719 0.871094 27.550781 0.90625 27.3125 C 0.90625 27.28125 0.914062 27.253906 0.921875 27.222656 C 0.652344 27.136719 0.472656 26.800781 0.75 26.574219 C 1.855469 25.664062 2.648438 24.566406 3.222656 23.265625 C 2.554688 22.820312 1.878906 22.382812 1.195312 21.957031 C 1.03125 21.851562 0.984375 21.6875 1.015625 21.539062 C 1.015625 21.449219 1.042969 21.355469 1.113281 21.269531 C 1.929688 20.308594 2.851562 19.453125 3.816406 18.644531 C 3.746094 18.574219 3.675781 18.5 3.605469 18.425781 C 3.351562 18.347656 3.167969 18 3.402344 17.738281 C 5.578125 15.285156 8.382812 13.296875 10.878906 11.175781 C 13.191406 9.210938 15.53125 7.363281 18.082031 5.707031 C 18.15625 5.664062 18.226562 5.644531 18.292969 5.644531 C 18.460938 5.570312 18.671875 5.59375 18.78125 5.8125 C 19.898438 8.03125 22.167969 9.242188 23.957031 10.855469 C 25.734375 12.449219 27.371094 14.425781 28.492188 16.539062 C 28.515625 16.546875 28.542969 16.554688 28.566406 16.566406 C 32.191406 15.523438 35.632812 13.941406 39.316406 13.101562 C 39.8125 12.988281 40.03125 13.699219 39.601562 13.863281 C 39.496094 14.003906 39.390625 14.140625 39.289062 14.28125 C 39.820312 14.207031 40.351562 14.136719 40.890625 14.128906 C 41.152344 14.125 41.285156 14.320312 41.289062 14.519531 C 41.308594 14.628906 41.335938 14.738281 41.378906 14.84375 C 41.382812 14.851562 41.425781 14.9375 41.429688 14.945312 C 41.460938 15 41.492188 15.050781 41.523438 15.101562 C 41.628906 15.277344 41.582031 15.449219 41.46875 15.566406 C 41.058594 16.121094 40.671875 16.6875 40.296875 17.261719 C 40.84375 17.230469 41.394531 17.253906 41.945312 17.253906 C 42.332031 17.253906 42.433594 17.6875 42.257812 17.921875 C 42.242188 17.964844 42.222656 18.003906 42.1875 18.042969 C 42.160156 18.074219 42.136719 18.109375 42.109375 18.140625 C 42.367188 18.203125 42.617188 18.285156 42.882812 18.398438 C 43.074219 18.480469 43.152344 18.792969 43.03125 18.953125 C 42.707031 19.394531 42.386719 19.828125 42.0625 20.269531 C 42.335938 20.304688 42.613281 20.359375 42.878906 20.441406 C 42.941406 20.460938 42.996094 20.492188 43.035156 20.53125 C 43.144531 20.597656 43.222656 20.710938 43.222656 20.878906 C 43.222656 21.257812 43.226562 21.550781 43.25 21.808594 C 43.726562 21.898438 44.191406 22.003906 44.660156 22.117188 " fill-opacity="1" fill-rule="nonzero"/></g></svg>