<svg xmlns="http://www.w3.org/2000/svg" xmlns:xlink="http://www.w3.org/1999/xlink" width="60" zoomAndPan="magnify" viewBox="0 0 45 44.999999" height="60" preserveAspectRatio="xMidYMid meet" version="1.0"><defs><clipPath id="e3f33c9d2d"><path d="M 2.46875 3.363281 L 42.96875 3.363281 L 42.96875 43.863281 L 2.46875 43.863281 Z M 2.46875 3.363281 " clip-rule="nonzero"/></clipPath></defs><g clip-path="url(#e3f33c9d2d)"><path fill="#000000" d="M 17.90625 36.042969 C 18.871094 36.265625 19.496094 37.003906 19.582031 38.054688 C 19.605469 38.339844 19.808594 38.5625 20.09375 38.617188 C 21.347656 38.859375 22.070312 39.976562 21.867188 41.128906 C 21.84375 41.265625 21.816406 41.363281 21.792969 41.433594 C 21.683594 41.746094 21.835938 42.085938 22.140625 42.214844 C 22.902344 42.535156 23.867188 42.960938 24.410156 43.179688 C 25.589844 43.65625 27.414062 42.191406 25.878906 41.34375 L 23.433594 40.164062 C 22.800781 39.992188 22.828125 39.199219 23.632812 39.375 C 23.976562 39.453125 24.339844 39.707031 24.667969 39.875 C 25.539062 40.3125 26.28125 40.742188 27.011719 41.097656 C 28.78125 41.960938 30.292969 40.050781 28.910156 39.253906 C 28.269531 38.886719 27.441406 38.433594 26.984375 38.175781 C 26.542969 37.925781 26.085938 37.675781 25.648438 37.414062 C 25.21875 37.152344 24.425781 36.925781 24.773438 36.382812 C 25.121094 36.011719 26.046875 36.769531 26.785156 37.179688 C 27.40625 37.527344 29.113281 38.414062 29.75 38.777344 C 31.503906 39.84375 33.15625 38.402344 31.558594 36.96875 C 31.332031 36.726562 26.808594 34.046875 26.277344 33.804688 C 25.660156 33.316406 26.316406 32.777344 26.761719 33.070312 L 33.316406 37.359375 C 34.84375 37.96875 36.28125 36.191406 35.082031 35.054688 C 31.761719 32.53125 28.335938 29.871094 24.515625 27.828125 C 23.863281 27.460938 22.773438 26.84375 22.410156 26.730469 C 20.976562 26.296875 19.308594 28.984375 18.398438 29.722656 C 17.054688 30.445312 15.351562 30.027344 14.796875 29.132812 C 14.246094 28.246094 15.519531 26.625 16.421875 25.449219 C 16.5625 25.269531 16.59375 25.046875 16.507812 24.835938 C 16.421875 24.625 16.242188 24.484375 16.015625 24.453125 C 15.648438 24.394531 15.277344 24.335938 14.902344 24.246094 C 14.339844 24.105469 14.03125 23.902344 13.710938 23.710938 C 13.5625 23.621094 13.402344 23.597656 13.230469 23.636719 C 13.0625 23.679688 12.933594 23.773438 12.839844 23.921875 C 11.902344 25.460938 9.285156 30.089844 8.546875 31.53125 C 8.421875 31.769531 8.464844 32.046875 8.652344 32.246094 C 9.019531 32.632812 9.328125 33.042969 9.652344 33.457031 C 9.75 33.585938 9.933594 33.617188 10.070312 33.53125 C 11.234375 32.796875 12.648438 32.800781 13.4375 34.113281 C 13.496094 34.207031 13.589844 34.261719 13.699219 34.265625 C 13.808594 34.269531 13.90625 34.21875 13.96875 34.128906 L 14.164062 33.851562 C 15.277344 32.714844 17.363281 33.660156 17.417969 35.453125 C 17.425781 35.738281 17.625 35.980469 17.90625 36.042969 Z M 20.234375 7.84375 C 20.226562 7.898438 20.226562 7.953125 20.265625 7.992188 C 20.300781 8.035156 20.355469 8.042969 20.414062 8.042969 L 21.804688 8.058594 C 22.035156 8.210938 22.425781 8.476562 22.71875 8.476562 C 23.011719 8.476562 23.402344 8.210938 23.628906 8.058594 L 25.023438 8.042969 C 25.078125 8.042969 25.132812 8.035156 25.171875 7.992188 C 25.207031 7.953125 25.207031 7.898438 25.203125 7.84375 C 25.089844 6.902344 24.753906 5.652344 24.472656 4.894531 C 24.183594 4.109375 23.546875 3.742188 22.71875 3.742188 C 21.886719 3.742188 21.253906 4.109375 20.960938 4.894531 C 20.679688 5.652344 20.34375 6.902344 20.234375 7.84375 Z M 19.785156 19.96875 L 19.699219 19.398438 L 19.613281 18.875 C 18.914062 18.921875 18.261719 18.660156 18.347656 17.804688 L 19.226562 10.582031 C 19.339844 9.933594 19.753906 9.554688 20.207031 9.367188 L 21.03125 9.058594 C 21.21875 8.984375 21.34375 9.007812 21.488281 9.195312 L 22.640625 10.546875 C 22.679688 10.589844 22.753906 10.589844 22.792969 10.546875 L 23.945312 9.195312 C 24.09375 9.007812 24.214844 8.984375 24.402344 9.058594 L 25.226562 9.367188 C 25.679688 9.554688 26.09375 9.933594 26.207031 10.582031 L 27.085938 17.804688 C 27.171875 18.660156 26.523438 18.921875 25.820312 18.875 L 25.738281 19.398438 L 25.664062 19.882812 C 25.636719 20.0625 25.542969 20.203125 25.394531 20.304688 C 25.242188 20.40625 25.078125 20.4375 24.898438 20.398438 C 23.425781 20.074219 22.023438 20.097656 20.574219 20.476562 C 20.394531 20.527344 20.21875 20.5 20.066406 20.398438 C 19.910156 20.296875 19.8125 20.152344 19.785156 19.96875 Z M 11.015625 3.378906 C 12.089844 3.378906 12.957031 4.238281 12.957031 5.300781 C 12.957031 6.363281 12.269531 8.007812 11.015625 8.007812 C 9.765625 8.007812 9.074219 6.363281 9.074219 5.300781 C 9.074219 4.238281 9.941406 3.378906 11.015625 3.378906 Z M 12.394531 8.652344 L 14.09375 9.285156 C 14.734375 9.523438 15.167969 10.042969 15.28125 10.699219 L 15.78125 13.46875 C 15.894531 14.101562 15.871094 14.65625 15.703125 15.277344 L 14.71875 18.882812 C 14.605469 19.296875 14.246094 19.578125 13.8125 19.578125 L 13.699219 19.578125 L 13.628906 20.792969 C 13.613281 21.019531 13.492188 21.207031 13.289062 21.3125 C 13.085938 21.414062 12.859375 21.40625 12.664062 21.289062 L 7.246094 17.988281 C 7.101562 17.902344 7.011719 17.78125 6.96875 17.621094 L 6.328125 15.277344 C 6.160156 14.65625 6.136719 14.101562 6.25 13.46875 L 6.75 10.699219 C 6.863281 10.042969 7.296875 9.523438 7.9375 9.285156 L 9.636719 8.652344 C 9.828125 8.574219 9.992188 8.574219 10.183594 8.613281 L 10.796875 8.753906 C 10.953125 8.789062 11.078125 8.789062 11.234375 8.753906 L 11.847656 8.613281 C 12.039062 8.574219 12.203125 8.574219 12.394531 8.652344 Z M 11.628906 9.484375 C 11.488281 9.511719 11.285156 9.535156 11.042969 9.535156 C 10.773438 9.535156 10.542969 9.511719 10.414062 9.460938 C 10.246094 9.460938 10.445312 9.757812 10.480469 9.800781 L 10.683594 10.066406 L 10.3125 15.1875 C 10.300781 15.316406 10.328125 15.441406 10.402344 15.554688 L 10.851562 16.085938 C 10.886719 16.148438 10.953125 16.175781 11.015625 16.175781 C 11.082031 16.175781 11.144531 16.148438 11.183594 16.085938 L 11.628906 15.554688 C 11.707031 15.441406 11.730469 15.316406 11.71875 15.1875 L 11.347656 10.066406 L 11.550781 9.800781 C 11.769531 9.550781 11.660156 9.476562 11.628906 9.484375 Z M 41.761719 31.285156 L 39.414062 32.714844 C 39.261719 32.804688 39.097656 32.832031 38.925781 32.789062 C 38.753906 32.746094 38.621094 32.644531 38.535156 32.492188 L 33.183594 23.304688 C 33.015625 23.011719 33.109375 22.636719 33.402344 22.457031 L 42.003906 17.21875 C 42.203125 17.097656 42.4375 17.09375 42.644531 17.207031 C 42.847656 17.320312 42.96875 17.519531 42.96875 17.753906 L 42.96875 29.148438 C 42.96875 30.046875 42.53125 30.816406 41.761719 31.285156 Z M 34.417969 3.378906 C 35.492188 3.378906 36.363281 4.238281 36.363281 5.300781 C 36.363281 6.363281 35.671875 8.007812 34.417969 8.007812 C 33.167969 8.007812 32.476562 6.363281 32.476562 5.300781 C 32.476562 4.238281 33.347656 3.378906 34.417969 3.378906 Z M 35.800781 8.652344 L 37.5 9.285156 C 38.136719 9.523438 38.570312 10.042969 38.6875 10.699219 L 39.183594 13.46875 C 39.300781 14.101562 39.273438 14.65625 39.105469 15.277344 L 38.546875 17.335938 C 38.5 17.496094 38.410156 17.621094 38.265625 17.707031 L 32.757812 21.0625 C 32.5625 21.179688 32.335938 21.1875 32.132812 21.082031 C 31.929688 20.980469 31.804688 20.789062 31.792969 20.5625 L 31.738281 19.578125 L 31.621094 19.578125 C 31.1875 19.578125 30.828125 19.296875 30.714844 18.882812 L 29.730469 15.277344 C 29.566406 14.65625 29.539062 14.101562 29.65625 13.46875 L 30.152344 10.699219 C 30.269531 10.042969 30.703125 9.523438 31.339844 9.285156 L 33.039062 8.652344 C 33.230469 8.574219 33.398438 8.574219 33.589844 8.613281 L 34.203125 8.753906 C 34.355469 8.789062 34.484375 8.789062 34.636719 8.753906 L 35.25 8.613281 C 35.441406 8.574219 35.605469 8.574219 35.796875 8.652344 Z M 35.03125 9.484375 C 34.890625 9.511719 34.6875 9.535156 34.445312 9.535156 C 34.175781 9.535156 33.945312 9.511719 33.820312 9.460938 C 33.652344 9.460938 33.847656 9.757812 33.882812 9.800781 L 34.085938 10.066406 L 33.71875 15.1875 C 33.703125 15.316406 33.730469 15.441406 33.804688 15.554688 L 34.253906 16.085938 C 34.292969 16.148438 34.355469 16.175781 34.417969 16.175781 C 34.484375 16.175781 34.546875 16.148438 34.585938 16.085938 L 35.03125 15.554688 C 35.109375 15.441406 35.136719 15.316406 35.121094 15.1875 L 34.75 10.066406 L 34.957031 9.800781 C 35.03125 9.714844 35.109375 9.613281 35.082031 9.511719 C 35.082031 9.5 35.066406 9.476562 35.03125 9.484375 Z M 10.953125 33.871094 C 10.5 34.027344 9.566406 35.28125 9.539062 35.792969 C 9.492188 36.648438 10.386719 37.523438 11.292969 37.214844 C 11.625 37.101562 12.816406 35.671875 12.84375 35.144531 C 12.894531 34.230469 11.890625 33.359375 10.953125 33.871094 Z M 18.808594 39.894531 L 17.605469 41.589844 C 16.886719 43.074219 18.457031 43.851562 19.425781 43.28125 C 19.652344 43.148438 20.945312 41.46875 21.070312 41.132812 C 21.511719 39.941406 19.765625 38.542969 18.808594 39.894531 Z M 17 36.875 C 16.503906 37.140625 15.152344 39.207031 14.785156 39.710938 C 13.710938 41.167969 15.519531 42.300781 16.460938 41.632812 C 16.765625 41.460938 18.105469 39.546875 18.464844 39.058594 C 19.488281 37.667969 18.027344 36.328125 17 36.875 Z M 14.902344 34.195312 C 14.40625 34.40625 12.476562 37.035156 11.945312 37.824219 C 10.976562 39.253906 12.640625 40.613281 13.792969 39.726562 C 14.203125 39.40625 15.554688 37.339844 15.929688 36.84375 C 16.285156 36.382812 16.867188 35.855469 16.542969 35.027344 C 16.332031 34.5 15.59375 33.902344 14.902344 34.195312 Z M 35.054688 33.535156 C 35.5625 33.105469 36.3125 32.417969 36.753906 31.976562 C 36.957031 31.773438 36.996094 31.476562 36.855469 31.230469 L 33.570312 25.40625 C 33.308594 24.964844 32.882812 24.285156 32.601562 23.746094 C 32.472656 23.492188 32.195312 23.359375 31.914062 23.417969 C 27.71875 24.253906 25.464844 20.589844 20.660156 22.039062 C 19.496094 22.390625 16.292969 26.527344 15.507812 28.230469 C 15.386719 28.496094 15.460938 28.804688 15.695312 28.984375 C 18.746094 31.347656 19.289062 24.1875 23.636719 26.511719 C 27.652344 28.660156 30.699219 30.769531 34.253906 33.550781 C 34.492188 33.738281 34.824219 33.730469 35.054688 33.535156 Z M 2.46875 29.386719 L 2.46875 17.988281 C 2.46875 17.757812 2.585938 17.554688 2.792969 17.441406 C 2.996094 17.328125 3.230469 17.332031 3.433594 17.457031 L 12.03125 22.695312 C 12.324219 22.871094 12.417969 23.246094 12.25 23.539062 L 6.902344 32.730469 C 6.8125 32.882812 6.679688 32.980469 6.507812 33.023438 C 6.335938 33.066406 6.171875 33.042969 6.023438 32.949219 L 3.671875 31.519531 C 2.902344 31.050781 2.46875 30.28125 2.46875 29.386719 Z M 2.46875 29.386719 " fill-opacity="1" fill-rule="evenodd"/></g></svg>