<svg xmlns="http://www.w3.org/2000/svg" xmlns:xlink="http://www.w3.org/1999/xlink" width="60" zoomAndPan="magnify" viewBox="0 0 45 44.999999" height="60" preserveAspectRatio="xMidYMid meet" version="1.0"><defs><clipPath id="018f4ffd58"><path d="M 4.5 0.910156 L 40.5 0.910156 L 40.5 44.410156 L 4.5 44.410156 Z M 4.5 0.910156 " clip-rule="nonzero"/></clipPath></defs><g clip-path="url(#018f4ffd58)"><path fill="#040606" d="M 20.578125 2.429688 C 22.085938 3.339844 29.726562 8.394531 31.921875 18.703125 C 32.035156 19.230469 32.4375 19.632812 32.964844 19.75 C 33.496094 19.867188 34.023438 19.667969 34.34375 19.234375 C 34.910156 18.46875 35.382812 17.464844 35.75 16.257812 C 37.011719 18.230469 39.023438 22.167969 39.023438 27.226562 C 39.023438 32.445312 36.335938 37.078125 32.21875 39.945312 C 34.210938 37.652344 35.429688 34.660156 35.429688 31.375 C 35.429688 24.199219 29.628906 18.355469 22.5 18.355469 C 15.371094 18.355469 9.570312 24.199219 9.570312 31.375 C 9.570312 34.660156 10.789062 37.652344 12.78125 39.945312 C 8.664062 37.078125 5.976562 32.445312 5.976562 27.226562 C 5.976562 24.433594 6.496094 22.160156 6.917969 20.75 C 7.390625 21.90625 7.976562 22.828125 8.65625 23.484375 C 9.070312 23.882812 9.664062 23.992188 10.199219 23.761719 C 10.730469 23.539062 11.070312 23.042969 11.082031 22.464844 C 11.109375 20.792969 11.574219 17.570312 14.386719 14.742188 C 18.59375 10.515625 20.386719 7.867188 20.578125 2.429688 Z M 22.5 42.953125 C 16.160156 42.953125 11.007812 37.761719 11.007812 31.375 C 11.007812 24.996094 16.160156 19.800781 22.5 19.800781 C 28.839844 19.800781 33.992188 24.996094 33.992188 31.375 C 33.992188 37.761719 28.839844 42.953125 22.5 42.953125 Z M 22.5 44.410156 C 32.402344 44.410156 40.457031 36.699219 40.457031 27.226562 C 40.457031 21.671875 38.207031 17.386719 36.863281 15.328125 C 36.570312 14.875 36.054688 14.648438 35.519531 14.726562 C 34.988281 14.804688 34.566406 15.175781 34.417969 15.691406 C 34.050781 16.949219 33.621094 17.753906 33.292969 18.230469 C 30.921875 7.449219 22.902344 2.144531 21.316406 1.1875 C 20.882812 0.921875 20.359375 0.914062 19.914062 1.15625 C 19.46875 1.398438 19.195312 1.84375 19.175781 2.347656 C 18.976562 7.25 17.484375 9.589844 13.371094 13.71875 C 10.203125 16.90625 9.675781 20.550781 9.648438 22.433594 C 9.121094 21.929688 8.636719 21.15625 8.25 20.199219 C 8.011719 19.628906 7.46875 19.269531 6.855469 19.308594 C 6.246094 19.335938 5.738281 19.734375 5.558594 20.320312 C 5.09375 21.824219 4.542969 24.253906 4.542969 27.226562 C 4.542969 36.699219 12.597656 44.410156 22.5 44.410156 " fill-opacity="1" fill-rule="nonzero"/></g><path fill="#040606" d="M 16.464844 27.90625 C 16.148438 27.667969 15.699219 27.734375 15.460938 28.054688 L 14.597656 29.210938 L 14.597656 28.488281 C 14.597656 28.089844 14.277344 27.761719 13.878906 27.761719 C 13.484375 27.761719 13.160156 28.089844 13.160156 28.488281 L 13.160156 34.277344 C 13.160156 34.675781 13.484375 35 13.878906 35 C 14.277344 35 14.597656 34.675781 14.597656 34.277344 L 14.597656 33.554688 L 15.460938 34.710938 C 15.601562 34.902344 15.816406 35 16.035156 35 C 16.1875 35 16.335938 34.953125 16.464844 34.855469 C 16.785156 34.617188 16.847656 34.164062 16.609375 33.84375 L 14.777344 31.382812 L 16.609375 28.917969 C 16.847656 28.601562 16.785156 28.148438 16.464844 27.90625 " fill-opacity="1" fill-rule="nonzero"/><path fill="#040606" d="M 19.625 29.210938 C 20.023438 29.210938 20.34375 29.535156 20.34375 29.933594 C 20.34375 30.332031 20.667969 30.660156 21.0625 30.660156 C 21.457031 30.660156 21.78125 30.332031 21.78125 29.933594 C 21.78125 28.734375 20.816406 27.761719 19.625 27.761719 C 18.4375 27.761719 17.472656 28.734375 17.472656 29.933594 L 17.472656 32.832031 C 17.472656 34.027344 18.4375 35 19.625 35 C 20.816406 35 21.78125 34.027344 21.78125 32.832031 C 21.78125 32.429688 21.457031 32.105469 21.0625 32.105469 C 20.667969 32.105469 20.34375 32.429688 20.34375 32.832031 C 20.34375 33.230469 20.023438 33.554688 19.625 33.554688 C 19.230469 33.554688 18.910156 33.230469 18.910156 32.832031 L 18.910156 29.933594 C 18.910156 29.535156 19.230469 29.210938 19.625 29.210938 " fill-opacity="1" fill-rule="nonzero"/><path fill="#040606" d="M 26.089844 31.382812 L 24.65625 31.382812 L 24.65625 29.933594 C 24.65625 29.535156 24.976562 29.210938 25.375 29.210938 C 25.769531 29.210938 26.089844 29.535156 26.089844 29.933594 Z M 25.375 27.761719 C 24.183594 27.761719 23.21875 28.734375 23.21875 29.933594 L 23.21875 34.277344 C 23.21875 34.675781 23.542969 35 23.9375 35 C 24.332031 35 24.65625 34.675781 24.65625 34.277344 L 24.65625 32.832031 L 26.089844 32.832031 L 26.089844 34.277344 C 26.089844 34.675781 26.414062 35 26.808594 35 C 27.207031 35 27.527344 34.675781 27.527344 34.277344 L 27.527344 29.933594 C 27.527344 28.734375 26.5625 27.761719 25.375 27.761719 " fill-opacity="1" fill-rule="nonzero"/><path fill="#040606" d="M 31.839844 33.554688 L 30.402344 33.554688 L 30.402344 28.488281 C 30.402344 28.089844 30.078125 27.761719 29.683594 27.761719 C 29.289062 27.761719 28.964844 28.089844 28.964844 28.488281 L 28.964844 34.277344 C 28.964844 34.675781 29.289062 35 29.683594 35 L 31.839844 35 C 32.234375 35 32.558594 34.675781 32.558594 34.277344 C 32.558594 33.878906 32.234375 33.554688 31.839844 33.554688 " fill-opacity="1" fill-rule="nonzero"/></svg>