<svg xmlns="http://www.w3.org/2000/svg" xmlns:xlink="http://www.w3.org/1999/xlink" width="40" zoomAndPan="magnify" viewBox="0 0 45 44.999999" height="40" preserveAspectRatio="xMidYMid meet" version="1.0"><defs><clipPath id="e382f399be"><path d="M 1.875 1.875 L 43.125 1.875 L 43.125 43.125 L 1.875 43.125 Z M 1.875 1.875 " clip-rule="nonzero"/></clipPath></defs><path fill="#000000" d="M 17.621094 27.417969 C 17.71875 27.496094 17.777344 27.597656 17.792969 27.722656 C 17.808594 27.84375 17.78125 27.957031 17.703125 28.058594 C 17.628906 28.160156 17.53125 28.21875 17.40625 28.238281 C 17.28125 28.257812 17.167969 28.230469 17.066406 28.160156 L 15.65625 27.09375 L 15.65625 27.792969 C 15.652344 27.917969 15.605469 28.023438 15.515625 28.113281 C 15.425781 28.199219 15.320312 28.242188 15.195312 28.242188 C 15.070312 28.242188 14.960938 28.199219 14.871094 28.113281 C 14.78125 28.023438 14.734375 27.917969 14.734375 27.792969 L 14.734375 24.570312 C 14.734375 24.441406 14.777344 24.332031 14.867188 24.242188 C 14.957031 24.152344 15.0625 24.105469 15.191406 24.105469 C 15.808594 24.128906 15.628906 24.851562 15.65625 25.257812 L 17.066406 24.203125 C 17.167969 24.125 17.28125 24.09375 17.40625 24.113281 C 17.535156 24.128906 17.636719 24.1875 17.710938 24.292969 C 17.785156 24.394531 17.816406 24.507812 17.796875 24.632812 C 17.78125 24.757812 17.722656 24.859375 17.621094 24.9375 L 15.964844 26.179688 Z M 17.621094 27.417969 " fill-opacity="1" fill-rule="nonzero"/><path fill="#000000" d="M 19.8125 25.105469 L 19.8125 27.25 C 19.8125 27.300781 19.839844 27.328125 19.890625 27.328125 L 20.964844 27.328125 C 21.019531 27.328125 21.046875 27.304688 21.042969 27.25 C 21.042969 27.121094 21.089844 27.015625 21.179688 26.925781 C 21.269531 26.835938 21.375 26.789062 21.503906 26.789062 C 21.632812 26.789062 21.738281 26.835938 21.828125 26.925781 C 21.921875 27.015625 21.964844 27.121094 21.964844 27.25 C 21.964844 27.382812 21.941406 27.511719 21.890625 27.632812 C 21.839844 27.753906 21.765625 27.863281 21.671875 27.957031 C 21.578125 28.050781 21.472656 28.125 21.347656 28.175781 C 21.226562 28.222656 21.097656 28.25 20.964844 28.25 L 19.890625 28.25 C 19.613281 28.246094 19.378906 28.148438 19.1875 27.953125 C 18.992188 27.757812 18.898438 27.523438 18.898438 27.25 L 18.898438 25.105469 C 18.898438 24.828125 18.996094 24.59375 19.1875 24.402344 C 19.382812 24.207031 19.617188 24.109375 19.890625 24.105469 L 20.964844 24.105469 C 21.097656 24.105469 21.226562 24.128906 21.347656 24.179688 C 21.46875 24.230469 21.578125 24.304688 21.671875 24.398438 C 21.765625 24.492188 21.839844 24.597656 21.890625 24.722656 C 21.941406 24.84375 21.964844 24.972656 21.964844 25.105469 C 21.964844 25.230469 21.921875 25.339844 21.828125 25.429688 C 21.738281 25.519531 21.632812 25.566406 21.503906 25.566406 C 21.375 25.566406 21.269531 25.519531 21.179688 25.429688 C 21.089844 25.339844 21.042969 25.230469 21.042969 25.105469 C 21.046875 25.050781 21.019531 25.023438 20.964844 25.027344 L 19.890625 25.027344 C 19.839844 25.027344 19.8125 25.054688 19.8125 25.105469 Z M 19.8125 25.105469 " fill-opacity="1" fill-rule="nonzero"/><path fill="#000000" d="M 25.128906 24.105469 L 24.054688 24.105469 C 23.777344 24.105469 23.542969 24.203125 23.351562 24.398438 C 23.15625 24.59375 23.0625 24.828125 23.0625 25.105469 L 23.0625 27.792969 C 23.0625 27.917969 23.109375 28.023438 23.199219 28.109375 C 23.289062 28.199219 23.394531 28.242188 23.523438 28.242188 C 23.648438 28.242188 23.753906 28.199219 23.84375 28.109375 C 23.933594 28.023438 23.980469 27.917969 23.980469 27.792969 L 23.980469 26.636719 L 25.207031 26.636719 L 25.207031 27.792969 C 25.207031 27.917969 25.25 28.027344 25.339844 28.113281 C 25.429688 28.203125 25.539062 28.25 25.664062 28.25 C 25.789062 28.25 25.898438 28.203125 25.988281 28.113281 C 26.078125 28.027344 26.121094 27.917969 26.121094 27.792969 L 26.121094 25.105469 C 26.121094 24.828125 26.027344 24.59375 25.832031 24.398438 C 25.636719 24.203125 25.40625 24.105469 25.128906 24.105469 Z M 25.207031 25.714844 L 23.980469 25.714844 L 23.980469 25.105469 C 23.980469 25.054688 24.003906 25.027344 24.054688 25.027344 L 25.128906 25.027344 C 25.183594 25.023438 25.210938 25.050781 25.207031 25.105469 Z M 25.207031 25.714844 " fill-opacity="1" fill-rule="nonzero"/><path fill="#000000" d="M 29.820312 28.25 L 27.683594 28.25 C 27.554688 28.25 27.445312 28.207031 27.355469 28.117188 C 27.265625 28.027344 27.21875 27.917969 27.21875 27.792969 L 27.21875 24.570312 C 27.21875 24.441406 27.261719 24.332031 27.351562 24.242188 C 27.441406 24.152344 27.550781 24.109375 27.679688 24.109375 C 27.804688 24.109375 27.914062 24.152344 28.003906 24.242188 C 28.09375 24.332031 28.140625 24.441406 28.140625 24.570312 L 28.140625 27.328125 L 29.820312 27.328125 C 29.949219 27.328125 30.054688 27.375 30.144531 27.464844 C 30.230469 27.554688 30.277344 27.664062 30.277344 27.789062 C 30.277344 27.914062 30.230469 28.023438 30.144531 28.113281 C 30.054688 28.203125 29.949219 28.246094 29.820312 28.25 Z M 29.820312 28.25 " fill-opacity="1" fill-rule="nonzero"/><g clip-path="url(#e382f399be)"><path fill="#000000" d="M 22.5 1.875 C 21.824219 1.875 21.152344 1.90625 20.476562 1.972656 C 19.804688 2.039062 19.140625 2.140625 18.476562 2.269531 C 17.8125 2.402344 17.160156 2.566406 16.511719 2.761719 C 15.867188 2.960938 15.230469 3.1875 14.605469 3.445312 C 13.984375 3.703125 13.375 3.992188 12.777344 4.308594 C 12.183594 4.628906 11.601562 4.976562 11.042969 5.351562 C 10.480469 5.726562 9.9375 6.128906 9.414062 6.558594 C 8.894531 6.984375 8.394531 7.4375 7.914062 7.914062 C 7.4375 8.394531 6.984375 8.894531 6.558594 9.414062 C 6.128906 9.9375 5.726562 10.480469 5.351562 11.042969 C 4.976562 11.601562 4.628906 12.183594 4.308594 12.777344 C 3.992188 13.375 3.703125 13.984375 3.445312 14.605469 C 3.1875 15.230469 2.960938 15.867188 2.761719 16.511719 C 2.566406 17.160156 2.402344 17.8125 2.269531 18.476562 C 2.140625 19.140625 2.039062 19.804688 1.972656 20.476562 C 1.90625 21.152344 1.875 21.824219 1.875 22.5 C 1.875 23.175781 1.90625 23.847656 1.972656 24.523438 C 2.039062 25.195312 2.140625 25.859375 2.269531 26.523438 C 2.402344 27.1875 2.566406 27.839844 2.761719 28.488281 C 2.960938 29.132812 3.1875 29.769531 3.445312 30.394531 C 3.703125 31.015625 3.992188 31.625 4.308594 32.222656 C 4.628906 32.816406 4.976562 33.398438 5.351562 33.957031 C 5.726562 34.519531 6.128906 35.0625 6.558594 35.585938 C 6.984375 36.105469 7.4375 36.605469 7.914062 37.085938 C 8.394531 37.5625 8.894531 38.015625 9.414062 38.441406 C 9.9375 38.871094 10.480469 39.273438 11.042969 39.648438 C 11.601562 40.023438 12.183594 40.371094 12.777344 40.691406 C 13.375 41.007812 13.984375 41.296875 14.605469 41.554688 C 15.230469 41.8125 15.867188 42.039062 16.511719 42.238281 C 17.160156 42.433594 17.8125 42.597656 18.476562 42.730469 C 19.140625 42.859375 19.804688 42.960938 20.476562 43.027344 C 21.152344 43.09375 21.824219 43.125 22.5 43.125 C 23.175781 43.125 23.847656 43.09375 24.523438 43.027344 C 25.195312 42.960938 25.859375 42.859375 26.523438 42.730469 C 27.1875 42.597656 27.839844 42.433594 28.488281 42.238281 C 29.132812 42.039062 29.769531 41.8125 30.394531 41.554688 C 31.015625 41.296875 31.625 41.007812 32.222656 40.691406 C 32.816406 40.371094 33.398438 40.023438 33.957031 39.648438 C 34.519531 39.273438 35.0625 38.871094 35.585938 38.441406 C 36.105469 38.015625 36.605469 37.5625 37.085938 37.085938 C 37.5625 36.605469 38.015625 36.105469 38.441406 35.585938 C 38.871094 35.0625 39.273438 34.519531 39.648438 33.957031 C 40.023438 33.398438 40.371094 32.816406 40.691406 32.222656 C 41.007812 31.625 41.296875 31.015625 41.554688 30.394531 C 41.8125 29.769531 42.039062 29.132812 42.238281 28.488281 C 42.433594 27.839844 42.597656 27.1875 42.730469 26.523438 C 42.859375 25.859375 42.960938 25.195312 43.027344 24.523438 C 43.09375 23.847656 43.125 23.175781 43.125 22.5 C 43.125 21.824219 43.089844 21.152344 43.027344 20.476562 C 42.960938 19.804688 42.859375 19.140625 42.726562 18.476562 C 42.597656 17.8125 42.433594 17.160156 42.234375 16.511719 C 42.039062 15.867188 41.8125 15.230469 41.554688 14.609375 C 41.296875 13.984375 41.007812 13.375 40.6875 12.777344 C 40.371094 12.183594 40.023438 11.605469 39.648438 11.042969 C 39.273438 10.480469 38.871094 9.9375 38.441406 9.417969 C 38.015625 8.894531 37.5625 8.394531 37.082031 7.917969 C 36.605469 7.4375 36.105469 6.984375 35.582031 6.558594 C 35.0625 6.128906 34.519531 5.726562 33.957031 5.351562 C 33.394531 4.976562 32.816406 4.628906 32.222656 4.3125 C 31.625 3.992188 31.015625 3.703125 30.390625 3.445312 C 29.769531 3.1875 29.132812 2.960938 28.488281 2.765625 C 27.839844 2.566406 27.1875 2.402344 26.523438 2.273438 C 25.859375 2.140625 25.195312 2.039062 24.523438 1.972656 C 23.847656 1.910156 23.175781 1.875 22.5 1.875 Z M 26.6875 34.578125 C 20.488281 37.136719 12.632812 33.425781 11.574219 26.6875 C 11.464844 25.976562 11.445312 25.261719 11.515625 24.546875 C 11.585938 23.828125 11.742188 23.128906 11.984375 22.453125 C 12.230469 21.773438 12.550781 21.136719 12.957031 20.539062 C 13.359375 19.941406 13.828125 19.402344 14.367188 18.921875 C 15.34375 17.960938 16.449219 16.996094 17.304688 15.972656 C 18.5625 14.554688 19.296875 12.753906 18.683594 10.851562 C 18.433594 9.929688 19.019531 9.421875 19.941406 9.671875 C 23.042969 10.453125 26.128906 13.257812 25.289062 16.835938 C 25.136719 17.761719 24.898438 19.160156 25.574219 19.496094 C 26.535156 19.941406 27.585938 18.492188 27.792969 17.839844 C 28.015625 16.917969 28.765625 16.710938 29.488281 17.324219 C 36.007812 22.203125 34.339844 31.820312 26.6875 34.578125 Z M 26.6875 34.578125 " fill-opacity="1" fill-rule="nonzero"/></g></svg>
