<svg xmlns="http://www.w3.org/2000/svg" xmlns:xlink="http://www.w3.org/1999/xlink" width="60" zoomAndPan="magnify" viewBox="0 0 45 44.999999" height="60" preserveAspectRatio="xMidYMid meet" version="1.0"><defs><clipPath id="1a26b31bec"><path d="M 3.160156 39 L 13 39 L 13 42.132812 L 3.160156 42.132812 Z M 3.160156 39 " clip-rule="nonzero"/></clipPath><clipPath id="b4cec77f8d"><path d="M 32 16 L 42.160156 16 L 42.160156 20 L 32 20 Z M 32 16 " clip-rule="nonzero"/></clipPath><clipPath id="8e68ee44bf"><path d="M 15 3.132812 L 22 3.132812 L 22 9 L 15 9 Z M 15 3.132812 " clip-rule="nonzero"/></clipPath></defs><g clip-path="url(#1a26b31bec)"><path fill="#000000" d="M 3.925781 41.363281 L 12.074219 41.363281 L 12.074219 40.054688 L 3.925781 40.054688 Z M 12.457031 42.128906 L 3.539062 42.128906 C 3.328125 42.128906 3.15625 41.957031 3.15625 41.746094 L 3.15625 39.675781 C 3.15625 39.460938 3.328125 39.292969 3.539062 39.292969 L 12.457031 39.292969 C 12.671875 39.292969 12.839844 39.460938 12.839844 39.675781 L 12.839844 41.746094 C 12.839844 41.957031 12.671875 42.128906 12.457031 42.128906 " fill-opacity="1" fill-rule="nonzero"/></g><path fill="#000000" d="M 9.785156 36.820312 L 17.9375 36.820312 L 17.9375 35.511719 L 9.785156 35.511719 Z M 18.320312 37.585938 L 9.402344 37.585938 C 9.191406 37.585938 9.019531 37.414062 9.019531 37.203125 L 9.019531 35.128906 C 9.019531 34.917969 9.191406 34.75 9.402344 34.75 L 18.320312 34.75 C 18.535156 34.75 18.703125 34.917969 18.703125 35.128906 L 18.703125 37.203125 C 18.703125 37.414062 18.535156 37.585938 18.320312 37.585938 " fill-opacity="1" fill-rule="nonzero"/><path fill="#000000" d="M 15.648438 32.277344 L 23.800781 32.277344 L 23.800781 30.96875 L 15.648438 30.96875 Z M 24.183594 33.042969 L 15.265625 33.042969 C 15.054688 33.042969 14.882812 32.871094 14.882812 32.660156 L 14.882812 30.589844 C 14.882812 30.375 15.054688 30.207031 15.265625 30.207031 L 24.183594 30.207031 C 24.398438 30.207031 24.566406 30.375 24.566406 30.589844 L 24.566406 32.660156 C 24.566406 32.871094 24.398438 33.042969 24.183594 33.042969 " fill-opacity="1" fill-rule="nonzero"/><path fill="#000000" d="M 21.511719 27.734375 L 29.664062 27.734375 L 29.664062 26.425781 L 21.511719 26.425781 Z M 30.046875 28.5 L 21.128906 28.5 C 20.917969 28.5 20.746094 28.328125 20.746094 28.117188 L 20.746094 26.042969 C 20.746094 25.832031 20.917969 25.664062 21.128906 25.664062 L 30.046875 25.664062 C 30.257812 25.664062 30.429688 25.832031 30.429688 26.042969 L 30.429688 28.117188 C 30.429688 28.328125 30.257812 28.5 30.046875 28.5 " fill-opacity="1" fill-rule="nonzero"/><path fill="#000000" d="M 27.375 23.191406 L 35.527344 23.191406 L 35.527344 21.882812 L 27.375 21.882812 Z M 35.910156 23.957031 L 26.992188 23.957031 C 26.78125 23.957031 26.609375 23.785156 26.609375 23.574219 L 26.609375 21.503906 C 26.609375 21.289062 26.78125 21.121094 26.992188 21.121094 L 35.910156 21.121094 C 36.125 21.121094 36.292969 21.289062 36.292969 21.503906 L 36.292969 23.574219 C 36.292969 23.785156 36.125 23.957031 35.910156 23.957031 " fill-opacity="1" fill-rule="nonzero"/><g clip-path="url(#b4cec77f8d)"><path fill="#000000" d="M 33.238281 18.648438 L 41.390625 18.648438 L 41.390625 17.339844 L 33.238281 17.339844 Z M 41.773438 19.414062 L 32.855469 19.414062 C 32.644531 19.414062 32.472656 19.242188 32.472656 19.03125 L 32.472656 16.960938 C 32.472656 16.746094 32.644531 16.578125 32.855469 16.578125 L 41.773438 16.578125 C 41.984375 16.578125 42.15625 16.746094 42.15625 16.960938 L 42.15625 19.03125 C 42.15625 19.242188 41.984375 19.414062 41.773438 19.414062 " fill-opacity="1" fill-rule="nonzero"/></g><path fill="#000000" d="M 14.941406 28.589844 L 16.613281 28.589844 L 18.5625 19.109375 C 18.582031 19.003906 18.648438 18.914062 18.742188 18.859375 C 18.832031 18.804688 18.945312 18.789062 19.046875 18.820312 L 22.929688 20.007812 C 23.089844 20.054688 23.203125 20.203125 23.203125 20.371094 L 23.203125 24.253906 L 24.660156 24.253906 L 24.660156 18.515625 L 20.800781 17.382812 C 20.640625 17.335938 20.527344 17.1875 20.527344 17.015625 L 20.527344 12.191406 C 20.527344 12.054688 20.601562 11.925781 20.722656 11.859375 C 20.84375 11.792969 20.992188 11.792969 21.109375 11.867188 L 23.78125 13.488281 L 28.503906 13.488281 L 28.503906 12.214844 L 24.089844 12.214844 C 24.023438 12.214844 23.953125 12.199219 23.894531 12.164062 L 20.804688 10.359375 L 16.238281 10.359375 L 12.699219 14.324219 L 10.597656 19.097656 L 11.835938 19.367188 L 13.90625 14.914062 C 13.921875 14.878906 13.941406 14.847656 13.964844 14.820312 L 15.777344 12.789062 C 15.882812 12.671875 16.050781 12.632812 16.199219 12.6875 C 16.347656 12.746094 16.445312 12.886719 16.445312 13.046875 L 16.445312 18.308594 C 16.445312 18.328125 16.445312 18.347656 16.441406 18.363281 Z M 16.925781 29.351562 L 14.5 29.351562 C 14.386719 29.351562 14.28125 29.304688 14.207031 29.222656 C 14.136719 29.136719 14.105469 29.023438 14.121094 28.914062 L 15.679688 18.28125 L 15.679688 14.050781 L 14.574219 15.285156 L 12.402344 19.964844 C 12.324219 20.128906 12.148438 20.21875 11.972656 20.179688 L 9.976562 19.742188 C 9.867188 19.71875 9.769531 19.644531 9.71875 19.542969 C 9.667969 19.441406 9.664062 19.320312 9.707031 19.214844 L 12.023438 13.960938 C 12.039062 13.925781 12.058594 13.890625 12.085938 13.863281 L 15.746094 9.757812 C 15.773438 9.722656 15.808594 9.6875 15.84375 9.660156 C 15.90625 9.617188 15.976562 9.59375 16.050781 9.585938 C 16.085938 9.585938 16.117188 9.589844 16.148438 9.59375 L 20.910156 9.59375 C 20.988281 9.59375 21.0625 9.617188 21.121094 9.65625 L 24.195312 11.449219 L 28.886719 11.449219 C 29.097656 11.449219 29.269531 11.621094 29.269531 11.832031 L 29.269531 13.871094 C 29.269531 14.082031 29.097656 14.253906 28.886719 14.253906 L 23.671875 14.253906 C 23.589844 14.253906 23.511719 14.226562 23.453125 14.183594 L 21.292969 12.871094 L 21.292969 16.730469 L 25.152344 17.863281 C 25.316406 17.910156 25.425781 18.058594 25.425781 18.230469 L 25.425781 24.636719 C 25.425781 24.847656 25.253906 25.019531 25.042969 25.019531 L 22.816406 25.019531 C 22.605469 25.019531 22.433594 24.847656 22.433594 24.636719 L 22.433594 20.65625 L 19.226562 19.675781 L 17.300781 29.046875 C 17.265625 29.226562 17.105469 29.351562 16.925781 29.351562 " fill-opacity="1" fill-rule="nonzero"/><g clip-path="url(#8e68ee44bf)"><path fill="#000000" d="M 18.6875 3.910156 C 17.570312 3.910156 16.660156 4.820312 16.660156 5.9375 C 16.660156 7.054688 17.570312 7.960938 18.6875 7.960938 C 19.808594 7.960938 20.71875 7.054688 20.71875 5.9375 C 20.71875 4.820312 19.808594 3.910156 18.6875 3.910156 Z M 18.6875 8.726562 C 17.148438 8.726562 15.890625 7.476562 15.890625 5.9375 C 15.890625 4.398438 17.148438 3.144531 18.6875 3.144531 C 20.230469 3.144531 21.484375 4.398438 21.484375 5.9375 C 21.484375 7.476562 20.230469 8.726562 18.6875 8.726562 " fill-opacity="1" fill-rule="nonzero"/></g><path fill="#000000" d="M 6.796875 24.261719 L 12.496094 25.523438 L 13.292969 21.925781 L 7.59375 20.664062 Z M 12.785156 26.363281 C 12.757812 26.363281 12.730469 26.359375 12.703125 26.355469 L 6.253906 24.925781 C 6.15625 24.90625 6.070312 24.84375 6.015625 24.757812 C 5.960938 24.675781 5.941406 24.570312 5.964844 24.472656 L 6.929688 20.125 C 6.976562 19.921875 7.179688 19.789062 7.386719 19.835938 L 13.832031 21.261719 C 14.039062 21.308594 14.171875 21.511719 14.125 21.71875 L 13.160156 26.0625 C 13.136719 26.164062 13.078125 26.25 12.992188 26.304688 C 12.929688 26.34375 12.859375 26.363281 12.785156 26.363281 " fill-opacity="1" fill-rule="nonzero"/><path fill="#000000" d="M 9.976562 20.410156 L 11.242188 20.691406 L 11.25 20.660156 C 11.320312 20.328125 11.113281 19.996094 10.777344 19.921875 L 10.722656 19.910156 C 10.386719 19.835938 10.058594 20.046875 9.984375 20.378906 Z M 11.53125 21.527344 C 11.503906 21.527344 11.476562 21.523438 11.449219 21.519531 L 9.4375 21.074219 C 9.230469 21.027344 9.101562 20.824219 9.148438 20.617188 L 9.238281 20.214844 C 9.402344 19.46875 10.140625 19 10.886719 19.164062 L 10.945312 19.175781 C 11.691406 19.339844 12.160156 20.082031 11.996094 20.824219 L 11.90625 21.230469 C 11.882812 21.328125 11.824219 21.414062 11.738281 21.46875 C 11.675781 21.507812 11.605469 21.527344 11.53125 21.527344 " fill-opacity="1" fill-rule="nonzero"/><path fill="#000000" d="M 7.554688 20.84375 L 8.007812 21.277344 C 9.238281 22.457031 11.007812 22.847656 12.621094 22.296875 L 13.257812 22.082031 L 13.292969 21.925781 L 7.59375 20.664062 Z M 11.148438 23.308594 C 9.800781 23.308594 8.484375 22.792969 7.476562 21.828125 L 6.867188 21.246094 C 6.773438 21.15625 6.730469 21.019531 6.761719 20.886719 L 6.929688 20.125 C 6.949219 20.027344 7.011719 19.941406 7.097656 19.886719 C 7.183594 19.832031 7.285156 19.8125 7.386719 19.835938 L 13.832031 21.261719 C 14.039062 21.308594 14.171875 21.511719 14.125 21.71875 L 13.960938 22.457031 C 13.933594 22.585938 13.835938 22.691406 13.710938 22.734375 L 12.867188 23.023438 C 12.300781 23.214844 11.722656 23.308594 11.148438 23.308594 " fill-opacity="1" fill-rule="nonzero"/></svg>