<svg xmlns="http://www.w3.org/2000/svg" xmlns:xlink="http://www.w3.org/1999/xlink" width="60" zoomAndPan="magnify" viewBox="0 0 45 44.999999" height="60" preserveAspectRatio="xMidYMid meet" version="1.0"><defs><clipPath id="11cb81e1b0"><path d="M 5.828125 1.320312 L 38.828125 1.320312 L 38.828125 43.320312 L 5.828125 43.320312 Z M 5.828125 1.320312 " clip-rule="nonzero"/></clipPath></defs><g clip-path="url(#11cb81e1b0)"><path fill="#000000" d="M 23.082031 24.65625 C 26.894531 19.945312 38.828125 9.945312 38.828125 9.945312 L 30.132812 9.945312 L 31.773438 7.902344 C 33.28125 9.011719 35.144531 9.101562 35.945312 8.078125 C 36.742188 7.054688 36.296875 5.277344 34.878906 4.035156 L 36.742188 1.722656 L 36.34375 1.367188 L 34.523438 3.722656 C 33.015625 2.613281 31.199219 2.523438 30.398438 3.546875 C 29.554688 4.566406 30.042969 6.433594 31.507812 7.679688 L 29.734375 9.945312 L 5.828125 9.945312 C 5.828125 9.945312 17.714844 19.945312 21.574219 24.65625 L 21.882812 40.164062 C 19 40.476562 11.679688 43.273438 11.679688 43.273438 L 32.972656 43.273438 C 32.972656 43.273438 25.652344 40.476562 22.769531 40.164062 Z M 23.082031 24.65625 " fill-opacity="1" fill-rule="nonzero"/></g></svg>