<svg xmlns="http://www.w3.org/2000/svg" xmlns:xlink="http://www.w3.org/1999/xlink" width="60" zoomAndPan="magnify" viewBox="0 0 45 44.999999" height="60" preserveAspectRatio="xMidYMid meet" version="1.0"><defs><clipPath id="ed490ae681"><path d="M 7.117188 2.382812 L 37.867188 2.382812 L 37.867188 42.882812 L 7.117188 42.882812 Z M 7.117188 2.382812 " clip-rule="nonzero"/></clipPath><clipPath id="c34a4cbc2f"><path d="M 26 33 L 37 33 L 37 42.882812 L 26 42.882812 Z M 26 33 " clip-rule="nonzero"/></clipPath></defs><g clip-path="url(#ed490ae681)"><path fill="#0d3858" d="M 37.816406 4.792969 L 37.816406 34.757812 L 27.542969 42.894531 L 9.5625 42.894531 C 8.246094 42.894531 7.179688 41.816406 7.179688 40.488281 L 7.179688 4.792969 C 7.179688 3.46875 8.246094 2.390625 9.5625 2.390625 L 35.433594 2.390625 C 36.75 2.390625 37.816406 3.46875 37.816406 4.792969 Z M 37.816406 4.792969 " fill-opacity="1" fill-rule="nonzero"/></g><g clip-path="url(#c34a4cbc2f)"><path fill="#ffffff" d="M 36.902344 33.921875 L 26.625 42.0625 L 26.625 36.328125 C 26.625 35 27.695312 33.921875 29.011719 33.921875 Z M 36.902344 33.921875 " fill-opacity="1" fill-rule="nonzero"/></g><path stroke-linecap="round" transform="matrix(0.157493, 0, 0, 0.158761, -10.984462, -11.110598)" fill="none" stroke-linejoin="miter" d="M 152.810151 162.643826 L 272.408898 162.643826 " stroke="#ffffff" stroke-width="12.857" stroke-opacity="1" stroke-miterlimit="10"/><path stroke-linecap="round" transform="matrix(0.157493, 0, 0, 0.158761, -10.984462, -11.110598)" fill="none" stroke-linejoin="miter" d="M 152.810151 185.156995 L 272.408898 185.156995 " stroke="#ffffff" stroke-width="12.857" stroke-opacity="1" stroke-miterlimit="10"/><path stroke-linecap="round" transform="matrix(0.157493, 0, 0, 0.158761, -10.984462, -11.110598)" fill="none" stroke-linejoin="miter" d="M 152.810151 207.694769 L 272.408898 207.694769 " stroke="#ffffff" stroke-width="12.857" stroke-opacity="1" stroke-miterlimit="10"/><path stroke-linecap="round" transform="matrix(0.157493, 0, 0, 0.158761, -10.984462, -11.110598)" fill="none" stroke-linejoin="miter" d="M 152.810151 230.207939 L 272.408898 230.207939 " stroke="#ffffff" stroke-width="12.857" stroke-opacity="1" stroke-miterlimit="10"/><path stroke-linecap="round" transform="matrix(0.157493, 0, 0, 0.158761, -10.984462, -11.110598)" fill="none" stroke-linejoin="miter" d="M 152.810151 252.721108 L 228.334453 252.721108 " stroke="#ffffff" stroke-width="12.857" stroke-opacity="1" stroke-miterlimit="10"/><path fill="#ffffff" d="M 16.050781 8.871094 C 16.050781 9.132812 16.003906 9.378906 15.902344 9.621094 C 15.804688 9.859375 15.664062 10.070312 15.484375 10.253906 C 15.300781 10.4375 15.09375 10.578125 14.855469 10.675781 C 14.617188 10.777344 14.371094 10.828125 14.113281 10.828125 C 13.855469 10.828125 13.609375 10.777344 13.371094 10.675781 C 13.132812 10.578125 12.925781 10.4375 12.742188 10.253906 C 12.5625 10.070312 12.421875 9.859375 12.320312 9.621094 C 12.222656 9.378906 12.175781 9.132812 12.175781 8.871094 C 12.175781 8.613281 12.222656 8.363281 12.320312 8.125 C 12.421875 7.886719 12.5625 7.675781 12.742188 7.492188 C 12.925781 7.308594 13.132812 7.167969 13.371094 7.066406 C 13.609375 6.96875 13.855469 6.917969 14.113281 6.917969 C 14.371094 6.917969 14.617188 6.96875 14.855469 7.066406 C 15.09375 7.167969 15.300781 7.308594 15.484375 7.492188 C 15.664062 7.675781 15.804688 7.886719 15.902344 8.125 C 16.003906 8.363281 16.050781 8.613281 16.050781 8.871094 Z M 16.050781 8.871094 " fill-opacity="1" fill-rule="nonzero"/></svg>