<svg xmlns="http://www.w3.org/2000/svg" xmlns:xlink="http://www.w3.org/1999/xlink" width="60" zoomAndPan="magnify" viewBox="0 0 45 44.999999" height="60" preserveAspectRatio="xMidYMid meet" version="1.2"><defs><clipPath id="e6038360b0"><path d="M 2.71875 3.632812 L 13 3.632812 L 13 13 L 2.71875 13 Z M 2.71875 3.632812 "/></clipPath><clipPath id="dc33b131cc"><path d="M 2.71875 3.632812 L 32 3.632812 L 32 40 L 2.71875 40 Z M 2.71875 3.632812 "/></clipPath><clipPath id="0d0437041e"><path d="M 32 29 L 43.96875 29 L 43.96875 41.132812 L 32 41.132812 Z M 32 29 "/></clipPath><clipPath id="d6a540a6ee"><path d="M 37 34 L 43.96875 34 L 43.96875 41.132812 L 37 41.132812 Z M 37 34 "/></clipPath></defs><g id="ac841e2850"><g clip-rule="nonzero" clip-path="url(#e6038360b0)"><path style=" stroke:none;fill-rule:nonzero;fill:#000000;fill-opacity:1;" d="M 11.40625 12.9375 L 3.351562 12.9375 C 3.230469 12.9375 3.109375 12.902344 3.007812 12.832031 C 2.90625 12.765625 2.824219 12.667969 2.777344 12.554688 C 2.730469 12.441406 2.71875 12.316406 2.742188 12.195312 C 2.765625 12.074219 2.824219 11.964844 2.914062 11.878906 L 10.964844 3.832031 C 11.050781 3.746094 11.164062 3.6875 11.285156 3.664062 C 11.402344 3.636719 11.527344 3.652344 11.640625 3.699219 C 11.753906 3.746094 11.851562 3.824219 11.921875 3.925781 C 11.988281 4.027344 12.027344 4.148438 12.027344 4.269531 L 12.027344 12.316406 C 12.027344 12.480469 11.960938 12.640625 11.84375 12.757812 C 11.726562 12.871094 11.570312 12.9375 11.40625 12.9375 Z M 4.851562 11.695312 L 10.785156 11.695312 L 10.785156 5.769531 Z M 4.851562 11.695312 "/></g><g clip-rule="nonzero" clip-path="url(#dc33b131cc)"><path style=" stroke:none;fill-rule:nonzero;fill:#000000;fill-opacity:1;" d="M 28.382812 39.875 L 5.839844 39.875 C 5.015625 39.875 4.226562 39.546875 3.640625 38.964844 C 3.058594 38.382812 2.730469 37.59375 2.730469 36.769531 L 2.730469 12.316406 C 2.730469 12.152344 2.796875 11.996094 2.914062 11.878906 L 10.964844 3.832031 C 11.082031 3.714844 11.238281 3.652344 11.40625 3.652344 L 28.382812 3.652344 C 29.207031 3.652344 29.996094 3.980469 30.578125 4.5625 C 31.164062 5.144531 31.492188 5.933594 31.492188 6.757812 L 31.492188 11.195312 C 31.492188 11.359375 31.425781 11.519531 31.308594 11.636719 C 31.191406 11.75 31.035156 11.816406 30.871094 11.816406 C 30.707031 11.816406 30.546875 11.75 30.429688 11.636719 C 30.316406 11.519531 30.25 11.359375 30.25 11.195312 L 30.25 6.757812 C 30.25 6.261719 30.050781 5.789062 29.703125 5.4375 C 29.351562 5.089844 28.878906 4.890625 28.382812 4.890625 L 11.660156 4.890625 L 3.972656 12.574219 L 3.972656 36.769531 C 3.972656 37.265625 4.167969 37.738281 4.519531 38.089844 C 4.871094 38.4375 5.34375 38.636719 5.839844 38.636719 L 28.382812 38.636719 C 28.878906 38.636719 29.351562 38.4375 29.703125 38.089844 C 30.050781 37.738281 30.25 37.265625 30.25 36.769531 C 30.25 36.605469 30.316406 36.449219 30.429688 36.332031 C 30.546875 36.214844 30.707031 36.152344 30.871094 36.152344 C 31.035156 36.152344 31.191406 36.214844 31.308594 36.332031 C 31.425781 36.449219 31.492188 36.605469 31.492188 36.769531 C 31.492188 37.59375 31.164062 38.382812 30.578125 38.964844 C 29.996094 39.546875 29.207031 39.875 28.382812 39.875 Z M 28.382812 39.875 "/></g><path style=" stroke:none;fill-rule:nonzero;fill:#000000;fill-opacity:1;" d="M 19.039062 30.054688 L 7.699219 30.054688 C 7.535156 30.054688 7.378906 29.988281 7.261719 29.875 C 7.144531 29.757812 7.078125 29.597656 7.078125 29.433594 C 7.078125 29.269531 7.144531 29.113281 7.261719 28.996094 C 7.378906 28.878906 7.535156 28.816406 7.699219 28.816406 L 19.039062 28.816406 C 19.203125 28.816406 19.359375 28.878906 19.476562 28.996094 C 19.59375 29.113281 19.660156 29.269531 19.660156 29.433594 C 19.660156 29.597656 19.59375 29.757812 19.476562 29.875 C 19.359375 29.988281 19.203125 30.054688 19.039062 30.054688 Z M 19.039062 30.054688 "/><path style=" stroke:none;fill-rule:nonzero;fill:#000000;fill-opacity:1;" d="M 17.128906 24.941406 L 7.699219 24.941406 C 7.535156 24.941406 7.378906 24.875 7.261719 24.757812 C 7.144531 24.644531 7.078125 24.484375 7.078125 24.320312 C 7.078125 24.15625 7.144531 24 7.261719 23.882812 C 7.378906 23.765625 7.535156 23.699219 7.699219 23.699219 L 17.128906 23.699219 C 17.292969 23.699219 17.453125 23.765625 17.566406 23.882812 C 17.683594 24 17.75 24.15625 17.75 24.320312 C 17.75 24.484375 17.683594 24.644531 17.566406 24.757812 C 17.453125 24.875 17.292969 24.941406 17.128906 24.941406 Z M 17.128906 24.941406 "/><path style=" stroke:none;fill-rule:nonzero;fill:#000000;fill-opacity:1;" d="M 18.269531 19.828125 L 7.699219 19.828125 C 7.535156 19.828125 7.378906 19.761719 7.261719 19.644531 C 7.144531 19.527344 7.078125 19.371094 7.078125 19.207031 C 7.078125 19.042969 7.144531 18.882812 7.261719 18.765625 C 7.378906 18.652344 7.535156 18.585938 7.699219 18.585938 L 18.269531 18.585938 C 18.4375 18.585938 18.59375 18.652344 18.710938 18.765625 C 18.828125 18.882812 18.890625 19.042969 18.890625 19.207031 C 18.890625 19.371094 18.828125 19.527344 18.710938 19.644531 C 18.59375 19.761719 18.4375 19.828125 18.269531 19.828125 Z M 18.269531 19.828125 "/><path style=" stroke:none;fill-rule:nonzero;fill:#000000;fill-opacity:1;" d="M 26.523438 14.710938 L 7.699219 14.710938 C 7.535156 14.710938 7.378906 14.648438 7.261719 14.53125 C 7.144531 14.414062 7.078125 14.257812 7.078125 14.09375 C 7.078125 13.925781 7.144531 13.769531 7.261719 13.652344 C 7.378906 13.535156 7.535156 13.472656 7.699219 13.472656 L 26.523438 13.472656 C 26.6875 13.472656 26.84375 13.535156 26.960938 13.652344 C 27.078125 13.769531 27.144531 13.925781 27.144531 14.09375 C 27.144531 14.257812 27.078125 14.414062 26.960938 14.53125 C 26.84375 14.648438 26.6875 14.710938 26.523438 14.710938 Z M 26.523438 14.710938 "/><path style=" stroke:none;fill-rule:nonzero;fill:#000000;fill-opacity:1;" d="M 26.523438 9.597656 L 11.40625 9.597656 C 11.242188 9.597656 11.082031 9.53125 10.964844 9.414062 C 10.847656 9.300781 10.785156 9.140625 10.785156 8.976562 C 10.785156 8.8125 10.847656 8.65625 10.964844 8.539062 C 11.082031 8.421875 11.242188 8.355469 11.40625 8.355469 L 26.523438 8.355469 C 26.6875 8.355469 26.84375 8.421875 26.960938 8.539062 C 27.078125 8.65625 27.144531 8.8125 27.144531 8.976562 C 27.144531 9.140625 27.078125 9.300781 26.960938 9.414062 C 26.84375 9.53125 26.6875 9.597656 26.523438 9.597656 Z M 26.523438 9.597656 "/><path style=" stroke:none;fill-rule:nonzero;fill:#000000;fill-opacity:1;" d="M 26.523438 33.757812 C 24.871094 33.757812 23.25 33.351562 21.792969 32.574219 C 20.339844 31.796875 19.097656 30.671875 18.179688 29.300781 C 17.265625 27.929688 16.699219 26.355469 16.539062 24.714844 C 16.378906 23.074219 16.621094 21.417969 17.253906 19.898438 C 17.886719 18.375 18.882812 17.03125 20.160156 15.984375 C 21.433594 14.9375 22.949219 14.222656 24.566406 13.902344 C 26.183594 13.578125 27.855469 13.660156 29.433594 14.140625 C 31.011719 14.617188 32.449219 15.480469 33.617188 16.644531 C 35.019531 18.046875 35.976562 19.832031 36.363281 21.777344 C 36.75 23.722656 36.550781 25.738281 35.789062 27.570312 C 35.03125 29.398438 33.746094 30.964844 32.097656 32.066406 C 30.445312 33.167969 28.507812 33.757812 26.523438 33.757812 Z M 26.523438 14.949219 C 24.488281 14.949219 22.519531 15.652344 20.945312 16.941406 C 19.375 18.230469 18.296875 20.027344 17.902344 22.019531 C 17.503906 24.011719 17.8125 26.082031 18.769531 27.871094 C 19.730469 29.664062 21.28125 31.070312 23.160156 31.847656 C 25.039062 32.625 27.128906 32.726562 29.074219 32.136719 C 31.019531 31.546875 32.703125 30.300781 33.832031 28.613281 C 34.960938 26.921875 35.46875 24.894531 35.269531 22.871094 C 35.070312 20.847656 34.175781 18.957031 32.738281 17.523438 C 31.925781 16.703125 30.957031 16.054688 29.886719 15.613281 C 28.820312 15.171875 27.675781 14.945312 26.523438 14.949219 Z M 26.523438 14.949219 "/><path style=" stroke:none;fill-rule:nonzero;fill:#000000;fill-opacity:1;" d="M 26.523438 31.003906 C 25.324219 31.003906 24.148438 30.707031 23.09375 30.144531 C 22.039062 29.582031 21.136719 28.765625 20.472656 27.769531 C 19.808594 26.777344 19.398438 25.636719 19.28125 24.445312 C 19.164062 23.253906 19.34375 22.054688 19.800781 20.949219 C 20.257812 19.847656 20.980469 18.871094 21.90625 18.113281 C 22.832031 17.355469 23.929688 16.835938 25.101562 16.601562 C 26.277344 16.371094 27.488281 16.429688 28.632812 16.777344 C 29.777344 17.125 30.820312 17.746094 31.667969 18.59375 C 32.683594 19.609375 33.378906 20.902344 33.65625 22.3125 C 33.9375 23.722656 33.792969 25.1875 33.242188 26.515625 C 32.691406 27.84375 31.761719 28.976562 30.5625 29.777344 C 29.367188 30.574219 27.960938 31.003906 26.523438 31.003906 Z M 26.523438 17.707031 C 25.128906 17.707031 23.773438 18.191406 22.695312 19.078125 C 21.621094 19.960938 20.882812 21.191406 20.609375 22.558594 C 20.339844 23.929688 20.550781 25.347656 21.210938 26.578125 C 21.867188 27.804688 22.933594 28.769531 24.222656 29.300781 C 25.511719 29.835938 26.945312 29.902344 28.28125 29.5 C 29.613281 29.09375 30.769531 28.238281 31.542969 27.078125 C 32.316406 25.917969 32.664062 24.527344 32.527344 23.140625 C 32.390625 21.75 31.777344 20.453125 30.789062 19.46875 C 30.230469 18.910156 29.5625 18.464844 28.832031 18.164062 C 28.097656 17.859375 27.316406 17.703125 26.523438 17.707031 Z M 26.523438 17.707031 "/><path style=" stroke:none;fill-rule:nonzero;fill:#000000;fill-opacity:1;" d="M 30.460938 24.011719 C 30.292969 24.011719 30.136719 23.949219 30.019531 23.832031 C 29.902344 23.714844 29.839844 23.558594 29.839844 23.394531 C 29.839844 22.96875 29.753906 22.546875 29.585938 22.15625 C 29.417969 21.765625 29.171875 21.410156 28.867188 21.117188 C 28.558594 20.820312 28.195312 20.59375 27.796875 20.441406 C 27.398438 20.292969 26.972656 20.222656 26.546875 20.242188 C 26.464844 20.246094 26.386719 20.234375 26.308594 20.207031 C 26.230469 20.179688 26.160156 20.136719 26.101562 20.078125 C 26.039062 20.023438 25.992188 19.957031 25.957031 19.882812 C 25.921875 19.808594 25.902344 19.730469 25.898438 19.648438 C 25.894531 19.566406 25.90625 19.484375 25.9375 19.40625 C 25.964844 19.332031 26.007812 19.261719 26.0625 19.199219 C 26.117188 19.140625 26.183594 19.09375 26.257812 19.058594 C 26.332031 19.023438 26.414062 19.003906 26.496094 19.003906 C 27.089844 18.976562 27.679688 19.074219 28.234375 19.28125 C 28.789062 19.492188 29.296875 19.808594 29.726562 20.21875 C 30.152344 20.628906 30.492188 21.125 30.726562 21.667969 C 30.960938 22.214844 31.078125 22.800781 31.078125 23.394531 C 31.078125 23.558594 31.015625 23.714844 30.898438 23.832031 C 30.78125 23.949219 30.625 24.011719 30.460938 24.011719 Z M 30.460938 24.011719 "/><g clip-rule="nonzero" clip-path="url(#0d0437041e)"><path style=" stroke:none;fill-rule:nonzero;fill:#000000;fill-opacity:1;" d="M 40.824219 41.121094 C 40.417969 41.121094 40.015625 41.042969 39.636719 40.886719 C 39.261719 40.730469 38.917969 40.503906 38.632812 40.214844 L 32.699219 34.285156 C 32.582031 34.171875 32.515625 34.011719 32.515625 33.847656 C 32.515625 33.683594 32.582031 33.527344 32.699219 33.410156 L 36.207031 29.902344 C 36.324219 29.785156 36.480469 29.722656 36.644531 29.722656 C 36.8125 29.722656 36.96875 29.785156 37.085938 29.902344 L 43.019531 35.832031 C 43.453125 36.265625 43.75 36.816406 43.867188 37.417969 C 43.988281 38.019531 43.925781 38.644531 43.691406 39.210938 C 43.457031 39.777344 43.058594 40.261719 42.550781 40.601562 C 42.039062 40.941406 41.4375 41.121094 40.824219 41.121094 Z M 34.015625 33.847656 L 39.507812 39.339844 C 39.859375 39.6875 40.332031 39.882812 40.824219 39.882812 C 41.070312 39.882812 41.3125 39.835938 41.539062 39.742188 C 41.761719 39.648438 41.96875 39.511719 42.140625 39.339844 C 42.3125 39.164062 42.453125 38.960938 42.542969 38.734375 C 42.636719 38.507812 42.6875 38.269531 42.6875 38.023438 C 42.6875 37.78125 42.636719 37.539062 42.542969 37.3125 C 42.453125 37.085938 42.3125 36.882812 42.140625 36.707031 L 36.644531 31.21875 Z M 34.015625 33.847656 "/></g><path style=" stroke:none;fill-rule:nonzero;fill:#000000;fill-opacity:1;" d="M 34.027344 33.578125 C 33.945312 33.578125 33.863281 33.5625 33.789062 33.53125 C 33.710938 33.5 33.644531 33.457031 33.585938 33.398438 L 31.816406 31.628906 C 31.699219 31.511719 31.636719 31.355469 31.636719 31.191406 C 31.636719 31.027344 31.699219 30.867188 31.816406 30.753906 C 31.933594 30.636719 32.089844 30.570312 32.257812 30.570312 C 32.421875 30.570312 32.578125 30.636719 32.695312 30.753906 L 34.464844 32.519531 C 34.550781 32.605469 34.609375 32.71875 34.632812 32.839844 C 34.65625 32.957031 34.644531 33.082031 34.597656 33.195312 C 34.550781 33.308594 34.472656 33.40625 34.371094 33.476562 C 34.269531 33.542969 34.148438 33.578125 34.027344 33.578125 Z M 34.027344 33.578125 "/><path style=" stroke:none;fill-rule:nonzero;fill:#000000;fill-opacity:1;" d="M 35.757812 31.851562 C 35.675781 31.851562 35.59375 31.832031 35.519531 31.800781 C 35.445312 31.769531 35.375 31.726562 35.316406 31.667969 L 33.546875 29.898438 C 33.492188 29.84375 33.445312 29.773438 33.414062 29.699219 C 33.382812 29.625 33.367188 29.542969 33.367188 29.460938 C 33.367188 29.378906 33.382812 29.300781 33.414062 29.222656 C 33.445312 29.148438 33.492188 29.082031 33.546875 29.023438 C 33.605469 28.964844 33.675781 28.917969 33.75 28.886719 C 33.824219 28.855469 33.90625 28.839844 33.988281 28.839844 C 34.070312 28.839844 34.148438 28.855469 34.222656 28.886719 C 34.300781 28.917969 34.367188 28.964844 34.425781 29.023438 L 36.195312 30.789062 C 36.28125 30.878906 36.339844 30.988281 36.367188 31.109375 C 36.390625 31.230469 36.378906 31.351562 36.328125 31.464844 C 36.28125 31.582031 36.203125 31.675781 36.101562 31.746094 C 36 31.8125 35.878906 31.851562 35.757812 31.851562 Z M 35.757812 31.851562 "/><g clip-rule="nonzero" clip-path="url(#d6a540a6ee)"><path style=" stroke:none;fill-rule:nonzero;fill:#000000;fill-opacity:1;" d="M 40.824219 41.121094 C 40.417969 41.121094 40.015625 41.042969 39.636719 40.886719 C 39.261719 40.730469 38.917969 40.503906 38.632812 40.214844 L 37.761719 39.347656 C 37.644531 39.230469 37.578125 39.074219 37.578125 38.90625 C 37.578125 38.742188 37.644531 38.585938 37.761719 38.46875 L 41.269531 34.960938 C 41.328125 34.90625 41.398438 34.859375 41.472656 34.828125 C 41.546875 34.796875 41.628906 34.78125 41.710938 34.78125 C 41.792969 34.78125 41.871094 34.796875 41.949219 34.828125 C 42.023438 34.859375 42.089844 34.90625 42.148438 34.960938 L 43.019531 35.832031 C 43.453125 36.265625 43.75 36.816406 43.867188 37.417969 C 43.988281 38.019531 43.925781 38.644531 43.691406 39.210938 C 43.457031 39.777344 43.058594 40.261719 42.550781 40.601562 C 42.039062 40.941406 41.4375 41.121094 40.824219 41.121094 Z M 39.078125 38.90625 L 39.507812 39.339844 C 39.859375 39.6875 40.332031 39.882812 40.824219 39.882812 C 41.320312 39.882812 41.792969 39.6875 42.140625 39.339844 C 42.492188 38.988281 42.6875 38.515625 42.6875 38.023438 C 42.6875 37.53125 42.492188 37.058594 42.140625 36.707031 L 41.710938 36.277344 Z M 39.078125 38.90625 "/></g><path style=" stroke:none;fill-rule:nonzero;fill:#000000;fill-opacity:1;" d="M 13.59375 35.859375 C 12.773438 35.859375 11.984375 35.542969 11.394531 34.976562 C 11.085938 34.683594 10.691406 34.5 10.269531 34.453125 C 9.847656 34.402344 9.421875 34.492188 9.054688 34.707031 L 7.691406 35.503906 C 7.550781 35.585938 7.378906 35.609375 7.222656 35.570312 C 7.0625 35.527344 6.925781 35.421875 6.84375 35.28125 C 6.757812 35.140625 6.734375 34.96875 6.777344 34.8125 C 6.820312 34.652344 6.921875 34.515625 7.0625 34.433594 L 8.425781 33.636719 C 9.027344 33.289062 9.722656 33.140625 10.410156 33.222656 C 11.101562 33.300781 11.746094 33.601562 12.25 34.078125 C 12.515625 34.332031 12.84375 34.503906 13.203125 34.578125 C 13.5625 34.652344 13.933594 34.625 14.277344 34.496094 L 15.121094 34.183594 C 15.855469 33.914062 16.664062 33.921875 17.394531 34.207031 C 17.46875 34.238281 17.539062 34.28125 17.597656 34.335938 C 17.65625 34.394531 17.703125 34.460938 17.734375 34.535156 C 17.769531 34.609375 17.785156 34.691406 17.785156 34.773438 C 17.789062 34.855469 17.773438 34.933594 17.742188 35.011719 C 17.714844 35.085938 17.667969 35.15625 17.613281 35.214844 C 17.554688 35.273438 17.488281 35.320312 17.414062 35.351562 C 17.339844 35.386719 17.257812 35.402344 17.175781 35.402344 C 17.097656 35.40625 17.015625 35.390625 16.9375 35.363281 C 16.492188 35.1875 16 35.183594 15.550781 35.347656 L 14.707031 35.660156 C 14.351562 35.792969 13.972656 35.859375 13.59375 35.859375 Z M 13.59375 35.859375 "/></g></svg>