<svg xmlns="http://www.w3.org/2000/svg" xmlns:xlink="http://www.w3.org/1999/xlink" width="60" zoomAndPan="magnify" viewBox="0 0 45 44.999999" height="60" preserveAspectRatio="xMidYMid meet" version="1.0"><defs><clipPath id="722509c3ba"><path d="M 7.117188 2.382812 L 37.867188 2.382812 L 37.867188 42.882812 L 7.117188 42.882812 Z M 7.117188 2.382812 " clip-rule="nonzero"/></clipPath></defs><g clip-path="url(#722509c3ba)"><path fill="#cf3636" d="M 37.839844 4.777344 L 37.839844 34.523438 L 27.558594 42.601562 L 9.566406 42.601562 C 8.246094 42.601562 7.179688 41.53125 7.179688 40.214844 L 7.179688 4.777344 C 7.179688 3.460938 8.246094 2.390625 9.566406 2.390625 L 35.453125 2.390625 C 36.773438 2.390625 37.839844 3.460938 37.839844 4.777344 Z M 37.839844 4.777344 " fill-opacity="1" fill-rule="nonzero"/></g><path fill="#ffffff" d="M 36.921875 33.695312 L 26.640625 41.773438 L 26.640625 36.082031 C 26.640625 34.765625 27.710938 33.695312 29.027344 33.695312 Z M 36.921875 33.695312 " fill-opacity="1" fill-rule="nonzero"/><path stroke-linecap="round" transform="matrix(0.157613, 0, 0, 0.157613, -10.998259, -11.01298)" fill="none" stroke-linejoin="miter" d="M 152.806095 162.639546 L 272.388111 162.639546 " stroke="#ffffff" stroke-width="12.857" stroke-opacity="1" stroke-miterlimit="10"/><path stroke-linecap="round" transform="matrix(0.157613, 0, 0, 0.157613, -10.998259, -11.01298)" fill="none" stroke-linejoin="miter" d="M 152.806095 185.168054 L 272.388111 185.168054 " stroke="#ffffff" stroke-width="12.857" stroke-opacity="1" stroke-miterlimit="10"/><path stroke-linecap="round" transform="matrix(0.157613, 0, 0, 0.157613, -10.998259, -11.01298)" fill="none" stroke-linejoin="miter" d="M 152.806095 207.696562 L 272.388111 207.696562 " stroke="#ffffff" stroke-width="12.857" stroke-opacity="1" stroke-miterlimit="10"/><path stroke-linecap="round" transform="matrix(0.157613, 0, 0, 0.157613, -10.998259, -11.01298)" fill="none" stroke-linejoin="miter" d="M 152.806095 230.200286 L 272.388111 230.200286 " stroke="#ffffff" stroke-width="12.857" stroke-opacity="1" stroke-miterlimit="10"/><path stroke-linecap="round" transform="matrix(0.157613, 0, 0, 0.157613, -10.998259, -11.01298)" fill="none" stroke-linejoin="miter" d="M 152.806095 252.728795 L 228.322448 252.728795 " stroke="#ffffff" stroke-width="12.857" stroke-opacity="1" stroke-miterlimit="10"/><path fill="#ffffff" d="M 16.058594 8.824219 C 16.058594 9.082031 16.007812 9.332031 15.910156 9.566406 C 15.8125 9.804688 15.671875 10.015625 15.488281 10.195312 C 15.308594 10.378906 15.097656 10.519531 14.859375 10.617188 C 14.621094 10.714844 14.375 10.765625 14.117188 10.765625 C 13.859375 10.765625 13.613281 10.714844 13.375 10.617188 C 13.136719 10.519531 12.929688 10.378906 12.746094 10.195312 C 12.566406 10.015625 12.425781 9.804688 12.328125 9.566406 C 12.226562 9.332031 12.179688 9.082031 12.179688 8.824219 C 12.179688 8.566406 12.226562 8.320312 12.328125 8.082031 C 12.425781 7.84375 12.566406 7.636719 12.746094 7.453125 C 12.929688 7.273438 13.136719 7.132812 13.375 7.035156 C 13.613281 6.933594 13.859375 6.886719 14.117188 6.886719 C 14.375 6.886719 14.621094 6.933594 14.859375 7.035156 C 15.097656 7.132812 15.308594 7.273438 15.488281 7.453125 C 15.671875 7.636719 15.8125 7.84375 15.910156 8.082031 C 16.007812 8.320312 16.058594 8.566406 16.058594 8.824219 Z M 16.058594 8.824219 " fill-opacity="1" fill-rule="nonzero"/></svg>