<svg xmlns="http://www.w3.org/2000/svg" xmlns:xlink="http://www.w3.org/1999/xlink" width="100" zoomAndPan="magnify" viewBox="0 0 75.119995 83.04" height="100" preserveAspectRatio="xMidYMid meet" version="1.2"><defs><clipPath id="e55df148d7"><path d="M 52 34 L 68.234375 34 L 68.234375 54 L 52 54 Z M 52 34 "/></clipPath><clipPath id="7c8727e606"><path d="M 40 6.359375 L 53 6.359375 L 53 19 L 40 19 Z M 40 6.359375 "/></clipPath><clipPath id="a2b4e4493b"><path d="M 5.964844 6.359375 L 53 6.359375 L 53 67.890625 L 5.964844 67.890625 Z M 5.964844 6.359375 "/></clipPath></defs><g id="07ff91b363"><path style=" stroke:none;fill-rule:nonzero;fill:#000000;fill-opacity:1;" d="M 45.027344 63.539062 C 44.582031 63.539062 44.144531 63.417969 43.761719 63.191406 L 40.933594 61.507812 C 40.71875 61.382812 40.566406 61.175781 40.507812 60.9375 C 40.445312 60.699219 40.484375 60.449219 40.609375 60.234375 C 40.734375 60.023438 40.941406 59.871094 41.179688 59.8125 C 41.417969 59.75 41.667969 59.789062 41.878906 59.914062 L 44.703125 61.59375 C 44.800781 61.652344 44.914062 61.683594 45.027344 61.683594 C 45.132812 61.6875 45.238281 61.660156 45.332031 61.609375 C 45.421875 61.5625 45.503906 61.488281 45.5625 61.398438 C 45.609375 61.324219 45.640625 61.242188 45.65625 61.15625 C 45.667969 61.070312 45.664062 60.984375 45.644531 60.898438 C 45.625 60.816406 45.589844 60.738281 45.539062 60.671875 C 45.484375 60.605469 45.421875 60.546875 45.347656 60.507812 L 44.019531 59.75 C 43.914062 59.6875 43.820312 59.605469 43.746094 59.511719 C 43.671875 59.414062 43.617188 59.304688 43.585938 59.1875 C 43.519531 58.949219 43.554688 58.695312 43.675781 58.480469 C 43.796875 58.269531 44 58.113281 44.238281 58.046875 C 44.472656 57.984375 44.726562 58.015625 44.941406 58.136719 L 46.261719 58.890625 C 46.554688 59.058594 46.8125 59.28125 47.015625 59.550781 C 47.21875 59.820312 47.367188 60.128906 47.445312 60.457031 C 47.535156 60.824219 47.542969 61.207031 47.464844 61.574219 C 47.382812 61.945312 47.222656 62.292969 46.988281 62.589844 C 46.753906 62.886719 46.457031 63.125 46.117188 63.289062 C 45.777344 63.457031 45.402344 63.539062 45.027344 63.539062 Z M 45.027344 63.539062 "/><path style=" stroke:none;fill-rule:nonzero;fill:#000000;fill-opacity:1;" d="M 39.472656 63.351562 C 38.984375 63.351562 38.511719 63.191406 38.125 62.898438 C 38.121094 62.898438 38.117188 62.894531 38.113281 62.890625 C 37.640625 62.53125 37.324219 62 37.238281 61.414062 C 37.152344 60.824219 37.300781 60.226562 37.652344 59.746094 L 39.238281 57.589844 C 39.59375 57.105469 40.125 56.785156 40.71875 56.695312 C 41.308594 56.605469 41.914062 56.753906 42.394531 57.109375 C 42.878906 57.464844 43.199219 57.996094 43.292969 58.585938 C 43.382812 59.179688 43.234375 59.78125 42.882812 60.265625 L 41.296875 62.425781 C 41.121094 62.667969 40.898438 62.871094 40.644531 63.027344 C 40.386719 63.179688 40.105469 63.28125 39.808594 63.324219 C 39.699219 63.339844 39.585938 63.351562 39.472656 63.351562 Z M 39.238281 61.417969 C 39.324219 61.480469 39.433594 61.503906 39.539062 61.488281 C 39.644531 61.472656 39.738281 61.414062 39.800781 61.328125 L 41.386719 59.167969 C 41.417969 59.125 41.441406 59.074219 41.453125 59.019531 C 41.464844 58.96875 41.46875 58.910156 41.457031 58.859375 C 41.449219 58.804688 41.429688 58.753906 41.398438 58.707031 C 41.367188 58.660156 41.328125 58.621094 41.28125 58.589844 C 41.195312 58.53125 41.089844 58.511719 40.988281 58.53125 C 40.886719 58.546875 40.792969 58.605469 40.734375 58.6875 L 39.148438 60.847656 C 39.085938 60.933594 39.058594 61.039062 39.074219 61.148438 C 39.089844 61.253906 39.144531 61.347656 39.230469 61.410156 C 39.234375 61.414062 39.234375 61.414062 39.238281 61.417969 Z M 39.238281 61.417969 "/><path style=" stroke:none;fill-rule:nonzero;fill:#000000;fill-opacity:1;" d="M 51.671875 59.847656 C 51.1875 59.847656 50.714844 59.71875 50.296875 59.46875 L 44.695312 56.136719 C 44.589844 56.074219 44.496094 55.992188 44.421875 55.894531 C 44.347656 55.796875 44.292969 55.6875 44.261719 55.570312 C 44.230469 55.449219 44.226562 55.328125 44.242188 55.203125 C 44.261719 55.082031 44.300781 54.96875 44.363281 54.863281 C 44.425781 54.757812 44.507812 54.664062 44.605469 54.589844 C 44.707031 54.519531 44.816406 54.464844 44.9375 54.4375 C 45.054688 54.40625 45.179688 54.398438 45.300781 54.417969 C 45.421875 54.4375 45.535156 54.480469 45.640625 54.542969 L 51.246094 57.875 C 51.4375 57.988281 51.664062 58.019531 51.878906 57.964844 C 52.09375 57.914062 52.28125 57.777344 52.398438 57.585938 C 52.511719 57.398438 52.550781 57.167969 52.5 56.953125 C 52.449219 56.734375 52.316406 56.546875 52.128906 56.425781 L 49.75 54.917969 C 49.644531 54.855469 49.554688 54.769531 49.484375 54.671875 C 49.414062 54.570312 49.363281 54.457031 49.335938 54.339844 C 49.308594 54.21875 49.304688 54.097656 49.324219 53.976562 C 49.347656 53.855469 49.390625 53.742188 49.457031 53.636719 C 49.523438 53.535156 49.605469 53.445312 49.707031 53.375 C 49.808594 53.304688 49.917969 53.253906 50.039062 53.226562 C 50.160156 53.199219 50.28125 53.199219 50.402344 53.21875 C 50.523438 53.242188 50.636719 53.285156 50.738281 53.351562 L 53.121094 54.859375 C 53.617188 55.171875 53.996094 55.640625 54.203125 56.1875 C 54.410156 56.734375 54.433594 57.335938 54.269531 57.898438 C 54.105469 58.460938 53.765625 58.957031 53.296875 59.308594 C 52.828125 59.660156 52.257812 59.847656 51.671875 59.847656 Z M 51.671875 59.847656 "/><path style=" stroke:none;fill-rule:nonzero;fill:#000000;fill-opacity:1;" d="M 48.363281 61.832031 C 47.910156 61.832031 47.460938 61.710938 47.066406 61.484375 L 43.429688 59.40625 C 43.324219 59.347656 43.234375 59.265625 43.160156 59.167969 C 43.082031 59.074219 43.027344 58.964844 42.996094 58.84375 C 42.964844 58.726562 42.957031 58.605469 42.972656 58.484375 C 42.988281 58.363281 43.027344 58.246094 43.085938 58.140625 C 43.148438 58.035156 43.226562 57.941406 43.324219 57.867188 C 43.421875 57.792969 43.53125 57.738281 43.648438 57.707031 C 43.765625 57.675781 43.886719 57.664062 44.007812 57.679688 C 44.128906 57.695312 44.246094 57.734375 44.351562 57.796875 L 47.984375 59.875 C 48.148438 59.96875 48.339844 59.996094 48.523438 59.957031 C 48.707031 59.917969 48.871094 59.8125 48.980469 59.660156 C 49.042969 59.574219 49.085938 59.476562 49.109375 59.375 C 49.132812 59.269531 49.132812 59.160156 49.113281 59.058594 C 49.089844 58.953125 49.046875 58.855469 48.988281 58.765625 C 48.925781 58.679688 48.84375 58.609375 48.753906 58.554688 L 46.3125 57.105469 C 46.207031 57.042969 46.113281 56.960938 46.042969 56.863281 C 45.96875 56.765625 45.914062 56.652344 45.886719 56.535156 C 45.855469 56.417969 45.847656 56.292969 45.867188 56.171875 C 45.882812 56.054688 45.925781 55.9375 45.984375 55.832031 C 46.046875 55.726562 46.128906 55.636719 46.226562 55.5625 C 46.324219 55.488281 46.4375 55.4375 46.554688 55.40625 C 46.671875 55.375 46.796875 55.371094 46.914062 55.386719 C 47.035156 55.40625 47.152344 55.445312 47.257812 55.507812 L 49.699219 56.957031 C 50.195312 57.25 50.578125 57.699219 50.792969 58.230469 C 51.007812 58.761719 51.039062 59.351562 50.890625 59.902344 C 50.738281 60.457031 50.40625 60.945312 49.953125 61.292969 C 49.496094 61.640625 48.9375 61.832031 48.363281 61.832031 Z M 48.363281 61.832031 "/><path style=" stroke:none;fill-rule:nonzero;fill:#000000;fill-opacity:1;" d="M 31.363281 54.746094 C 31.222656 54.746094 31.085938 54.710938 30.957031 54.652344 C 30.832031 54.589844 30.71875 54.5 30.632812 54.386719 L 28.460938 51.601562 C 28.335938 51.460938 28.257812 51.285156 28.234375 51.101562 C 28.210938 50.914062 28.246094 50.726562 28.332031 50.558594 L 33.589844 40.441406 C 33.648438 40.332031 33.726562 40.234375 33.824219 40.152344 C 33.921875 40.074219 34.035156 40.015625 34.152344 39.980469 C 34.273438 39.945312 34.398438 39.933594 34.523438 39.949219 C 34.648438 39.964844 34.769531 40.003906 34.878906 40.066406 L 36.960938 41.273438 C 37.75 41.726562 38.664062 41.902344 39.5625 41.777344 L 40.941406 41.355469 C 41.0625 41.320312 41.1875 41.308594 41.3125 41.320312 C 41.4375 41.332031 41.558594 41.371094 41.667969 41.429688 C 41.777344 41.492188 41.871094 41.574219 41.949219 41.671875 C 42.027344 41.773438 42.082031 41.886719 42.113281 42.003906 C 42.144531 42.125 42.152344 42.253906 42.136719 42.378906 C 42.117188 42.5 42.074219 42.621094 42.007812 42.726562 C 41.945312 42.832031 41.859375 42.925781 41.757812 43 C 41.65625 43.074219 41.539062 43.125 41.417969 43.152344 L 40.035156 43.570312 C 39.996094 43.585938 39.953125 43.59375 39.910156 43.601562 C 38.574219 43.808594 37.207031 43.554688 36.035156 42.878906 L 34.789062 42.160156 L 30.253906 50.882812 L 32.09375 53.246094 C 32.203125 53.382812 32.269531 53.546875 32.285156 53.71875 C 32.304688 53.890625 32.273438 54.066406 32.199219 54.222656 C 32.121094 54.378906 32.003906 54.511719 31.855469 54.601562 C 31.707031 54.695312 31.539062 54.746094 31.363281 54.746094 Z M 31.363281 54.746094 "/><path style=" stroke:none;fill-rule:nonzero;fill:#000000;fill-opacity:1;" d="M 54.914062 57.628906 C 54.328125 57.628906 53.753906 57.460938 53.257812 57.144531 L 45.339844 52.117188 C 45.132812 51.984375 44.988281 51.777344 44.9375 51.539062 C 44.882812 51.296875 44.925781 51.046875 45.058594 50.839844 C 45.1875 50.636719 45.398438 50.488281 45.636719 50.433594 C 45.875 50.378906 46.125 50.421875 46.332031 50.550781 L 54.257812 55.578125 C 54.453125 55.707031 54.683594 55.773438 54.914062 55.769531 C 55.109375 55.769531 55.300781 55.726562 55.476562 55.636719 C 55.648438 55.546875 55.800781 55.421875 55.914062 55.261719 C 56.09375 55.027344 56.183594 54.734375 56.160156 54.441406 C 56.140625 54.148438 56.011719 53.871094 55.796875 53.664062 C 55.796875 53.660156 55.792969 53.660156 55.789062 53.65625 C 55.742188 53.609375 55.695312 53.566406 55.640625 53.527344 L 49.238281 49.007812 C 48.179688 48.25 46.941406 47.78125 45.644531 47.644531 C 44.351562 47.507812 43.042969 47.703125 41.84375 48.21875 L 41.136719 48.519531 C 40.472656 48.804688 39.730469 48.835938 39.046875 48.609375 C 38.359375 48.382812 37.78125 47.914062 37.417969 47.292969 C 37.050781 46.667969 36.925781 45.9375 37.0625 45.226562 C 37.199219 44.519531 37.589844 43.882812 38.160156 43.441406 L 40.417969 41.691406 C 41.46875 40.878906 42.699219 40.332031 44.007812 40.101562 C 45.3125 39.871094 46.65625 39.960938 47.921875 40.363281 L 49.308594 40.808594 C 50.542969 41.203125 51.878906 41.136719 53.070312 40.625 L 54.09375 40.183594 C 54.308594 40.089844 54.550781 40.085938 54.769531 40.164062 C 54.992188 40.242188 55.175781 40.402344 55.28125 40.609375 L 60.363281 50.386719 C 60.464844 50.585938 60.492188 50.8125 60.441406 51.03125 C 60.386719 51.25 60.257812 51.441406 60.074219 51.570312 L 57.726562 53.234375 C 57.945312 53.703125 58.039062 54.222656 58.003906 54.742188 C 57.964844 55.261719 57.800781 55.761719 57.519531 56.199219 C 57.242188 56.636719 56.855469 56.996094 56.402344 57.246094 C 55.945312 57.496094 55.433594 57.625 54.914062 57.628906 Z M 44.847656 45.746094 C 46.804688 45.746094 48.714844 46.355469 50.308594 47.492188 L 56.476562 51.847656 L 58.34375 50.523438 L 54.035156 42.230469 L 53.800781 42.332031 C 52.199219 43.019531 50.40625 43.105469 48.742188 42.574219 L 47.359375 42.132812 C 46.378906 41.820312 45.339844 41.75 44.328125 41.929688 C 43.316406 42.105469 42.363281 42.527344 41.554688 43.15625 L 39.292969 44.910156 C 39.171875 45.003906 39.074219 45.121094 39 45.253906 C 38.925781 45.390625 38.882812 45.539062 38.867188 45.691406 C 38.855469 45.84375 38.871094 46 38.921875 46.144531 C 38.96875 46.289062 39.046875 46.421875 39.152344 46.535156 C 39.308594 46.707031 39.511719 46.828125 39.738281 46.875 C 39.964844 46.925781 40.199219 46.902344 40.410156 46.8125 L 41.117188 46.511719 C 42.296875 46.007812 43.566406 45.746094 44.847656 45.746094 Z M 44.847656 45.746094 "/><path style=" stroke:none;fill-rule:nonzero;fill:#000000;fill-opacity:1;" d="M 34.660156 60.015625 C 34.09375 60.015625 33.542969 59.828125 33.09375 59.480469 C 32.558594 59.066406 32.207031 58.460938 32.109375 57.792969 C 32.015625 57.121094 32.183594 56.441406 32.578125 55.894531 L 34.804688 52.855469 C 35.203125 52.308594 35.796875 51.941406 36.460938 51.828125 C 37.121094 51.714844 37.804688 51.867188 38.359375 52.25 L 38.363281 52.253906 C 38.648438 52.449219 38.890625 52.703125 39.078125 52.996094 C 39.265625 53.285156 39.390625 53.613281 39.449219 53.957031 C 39.507812 54.296875 39.496094 54.648438 39.417969 54.988281 C 39.335938 55.324219 39.1875 55.644531 38.984375 55.921875 L 36.753906 58.960938 C 36.550781 59.238281 36.292969 59.472656 35.996094 59.648438 C 35.699219 59.828125 35.371094 59.941406 35.03125 59.992188 C 34.910156 60.007812 34.785156 60.015625 34.660156 60.015625 Z M 36.890625 53.652344 C 36.777344 53.652344 36.664062 53.679688 36.5625 53.730469 C 36.457031 53.785156 36.371094 53.859375 36.300781 53.953125 L 34.074219 56.992188 C 33.960938 57.148438 33.914062 57.339844 33.941406 57.53125 C 33.96875 57.71875 34.070312 57.890625 34.21875 58.007812 C 34.296875 58.070312 34.386719 58.113281 34.480469 58.136719 C 34.574219 58.160156 34.671875 58.167969 34.769531 58.152344 C 34.867188 58.140625 34.960938 58.105469 35.042969 58.054688 C 35.128906 58.007812 35.199219 57.941406 35.257812 57.859375 L 37.488281 54.824219 C 37.546875 54.746094 37.589844 54.65625 37.613281 54.558594 C 37.632812 54.464844 37.636719 54.363281 37.621094 54.269531 C 37.605469 54.171875 37.570312 54.078125 37.515625 53.996094 C 37.464844 53.914062 37.394531 53.839844 37.316406 53.785156 L 37.3125 53.785156 C 37.191406 53.699219 37.042969 53.652344 36.890625 53.652344 Z M 36.890625 53.652344 "/><path style=" stroke:none;fill-rule:nonzero;fill:#000000;fill-opacity:1;" d="M 32.292969 57.691406 C 31.832031 57.6875 31.378906 57.5625 30.988281 57.320312 C 30.59375 57.078125 30.277344 56.730469 30.070312 56.320312 C 29.863281 55.90625 29.769531 55.449219 29.808594 54.988281 C 29.847656 54.527344 30.011719 54.089844 30.28125 53.714844 L 31.558594 51.96875 C 31.9375 51.445312 32.507812 51.09375 33.144531 50.980469 C 33.78125 50.871094 34.4375 51.011719 34.972656 51.375 L 34.453125 52.144531 L 34.972656 51.378906 C 35.253906 51.566406 35.488281 51.808594 35.671875 52.089844 C 35.855469 52.371094 35.976562 52.6875 36.035156 53.019531 C 36.09375 53.351562 36.082031 53.691406 36.007812 54.019531 C 35.929688 54.34375 35.789062 54.652344 35.589844 54.925781 L 34.3125 56.667969 C 34.117188 56.933594 33.875 57.160156 33.59375 57.328125 C 33.3125 57.5 33 57.613281 32.675781 57.660156 C 32.546875 57.679688 32.421875 57.691406 32.292969 57.691406 Z M 33.570312 52.804688 C 33.472656 52.804688 33.371094 52.828125 33.28125 52.871094 C 33.191406 52.917969 33.113281 52.984375 33.054688 53.066406 L 31.777344 54.8125 C 31.679688 54.949219 31.636719 55.121094 31.660156 55.289062 C 31.6875 55.457031 31.78125 55.609375 31.917969 55.710938 C 32.054688 55.8125 32.226562 55.851562 32.394531 55.828125 C 32.5625 55.800781 32.714844 55.707031 32.816406 55.570312 L 34.09375 53.828125 C 34.144531 53.757812 34.179688 53.679688 34.199219 53.59375 C 34.21875 53.511719 34.222656 53.421875 34.207031 53.335938 C 34.195312 53.253906 34.164062 53.171875 34.117188 53.097656 C 34.070312 53.027344 34.007812 52.964844 33.9375 52.914062 C 33.828125 52.84375 33.703125 52.804688 33.570312 52.804688 Z M 33.570312 52.804688 "/><path style=" stroke:none;fill-rule:nonzero;fill:#000000;fill-opacity:1;" d="M 37.121094 61.914062 C 36.59375 61.914062 36.082031 61.742188 35.660156 61.425781 C 35.65625 61.425781 35.652344 61.421875 35.648438 61.421875 C 35.136719 61.03125 34.796875 60.457031 34.703125 59.816406 C 34.609375 59.179688 34.769531 58.53125 35.148438 58.007812 L 36.960938 55.542969 C 37.34375 55.019531 37.921875 54.671875 38.5625 54.574219 C 39.207031 54.472656 39.859375 54.636719 40.382812 55.019531 C 40.90625 55.40625 41.257812 55.980469 41.355469 56.625 C 41.453125 57.265625 41.292969 57.921875 40.910156 58.445312 L 39.101562 60.914062 C 38.910156 61.175781 38.667969 61.394531 38.390625 61.5625 C 38.113281 61.730469 37.808594 61.839844 37.488281 61.886719 C 37.363281 61.90625 37.242188 61.914062 37.121094 61.914062 Z M 36.773438 59.941406 C 36.835938 59.988281 36.90625 60.023438 36.984375 60.039062 C 37.058594 60.058594 37.136719 60.0625 37.214844 60.050781 C 37.292969 60.039062 37.367188 60.011719 37.433594 59.972656 C 37.5 59.929688 37.558594 59.878906 37.605469 59.816406 L 39.414062 57.347656 C 39.460938 57.28125 39.496094 57.210938 39.511719 57.128906 C 39.53125 57.050781 39.535156 56.96875 39.519531 56.890625 C 39.503906 56.8125 39.476562 56.734375 39.429688 56.667969 C 39.386719 56.601562 39.328125 56.542969 39.261719 56.5 C 39.132812 56.414062 38.980469 56.382812 38.828125 56.410156 C 38.679688 56.4375 38.542969 56.519531 38.453125 56.644531 L 36.644531 59.109375 C 36.550781 59.234375 36.511719 59.394531 36.535156 59.546875 C 36.558594 59.703125 36.640625 59.84375 36.765625 59.9375 C 36.769531 59.941406 36.769531 59.941406 36.773438 59.941406 Z M 36.773438 59.941406 "/><g clip-rule="nonzero" clip-path="url(#e55df148d7)"><path style=" stroke:none;fill-rule:nonzero;fill:#000000;fill-opacity:1;" d="M 61.015625 53.128906 C 60.617188 53.128906 60.226562 53.019531 59.886719 52.8125 C 59.546875 52.605469 59.269531 52.308594 59.085938 51.957031 L 53.238281 40.699219 C 52.980469 40.203125 52.921875 39.621094 53.078125 39.085938 C 53.238281 38.546875 53.597656 38.089844 54.082031 37.808594 L 58.863281 35.128906 C 59.15625 34.964844 59.480469 34.859375 59.816406 34.820312 C 60.152344 34.785156 60.488281 34.816406 60.8125 34.910156 C 61.136719 35.007812 61.4375 35.167969 61.695312 35.382812 C 61.957031 35.597656 62.171875 35.863281 62.328125 36.164062 L 67.859375 46.800781 C 68.164062 47.382812 68.230469 48.058594 68.042969 48.683594 C 67.855469 49.3125 67.429688 49.839844 66.859375 50.160156 L 62.09375 52.839844 C 61.765625 53.03125 61.394531 53.128906 61.015625 53.128906 Z M 60.09375 36.660156 C 59.980469 36.660156 59.867188 36.691406 59.769531 36.746094 L 55 39.421875 C 54.929688 39.464844 54.878906 39.53125 54.859375 39.609375 C 54.835938 39.6875 54.847656 39.773438 54.882812 39.84375 L 60.734375 51.101562 C 60.753906 51.136719 60.78125 51.171875 60.8125 51.199219 C 60.847656 51.226562 60.886719 51.246094 60.925781 51.257812 C 60.96875 51.269531 61.011719 51.273438 61.054688 51.269531 C 61.097656 51.265625 61.136719 51.25 61.175781 51.230469 L 65.949219 48.542969 C 66.101562 48.457031 66.214844 48.320312 66.261719 48.152344 C 66.3125 47.988281 66.292969 47.8125 66.214844 47.65625 L 60.683594 37.019531 C 60.640625 36.941406 60.585938 36.871094 60.515625 36.8125 C 60.449219 36.757812 60.367188 36.714844 60.285156 36.691406 C 60.222656 36.671875 60.15625 36.660156 60.09375 36.660156 Z M 60.09375 36.660156 "/></g><path style=" stroke:none;fill-rule:nonzero;fill:#000000;fill-opacity:1;" d="M 27.855469 53.203125 C 27.503906 53.203125 27.164062 53.113281 26.863281 52.9375 C 26.859375 52.9375 26.855469 52.933594 26.847656 52.929688 L 22.328125 50.210938 C 21.78125 49.878906 21.378906 49.351562 21.203125 48.734375 C 21.03125 48.117188 21.097656 47.457031 21.390625 46.890625 L 26.921875 36.253906 C 27.082031 35.949219 27.300781 35.679688 27.566406 35.464844 C 27.832031 35.246094 28.140625 35.085938 28.46875 34.992188 C 28.800781 34.898438 29.148438 34.875 29.488281 34.917969 C 29.828125 34.964844 30.15625 35.078125 30.449219 35.253906 L 34.878906 37.910156 C 35.316406 38.164062 35.640625 38.578125 35.78125 39.066406 C 35.921875 39.554688 35.871094 40.078125 35.636719 40.527344 L 29.601562 52.140625 C 29.4375 52.460938 29.183594 52.730469 28.875 52.917969 C 28.570312 53.105469 28.214844 53.203125 27.855469 53.203125 Z M 27.796875 51.335938 C 27.808594 51.34375 27.824219 51.347656 27.839844 51.347656 C 27.855469 51.351562 27.871094 51.347656 27.886719 51.34375 C 27.902344 51.339844 27.914062 51.332031 27.925781 51.320312 C 27.9375 51.3125 27.949219 51.296875 27.957031 51.285156 L 33.992188 39.671875 C 34.003906 39.644531 34.007812 39.613281 34 39.582031 C 33.992188 39.554688 33.972656 39.527344 33.945312 39.511719 C 33.941406 39.511719 33.933594 39.507812 33.929688 39.503906 L 29.496094 36.847656 C 29.417969 36.800781 29.332031 36.769531 29.242188 36.757812 C 29.152344 36.746094 29.0625 36.753906 28.976562 36.777344 C 28.886719 36.800781 28.808594 36.84375 28.738281 36.902344 C 28.667969 36.960938 28.609375 37.03125 28.566406 37.109375 L 23.039062 47.746094 C 22.960938 47.894531 22.941406 48.070312 22.988281 48.230469 C 23.035156 48.394531 23.140625 48.535156 23.285156 48.621094 Z M 27.796875 51.335938 "/><path style=" stroke:none;fill-rule:nonzero;fill:#000000;fill-opacity:1;" d="M 13.40625 61.992188 C 13.25 61.992188 13.101562 61.953125 12.964844 61.882812 C 12.832031 61.808594 12.714844 61.703125 12.632812 61.574219 C 12.546875 61.449219 12.496094 61.300781 12.480469 61.148438 C 12.46875 60.996094 12.492188 60.84375 12.550781 60.699219 L 13.621094 58.183594 C 13.792969 57.773438 14.078125 57.417969 14.4375 57.152344 C 14.796875 56.886719 15.222656 56.722656 15.667969 56.679688 C 16.109375 56.636719 16.558594 56.710938 16.964844 56.902344 C 17.371094 57.089844 17.714844 57.386719 17.96875 57.753906 L 18.917969 59.148438 C 18.972656 59.226562 19.039062 59.292969 19.121094 59.34375 C 19.199219 59.394531 19.285156 59.429688 19.378906 59.445312 C 19.472656 59.460938 19.566406 59.457031 19.65625 59.433594 C 19.75 59.414062 19.835938 59.375 19.910156 59.316406 C 20.601562 58.808594 21.433594 58.519531 22.296875 58.492188 C 23.15625 58.464844 24.003906 58.703125 24.726562 59.167969 C 25.332031 59.550781 26.578125 60.136719 28.105469 59.734375 C 28.34375 59.671875 28.597656 59.707031 28.808594 59.832031 C 29.023438 59.957031 29.175781 60.160156 29.238281 60.398438 C 29.300781 60.636719 29.265625 60.886719 29.140625 61.101562 C 29.015625 61.3125 28.8125 61.46875 28.574219 61.53125 C 26.367188 62.109375 24.59375 61.28125 23.734375 60.734375 C 23.328125 60.46875 22.847656 60.335938 22.359375 60.351562 C 21.871094 60.363281 21.402344 60.523438 21.007812 60.8125 C 20.730469 61.015625 20.417969 61.160156 20.085938 61.242188 C 19.75 61.320312 19.40625 61.332031 19.066406 61.273438 C 18.730469 61.214844 18.40625 61.089844 18.117188 60.90625 C 17.828125 60.71875 17.582031 60.480469 17.386719 60.195312 L 16.4375 58.800781 C 16.371094 58.707031 16.285156 58.632812 16.179688 58.582031 C 16.078125 58.535156 15.960938 58.515625 15.847656 58.527344 C 15.734375 58.539062 15.628906 58.578125 15.535156 58.648438 C 15.445312 58.714844 15.371094 58.804688 15.328125 58.910156 L 14.257812 61.425781 C 14.1875 61.59375 14.070312 61.738281 13.917969 61.835938 C 13.765625 61.9375 13.585938 61.992188 13.40625 61.992188 Z M 13.40625 61.992188 "/><g clip-rule="nonzero" clip-path="url(#7c8727e606)"><path style=" stroke:none;fill-rule:nonzero;fill:#000000;fill-opacity:1;" d="M 51.8125 18.558594 L 41.488281 18.558594 C 41.242188 18.558594 41.003906 18.460938 40.832031 18.289062 C 40.65625 18.113281 40.558594 17.878906 40.558594 17.632812 L 40.558594 7.300781 C 40.558594 7.117188 40.613281 6.9375 40.714844 6.785156 C 40.820312 6.632812 40.964844 6.515625 41.132812 6.445312 C 41.300781 6.375 41.488281 6.355469 41.667969 6.390625 C 41.847656 6.425781 42.015625 6.515625 42.144531 6.644531 L 52.46875 16.976562 C 52.597656 17.105469 52.6875 17.269531 52.722656 17.449219 C 52.757812 17.628906 52.738281 17.816406 52.667969 17.988281 C 52.597656 18.15625 52.480469 18.300781 52.328125 18.402344 C 52.175781 18.503906 51.996094 18.558594 51.8125 18.558594 Z M 42.414062 16.703125 L 49.574219 16.703125 L 42.414062 9.542969 Z M 42.414062 16.703125 "/></g><g clip-rule="nonzero" clip-path="url(#a2b4e4493b)"><path style=" stroke:none;fill-rule:nonzero;fill:#000000;fill-opacity:1;" d="M 51.8125 67.886719 L 6.902344 67.886719 C 6.65625 67.886719 6.421875 67.789062 6.246094 67.617188 C 6.074219 67.441406 5.976562 67.207031 5.976562 66.960938 L 5.976562 7.300781 C 5.976562 7.054688 6.074219 6.820312 6.246094 6.644531 C 6.421875 6.472656 6.65625 6.375 6.902344 6.375 L 41.488281 6.375 C 41.734375 6.375 41.96875 6.472656 42.144531 6.644531 L 52.46875 16.976562 C 52.640625 17.148438 52.738281 17.386719 52.738281 17.632812 L 52.738281 35.824219 C 52.738281 36.070312 52.640625 36.308594 52.46875 36.480469 C 52.292969 36.65625 52.058594 36.753906 51.8125 36.753906 C 51.566406 36.753906 51.332031 36.65625 51.15625 36.480469 C 50.984375 36.308594 50.886719 36.070312 50.886719 35.824219 L 50.886719 18.015625 L 41.101562 8.230469 L 7.832031 8.230469 L 7.832031 66.03125 L 50.886719 66.03125 L 50.886719 64.699219 C 50.886719 64.453125 50.984375 64.21875 51.15625 64.042969 C 51.332031 63.871094 51.566406 63.773438 51.8125 63.773438 C 52.058594 63.773438 52.292969 63.871094 52.46875 64.042969 C 52.640625 64.21875 52.738281 64.453125 52.738281 64.699219 L 52.738281 66.960938 C 52.738281 67.207031 52.640625 67.441406 52.46875 67.617188 C 52.292969 67.789062 52.058594 67.886719 51.8125 67.886719 Z M 51.8125 67.886719 "/></g><path style=" stroke:none;fill-rule:nonzero;fill:#000000;fill-opacity:1;" d="M 33.558594 15.917969 L 13.40625 15.917969 C 13.160156 15.917969 12.921875 15.820312 12.75 15.644531 C 12.574219 15.46875 12.476562 15.234375 12.476562 14.988281 C 12.476562 14.742188 12.574219 14.507812 12.75 14.332031 C 12.921875 14.15625 13.160156 14.058594 13.40625 14.058594 L 33.558594 14.058594 C 33.804688 14.058594 34.039062 14.15625 34.210938 14.332031 C 34.386719 14.507812 34.484375 14.742188 34.484375 14.988281 C 34.484375 15.234375 34.386719 15.46875 34.210938 15.644531 C 34.039062 15.820312 33.804688 15.917969 33.558594 15.917969 Z M 33.558594 15.917969 "/><path style=" stroke:none;fill-rule:nonzero;fill:#000000;fill-opacity:1;" d="M 45.167969 23.34375 L 13.40625 23.34375 C 13.160156 23.34375 12.921875 23.246094 12.75 23.074219 C 12.574219 22.898438 12.476562 22.664062 12.476562 22.417969 C 12.476562 22.171875 12.574219 21.933594 12.75 21.761719 C 12.921875 21.585938 13.160156 21.488281 13.40625 21.488281 L 45.167969 21.488281 C 45.414062 21.488281 45.648438 21.585938 45.824219 21.761719 C 45.996094 21.933594 46.09375 22.171875 46.09375 22.417969 C 46.09375 22.664062 45.996094 22.898438 45.824219 23.074219 C 45.648438 23.246094 45.414062 23.34375 45.167969 23.34375 Z M 45.167969 23.34375 "/><path style=" stroke:none;fill-rule:nonzero;fill:#000000;fill-opacity:1;" d="M 45.167969 30.773438 L 13.40625 30.773438 C 13.160156 30.773438 12.921875 30.675781 12.75 30.5 C 12.574219 30.328125 12.476562 30.089844 12.476562 29.84375 C 12.476562 29.597656 12.574219 29.363281 12.75 29.1875 C 12.921875 29.015625 13.160156 28.917969 13.40625 28.917969 L 45.167969 28.917969 C 45.414062 28.917969 45.648438 29.015625 45.824219 29.1875 C 45.996094 29.363281 46.09375 29.597656 46.09375 29.84375 C 46.09375 30.089844 45.996094 30.328125 45.824219 30.5 C 45.648438 30.675781 45.414062 30.773438 45.167969 30.773438 Z M 45.167969 30.773438 "/></g></svg>