<svg xmlns="http://www.w3.org/2000/svg" xmlns:xlink="http://www.w3.org/1999/xlink" width="60" zoomAndPan="magnify" viewBox="0 0 45 44.999999" height="60" preserveAspectRatio="xMidYMid meet" version="1.0"><defs><clipPath id="66045f8b6a"><path d="M 0.722656 1 L 43.472656 1 L 43.472656 43.726562 L 0.722656 43.726562 Z M 0.722656 1 " clip-rule="nonzero"/></clipPath></defs><path fill="#000000" d="M 12.960938 20.066406 C 13.113281 20.074219 13.261719 20.078125 13.414062 20.078125 C 14.769531 20.078125 16 19.800781 17.152344 19.234375 C 17.277344 19.171875 17.328125 19.023438 17.269531 18.898438 C 17.207031 18.773438 17.058594 18.722656 16.933594 18.78125 C 15.730469 19.371094 14.4375 19.628906 12.984375 19.566406 C 12.84375 19.558594 12.726562 19.667969 12.722656 19.804688 C 12.714844 19.945312 12.824219 20.0625 12.960938 20.066406 Z M 12.960938 20.066406 " fill-opacity="1" fill-rule="nonzero"/><path fill="#000000" d="M 19.851562 17.707031 C 19.894531 17.707031 19.9375 17.695312 19.976562 17.671875 C 20.527344 17.351562 20.917969 16.925781 21.074219 16.484375 C 21.121094 16.351562 21.054688 16.207031 20.921875 16.160156 C 20.792969 16.117188 20.652344 16.183594 20.605469 16.3125 C 20.488281 16.648438 20.175781 16.976562 19.726562 17.238281 C 19.609375 17.308594 19.566406 17.460938 19.636719 17.582031 C 19.683594 17.660156 19.765625 17.707031 19.851562 17.707031 Z M 19.851562 17.707031 " fill-opacity="1" fill-rule="nonzero"/><path fill="#000000" d="M 17.988281 21.066406 C 18.019531 21.175781 18.121094 21.246094 18.226562 21.246094 C 18.25 21.246094 18.277344 21.242188 18.300781 21.234375 C 19.011719 21.019531 19.816406 20.707031 20.355469 20.035156 C 20.441406 19.929688 20.425781 19.769531 20.316406 19.683594 C 20.210938 19.59375 20.054688 19.613281 19.964844 19.71875 C 19.511719 20.285156 18.796875 20.558594 18.15625 20.753906 C 18.023438 20.792969 17.949219 20.933594 17.988281 21.066406 Z M 17.988281 21.066406 " fill-opacity="1" fill-rule="nonzero"/><path fill="#000000" d="M 10.6875 21.628906 C 10.691406 21.628906 10.695312 21.628906 10.695312 21.628906 C 10.832031 21.628906 10.941406 21.523438 10.945312 21.386719 C 10.953125 21.25 10.84375 21.132812 10.707031 21.128906 C 9.765625 21.089844 8.832031 20.695312 8.144531 20.042969 C 8.046875 19.949219 7.886719 19.953125 7.792969 20.054688 C 7.699219 20.152344 7.703125 20.3125 7.804688 20.410156 C 8.574219 21.144531 9.625 21.585938 10.6875 21.628906 Z M 10.6875 21.628906 " fill-opacity="1" fill-rule="nonzero"/><path fill="#000000" d="M 10.03125 13.0625 C 9.976562 12.9375 9.828125 12.878906 9.703125 12.9375 C 9.578125 12.992188 9.519531 13.140625 9.578125 13.269531 L 9.925781 14.050781 C 9.96875 14.144531 10.058594 14.199219 10.152344 14.199219 C 10.1875 14.199219 10.222656 14.191406 10.253906 14.175781 C 10.382812 14.121094 10.4375 13.972656 10.382812 13.84375 Z M 10.03125 13.0625 " fill-opacity="1" fill-rule="nonzero"/><path fill="#000000" d="M 17.421875 16.0625 C 17.460938 16.082031 17.503906 16.09375 17.546875 16.09375 C 17.632812 16.09375 17.714844 16.050781 17.761719 15.96875 L 18.242188 15.136719 C 18.3125 15.019531 18.269531 14.863281 18.152344 14.792969 C 18.03125 14.726562 17.878906 14.765625 17.8125 14.886719 L 17.332031 15.71875 C 17.261719 15.835938 17.300781 15.992188 17.421875 16.0625 Z M 17.421875 16.0625 " fill-opacity="1" fill-rule="nonzero"/><path fill="#000000" d="M 12.632812 12.472656 C 12.6875 12.472656 12.738281 12.457031 12.78125 12.425781 L 13.398438 11.96875 C 13.507812 11.882812 13.53125 11.726562 13.449219 11.617188 C 13.367188 11.503906 13.210938 11.480469 13.101562 11.5625 L 12.484375 12.019531 C 12.375 12.101562 12.351562 12.257812 12.433594 12.371094 C 12.484375 12.4375 12.558594 12.472656 12.632812 12.472656 Z M 12.632812 12.472656 " fill-opacity="1" fill-rule="nonzero"/><path fill="#000000" d="M 16.402344 13.570312 C 16.421875 13.570312 16.4375 13.566406 16.457031 13.566406 L 17.171875 13.410156 C 17.304688 13.382812 17.390625 13.25 17.363281 13.113281 C 17.332031 12.976562 17.199219 12.890625 17.066406 12.917969 L 16.351562 13.074219 C 16.214844 13.101562 16.128906 13.234375 16.160156 13.371094 C 16.183594 13.488281 16.289062 13.570312 16.402344 13.570312 Z M 16.402344 13.570312 " fill-opacity="1" fill-rule="nonzero"/><g clip-path="url(#66045f8b6a)"><path fill="#000000" d="M 43.359375 26.332031 C 43.304688 25.746094 43.199219 25.152344 42.808594 24.753906 C 42.472656 24.417969 41.957031 24.246094 41.140625 24.207031 C 41.082031 24.199219 41.023438 24.195312 40.960938 24.195312 C 40.960938 24.195312 40.957031 24.195312 40.957031 24.195312 C 40.9375 24.195312 40.917969 24.195312 40.898438 24.195312 L 38.226562 24.257812 C 38.230469 24.253906 38.230469 24.253906 38.234375 24.25 C 38.386719 24.097656 38.546875 23.941406 38.617188 23.761719 C 38.707031 23.535156 38.65625 23.375 38.597656 23.277344 C 38.429688 22.996094 38.023438 22.953125 37.730469 22.917969 C 37.695312 22.914062 37.664062 22.910156 37.636719 22.90625 C 37.574219 22.898438 37.519531 22.890625 37.476562 22.886719 C 38.191406 22.390625 38.980469 21.769531 39.417969 21.167969 C 39.5 21.054688 39.476562 20.898438 39.367188 20.816406 C 39.253906 20.734375 39.097656 20.757812 39.015625 20.867188 C 38.671875 21.34375 38.066406 21.84375 37.46875 22.277344 C 37.546875 22.011719 37.597656 21.65625 37.433594 21.425781 C 37.371094 21.339844 37.226562 21.199219 36.945312 21.21875 C 36.730469 21.234375 36.542969 21.339844 36.375 21.429688 C 36.34375 21.449219 36.316406 21.464844 36.289062 21.480469 C 36.265625 21.492188 36.25 21.5 36.234375 21.503906 C 36.222656 21.445312 36.21875 21.355469 36.214844 21.304688 L 36.214844 21.296875 C 36.195312 21.015625 36.164062 20.496094 35.710938 20.328125 C 35.570312 20.277344 35.425781 20.289062 35.285156 20.359375 C 35.0625 20.472656 34.859375 20.746094 34.664062 21.199219 C 34.605469 21.332031 34.523438 21.539062 34.4375 21.820312 C 33.695312 21.429688 32.914062 21.441406 32.191406 21.863281 C 31.464844 22.289062 30.660156 23.210938 30.140625 24.210938 C 30.101562 24.289062 30.0625 24.367188 30.023438 24.449219 L 22.472656 24.621094 C 22.464844 24.621094 22.457031 24.625 22.449219 24.625 C 22.445312 24.625 22.441406 24.625 22.441406 24.625 C 22.4375 24.625 22.429688 24.625 22.425781 24.628906 C 22.421875 24.628906 22.421875 24.628906 22.417969 24.628906 C 22.414062 24.632812 22.410156 24.632812 22.40625 24.632812 C 22.402344 24.632812 22.398438 24.636719 22.394531 24.636719 C 22.390625 24.636719 22.386719 24.640625 22.382812 24.640625 C 22.378906 24.640625 22.378906 24.644531 22.375 24.644531 C 22.367188 24.648438 22.363281 24.652344 22.355469 24.652344 C 22.355469 24.65625 22.351562 24.65625 22.347656 24.65625 C 22.34375 24.660156 22.339844 24.664062 22.335938 24.664062 C 22.335938 24.667969 22.332031 24.667969 22.328125 24.671875 C 22.328125 24.671875 22.324219 24.675781 22.320312 24.679688 C 22.316406 24.679688 22.316406 24.683594 22.3125 24.683594 C 22.308594 24.6875 22.304688 24.691406 22.300781 24.695312 C 22.300781 24.695312 22.296875 24.699219 22.296875 24.699219 C 22.292969 24.703125 22.289062 24.707031 22.285156 24.710938 C 22.285156 24.714844 22.285156 24.714844 22.28125 24.714844 C 22.277344 24.722656 22.273438 24.726562 22.269531 24.734375 C 22.269531 24.734375 22.269531 24.738281 22.265625 24.738281 C 22.265625 24.742188 22.261719 24.75 22.257812 24.753906 C 22.257812 24.757812 22.253906 24.757812 22.253906 24.761719 C 22.253906 24.765625 22.25 24.769531 22.25 24.773438 C 22.246094 24.777344 22.246094 24.78125 22.246094 24.78125 C 22.242188 24.785156 22.242188 24.789062 22.242188 24.792969 C 22.238281 24.796875 22.238281 24.800781 22.238281 24.804688 C 22.238281 24.804688 22.238281 24.808594 22.234375 24.808594 C 22.234375 24.8125 22.234375 24.8125 22.234375 24.816406 C 22.234375 24.820312 22.234375 24.824219 22.230469 24.824219 C 22.230469 24.832031 22.230469 24.839844 22.230469 24.847656 C 22.226562 24.855469 22.226562 24.863281 22.226562 24.871094 C 22.226562 24.871094 22.226562 24.871094 22.226562 24.875 L 22.226562 31.863281 C 21.882812 31.707031 21.519531 31.578125 21.136719 31.46875 C 20.371094 31.257812 19.574219 31.15625 18.761719 31.171875 C 18.632812 31.175781 18.5 31.179688 18.371094 31.1875 C 17.941406 30.84375 17.316406 30.558594 16.542969 30.359375 C 16.453125 30.335938 16.359375 30.304688 16.273438 30.265625 C 15.800781 30.050781 15.625 29.621094 15.679688 28.820312 C 15.707031 28.441406 15.894531 28.085938 16.203125 27.8125 L 16.210938 27.804688 C 16.667969 27.675781 17.121094 27.515625 17.570312 27.320312 C 18.714844 26.816406 19.8125 26.082031 20.75 25.195312 C 21.640625 24.347656 22.382812 23.371094 22.898438 22.359375 C 23.417969 21.335938 23.691406 20.300781 23.691406 19.363281 C 23.691406 19.34375 23.691406 19.324219 23.6875 19.308594 C 23.691406 19.257812 23.691406 19.203125 23.691406 19.148438 C 23.691406 18.171875 23.101562 17.246094 22 16.464844 C 21.894531 16.074219 21.761719 15.691406 21.597656 15.320312 C 21.457031 14.992188 21.289062 14.671875 21.105469 14.367188 L 25.722656 4.75 C 25.757812 4.675781 25.796875 4.523438 25.667969 4.328125 C 25.472656 4.042969 24.972656 3.777344 24.769531 3.675781 C 24.5625 3.578125 24.046875 3.347656 23.703125 3.375 C 23.472656 3.390625 23.375 3.519531 23.339844 3.59375 L 19.929688 10.703125 L 19.207031 12.203125 C 18.566406 11.683594 17.851562 11.261719 17.074219 10.945312 C 16.609375 10.753906 16.136719 10.609375 15.652344 10.5 C 15.703125 10.445312 15.75 10.386719 15.796875 10.324219 C 16.226562 9.765625 16.445312 9.117188 16.433594 8.449219 C 16.417969 7.671875 16.027344 6.816406 15.433594 6.273438 C 14.972656 5.851562 14.4375 5.648438 13.886719 5.691406 C 13.441406 5.722656 13.109375 5.910156 12.785156 6.085938 C 12.699219 6.136719 12.613281 6.183594 12.527344 6.226562 C 12.417969 5.683594 12.363281 5.164062 12.367188 4.664062 C 12.375 4.015625 12.472656 3.40625 12.667969 2.851562 C 12.929688 2.097656 13.320312 1.597656 13.488281 1.4375 C 13.589844 1.34375 13.597656 1.1875 13.503906 1.085938 C 13.410156 0.980469 13.253906 0.976562 13.152344 1.070312 C 13.128906 1.089844 12.578125 1.605469 12.207031 2.652344 C 11.992188 3.261719 11.878906 3.929688 11.871094 4.632812 C 11.863281 5.203125 11.925781 5.796875 12.054688 6.410156 C 11.917969 6.449219 11.78125 6.480469 11.644531 6.507812 C 11.160156 6.617188 10.660156 6.726562 10.238281 7.199219 C 9.949219 7.523438 9.777344 7.949219 9.738281 8.429688 C 9.707031 8.855469 9.777344 9.3125 9.949219 9.757812 C 10.113281 10.183594 10.355469 10.570312 10.648438 10.871094 C 10.585938 10.894531 10.523438 10.917969 10.460938 10.945312 C 9.808594 11.210938 9.199219 11.554688 8.640625 11.964844 L 8.175781 9.457031 L 8.144531 9.292969 L 8.140625 9.261719 L 7.585938 6.277344 C 7.546875 6.074219 7.453125 5.894531 7.316406 5.757812 C 7.316406 5.757812 7.316406 5.753906 7.3125 5.753906 C 7.261719 5.703125 7.203125 5.65625 7.140625 5.621094 C 6.933594 5.496094 6.691406 5.46875 6.464844 5.546875 C 5.480469 5.875 4.605469 6.347656 3.84375 6.949219 C 3.839844 6.953125 3.839844 6.953125 3.835938 6.957031 C 3.832031 6.957031 3.828125 6.960938 3.824219 6.96875 C 3.820312 6.96875 3.816406 6.972656 3.816406 6.972656 C 3.609375 7.136719 3.414062 7.3125 3.226562 7.492188 C 3.226562 7.496094 3.226562 7.496094 3.226562 7.496094 C 3.113281 7.605469 3.007812 7.714844 2.902344 7.832031 C 2.238281 8.558594 1.691406 9.433594 1.265625 10.441406 C 1.261719 10.449219 1.257812 10.457031 1.253906 10.464844 C 1.253906 10.46875 1.25 10.46875 1.25 10.472656 C 1.085938 10.867188 0.9375 11.285156 0.808594 11.71875 C 0.730469 11.984375 0.757812 12.273438 0.890625 12.511719 C 1.011719 12.734375 1.203125 12.890625 1.429688 12.953125 L 1.886719 13.078125 L 4.207031 13.726562 L 6.441406 14.347656 C 6.253906 14.660156 6.082031 14.984375 5.9375 15.320312 C 5.796875 15.636719 5.679688 15.957031 5.585938 16.285156 C 4.316406 17.101562 3.628906 18.09375 3.628906 19.148438 C 3.628906 19.203125 3.632812 19.257812 3.636719 19.308594 C 3.632812 19.324219 3.628906 19.34375 3.628906 19.363281 C 3.628906 20.300781 3.90625 21.335938 4.425781 22.359375 C 4.941406 23.371094 5.683594 24.347656 6.574219 25.195312 C 7.507812 26.082031 8.609375 26.816406 9.753906 27.320312 C 10.609375 27.695312 11.484375 27.945312 12.367188 28.066406 C 12.527344 28.292969 12.621094 28.546875 12.636719 28.8125 C 12.660156 29.191406 12.632812 29.46875 12.554688 29.691406 C 12.46875 29.945312 12.3125 30.117188 12.066406 30.230469 L 11.953125 30.285156 C 11.925781 30.296875 11.902344 30.308594 11.875 30.320312 C 11.808594 30.234375 11.734375 30.152344 11.65625 30.074219 C 11.730469 29.789062 11.605469 29.488281 11.347656 29.335938 C 11.34375 29.335938 11.34375 29.332031 11.339844 29.332031 L 11.332031 29.328125 C 11.28125 29.296875 11.222656 29.289062 11.167969 29.296875 L 10.542969 29.261719 C 10.433594 29.070312 10.300781 28.898438 10.136719 28.742188 C 9.410156 28.058594 8.210938 27.855469 6.847656 28.179688 C 6.179688 28.339844 5.515625 28.617188 4.871094 29 C 4.191406 29.402344 3.5625 29.910156 3.011719 30.507812 C 2.457031 31.105469 1.996094 31.765625 1.636719 32.480469 C 1.300781 33.152344 1.074219 33.835938 0.960938 34.519531 C 0.726562 35.910156 1.007812 37.101562 1.734375 37.785156 C 1.894531 37.9375 2.074219 38.058594 2.269531 38.152344 L 2.367188 38.832031 C 2.375 38.867188 2.386719 38.902344 2.40625 38.929688 L 2.414062 38.941406 C 2.566406 39.175781 2.839844 39.285156 3.101562 39.226562 C 3.394531 39.496094 3.738281 39.691406 4.136719 39.808594 L 4.242188 40.445312 C 4.25 40.480469 4.261719 40.515625 4.28125 40.546875 L 4.289062 40.554688 C 4.441406 40.78125 4.707031 40.894531 4.960938 40.847656 C 4.960938 40.851562 4.960938 40.851562 4.960938 40.851562 C 5.460938 41.320312 6.183594 41.566406 7.027344 41.566406 C 7.414062 41.566406 7.824219 41.515625 8.25 41.414062 C 8.914062 41.253906 9.582031 40.976562 10.226562 40.59375 C 10.90625 40.1875 11.535156 39.679688 12.085938 39.085938 C 12.316406 38.839844 12.527344 38.585938 12.722656 38.316406 C 12.742188 38.367188 12.765625 38.414062 12.789062 38.464844 L 12.398438 38.996094 C 12.378906 39.027344 12.363281 39.058594 12.355469 39.09375 L 12.351562 39.105469 C 12.296875 39.375 12.402344 39.644531 12.613281 39.796875 C 12.628906 40.796875 13.316406 41.804688 14.5 42.566406 C 15.074219 42.9375 15.734375 43.226562 16.457031 43.425781 C 17.171875 43.625 17.921875 43.726562 18.683594 43.726562 C 18.730469 43.726562 18.777344 43.726562 18.828125 43.726562 C 19.636719 43.710938 20.433594 43.585938 21.1875 43.347656 C 21.902344 43.121094 22.550781 42.8125 23.117188 42.421875 C 24.257812 41.632812 24.910156 40.613281 24.910156 39.625 C 25.148438 39.472656 25.265625 39.179688 25.195312 38.898438 C 25.195312 38.894531 25.195312 38.890625 25.195312 38.886719 L 25.191406 38.878906 C 25.175781 38.820312 25.144531 38.773438 25.101562 38.738281 L 24.738281 38.304688 C 24.90625 37.949219 24.992188 37.585938 24.996094 37.210938 C 25 37.207031 25.003906 37.203125 25.011719 37.199219 C 25.203125 37.09375 25.324219 36.90625 25.347656 36.699219 L 33.761719 43.140625 C 34.09375 43.390625 34.496094 43.523438 34.898438 43.523438 C 35.054688 43.523438 35.207031 43.503906 35.359375 43.464844 C 35.386719 43.460938 35.410156 43.453125 35.433594 43.445312 C 35.441406 43.441406 35.453125 43.441406 35.460938 43.4375 C 35.460938 43.4375 35.464844 43.4375 35.464844 43.4375 C 35.488281 43.429688 35.515625 43.421875 35.539062 43.414062 C 35.5625 43.40625 35.585938 43.398438 35.609375 43.390625 C 35.640625 43.378906 35.671875 43.367188 35.707031 43.355469 C 35.726562 43.351562 35.746094 43.34375 35.765625 43.335938 C 35.800781 43.324219 35.839844 43.3125 35.875 43.296875 C 35.890625 43.292969 35.90625 43.289062 35.921875 43.285156 C 35.96875 43.265625 36.019531 43.25 36.066406 43.230469 C 36.070312 43.230469 36.070312 43.230469 36.074219 43.230469 C 36.230469 43.171875 36.386719 43.113281 36.535156 43.054688 C 36.539062 43.050781 36.542969 43.050781 36.546875 43.050781 C 36.59375 43.03125 36.640625 43.011719 36.6875 42.992188 C 36.695312 42.992188 36.699219 42.988281 36.707031 42.984375 C 36.75 42.96875 36.792969 42.949219 36.835938 42.933594 C 36.84375 42.929688 36.851562 42.925781 36.859375 42.921875 C 36.902344 42.90625 36.941406 42.886719 36.980469 42.871094 C 36.992188 42.867188 37 42.863281 37.011719 42.859375 C 37.050781 42.839844 37.089844 42.824219 37.128906 42.804688 C 37.136719 42.800781 37.148438 42.796875 37.15625 42.792969 C 37.195312 42.777344 37.234375 42.757812 37.273438 42.742188 C 37.28125 42.738281 37.292969 42.734375 37.300781 42.726562 C 37.339844 42.710938 37.375 42.691406 37.414062 42.675781 C 37.425781 42.671875 37.433594 42.667969 37.441406 42.660156 C 37.480469 42.644531 37.519531 42.625 37.554688 42.609375 C 37.566406 42.605469 37.574219 42.597656 37.582031 42.59375 C 37.621094 42.578125 37.660156 42.558594 37.695312 42.539062 C 37.703125 42.535156 37.714844 42.53125 37.722656 42.527344 C 37.761719 42.507812 37.796875 42.488281 37.835938 42.46875 C 37.84375 42.464844 37.851562 42.460938 37.859375 42.457031 C 37.898438 42.4375 37.933594 42.417969 37.972656 42.398438 C 37.980469 42.394531 37.988281 42.390625 37.992188 42.386719 C 38.03125 42.367188 38.070312 42.347656 38.109375 42.324219 C 38.117188 42.320312 38.121094 42.320312 38.128906 42.316406 C 38.167969 42.292969 38.207031 42.273438 38.242188 42.25 C 38.25 42.25 38.253906 42.246094 38.261719 42.242188 C 38.300781 42.222656 38.339844 42.199219 38.378906 42.175781 C 38.382812 42.175781 38.386719 42.171875 38.390625 42.167969 C 38.429688 42.144531 38.46875 42.125 38.511719 42.101562 C 38.511719 42.097656 38.515625 42.097656 38.519531 42.09375 C 38.558594 42.070312 38.601562 42.046875 38.640625 42.023438 C 38.644531 42.019531 38.644531 42.019531 38.648438 42.019531 C 38.6875 41.992188 38.730469 41.96875 38.773438 41.941406 C 39.109375 41.730469 39.429688 41.511719 39.726562 41.28125 C 39.730469 41.277344 39.730469 41.277344 39.730469 41.277344 C 39.753906 41.261719 39.773438 41.246094 39.792969 41.230469 C 39.808594 41.214844 39.828125 41.203125 39.84375 41.191406 C 39.84375 41.1875 39.84375 41.1875 39.84375 41.1875 C 39.847656 41.183594 39.855469 41.179688 39.859375 41.179688 C 39.886719 41.152344 39.917969 41.128906 39.945312 41.105469 C 39.960938 41.09375 39.976562 41.082031 39.992188 41.066406 C 40.011719 41.050781 40.03125 41.039062 40.046875 41.023438 C 40.066406 41.007812 40.085938 40.992188 40.101562 40.976562 C 40.117188 40.964844 40.128906 40.953125 40.144531 40.941406 C 40.648438 40.507812 41.105469 40.035156 41.503906 39.523438 C 41.730469 39.238281 41.9375 38.941406 42.128906 38.628906 C 42.140625 38.613281 42.148438 38.597656 42.15625 38.585938 C 42.167969 38.566406 42.183594 38.542969 42.195312 38.523438 C 42.21875 38.484375 42.242188 38.441406 42.265625 38.402344 C 42.363281 38.230469 42.460938 38.058594 42.550781 37.878906 C 42.550781 37.875 42.554688 37.867188 42.558594 37.863281 C 42.574219 37.832031 42.589844 37.800781 42.605469 37.773438 C 42.605469 37.765625 42.609375 37.757812 42.613281 37.75 C 42.660156 37.65625 42.703125 37.5625 42.75 37.464844 C 42.929688 37.066406 43.019531 36.644531 43.019531 36.210938 L 43.019531 32.195312 C 43.332031 31.5 43.398438 30.664062 43.421875 29.933594 C 43.433594 29.574219 43.46875 27.5 43.359375 26.332031 Z M 35.511719 20.808594 C 35.53125 20.796875 35.535156 20.800781 35.539062 20.800781 C 35.675781 20.851562 35.699219 21.078125 35.714844 21.328125 L 35.714844 21.335938 C 35.726562 21.535156 35.746094 21.832031 35.980469 21.964844 C 36.128906 22.050781 36.308594 22.035156 36.519531 21.925781 C 36.550781 21.90625 36.585938 21.886719 36.617188 21.871094 C 36.742188 21.800781 36.875 21.726562 36.980469 21.722656 C 37.007812 21.71875 37.023438 21.722656 37.03125 21.722656 C 37.035156 21.738281 37.054688 21.804688 37.027344 21.960938 C 37 22.128906 36.933594 22.292969 36.914062 22.335938 C 36.808594 22.597656 36.710938 22.871094 36.839844 23.09375 C 36.96875 23.3125 37.234375 23.363281 37.574219 23.40625 C 37.605469 23.410156 37.640625 23.414062 37.675781 23.417969 C 37.785156 23.429688 37.910156 23.445312 38.015625 23.472656 C 38.117188 23.496094 38.152344 23.523438 38.164062 23.53125 C 38.164062 23.539062 38.164062 23.554688 38.152344 23.578125 C 38.121094 23.65625 37.992188 23.785156 37.886719 23.890625 C 37.769531 24.003906 37.652344 24.121094 37.574219 24.246094 C 37.5 24.359375 37.398438 24.582031 37.539062 24.808594 C 37.605469 24.914062 37.699219 24.992188 37.78125 25.0625 C 37.859375 25.125 37.9375 25.1875 37.9375 25.234375 C 37.941406 25.292969 37.84375 25.390625 37.699219 25.4375 C 37.472656 25.503906 37.210938 25.382812 36.960938 25.261719 C 36.855469 25.214844 36.753906 25.167969 36.65625 25.128906 C 36.652344 25.113281 36.648438 25.09375 36.648438 25.078125 C 36.5625 24.5625 36.355469 24.011719 36.050781 23.484375 C 35.734375 22.933594 35.339844 22.464844 34.914062 22.132812 C 34.902344 22.121094 34.886719 22.109375 34.875 22.101562 C 35.105469 21.316406 35.359375 20.886719 35.511719 20.808594 Z M 30.585938 24.445312 C 31.0625 23.519531 31.792969 22.679688 32.441406 22.300781 C 32.757812 22.113281 33.0625 22.039062 33.34375 22.039062 C 33.851562 22.039062 34.289062 22.277344 34.609375 22.527344 C 34.984375 22.820312 35.332031 23.242188 35.621094 23.738281 C 35.894531 24.210938 36.078125 24.703125 36.15625 25.160156 C 36.261719 25.8125 36.199219 26.699219 35.289062 27.230469 C 34.640625 27.613281 33.554688 27.832031 32.519531 27.796875 C 31.394531 27.757812 30.570312 27.421875 30.253906 26.878906 C 29.941406 26.335938 30.0625 25.449219 30.585938 24.445312 Z M 29.816406 24.957031 C 29.722656 25.222656 29.65625 25.484375 29.617188 25.730469 C 29.535156 26.28125 29.605469 26.753906 29.824219 27.132812 C 30.042969 27.511719 30.414062 27.804688 30.933594 28.007812 C 31.371094 28.175781 31.914062 28.277344 32.503906 28.296875 C 32.582031 28.300781 32.660156 28.304688 32.742188 28.304688 C 33.789062 28.304688 34.867188 28.0625 35.539062 27.667969 C 36.273438 27.238281 36.671875 26.546875 36.691406 25.691406 C 36.710938 25.699219 36.726562 25.707031 36.746094 25.71875 C 36.980469 25.828125 37.257812 25.960938 37.558594 25.960938 C 37.652344 25.960938 37.746094 25.945312 37.84375 25.917969 C 38.152344 25.820312 38.457031 25.566406 38.4375 25.207031 C 38.425781 25.003906 38.316406 24.867188 38.203125 24.761719 L 40.910156 24.699219 C 40.972656 24.699219 41.03125 24.699219 41.09375 24.707031 C 41.097656 24.707031 41.101562 24.707031 41.105469 24.707031 C 41.796875 24.738281 42.210938 24.863281 42.453125 25.109375 C 42.453125 25.109375 42.453125 25.109375 42.453125 25.113281 C 42.679688 25.34375 42.800781 25.710938 42.863281 26.378906 C 42.96875 27.519531 42.933594 29.5625 42.925781 29.917969 C 42.902344 30.574219 42.84375 31.40625 42.542969 32.027344 C 42.375 32.382812 42.148438 32.636719 41.851562 32.804688 C 41.75 32.863281 41.636719 32.910156 41.507812 32.945312 C 41.21875 33.035156 40.90625 33.058594 40.574219 33.085938 C 40.140625 33.125 39.695312 33.160156 39.277344 33.335938 C 38.160156 33.8125 37.933594 34.800781 37.710938 35.757812 C 37.609375 36.1875 37.507812 36.628906 37.324219 37.023438 C 37.160156 37.375 36.703125 37.8125 36.183594 37.9375 C 35.820312 38.023438 35.488281 37.945312 35.191406 37.707031 C 34.820312 37.410156 34.726562 36.664062 34.710938 36.09375 C 34.703125 35.847656 34.703125 35.59375 34.703125 35.347656 C 34.703125 34.585938 34.707031 33.800781 34.515625 33.085938 C 34.433594 32.785156 34.324219 32.515625 34.179688 32.265625 C 33.929688 31.832031 33.582031 31.472656 33.125 31.179688 C 33.113281 31.171875 33.097656 31.164062 33.085938 31.15625 L 23.328125 25.105469 Z M 18.773438 31.675781 C 18.816406 31.671875 18.863281 31.671875 18.90625 31.671875 C 19.625 31.671875 20.328125 31.769531 21.003906 31.953125 C 21.675781 32.140625 22.289062 32.410156 22.824219 32.753906 C 23.332031 33.082031 23.753906 33.472656 24.039062 33.878906 C 24.324219 34.289062 24.472656 34.703125 24.480469 35.109375 C 24.496094 36.105469 23.644531 36.742188 22.925781 37.101562 C 21.902344 37.617188 20.464844 37.914062 18.875 37.9375 C 17.285156 37.964844 15.835938 37.71875 14.800781 37.238281 C 14.4375 37.074219 14.035156 36.835938 13.726562 36.519531 C 13.917969 36.039062 14.058594 35.554688 14.136719 35.074219 C 14.242188 34.460938 14.242188 33.886719 14.152344 33.378906 C 14.332031 33.207031 14.535156 33.042969 14.757812 32.890625 C 15.28125 32.527344 15.882812 32.238281 16.550781 32.03125 C 17.261719 31.804688 18.007812 31.6875 18.773438 31.675781 Z M 24.636719 39.203125 C 24.449219 39.308594 24.328125 39.503906 24.308594 39.726562 L 24.304688 39.746094 C 24.300781 39.816406 24.253906 39.871094 24.191406 39.886719 L 24.1875 39.886719 C 23.964844 39.933594 23.785156 40.105469 23.710938 40.328125 L 23.707031 40.34375 C 23.6875 40.40625 23.632812 40.449219 23.578125 40.449219 L 23.566406 40.449219 C 23.332031 40.453125 23.117188 40.585938 23.007812 40.804688 L 23 40.820312 C 22.972656 40.875 22.917969 40.90625 22.863281 40.898438 L 22.851562 40.898438 C 22.609375 40.863281 22.375 40.96875 22.238281 41.175781 L 22.230469 41.1875 C 22.195312 41.238281 22.140625 41.261719 22.085938 41.246094 L 22.074219 41.246094 C 21.839844 41.183594 21.589844 41.265625 21.429688 41.457031 L 21.421875 41.46875 C 21.382812 41.511719 21.328125 41.527344 21.277344 41.507812 L 21.265625 41.503906 C 21.035156 41.417969 20.777344 41.476562 20.601562 41.65625 L 20.589844 41.664062 C 20.550781 41.707031 20.496094 41.714844 20.445312 41.691406 L 20.433594 41.6875 C 20.210938 41.582031 19.945312 41.617188 19.757812 41.78125 L 19.746094 41.789062 C 19.703125 41.824219 19.648438 41.832031 19.601562 41.804688 L 19.589844 41.796875 C 19.375 41.671875 19.105469 41.6875 18.90625 41.835938 L 18.894531 41.84375 C 18.851562 41.875 18.792969 41.878906 18.746094 41.84375 L 18.738281 41.835938 C 18.628906 41.765625 18.507812 41.726562 18.382812 41.726562 C 18.269531 41.726562 18.152344 41.757812 18.054688 41.824219 L 18.042969 41.828125 C 17.996094 41.859375 17.9375 41.855469 17.894531 41.820312 L 17.882812 41.8125 C 17.691406 41.65625 17.421875 41.628906 17.203125 41.742188 L 17.191406 41.746094 C 17.144531 41.773438 17.085938 41.765625 17.046875 41.722656 L 17.035156 41.714844 C 16.855469 41.542969 16.59375 41.492188 16.367188 41.585938 L 16.355469 41.59375 C 16.304688 41.613281 16.246094 41.597656 16.210938 41.554688 L 16.199219 41.542969 C 16.035156 41.359375 15.78125 41.285156 15.546875 41.355469 L 15.535156 41.355469 C 15.484375 41.375 15.429688 41.351562 15.394531 41.304688 L 15.382812 41.289062 C 15.238281 41.089844 15 40.988281 14.761719 41.03125 L 14.75 41.035156 C 14.695312 41.042969 14.640625 41.015625 14.613281 40.960938 L 14.605469 40.945312 C 14.488281 40.738281 14.277344 40.609375 14.046875 40.609375 C 14.042969 40.609375 14.035156 40.609375 14.03125 40.609375 L 14.023438 40.609375 C 13.964844 40.609375 13.910156 40.570312 13.886719 40.507812 L 13.882812 40.492188 C 13.804688 40.269531 13.617188 40.109375 13.394531 40.066406 L 13.386719 40.066406 C 13.328125 40.054688 13.277344 40 13.269531 39.929688 L 13.269531 39.910156 C 13.242188 39.691406 13.113281 39.5 12.921875 39.398438 C 12.867188 39.371094 12.835938 39.308594 12.835938 39.246094 L 13.070312 38.925781 C 13.398438 39.378906 13.859375 39.777344 14.4375 40.117188 C 15.578125 40.785156 17.066406 41.148438 18.648438 41.148438 C 18.703125 41.148438 18.761719 41.148438 18.820312 41.148438 C 20.464844 41.117188 22.007812 40.703125 23.167969 39.96875 C 23.722656 39.621094 24.160156 39.214844 24.472656 38.765625 L 24.714844 39.058594 C 24.714844 39.117188 24.6875 39.175781 24.636719 39.203125 Z M 13.171875 38.097656 C 13.1875 38.101562 13.207031 38.105469 13.222656 38.109375 L 13.230469 38.109375 C 13.28125 38.121094 13.324219 38.15625 13.34375 38.207031 L 13.347656 38.222656 C 13.445312 38.484375 13.695312 38.65625 13.96875 38.648438 L 13.980469 38.648438 C 14.03125 38.648438 14.082031 38.675781 14.109375 38.726562 L 14.117188 38.738281 C 14.25 38.976562 14.519531 39.105469 14.785156 39.058594 L 14.796875 39.058594 C 14.851562 39.046875 14.90625 39.070312 14.9375 39.113281 L 14.945312 39.125 C 15.105469 39.34375 15.386719 39.4375 15.640625 39.363281 L 15.652344 39.359375 C 15.707031 39.34375 15.761719 39.359375 15.800781 39.402344 L 15.808594 39.410156 C 15.992188 39.609375 16.269531 39.675781 16.519531 39.574219 L 16.53125 39.570312 C 16.582031 39.550781 16.640625 39.5625 16.683594 39.597656 L 16.691406 39.609375 C 16.890625 39.789062 17.171875 39.832031 17.414062 39.710938 L 17.425781 39.703125 C 17.472656 39.679688 17.53125 39.683594 17.578125 39.71875 L 17.585938 39.730469 C 17.800781 39.894531 18.082031 39.910156 18.3125 39.773438 L 18.324219 39.765625 C 18.371094 39.734375 18.429688 39.738281 18.476562 39.769531 L 18.488281 39.777344 C 18.597656 39.847656 18.71875 39.882812 18.839844 39.882812 C 18.972656 39.882812 19.101562 39.84375 19.210938 39.761719 L 19.222656 39.753906 C 19.269531 39.722656 19.328125 39.71875 19.375 39.746094 L 19.386719 39.753906 C 19.621094 39.882812 19.90625 39.859375 20.109375 39.6875 L 20.121094 39.675781 C 20.164062 39.640625 20.222656 39.632812 20.273438 39.65625 L 20.285156 39.664062 C 20.527344 39.773438 20.808594 39.726562 21 39.535156 L 21.011719 39.527344 C 21.050781 39.488281 21.109375 39.476562 21.160156 39.492188 L 21.171875 39.5 C 21.425781 39.589844 21.703125 39.515625 21.875 39.308594 L 21.886719 39.296875 C 21.921875 39.257812 21.976562 39.238281 22.03125 39.25 L 22.042969 39.253906 C 22.300781 39.320312 22.578125 39.21875 22.730469 38.996094 L 22.738281 38.984375 C 22.769531 38.9375 22.824219 38.914062 22.875 38.921875 L 22.886719 38.921875 C 23.15625 38.960938 23.417969 38.820312 23.546875 38.582031 L 23.554688 38.566406 C 23.578125 38.519531 23.628906 38.488281 23.679688 38.488281 L 23.691406 38.488281 C 23.964844 38.484375 24.210938 38.304688 24.296875 38.039062 L 24.304688 38.023438 C 24.3125 37.996094 24.328125 37.976562 24.347656 37.957031 C 24.113281 38.542969 23.621094 39.089844 22.902344 39.542969 C 21.820312 40.226562 20.367188 40.617188 18.8125 40.644531 C 17.257812 40.671875 15.792969 40.328125 14.6875 39.683594 C 13.933594 39.238281 13.414062 38.695312 13.171875 38.097656 Z M 24.851562 36.628906 C 24.851562 36.679688 24.820312 36.730469 24.773438 36.757812 C 24.582031 36.863281 24.457031 37.054688 24.4375 37.277344 L 24.433594 37.292969 C 24.429688 37.359375 24.378906 37.417969 24.316406 37.429688 L 24.3125 37.429688 C 24.085938 37.476562 23.902344 37.644531 23.828125 37.863281 L 23.824219 37.878906 C 23.804688 37.941406 23.75 37.984375 23.6875 37.984375 L 23.675781 37.984375 C 23.441406 37.984375 23.222656 38.121094 23.113281 38.332031 L 23.105469 38.347656 C 23.074219 38.402344 23.015625 38.433594 22.957031 38.425781 L 22.945312 38.421875 C 22.703125 38.390625 22.46875 38.496094 22.328125 38.695312 L 22.320312 38.707031 C 22.285156 38.757812 22.222656 38.78125 22.167969 38.769531 L 22.152344 38.765625 C 21.917969 38.703125 21.667969 38.78125 21.507812 38.972656 L 21.5 38.980469 C 21.457031 39.027344 21.398438 39.046875 21.339844 39.023438 L 21.328125 39.019531 C 21.09375 38.9375 20.839844 38.992188 20.664062 39.167969 L 20.652344 39.175781 C 20.609375 39.21875 20.546875 39.230469 20.492188 39.207031 L 20.480469 39.199219 C 20.253906 39.09375 19.996094 39.128906 19.804688 39.289062 L 19.792969 39.300781 C 19.746094 39.335938 19.683594 39.34375 19.628906 39.3125 L 19.617188 39.308594 C 19.402344 39.1875 19.136719 39.203125 18.933594 39.34375 L 18.925781 39.351562 C 18.875 39.386719 18.8125 39.390625 18.761719 39.355469 L 18.75 39.347656 C 18.644531 39.277344 18.519531 39.242188 18.398438 39.242188 C 18.28125 39.242188 18.167969 39.273438 18.066406 39.332031 L 18.054688 39.339844 C 18.003906 39.371094 17.941406 39.367188 17.894531 39.332031 L 17.882812 39.320312 C 17.683594 39.167969 17.425781 39.144531 17.203125 39.253906 L 17.191406 39.261719 C 17.136719 39.289062 17.074219 39.277344 17.027344 39.238281 L 17.019531 39.226562 C 16.835938 39.058594 16.578125 39.011719 16.347656 39.105469 L 16.335938 39.109375 C 16.28125 39.132812 16.21875 39.117188 16.175781 39.070312 L 16.167969 39.0625 C 16 38.878906 15.75 38.808594 15.515625 38.875 L 15.503906 38.878906 C 15.445312 38.894531 15.382812 38.875 15.347656 38.824219 L 15.335938 38.8125 C 15.191406 38.617188 14.953125 38.519531 14.714844 38.5625 L 14.703125 38.5625 C 14.640625 38.574219 14.582031 38.542969 14.550781 38.488281 L 14.542969 38.476562 C 14.425781 38.265625 14.203125 38.140625 13.964844 38.148438 L 13.957031 38.148438 C 13.894531 38.148438 13.839844 38.109375 13.816406 38.046875 L 13.808594 38.03125 C 13.730469 37.816406 13.539062 37.65625 13.3125 37.617188 L 13.308594 37.613281 C 13.273438 37.609375 13.242188 37.589844 13.21875 37.558594 C 13.304688 37.414062 13.382812 37.265625 13.460938 37.113281 C 13.476562 37.078125 13.496094 37.042969 13.511719 37.007812 C 13.800781 37.269531 14.164062 37.5 14.589844 37.695312 C 15.644531 38.179688 17.074219 38.441406 18.644531 38.441406 C 18.726562 38.441406 18.804688 38.441406 18.882812 38.441406 C 20.546875 38.414062 22.0625 38.097656 23.148438 37.554688 C 23.722656 37.265625 24.171875 36.917969 24.480469 36.523438 C 24.527344 36.464844 24.570312 36.40625 24.609375 36.347656 Z M 22.164062 17.230469 C 22.28125 17.335938 22.390625 17.441406 22.492188 17.550781 C 22.957031 18.0625 23.195312 18.601562 23.195312 19.148438 C 23.195312 19.210938 23.191406 19.273438 23.183594 19.335938 C 23.160156 19.601562 23.078125 19.863281 22.941406 20.121094 C 22.929688 20.136719 22.921875 20.152344 22.914062 20.167969 C 22.914062 20.167969 22.914062 20.171875 22.914062 20.171875 C 22.90625 20.1875 22.894531 20.203125 22.886719 20.21875 C 22.875 20.234375 22.867188 20.25 22.859375 20.265625 C 22.855469 20.265625 22.855469 20.265625 22.855469 20.265625 C 22.800781 20.359375 22.734375 20.453125 22.664062 20.542969 C 22.660156 20.546875 22.660156 20.546875 22.65625 20.550781 C 22.648438 20.5625 22.636719 20.574219 22.625 20.589844 C 22.625 20.589844 22.621094 20.59375 22.621094 20.597656 C 22.609375 20.609375 22.597656 20.625 22.585938 20.636719 C 22.585938 20.640625 22.582031 20.640625 22.582031 20.644531 C 22.570312 20.660156 22.558594 20.671875 22.542969 20.6875 C 22.542969 20.6875 22.542969 20.691406 22.539062 20.691406 C 22.527344 20.707031 22.515625 20.722656 22.5 20.734375 C 22.5 20.738281 22.5 20.738281 22.5 20.738281 C 22.457031 20.785156 22.414062 20.828125 22.367188 20.875 C 22.183594 21.0625 21.96875 21.242188 21.730469 21.414062 C 22.089844 20.492188 22.269531 19.519531 22.269531 18.523438 C 22.269531 18.085938 22.234375 17.65625 22.164062 17.230469 Z M 23.761719 3.875 C 23.867188 3.875 24.140625 3.929688 24.550781 4.128906 C 24.960938 4.328125 25.175781 4.511719 25.242188 4.59375 L 24.421875 6.300781 C 23.742188 6.519531 23.039062 6.703125 22.335938 6.839844 Z M 22.066406 7.402344 C 22.761719 7.28125 23.449219 7.117188 24.128906 6.917969 L 22.609375 10.078125 C 21.980469 10.246094 21.3125 10.382812 20.582031 10.496094 Z M 20.320312 11.042969 C 21.039062 10.941406 21.703125 10.816406 22.328125 10.667969 L 20.902344 13.636719 C 20.816406 13.65625 20.730469 13.671875 20.648438 13.691406 C 20.386719 13.34375 20.09375 13.011719 19.777344 12.707031 C 19.71875 12.648438 19.660156 12.59375 19.601562 12.542969 Z M 10.414062 9.578125 C 10.269531 9.203125 10.210938 8.820312 10.238281 8.46875 C 10.265625 8.09375 10.394531 7.78125 10.613281 7.535156 C 10.921875 7.183594 11.308594 7.097656 11.75 7 C 11.890625 6.972656 12.03125 6.941406 12.171875 6.898438 C 12.207031 7.035156 12.246094 7.167969 12.289062 7.304688 C 12.160156 7.328125 12.023438 7.328125 11.875 7.296875 C 11.742188 7.265625 11.605469 7.351562 11.578125 7.484375 C 11.546875 7.621094 11.632812 7.757812 11.765625 7.785156 C 11.886719 7.8125 12 7.824219 12.113281 7.824219 C 12.914062 7.824219 13.457031 7.203125 13.480469 7.171875 C 13.570312 7.066406 13.558594 6.910156 13.457031 6.820312 C 13.351562 6.726562 13.195312 6.738281 13.105469 6.84375 C 13.101562 6.847656 12.972656 6.996094 12.757812 7.128906 C 12.714844 6.992188 12.679688 6.859375 12.644531 6.726562 C 12.777344 6.664062 12.902344 6.597656 13.027344 6.527344 C 13.316406 6.367188 13.585938 6.21875 13.925781 6.191406 C 14.441406 6.152344 14.847656 6.414062 15.097656 6.644531 C 15.585938 7.09375 15.921875 7.820312 15.933594 8.457031 C 15.945312 9.011719 15.761719 9.550781 15.402344 10.015625 C 15.0625 10.457031 14.585938 10.808594 14.058594 11 C 13.902344 11.058594 13.84375 11.054688 13.824219 11.050781 C 13.5 10.980469 13.253906 10.914062 13.035156 10.855469 C 12.625 10.746094 12.3125 10.664062 11.832031 10.664062 C 11.652344 10.664062 11.449219 10.675781 11.207031 10.703125 C 10.871094 10.4375 10.589844 10.039062 10.414062 9.578125 Z M 10.648438 11.410156 C 10.832031 11.335938 11.015625 11.269531 11.203125 11.207031 C 12.035156 11.109375 12.347656 11.191406 12.90625 11.34375 C 13.132812 11.402344 13.386719 11.472656 13.722656 11.542969 C 13.761719 11.550781 13.804688 11.554688 13.84375 11.554688 C 13.878906 11.554688 13.910156 11.550781 13.945312 11.546875 C 13.9375 11.589844 13.933594 11.628906 13.933594 11.671875 C 13.929688 11.863281 13.984375 12.039062 14.03125 12.171875 C 14.09375 12.347656 14.273438 12.59375 14.585938 13.011719 C 14.855469 13.375 15.164062 13.789062 15.382812 14.175781 C 15.679688 14.691406 15.675781 14.90625 15.648438 14.992188 C 15.640625 15.015625 15.621094 15.074219 15.480469 15.113281 C 15.261719 15.179688 14.914062 15.019531 14.535156 14.675781 L 12.671875 12.996094 C 12.191406 12.5625 11.648438 12.070312 10.980469 11.8125 C 10.707031 11.707031 10.414062 11.652344 10.125 11.648438 C 10.296875 11.5625 10.472656 11.484375 10.648438 11.410156 Z M 3.347656 9.238281 C 3.351562 9.230469 3.355469 9.222656 3.359375 9.214844 C 3.378906 9.164062 3.398438 9.113281 3.421875 9.058594 C 3.429688 9.039062 3.4375 9.019531 3.445312 9 C 3.460938 8.960938 3.476562 8.921875 3.496094 8.878906 C 3.503906 8.859375 3.511719 8.835938 3.523438 8.8125 C 3.539062 8.773438 3.554688 8.738281 3.570312 8.699219 C 3.578125 8.675781 3.589844 8.652344 3.597656 8.628906 C 3.613281 8.589844 3.632812 8.550781 3.648438 8.511719 C 3.65625 8.492188 3.664062 8.472656 3.675781 8.449219 C 3.695312 8.402344 3.714844 8.355469 3.738281 8.304688 C 3.742188 8.292969 3.746094 8.28125 3.753906 8.269531 C 3.777344 8.214844 3.800781 8.160156 3.824219 8.105469 L 5.417969 8.679688 C 5.410156 8.703125 5.398438 8.730469 5.390625 8.753906 C 5.382812 8.769531 5.375 8.789062 5.367188 8.808594 C 5.347656 8.855469 5.328125 8.902344 5.308594 8.949219 C 5.304688 8.957031 5.300781 8.964844 5.296875 8.976562 C 5.273438 9.03125 5.253906 9.089844 5.230469 9.144531 C 5.222656 9.160156 5.21875 9.175781 5.210938 9.1875 C 5.195312 9.230469 5.179688 9.273438 5.164062 9.316406 C 5.15625 9.335938 5.148438 9.355469 5.140625 9.375 C 5.125 9.414062 5.113281 9.453125 5.097656 9.488281 C 5.089844 9.511719 5.082031 9.53125 5.074219 9.550781 C 5.058594 9.589844 5.046875 9.628906 5.03125 9.667969 C 5.023438 9.6875 5.019531 9.707031 5.011719 9.726562 C 4.996094 9.773438 4.976562 9.820312 4.960938 9.867188 C 4.957031 9.878906 4.953125 9.886719 4.949219 9.898438 C 4.929688 9.957031 4.910156 10.015625 4.890625 10.074219 C 4.882812 10.089844 4.878906 10.105469 4.875 10.121094 C 4.859375 10.164062 4.84375 10.207031 4.832031 10.25 C 4.824219 10.269531 4.816406 10.292969 4.808594 10.3125 C 4.796875 10.351562 4.785156 10.390625 4.773438 10.425781 C 4.765625 10.449219 4.757812 10.472656 4.75 10.492188 C 4.738281 10.53125 4.726562 10.570312 4.714844 10.609375 C 4.707031 10.628906 4.703125 10.652344 4.695312 10.671875 C 4.679688 10.71875 4.667969 10.761719 4.652344 10.808594 C 4.648438 10.820312 4.644531 10.835938 4.640625 10.851562 C 4.625 10.910156 4.605469 10.96875 4.589844 11.027344 C 4.585938 11.042969 4.578125 11.0625 4.574219 11.082031 C 4.566406 11.113281 4.554688 11.144531 4.546875 11.179688 L 2.816406 10.679688 C 2.824219 10.65625 2.835938 10.628906 2.84375 10.605469 C 2.851562 10.585938 2.855469 10.5625 2.863281 10.542969 C 2.878906 10.496094 2.894531 10.449219 2.914062 10.402344 C 2.917969 10.394531 2.921875 10.382812 2.925781 10.371094 C 2.945312 10.3125 2.964844 10.253906 2.984375 10.195312 C 2.992188 10.179688 2.996094 10.164062 3.003906 10.148438 C 3.019531 10.105469 3.035156 10.0625 3.050781 10.019531 C 3.058594 10 3.066406 9.976562 3.074219 9.957031 C 3.085938 9.917969 3.101562 9.882812 3.117188 9.84375 C 3.125 9.820312 3.132812 9.796875 3.140625 9.777344 C 3.15625 9.738281 3.171875 9.699219 3.183594 9.660156 C 3.191406 9.640625 3.203125 9.617188 3.210938 9.597656 C 3.226562 9.554688 3.242188 9.511719 3.257812 9.46875 C 3.265625 9.453125 3.273438 9.433594 3.277344 9.417969 C 3.300781 9.359375 3.324219 9.296875 3.347656 9.238281 Z M 5.027344 11.316406 C 5.035156 11.28125 5.046875 11.25 5.054688 11.214844 C 5.058594 11.199219 5.0625 11.183594 5.066406 11.167969 C 5.085938 11.109375 5.101562 11.050781 5.121094 10.992188 C 5.121094 10.984375 5.125 10.972656 5.128906 10.960938 C 5.144531 10.914062 5.15625 10.867188 5.171875 10.820312 C 5.179688 10.800781 5.183594 10.78125 5.191406 10.757812 C 5.203125 10.722656 5.214844 10.683594 5.226562 10.644531 C 5.234375 10.621094 5.242188 10.601562 5.25 10.578125 C 5.261719 10.542969 5.273438 10.503906 5.285156 10.46875 C 5.289062 10.449219 5.296875 10.425781 5.304688 10.40625 C 5.316406 10.367188 5.332031 10.328125 5.34375 10.289062 C 5.351562 10.269531 5.355469 10.25 5.363281 10.230469 C 5.378906 10.179688 5.398438 10.128906 5.417969 10.074219 C 5.417969 10.070312 5.421875 10.066406 5.421875 10.0625 C 5.441406 10.003906 5.460938 9.949219 5.480469 9.890625 C 5.488281 9.875 5.496094 9.855469 5.5 9.839844 C 5.515625 9.800781 5.53125 9.761719 5.542969 9.722656 C 5.550781 9.703125 5.558594 9.679688 5.566406 9.660156 C 5.582031 9.625 5.59375 9.589844 5.609375 9.554688 C 5.617188 9.53125 5.625 9.511719 5.632812 9.488281 C 5.644531 9.453125 5.660156 9.417969 5.675781 9.382812 C 5.683594 9.363281 5.691406 9.339844 5.699219 9.320312 C 5.714844 9.28125 5.730469 9.238281 5.746094 9.199219 C 5.753906 9.183594 5.757812 9.167969 5.765625 9.15625 C 5.785156 9.101562 5.808594 9.046875 5.832031 8.992188 C 5.835938 8.976562 5.84375 8.964844 5.847656 8.949219 C 5.863281 8.917969 5.875 8.882812 5.890625 8.851562 L 7.667969 9.492188 C 7.660156 9.507812 7.65625 9.523438 7.652344 9.535156 C 7.644531 9.558594 7.636719 9.578125 7.628906 9.601562 C 7.617188 9.628906 7.605469 9.660156 7.59375 9.691406 C 7.585938 9.710938 7.578125 9.730469 7.574219 9.753906 C 7.5625 9.785156 7.550781 9.816406 7.539062 9.851562 C 7.53125 9.871094 7.523438 9.886719 7.519531 9.90625 C 7.503906 9.949219 7.488281 9.996094 7.472656 10.042969 C 7.472656 10.046875 7.46875 10.054688 7.46875 10.0625 C 7.449219 10.113281 7.433594 10.164062 7.417969 10.214844 C 7.410156 10.234375 7.40625 10.253906 7.398438 10.269531 C 7.390625 10.304688 7.378906 10.339844 7.367188 10.375 C 7.363281 10.394531 7.355469 10.417969 7.347656 10.4375 C 7.339844 10.46875 7.328125 10.5 7.320312 10.535156 C 7.3125 10.554688 7.308594 10.578125 7.300781 10.601562 C 7.292969 10.632812 7.28125 10.664062 7.273438 10.695312 C 7.265625 10.71875 7.261719 10.742188 7.253906 10.761719 C 7.246094 10.796875 7.234375 10.828125 7.226562 10.859375 C 7.222656 10.882812 7.214844 10.902344 7.210938 10.925781 C 7.199219 10.960938 7.191406 10.996094 7.183594 11.03125 C 7.175781 11.050781 7.171875 11.070312 7.167969 11.089844 C 7.152344 11.136719 7.140625 11.1875 7.128906 11.234375 C 7.128906 11.242188 7.125 11.25 7.125 11.253906 C 7.113281 11.308594 7.097656 11.367188 7.085938 11.421875 C 7.082031 11.4375 7.078125 11.457031 7.074219 11.472656 C 7.0625 11.511719 7.054688 11.550781 7.046875 11.589844 C 7.042969 11.609375 7.035156 11.632812 7.03125 11.652344 C 7.023438 11.6875 7.015625 11.722656 7.007812 11.757812 C 7.003906 11.78125 7 11.804688 6.996094 11.828125 C 6.992188 11.84375 6.988281 11.863281 6.984375 11.882812 L 6.742188 11.8125 Z M 7.261719 13.183594 C 7.265625 13.171875 7.265625 13.160156 7.269531 13.148438 C 7.277344 13.085938 7.285156 13.023438 7.296875 12.960938 C 7.296875 12.953125 7.300781 12.941406 7.300781 12.929688 C 7.308594 12.863281 7.320312 12.800781 7.332031 12.734375 C 7.332031 12.730469 7.332031 12.726562 7.332031 12.71875 C 7.34375 12.65625 7.355469 12.59375 7.367188 12.527344 C 7.367188 12.523438 7.367188 12.519531 7.367188 12.515625 L 7.824219 12.644531 C 7.800781 12.664062 7.78125 12.683594 7.761719 12.707031 C 7.585938 12.875 7.417969 13.054688 7.257812 13.238281 C 7.257812 13.21875 7.261719 13.203125 7.261719 13.183594 Z M 8.179688 12.226562 L 7.464844 12.019531 C 7.46875 11.996094 7.472656 11.972656 7.480469 11.949219 C 7.484375 11.925781 7.488281 11.902344 7.492188 11.878906 C 7.5 11.84375 7.507812 11.808594 7.515625 11.773438 C 7.523438 11.753906 7.527344 11.730469 7.53125 11.710938 C 7.539062 11.667969 7.550781 11.628906 7.558594 11.585938 C 7.5625 11.570312 7.566406 11.558594 7.570312 11.542969 C 7.582031 11.488281 7.59375 11.433594 7.609375 11.378906 C 7.613281 11.367188 7.617188 11.351562 7.617188 11.339844 C 7.628906 11.296875 7.640625 11.257812 7.648438 11.214844 C 7.65625 11.195312 7.660156 11.175781 7.664062 11.15625 C 7.675781 11.121094 7.683594 11.089844 7.691406 11.054688 C 7.699219 11.03125 7.703125 11.011719 7.710938 10.988281 C 7.71875 10.957031 7.726562 10.925781 7.738281 10.894531 C 7.742188 10.871094 7.75 10.847656 7.753906 10.824219 C 7.765625 10.792969 7.773438 10.765625 7.78125 10.734375 C 7.789062 10.710938 7.796875 10.6875 7.800781 10.664062 C 7.8125 10.632812 7.820312 10.605469 7.828125 10.574219 C 7.835938 10.550781 7.84375 10.527344 7.851562 10.507812 C 7.851562 10.496094 7.855469 10.488281 7.855469 10.480469 Z M 7.570312 8.921875 L 6.09375 8.390625 C 6.101562 8.375 6.109375 8.359375 6.113281 8.34375 C 6.125 8.320312 6.136719 8.296875 6.148438 8.273438 C 6.160156 8.246094 6.175781 8.214844 6.1875 8.183594 C 6.199219 8.164062 6.210938 8.140625 6.21875 8.117188 C 6.234375 8.085938 6.25 8.054688 6.265625 8.023438 C 6.277344 8.003906 6.285156 7.980469 6.296875 7.960938 C 6.3125 7.925781 6.328125 7.890625 6.347656 7.859375 C 6.355469 7.839844 6.363281 7.824219 6.371094 7.804688 C 6.394531 7.757812 6.417969 7.714844 6.441406 7.667969 C 6.445312 7.664062 6.449219 7.65625 6.449219 7.648438 C 6.476562 7.597656 6.503906 7.546875 6.53125 7.496094 C 6.539062 7.480469 6.546875 7.464844 6.554688 7.453125 C 6.574219 7.414062 6.59375 7.378906 6.613281 7.339844 C 6.621094 7.320312 6.632812 7.304688 6.640625 7.285156 C 6.660156 7.25 6.675781 7.21875 6.695312 7.1875 C 6.707031 7.164062 6.71875 7.144531 6.726562 7.125 C 6.746094 7.09375 6.761719 7.0625 6.78125 7.03125 C 6.789062 7.011719 6.800781 6.992188 6.8125 6.96875 C 6.832031 6.941406 6.847656 6.910156 6.863281 6.878906 C 6.878906 6.859375 6.890625 6.839844 6.902344 6.816406 C 6.917969 6.789062 6.933594 6.757812 6.953125 6.730469 C 6.964844 6.707031 6.976562 6.6875 6.988281 6.664062 C 7.007812 6.636719 7.023438 6.605469 7.042969 6.578125 C 7.054688 6.554688 7.066406 6.535156 7.078125 6.515625 C 7.089844 6.496094 7.101562 6.476562 7.113281 6.457031 Z M 6.625 6.023438 C 6.660156 6.011719 6.691406 6.007812 6.722656 6.007812 C 6.75 6.007812 6.773438 6.007812 6.796875 6.015625 C 6.777344 6.046875 6.757812 6.074219 6.742188 6.105469 C 6.730469 6.125 6.714844 6.144531 6.703125 6.164062 C 6.6875 6.195312 6.667969 6.226562 6.648438 6.257812 C 6.636719 6.28125 6.621094 6.300781 6.609375 6.324219 C 6.59375 6.355469 6.574219 6.382812 6.558594 6.414062 C 6.542969 6.4375 6.53125 6.460938 6.515625 6.480469 C 6.5 6.511719 6.484375 6.539062 6.46875 6.570312 C 6.453125 6.59375 6.441406 6.617188 6.425781 6.640625 C 6.410156 6.667969 6.394531 6.699219 6.378906 6.726562 C 6.363281 6.75 6.351562 6.773438 6.339844 6.796875 C 6.324219 6.824219 6.304688 6.855469 6.289062 6.882812 C 6.277344 6.90625 6.265625 6.929688 6.25 6.957031 C 6.234375 6.984375 6.21875 7.015625 6.203125 7.042969 C 6.191406 7.066406 6.179688 7.089844 6.167969 7.113281 C 6.152344 7.144531 6.132812 7.175781 6.117188 7.203125 C 6.105469 7.226562 6.09375 7.25 6.082031 7.273438 C 6.066406 7.304688 6.050781 7.335938 6.035156 7.367188 C 6.023438 7.390625 6.011719 7.410156 6 7.433594 C 5.980469 7.46875 5.964844 7.503906 5.945312 7.539062 C 5.9375 7.558594 5.929688 7.578125 5.917969 7.59375 C 5.894531 7.648438 5.867188 7.699219 5.839844 7.753906 C 5.835938 7.765625 5.832031 7.777344 5.824219 7.785156 C 5.804688 7.828125 5.785156 7.875 5.761719 7.917969 C 5.753906 7.9375 5.746094 7.957031 5.734375 7.976562 C 5.71875 8.011719 5.703125 8.042969 5.6875 8.078125 C 5.675781 8.101562 5.667969 8.121094 5.65625 8.144531 C 5.644531 8.167969 5.632812 8.195312 5.621094 8.21875 L 4.03125 7.644531 C 4.039062 7.628906 4.046875 7.609375 4.054688 7.59375 C 4.058594 7.585938 4.0625 7.578125 4.066406 7.566406 C 4.089844 7.523438 4.109375 7.476562 4.128906 7.433594 C 4.136719 7.421875 4.140625 7.414062 4.144531 7.40625 C 4.15625 7.375 4.171875 7.347656 4.183594 7.320312 C 4.890625 6.765625 5.707031 6.332031 6.625 6.023438 Z M 3.234375 8.210938 C 3.226562 8.230469 3.21875 8.25 3.210938 8.265625 C 3.207031 8.273438 3.203125 8.28125 3.203125 8.285156 C 3.179688 8.339844 3.15625 8.394531 3.132812 8.449219 C 3.125 8.46875 3.117188 8.488281 3.109375 8.507812 C 3.089844 8.550781 3.074219 8.589844 3.054688 8.632812 C 3.046875 8.652344 3.039062 8.675781 3.027344 8.699219 C 3.011719 8.738281 2.996094 8.777344 2.980469 8.816406 C 2.972656 8.839844 2.960938 8.859375 2.953125 8.882812 C 2.9375 8.925781 2.921875 8.964844 2.902344 9.007812 C 2.894531 9.027344 2.886719 9.046875 2.878906 9.066406 C 2.859375 9.121094 2.835938 9.175781 2.816406 9.226562 C 2.8125 9.234375 2.8125 9.242188 2.808594 9.246094 C 2.785156 9.308594 2.761719 9.367188 2.738281 9.429688 C 2.730469 9.445312 2.726562 9.464844 2.71875 9.484375 C 2.703125 9.523438 2.6875 9.566406 2.671875 9.609375 C 2.660156 9.632812 2.652344 9.652344 2.644531 9.675781 C 2.632812 9.714844 2.617188 9.753906 2.601562 9.789062 C 2.59375 9.8125 2.585938 9.835938 2.578125 9.859375 C 2.5625 9.898438 2.550781 9.933594 2.535156 9.972656 C 2.527344 9.996094 2.519531 10.015625 2.511719 10.039062 C 2.496094 10.082031 2.480469 10.125 2.464844 10.167969 C 2.460938 10.183594 2.453125 10.199219 2.449219 10.214844 C 2.429688 10.273438 2.410156 10.332031 2.386719 10.390625 C 2.382812 10.40625 2.378906 10.421875 2.371094 10.4375 C 2.359375 10.472656 2.347656 10.507812 2.335938 10.542969 L 1.832031 10.394531 C 2.210938 9.5625 2.679688 8.832031 3.234375 8.210938 Z M 1.328125 12.269531 C 1.261719 12.148438 1.246094 12 1.285156 11.863281 C 1.386719 11.515625 1.503906 11.183594 1.632812 10.859375 L 2.179688 11.019531 C 2.179688 11.023438 2.175781 11.027344 2.175781 11.03125 C 2.171875 11.046875 2.167969 11.058594 2.164062 11.070312 C 2.15625 11.097656 2.144531 11.128906 2.136719 11.15625 C 2.132812 11.167969 2.128906 11.183594 2.125 11.195312 C 2.113281 11.230469 2.105469 11.261719 2.09375 11.296875 C 2.09375 11.304688 2.089844 11.308594 2.089844 11.316406 C 2.078125 11.355469 2.066406 11.394531 2.054688 11.433594 C 2.050781 11.445312 2.046875 11.457031 2.042969 11.46875 C 2.035156 11.496094 2.027344 11.523438 2.019531 11.550781 C 2.015625 11.566406 2.011719 11.578125 2.007812 11.589844 C 2 11.625 1.988281 11.660156 1.980469 11.691406 C 1.976562 11.695312 1.976562 11.703125 1.976562 11.707031 C 1.964844 11.742188 1.953125 11.78125 1.945312 11.816406 C 1.941406 11.828125 1.9375 11.839844 1.933594 11.855469 C 1.925781 11.878906 1.917969 11.90625 1.914062 11.933594 C 1.910156 11.945312 1.90625 11.957031 1.902344 11.96875 C 1.894531 12.007812 1.882812 12.042969 1.875 12.078125 C 1.875 12.082031 1.875 12.085938 1.871094 12.089844 C 1.863281 12.121094 1.855469 12.15625 1.847656 12.1875 C 1.84375 12.199219 1.839844 12.210938 1.839844 12.222656 C 1.832031 12.25 1.824219 12.277344 1.820312 12.300781 C 1.816406 12.3125 1.8125 12.324219 1.8125 12.332031 C 1.800781 12.371094 1.792969 12.40625 1.785156 12.441406 C 1.785156 12.445312 1.785156 12.449219 1.785156 12.453125 C 1.777344 12.476562 1.773438 12.5 1.765625 12.523438 L 1.5625 12.46875 C 1.464844 12.441406 1.382812 12.371094 1.328125 12.269531 Z M 2.25 12.660156 C 2.25 12.652344 2.25 12.644531 2.253906 12.636719 C 2.257812 12.613281 2.261719 12.59375 2.269531 12.570312 C 2.273438 12.554688 2.277344 12.539062 2.277344 12.523438 C 2.285156 12.503906 2.289062 12.484375 2.292969 12.460938 C 2.296875 12.445312 2.300781 12.429688 2.304688 12.414062 C 2.3125 12.394531 2.316406 12.371094 2.320312 12.351562 C 2.324219 12.332031 2.328125 12.316406 2.332031 12.300781 C 2.339844 12.28125 2.34375 12.257812 2.351562 12.234375 C 2.355469 12.21875 2.359375 12.203125 2.363281 12.1875 C 2.367188 12.164062 2.375 12.140625 2.382812 12.117188 C 2.382812 12.101562 2.386719 12.089844 2.390625 12.074219 C 2.398438 12.042969 2.410156 12.015625 2.417969 11.984375 C 2.417969 11.976562 2.421875 11.96875 2.421875 11.957031 C 2.433594 11.921875 2.445312 11.882812 2.457031 11.839844 C 2.460938 11.832031 2.460938 11.816406 2.464844 11.808594 C 2.472656 11.777344 2.480469 11.75 2.488281 11.722656 C 2.492188 11.707031 2.5 11.691406 2.503906 11.675781 C 2.511719 11.652344 2.515625 11.628906 2.523438 11.601562 C 2.53125 11.585938 2.535156 11.570312 2.539062 11.550781 C 2.546875 11.527344 2.554688 11.503906 2.5625 11.480469 C 2.566406 11.460938 2.570312 11.445312 2.578125 11.429688 C 2.582031 11.402344 2.589844 11.378906 2.597656 11.355469 C 2.605469 11.339844 2.609375 11.320312 2.613281 11.304688 C 2.621094 11.277344 2.628906 11.253906 2.636719 11.226562 C 2.644531 11.210938 2.648438 11.195312 2.652344 11.179688 C 2.65625 11.171875 2.660156 11.164062 2.660156 11.15625 L 4.414062 11.664062 C 4.410156 11.675781 4.410156 11.6875 4.40625 11.699219 C 4.390625 11.765625 4.371094 11.832031 4.355469 11.898438 C 4.351562 11.925781 4.34375 11.953125 4.335938 11.980469 C 4.324219 12.03125 4.3125 12.082031 4.300781 12.132812 C 4.292969 12.164062 4.285156 12.195312 4.277344 12.226562 C 4.265625 12.277344 4.257812 12.324219 4.246094 12.371094 C 4.238281 12.40625 4.230469 12.4375 4.222656 12.46875 C 4.214844 12.515625 4.203125 12.566406 4.191406 12.613281 C 4.1875 12.644531 4.179688 12.679688 4.171875 12.710938 C 4.160156 12.761719 4.152344 12.808594 4.140625 12.859375 C 4.136719 12.890625 4.128906 12.921875 4.121094 12.953125 C 4.113281 13.007812 4.101562 13.0625 4.089844 13.117188 C 4.085938 13.132812 4.085938 13.152344 4.082031 13.167969 Z M 4.5625 13.304688 C 4.566406 13.300781 4.566406 13.292969 4.566406 13.289062 C 4.570312 13.265625 4.574219 13.242188 4.582031 13.214844 C 4.589844 13.160156 4.601562 13.105469 4.613281 13.054688 C 4.617188 13.023438 4.625 12.992188 4.628906 12.964844 C 4.640625 12.914062 4.648438 12.863281 4.660156 12.816406 C 4.667969 12.785156 4.671875 12.753906 4.679688 12.722656 C 4.691406 12.675781 4.699219 12.628906 4.710938 12.578125 C 4.71875 12.546875 4.722656 12.519531 4.730469 12.488281 C 4.742188 12.4375 4.753906 12.390625 4.765625 12.339844 C 4.769531 12.3125 4.777344 12.285156 4.785156 12.253906 C 4.796875 12.199219 4.8125 12.144531 4.824219 12.089844 C 4.828125 12.070312 4.835938 12.046875 4.839844 12.023438 C 4.859375 11.949219 4.875 11.875 4.894531 11.800781 L 6.886719 12.375 C 6.886719 12.378906 6.886719 12.382812 6.882812 12.386719 C 6.871094 12.453125 6.859375 12.519531 6.851562 12.585938 C 6.847656 12.597656 6.847656 12.609375 6.84375 12.625 C 6.832031 12.6875 6.820312 12.753906 6.8125 12.820312 C 6.808594 12.832031 6.808594 12.84375 6.808594 12.855469 C 6.796875 12.921875 6.785156 12.992188 6.777344 13.058594 C 6.777344 13.0625 6.773438 13.070312 6.773438 13.078125 C 6.765625 13.144531 6.757812 13.210938 6.746094 13.277344 C 6.746094 13.285156 6.746094 13.289062 6.746094 13.296875 C 6.734375 13.363281 6.726562 13.433594 6.71875 13.5 C 6.71875 13.511719 6.71875 13.523438 6.714844 13.535156 C 6.710938 13.597656 6.703125 13.664062 6.695312 13.730469 C 6.695312 13.742188 6.691406 13.753906 6.691406 13.765625 C 6.6875 13.808594 6.683594 13.851562 6.679688 13.894531 Z M 6.394531 15.523438 C 6.796875 14.601562 7.371094 13.777344 8.105469 13.066406 C 8.222656 12.957031 8.34375 12.847656 8.464844 12.742188 C 8.464844 12.753906 8.460938 12.769531 8.460938 12.78125 C 8.421875 13.191406 8.613281 13.664062 9.039062 14.230469 C 9.375 14.679688 9.796875 15.101562 10.136719 15.441406 C 10.339844 15.644531 10.511719 15.820312 10.59375 15.925781 C 10.78125 16.171875 11.035156 16.511719 11.160156 16.832031 C 11.242188 17.050781 11.304688 17.332031 11.054688 17.574219 C 10.648438 17.96875 10.039062 17.796875 9.136719 17.035156 C 9.039062 16.957031 8.933594 16.851562 8.816406 16.738281 C 8.421875 16.355469 7.933594 15.878906 7.40625 15.84375 C 7.164062 15.828125 6.953125 15.910156 6.804688 16.089844 C 6.574219 16.363281 6.542969 16.796875 6.617188 17.101562 C 6.648438 17.238281 6.78125 17.320312 6.914062 17.289062 C 7.050781 17.257812 7.132812 17.125 7.101562 16.988281 C 7.050781 16.777344 7.085938 16.53125 7.183594 16.414062 C 7.214844 16.378906 7.265625 16.335938 7.375 16.34375 C 7.691406 16.367188 8.070312 16.710938 8.390625 17.019531 L 7.679688 17.605469 C 7.574219 17.691406 7.558594 17.851562 7.644531 17.957031 C 7.691406 18.019531 7.765625 18.050781 7.835938 18.050781 C 7.894531 18.050781 7.949219 18.03125 7.996094 17.992188 L 8.734375 17.386719 C 8.742188 17.378906 8.746094 17.375 8.753906 17.367188 C 8.773438 17.386719 8.792969 17.40625 8.816406 17.421875 C 9.089844 17.65625 9.511719 17.984375 9.957031 18.160156 C 10.183594 18.246094 10.382812 18.28125 10.558594 18.28125 C 10.945312 18.28125 11.222656 18.109375 11.402344 17.933594 C 11.832031 17.515625 11.761719 17.007812 11.625 16.65625 C 11.476562 16.261719 11.195312 15.890625 10.988281 15.621094 C 10.890625 15.488281 10.710938 15.308594 10.488281 15.085938 C 10.160156 14.757812 9.753906 14.347656 9.4375 13.925781 C 9.09375 13.472656 8.933594 13.101562 8.957031 12.824219 C 8.972656 12.648438 9.0625 12.511719 9.246094 12.386719 C 9.542969 12.175781 10.132812 12.023438 10.800781 12.28125 C 11.382812 12.507812 11.871094 12.945312 12.339844 13.371094 L 13.660156 14.558594 L 12.972656 14.988281 C 12.859375 15.0625 12.820312 15.214844 12.894531 15.335938 C 12.941406 15.410156 13.023438 15.453125 13.105469 15.453125 C 13.152344 15.453125 13.195312 15.441406 13.238281 15.414062 L 14.046875 14.910156 L 14.203125 15.046875 C 14.570312 15.378906 15.113281 15.746094 15.617188 15.597656 C 15.941406 15.503906 16.070312 15.304688 16.121094 15.152344 C 16.222656 14.851562 16.125 14.460938 15.816406 13.921875 C 15.578125 13.511719 15.261719 13.085938 14.984375 12.710938 C 14.765625 12.417969 14.542969 12.113281 14.5 12 C 14.464844 11.902344 14.429688 11.789062 14.433594 11.6875 C 14.433594 11.582031 14.472656 11.503906 14.546875 11.4375 C 14.722656 11.292969 15.066406 11.25 15.3125 11.289062 C 16.269531 11.433594 16.898438 12.128906 17.5625 12.859375 C 17.976562 13.320312 18.402344 13.792969 18.925781 14.136719 C 19.039062 14.210938 19.195312 14.179688 19.269531 14.0625 C 19.347656 13.945312 19.3125 13.789062 19.199219 13.714844 C 18.730469 13.40625 18.339844 12.976562 17.929688 12.523438 C 17.542969 12.097656 17.152344 11.664062 16.683594 11.332031 C 16.75 11.355469 16.820312 11.382812 16.886719 11.410156 C 17.839844 11.800781 18.695312 12.359375 19.429688 13.066406 C 20.164062 13.777344 20.742188 14.601562 21.144531 15.523438 C 21.558594 16.472656 21.769531 17.484375 21.769531 18.523438 C 21.769531 19.566406 21.558594 20.574219 21.144531 21.527344 C 21.089844 21.644531 21.035156 21.761719 20.976562 21.878906 C 20.773438 21.988281 20.554688 22.097656 20.324219 22.199219 C 18.527344 23 16.160156 23.4375 13.660156 23.4375 C 11.164062 23.4375 8.796875 23 7 22.199219 C 6.875 22.144531 6.753906 22.085938 6.636719 22.027344 C 6.550781 21.863281 6.46875 21.699219 6.394531 21.527344 C 5.976562 20.574219 5.765625 19.566406 5.765625 18.523438 C 5.765625 17.484375 5.976562 16.472656 6.394531 15.523438 Z M 4.386719 20.125 C 4.386719 20.121094 4.382812 20.121094 4.382812 20.121094 C 4.375 20.105469 4.367188 20.089844 4.359375 20.074219 C 4.351562 20.054688 4.34375 20.039062 4.335938 20.023438 C 4.226562 19.796875 4.164062 19.570312 4.140625 19.335938 C 4.132812 19.273438 4.128906 19.210938 4.128906 19.148438 C 4.128906 18.601562 4.367188 18.0625 4.832031 17.550781 C 5 17.371094 5.191406 17.195312 5.40625 17.023438 C 5.316406 17.515625 5.265625 18.015625 5.265625 18.523438 C 5.265625 19.59375 5.476562 20.628906 5.886719 21.609375 C 5.523438 21.378906 5.214844 21.132812 4.957031 20.875 C 4.910156 20.828125 4.867188 20.785156 4.824219 20.738281 C 4.824219 20.738281 4.824219 20.734375 4.824219 20.734375 C 4.808594 20.722656 4.796875 20.707031 4.785156 20.691406 C 4.78125 20.6875 4.78125 20.6875 4.777344 20.683594 C 4.765625 20.671875 4.753906 20.660156 4.742188 20.644531 C 4.742188 20.640625 4.738281 20.636719 4.734375 20.636719 C 4.726562 20.621094 4.714844 20.609375 4.703125 20.597656 C 4.703125 20.59375 4.699219 20.589844 4.695312 20.585938 C 4.683594 20.574219 4.675781 20.5625 4.667969 20.550781 C 4.664062 20.546875 4.660156 20.542969 4.65625 20.539062 C 4.648438 20.527344 4.640625 20.515625 4.628906 20.503906 C 4.628906 20.5 4.628906 20.5 4.625 20.5 C 4.582031 20.4375 4.539062 20.378906 4.5 20.316406 C 4.5 20.316406 4.496094 20.316406 4.496094 20.3125 C 4.488281 20.296875 4.480469 20.285156 4.46875 20.269531 C 4.46875 20.269531 4.46875 20.265625 4.464844 20.265625 C 4.457031 20.25 4.449219 20.238281 4.441406 20.222656 C 4.441406 20.21875 4.4375 20.21875 4.4375 20.214844 C 4.429688 20.203125 4.421875 20.1875 4.414062 20.171875 C 4.410156 20.171875 4.410156 20.171875 4.410156 20.167969 C 4.402344 20.152344 4.394531 20.140625 4.386719 20.125 Z M 9.953125 26.859375 C 8.859375 26.378906 7.8125 25.675781 6.917969 24.828125 C 6.066406 24.023438 5.359375 23.089844 4.871094 22.132812 C 4.683594 21.761719 4.53125 21.390625 4.410156 21.027344 C 4.949219 21.640625 5.757812 22.195312 6.796875 22.660156 C 8.65625 23.484375 11.09375 23.941406 13.660156 23.941406 C 16.230469 23.941406 18.667969 23.484375 20.527344 22.660156 C 21.566406 22.195312 22.375 21.640625 22.910156 21.027344 C 22.792969 21.390625 22.640625 21.761719 22.453125 22.132812 C 21.964844 23.089844 21.257812 24.023438 20.40625 24.828125 C 19.511719 25.675781 18.460938 26.378906 17.371094 26.859375 C 16.164062 27.386719 14.917969 27.65625 13.660156 27.65625 C 12.40625 27.65625 11.160156 27.386719 9.953125 26.859375 Z M 12.164062 30.742188 L 12.277344 30.6875 C 12.640625 30.515625 12.894531 30.238281 13.027344 29.859375 C 13.128906 29.570312 13.164062 29.230469 13.136719 28.78125 C 13.121094 28.554688 13.070312 28.339844 12.980469 28.132812 C 13.207031 28.148438 13.433594 28.160156 13.660156 28.160156 C 14.25 28.160156 14.839844 28.101562 15.421875 27.992188 C 15.285156 28.238281 15.203125 28.507812 15.183594 28.785156 C 15.152344 29.234375 15.1875 29.59375 15.292969 29.886719 C 15.433594 30.273438 15.691406 30.554688 16.066406 30.722656 C 16.183594 30.773438 16.300781 30.816406 16.417969 30.847656 C 16.863281 30.960938 17.253906 31.109375 17.574219 31.273438 C 17.175781 31.339844 16.785156 31.429688 16.402344 31.550781 C 15.6875 31.773438 15.039062 32.085938 14.476562 32.476562 C 14.308594 32.589844 14.152344 32.710938 14.007812 32.832031 C 13.871094 32.4375 13.660156 32.097656 13.390625 31.832031 C 13.449219 31.554688 13.320312 31.265625 13.070312 31.117188 C 13.066406 31.113281 13.0625 31.113281 13.058594 31.109375 L 13.050781 31.105469 C 13 31.078125 12.945312 31.066406 12.890625 31.074219 L 12.269531 31.03125 C 12.234375 30.933594 12.195312 30.839844 12.148438 30.75 C 12.152344 30.746094 12.160156 30.742188 12.164062 30.742188 Z M 2.074219 37.417969 C 1.777344 37.140625 1.574219 36.75 1.464844 36.261719 C 1.355469 35.777344 1.351562 35.203125 1.453125 34.601562 C 1.558594 33.972656 1.769531 33.332031 2.085938 32.707031 C 2.417969 32.035156 2.851562 31.414062 3.375 30.851562 C 3.894531 30.289062 4.484375 29.8125 5.125 29.433594 C 5.726562 29.074219 6.34375 28.816406 6.964844 28.671875 C 7.34375 28.578125 7.71875 28.53125 8.070312 28.53125 C 8.257812 28.53125 8.4375 28.546875 8.609375 28.574219 C 9.101562 28.648438 9.5 28.832031 9.796875 29.109375 C 10.519531 29.789062 10.378906 30.851562 10.136719 31.621094 C 9.792969 32.714844 9.003906 33.960938 7.917969 35.132812 C 6.832031 36.300781 5.648438 37.175781 4.585938 37.59375 C 3.839844 37.890625 2.796875 38.097656 2.074219 37.417969 Z M 3.011719 38.730469 C 2.957031 38.75 2.894531 38.734375 2.851562 38.691406 L 2.796875 38.328125 C 2.902344 38.347656 3.007812 38.359375 3.113281 38.367188 C 3.175781 38.371094 3.238281 38.375 3.300781 38.375 C 3.75 38.375 4.242188 38.269531 4.765625 38.0625 C 5.898438 37.617188 7.144531 36.699219 8.28125 35.476562 C 9.417969 34.253906 10.246094 32.9375 10.613281 31.769531 C 10.808594 31.15625 10.871094 30.589844 10.808594 30.089844 C 10.792969 29.984375 10.773438 29.878906 10.746094 29.777344 L 11.132812 29.800781 C 11.171875 29.839844 11.1875 29.894531 11.171875 29.949219 C 11.113281 30.160156 11.164062 30.386719 11.308594 30.550781 L 11.320312 30.566406 C 11.363281 30.617188 11.371094 30.691406 11.335938 30.746094 L 11.332031 30.75 C 11.210938 30.945312 11.199219 31.195312 11.304688 31.398438 L 11.3125 31.414062 C 11.34375 31.472656 11.335938 31.542969 11.292969 31.585938 L 11.285156 31.59375 C 11.121094 31.765625 11.066406 32.015625 11.140625 32.246094 L 11.144531 32.261719 C 11.164062 32.320312 11.144531 32.382812 11.097656 32.421875 L 11.089844 32.429688 C 10.898438 32.582031 10.808594 32.824219 10.855469 33.066406 L 10.859375 33.078125 C 10.871094 33.140625 10.84375 33.199219 10.792969 33.230469 L 10.785156 33.238281 C 10.574219 33.367188 10.460938 33.601562 10.480469 33.851562 L 10.484375 33.863281 C 10.488281 33.925781 10.457031 33.980469 10.402344 34.007812 L 10.390625 34.015625 C 10.171875 34.125 10.03125 34.347656 10.035156 34.597656 L 10.035156 34.613281 C 10.035156 34.671875 10 34.726562 9.941406 34.746094 L 9.929688 34.753906 C 9.699219 34.84375 9.542969 35.054688 9.523438 35.304688 L 9.523438 35.320312 C 9.519531 35.378906 9.476562 35.429688 9.421875 35.445312 L 9.410156 35.449219 C 9.171875 35.523438 8.996094 35.726562 8.960938 35.972656 L 8.957031 35.984375 C 8.949219 36.042969 8.90625 36.089844 8.847656 36.105469 L 8.832031 36.109375 C 8.59375 36.160156 8.402344 36.351562 8.347656 36.59375 L 8.34375 36.605469 C 8.332031 36.664062 8.285156 36.707031 8.226562 36.714844 L 8.210938 36.71875 C 7.964844 36.753906 7.765625 36.925781 7.691406 37.164062 L 7.6875 37.175781 C 7.667969 37.234375 7.617188 37.273438 7.558594 37.277344 L 7.542969 37.277344 C 7.296875 37.292969 7.082031 37.445312 6.988281 37.675781 L 6.984375 37.6875 C 6.960938 37.742188 6.90625 37.777344 6.847656 37.777344 L 6.832031 37.777344 C 6.585938 37.769531 6.363281 37.902344 6.246094 38.121094 L 6.242188 38.132812 C 6.210938 38.1875 6.15625 38.214844 6.09375 38.207031 L 6.078125 38.207031 C 5.835938 38.175781 5.601562 38.28125 5.464844 38.480469 L 5.457031 38.492188 C 5.425781 38.542969 5.359375 38.566406 5.300781 38.550781 L 5.285156 38.546875 C 5.054688 38.484375 4.8125 38.558594 4.648438 38.734375 L 4.644531 38.742188 C 4.601562 38.789062 4.535156 38.800781 4.476562 38.773438 L 4.460938 38.769531 C 4.25 38.675781 4.003906 38.703125 3.816406 38.835938 L 3.8125 38.839844 C 3.761719 38.878906 3.6875 38.878906 3.632812 38.835938 L 3.617188 38.824219 C 3.503906 38.738281 3.367188 38.691406 3.226562 38.691406 C 3.152344 38.691406 3.082031 38.703125 3.011719 38.730469 Z M 4.085938 39.261719 C 4.09375 39.257812 4.101562 39.25 4.105469 39.246094 L 4.113281 39.242188 C 4.152344 39.210938 4.210938 39.207031 4.257812 39.226562 L 4.273438 39.234375 C 4.527344 39.347656 4.824219 39.285156 5.011719 39.082031 L 5.015625 39.074219 C 5.054688 39.035156 5.109375 39.019531 5.160156 39.03125 L 5.175781 39.035156 C 5.441406 39.105469 5.71875 39 5.871094 38.773438 L 5.878906 38.765625 C 5.90625 38.722656 5.960938 38.695312 6.015625 38.703125 L 6.03125 38.707031 C 6.296875 38.742188 6.558594 38.605469 6.683594 38.367188 L 6.6875 38.355469 C 6.714844 38.308594 6.761719 38.28125 6.816406 38.28125 C 6.816406 38.28125 6.816406 38.28125 6.820312 38.28125 L 6.835938 38.28125 C 6.839844 38.28125 6.847656 38.28125 6.851562 38.28125 C 7.113281 38.28125 7.347656 38.125 7.445312 37.878906 L 7.449219 37.867188 C 7.472656 37.816406 7.519531 37.78125 7.574219 37.777344 L 7.589844 37.777344 C 7.855469 37.761719 8.082031 37.585938 8.164062 37.328125 L 8.167969 37.316406 C 8.183594 37.261719 8.226562 37.222656 8.28125 37.214844 L 8.296875 37.214844 C 8.5625 37.175781 8.769531 36.980469 8.832031 36.71875 L 8.835938 36.707031 C 8.847656 36.652344 8.886719 36.609375 8.941406 36.597656 L 8.957031 36.59375 C 9.214844 36.535156 9.410156 36.328125 9.453125 36.0625 L 9.453125 36.046875 C 9.460938 35.992188 9.5 35.949219 9.554688 35.933594 L 9.566406 35.929688 C 9.820312 35.851562 10 35.625 10.019531 35.359375 L 10.023438 35.34375 C 10.027344 35.289062 10.058594 35.242188 10.113281 35.222656 L 10.125 35.214844 C 10.375 35.117188 10.535156 34.878906 10.53125 34.609375 L 10.53125 34.597656 C 10.53125 34.539062 10.5625 34.488281 10.613281 34.464844 L 10.625 34.460938 C 10.863281 34.339844 11.003906 34.089844 10.980469 33.820312 L 10.980469 33.804688 C 10.972656 33.746094 11 33.695312 11.046875 33.667969 L 11.054688 33.660156 C 11.28125 33.519531 11.402344 33.246094 11.347656 32.984375 L 11.347656 32.96875 C 11.335938 32.914062 11.355469 32.859375 11.398438 32.824219 L 11.40625 32.816406 C 11.617188 32.648438 11.703125 32.363281 11.621094 32.105469 L 11.613281 32.089844 C 11.597656 32.035156 11.609375 31.980469 11.648438 31.941406 L 11.652344 31.933594 C 11.84375 31.734375 11.886719 31.429688 11.757812 31.183594 L 11.75 31.167969 C 11.730469 31.132812 11.726562 31.089844 11.738281 31.050781 C 12.007812 31.628906 12.058594 32.375 11.878906 33.226562 C 11.613281 34.484375 10.882812 35.804688 9.820312 36.949219 C 8.757812 38.09375 7.496094 38.914062 6.265625 39.265625 C 5.847656 39.382812 5.453125 39.441406 5.089844 39.441406 C 4.722656 39.441406 4.382812 39.378906 4.085938 39.261719 Z M 4.890625 40.347656 C 4.835938 40.367188 4.769531 40.347656 4.726562 40.304688 L 4.660156 39.917969 C 4.800781 39.933594 4.949219 39.941406 5.09375 39.941406 C 5.507812 39.941406 5.945312 39.878906 6.402344 39.746094 C 7.71875 39.375 9.0625 38.5 10.183594 37.292969 C 11.308594 36.082031 12.082031 34.675781 12.367188 33.328125 C 12.503906 32.683594 12.519531 32.082031 12.414062 31.546875 L 12.851562 31.578125 C 12.894531 31.617188 12.914062 31.679688 12.898438 31.734375 C 12.84375 31.941406 12.898438 32.167969 13.042969 32.335938 L 13.054688 32.351562 C 13.101562 32.402344 13.109375 32.476562 13.078125 32.53125 L 13.074219 32.535156 C 12.957031 32.730469 12.949219 32.976562 13.058594 33.183594 L 13.066406 33.199219 C 13.097656 33.257812 13.09375 33.324219 13.050781 33.367188 L 13.046875 33.375 C 12.882812 33.546875 12.828125 33.796875 12.910156 34.027344 L 12.914062 34.042969 C 12.933594 34.101562 12.917969 34.164062 12.875 34.199219 L 12.867188 34.203125 C 12.675781 34.355469 12.585938 34.597656 12.640625 34.84375 L 12.644531 34.855469 C 12.65625 34.914062 12.632812 34.972656 12.585938 35 L 12.574219 35.007812 C 12.367188 35.132812 12.25 35.375 12.277344 35.621094 L 12.28125 35.636719 C 12.285156 35.691406 12.257812 35.746094 12.210938 35.769531 L 12.199219 35.773438 C 11.976562 35.878906 11.839844 36.109375 11.84375 36.359375 L 11.84375 36.375 C 11.84375 36.429688 11.8125 36.480469 11.761719 36.5 L 11.75 36.503906 C 11.519531 36.589844 11.359375 36.808594 11.34375 37.058594 L 11.34375 37.070312 C 11.339844 37.128906 11.304688 37.171875 11.253906 37.1875 L 11.242188 37.191406 C 11.003906 37.257812 10.828125 37.464844 10.792969 37.710938 L 10.792969 37.726562 C 10.785156 37.78125 10.746094 37.820312 10.691406 37.832031 L 10.675781 37.835938 C 10.433594 37.886719 10.242188 38.078125 10.191406 38.320312 L 10.1875 38.332031 C 10.175781 38.386719 10.136719 38.425781 10.078125 38.433594 L 10.066406 38.433594 C 9.820312 38.464844 9.613281 38.640625 9.542969 38.878906 L 9.539062 38.890625 C 9.523438 38.945312 9.476562 38.976562 9.421875 38.980469 L 9.40625 38.980469 C 9.160156 38.992188 8.941406 39.148438 8.851562 39.375 L 8.847656 39.390625 C 8.824219 39.441406 8.777344 39.472656 8.71875 39.46875 L 8.703125 39.46875 C 8.457031 39.457031 8.226562 39.589844 8.117188 39.808594 L 8.109375 39.816406 C 8.085938 39.867188 8.03125 39.894531 7.972656 39.882812 L 7.957031 39.882812 C 7.710938 39.847656 7.476562 39.949219 7.339844 40.152344 L 7.332031 40.160156 C 7.300781 40.207031 7.242188 40.226562 7.183594 40.210938 L 7.167969 40.207031 C 6.933594 40.144531 6.6875 40.210938 6.527344 40.386719 L 6.523438 40.394531 C 6.484375 40.4375 6.417969 40.449219 6.359375 40.421875 L 6.34375 40.414062 C 6.128906 40.316406 5.882812 40.339844 5.699219 40.472656 L 5.695312 40.476562 C 5.644531 40.511719 5.570312 40.507812 5.515625 40.464844 L 5.5 40.453125 C 5.378906 40.363281 5.238281 40.316406 5.097656 40.316406 C 5.027344 40.316406 4.957031 40.328125 4.890625 40.347656 Z M 11.722656 38.742188 C 11.203125 39.304688 10.613281 39.78125 9.972656 40.160156 C 9.371094 40.519531 8.75 40.773438 8.132812 40.921875 C 7.546875 41.0625 6.976562 41.097656 6.488281 41.019531 C 6.304688 40.992188 6.132812 40.949219 5.976562 40.890625 C 5.980469 40.886719 5.984375 40.886719 5.988281 40.882812 L 5.992188 40.882812 C 6.03125 40.851562 6.085938 40.847656 6.136719 40.871094 L 6.152344 40.878906 C 6.410156 40.996094 6.707031 40.9375 6.890625 40.734375 L 6.898438 40.726562 C 6.929688 40.691406 6.984375 40.675781 7.035156 40.691406 L 7.050781 40.695312 C 7.316406 40.769531 7.597656 40.667969 7.746094 40.441406 L 7.753906 40.433594 C 7.78125 40.390625 7.832031 40.371094 7.882812 40.378906 L 7.898438 40.382812 C 8.167969 40.421875 8.429688 40.285156 8.554688 40.046875 L 8.558594 40.039062 C 8.582031 39.992188 8.628906 39.96875 8.683594 39.96875 L 8.695312 39.96875 C 8.964844 39.980469 9.210938 39.824219 9.308594 39.574219 L 9.316406 39.5625 C 9.332031 39.515625 9.375 39.484375 9.429688 39.484375 L 9.445312 39.484375 C 9.710938 39.46875 9.941406 39.289062 10.015625 39.035156 L 10.019531 39.023438 C 10.035156 38.972656 10.074219 38.941406 10.128906 38.933594 L 10.140625 38.933594 C 10.40625 38.898438 10.621094 38.699219 10.675781 38.4375 L 10.679688 38.425781 C 10.691406 38.375 10.726562 38.339844 10.777344 38.328125 L 10.792969 38.324219 C 11.050781 38.273438 11.25 38.058594 11.285156 37.792969 L 11.289062 37.78125 C 11.292969 37.726562 11.328125 37.6875 11.378906 37.675781 L 11.390625 37.671875 C 11.644531 37.597656 11.828125 37.367188 11.84375 37.101562 L 11.84375 37.085938 C 11.847656 37.035156 11.878906 36.992188 11.925781 36.972656 L 11.9375 36.96875 C 12.1875 36.875 12.347656 36.632812 12.34375 36.363281 L 12.34375 36.347656 C 12.339844 36.296875 12.367188 36.25 12.414062 36.226562 L 12.425781 36.222656 C 12.664062 36.105469 12.804688 35.847656 12.777344 35.578125 L 12.773438 35.566406 C 12.769531 35.511719 12.792969 35.464844 12.832031 35.4375 L 12.84375 35.429688 C 13.074219 35.292969 13.1875 35.019531 13.132812 34.75 L 13.128906 34.738281 C 13.117188 34.683594 13.132812 34.632812 13.171875 34.601562 L 13.179688 34.59375 C 13.394531 34.429688 13.476562 34.140625 13.386719 33.878906 L 13.382812 33.863281 C 13.363281 33.8125 13.371094 33.757812 13.40625 33.722656 L 13.414062 33.714844 C 13.601562 33.515625 13.640625 33.214844 13.507812 32.964844 L 13.5 32.949219 C 13.484375 32.917969 13.476562 32.882812 13.480469 32.851562 C 13.542969 33 13.59375 33.160156 13.632812 33.332031 C 13.742188 33.816406 13.746094 34.390625 13.644531 34.992188 C 13.539062 35.621094 13.328125 36.261719 13.011719 36.886719 C 12.679688 37.558594 12.246094 38.179688 11.722656 38.742188 Z M 24.011719 40.84375 C 23.738281 41.257812 23.332031 41.660156 22.832031 42.007812 C 22.308594 42.367188 21.707031 42.65625 21.039062 42.867188 C 20.328125 43.089844 19.582031 43.210938 18.820312 43.222656 C 18.054688 43.234375 17.304688 43.140625 16.589844 42.941406 C 15.914062 42.753906 15.300781 42.484375 14.765625 42.140625 C 14.257812 41.8125 13.839844 41.425781 13.550781 41.015625 C 13.445312 40.867188 13.359375 40.710938 13.292969 40.558594 C 13.292969 40.5625 13.296875 40.5625 13.296875 40.5625 L 13.304688 40.5625 C 13.351562 40.570312 13.394531 40.609375 13.414062 40.660156 L 13.417969 40.679688 C 13.511719 40.945312 13.761719 41.121094 14.035156 41.113281 L 14.042969 41.113281 C 14.09375 41.109375 14.140625 41.140625 14.167969 41.1875 L 14.175781 41.203125 C 14.308594 41.445312 14.574219 41.578125 14.839844 41.527344 L 14.851562 41.527344 C 14.898438 41.519531 14.949219 41.539062 14.980469 41.585938 L 14.988281 41.597656 C 15.148438 41.820312 15.425781 41.914062 15.679688 41.839844 L 15.691406 41.835938 C 15.738281 41.820312 15.789062 41.835938 15.824219 41.875 L 15.835938 41.886719 C 16.015625 42.089844 16.300781 42.160156 16.542969 42.058594 L 16.554688 42.050781 C 16.601562 42.03125 16.65625 42.042969 16.691406 42.078125 L 16.703125 42.089844 C 16.898438 42.273438 17.1875 42.316406 17.421875 42.195312 L 17.433594 42.1875 C 17.480469 42.164062 17.53125 42.167969 17.570312 42.203125 L 17.582031 42.210938 C 17.789062 42.378906 18.082031 42.398438 18.304688 42.257812 L 18.316406 42.25 C 18.359375 42.222656 18.410156 42.222656 18.453125 42.253906 L 18.464844 42.261719 C 18.574219 42.332031 18.695312 42.371094 18.820312 42.371094 C 18.949219 42.371094 19.078125 42.328125 19.191406 42.25 L 19.199219 42.238281 C 19.242188 42.210938 19.292969 42.207031 19.339844 42.230469 L 19.351562 42.238281 C 19.578125 42.371094 19.871094 42.34375 20.070312 42.171875 L 20.082031 42.160156 C 20.121094 42.125 20.171875 42.117188 20.21875 42.140625 L 20.230469 42.148438 C 20.472656 42.261719 20.757812 42.210938 20.945312 42.019531 L 20.957031 42.007812 C 20.992188 41.96875 21.042969 41.957031 21.089844 41.976562 L 21.105469 41.980469 C 21.351562 42.074219 21.636719 41.996094 21.804688 41.789062 L 21.816406 41.777344 C 21.851562 41.734375 21.902344 41.71875 21.949219 41.730469 L 21.960938 41.734375 C 22.21875 41.800781 22.492188 41.695312 22.644531 41.46875 L 22.652344 41.457031 C 22.683594 41.410156 22.730469 41.386719 22.78125 41.394531 L 22.792969 41.394531 C 23.058594 41.433594 23.320312 41.292969 23.445312 41.046875 L 23.453125 41.03125 C 23.476562 40.984375 23.523438 40.953125 23.570312 40.953125 L 23.582031 40.953125 C 23.855469 40.949219 24.097656 40.769531 24.183594 40.496094 L 24.1875 40.480469 C 24.199219 40.445312 24.21875 40.417969 24.246094 40.398438 C 24.183594 40.546875 24.105469 40.695312 24.011719 40.84375 Z M 34.066406 42.738281 L 32.394531 41.460938 L 24.898438 35.722656 C 24.953125 35.523438 24.980469 35.316406 24.976562 35.101562 C 24.960938 34.101562 24.273438 33.089844 23.09375 32.332031 C 22.972656 32.253906 22.851562 32.183594 22.726562 32.113281 L 22.726562 25.324219 L 32.824219 31.582031 C 32.851562 31.601562 32.878906 31.617188 32.90625 31.636719 C 33.039062 31.726562 33.160156 31.820312 33.273438 31.925781 C 33.644531 32.265625 33.890625 32.6875 34.03125 33.214844 C 34.207031 33.867188 34.207031 34.585938 34.207031 35.347656 C 34.203125 35.597656 34.203125 35.851562 34.210938 36.105469 C 34.21875 36.472656 34.257812 36.796875 34.320312 37.070312 L 34.320312 42.621094 C 34.320312 42.722656 34.335938 42.824219 34.367188 42.914062 C 34.261719 42.871094 34.160156 42.8125 34.066406 42.738281 Z M 42.519531 35.980469 C 42.519531 36.519531 42.394531 37.054688 42.164062 37.535156 C 42.148438 37.570312 42.128906 37.601562 42.113281 37.632812 C 42.109375 37.640625 42.109375 37.644531 42.105469 37.652344 C 41.976562 37.90625 41.835938 38.15625 41.683594 38.398438 C 41.679688 38.40625 41.671875 38.417969 41.664062 38.429688 C 41.648438 38.457031 41.628906 38.484375 41.613281 38.511719 C 41.597656 38.53125 41.585938 38.554688 41.570312 38.574219 C 41.558594 38.589844 41.546875 38.609375 41.535156 38.628906 C 41.519531 38.652344 41.503906 38.675781 41.488281 38.699219 C 41.480469 38.714844 41.46875 38.726562 41.460938 38.742188 C 41.441406 38.765625 41.425781 38.792969 41.40625 38.816406 C 41.398438 38.828125 41.390625 38.84375 41.382812 38.855469 C 41.363281 38.878906 41.34375 38.90625 41.328125 38.929688 C 41.316406 38.941406 41.308594 38.953125 41.300781 38.964844 C 41.28125 38.992188 41.265625 39.015625 41.246094 39.039062 C 41.238281 39.050781 41.226562 39.066406 41.21875 39.078125 C 41.199219 39.101562 41.183594 39.121094 41.167969 39.144531 C 41.15625 39.160156 41.144531 39.175781 41.128906 39.191406 C 41.117188 39.210938 41.101562 39.230469 41.085938 39.25 C 41.070312 39.265625 41.058594 39.285156 41.042969 39.300781 C 41.03125 39.316406 41.019531 39.332031 41.003906 39.347656 C 40.988281 39.371094 40.96875 39.390625 40.953125 39.414062 C 40.941406 39.425781 40.933594 39.433594 40.921875 39.445312 C 40.902344 39.472656 40.882812 39.496094 40.863281 39.519531 C 40.855469 39.527344 40.84375 39.539062 40.835938 39.546875 C 40.816406 39.574219 40.792969 39.597656 40.769531 39.625 C 40.761719 39.632812 40.753906 39.640625 40.746094 39.648438 C 40.726562 39.675781 40.703125 39.699219 40.679688 39.726562 C 40.671875 39.734375 40.664062 39.742188 40.65625 39.753906 C 40.632812 39.777344 40.609375 39.800781 40.585938 39.824219 C 40.578125 39.835938 40.570312 39.84375 40.558594 39.855469 C 40.539062 39.878906 40.515625 39.902344 40.492188 39.925781 C 40.484375 39.933594 40.472656 39.945312 40.464844 39.957031 C 40.441406 39.976562 40.421875 40 40.398438 40.019531 C 40.386719 40.03125 40.375 40.042969 40.363281 40.054688 C 40.34375 40.074219 40.324219 40.09375 40.304688 40.113281 C 40.292969 40.128906 40.277344 40.140625 40.265625 40.152344 C 40.246094 40.171875 40.226562 40.1875 40.210938 40.207031 C 40.195312 40.222656 40.179688 40.234375 40.164062 40.25 C 40.148438 40.265625 40.128906 40.28125 40.113281 40.296875 C 40.097656 40.3125 40.078125 40.328125 40.058594 40.347656 C 40.046875 40.359375 40.03125 40.371094 40.015625 40.386719 C 39.996094 40.402344 39.976562 40.421875 39.957031 40.441406 C 39.945312 40.449219 39.929688 40.460938 39.917969 40.472656 C 39.894531 40.492188 39.875 40.511719 39.851562 40.53125 C 39.839844 40.542969 39.828125 40.550781 39.816406 40.5625 C 39.792969 40.582031 39.769531 40.601562 39.746094 40.621094 C 39.734375 40.628906 39.726562 40.640625 39.714844 40.648438 C 39.691406 40.667969 39.664062 40.6875 39.640625 40.710938 C 39.625 40.722656 39.613281 40.734375 39.597656 40.746094 C 39.574219 40.761719 39.554688 40.777344 39.535156 40.796875 C 39.5 40.824219 39.464844 40.851562 39.429688 40.878906 C 39.175781 41.074219 38.910156 41.257812 38.632812 41.4375 C 38.628906 41.4375 38.628906 41.4375 38.628906 41.441406 C 38.585938 41.464844 38.546875 41.492188 38.507812 41.515625 C 38.503906 41.515625 38.503906 41.519531 38.503906 41.519531 C 38.464844 41.542969 38.425781 41.566406 38.386719 41.589844 C 38.382812 41.59375 38.378906 41.59375 38.378906 41.59375 C 38.339844 41.617188 38.300781 41.640625 38.261719 41.664062 C 38.257812 41.664062 38.253906 41.667969 38.25 41.671875 C 38.214844 41.691406 38.175781 41.714844 38.136719 41.734375 C 38.132812 41.738281 38.128906 41.742188 38.125 41.742188 C 38.085938 41.765625 38.050781 41.785156 38.011719 41.804688 C 38.007812 41.808594 38 41.8125 37.996094 41.816406 C 37.957031 41.835938 37.921875 41.855469 37.886719 41.875 C 37.878906 41.878906 37.871094 41.882812 37.863281 41.886719 C 37.828125 41.90625 37.792969 41.925781 37.757812 41.945312 C 37.75 41.949219 37.742188 41.953125 37.734375 41.957031 C 37.699219 41.976562 37.664062 41.996094 37.625 42.011719 C 37.617188 42.015625 37.609375 42.019531 37.601562 42.027344 C 37.566406 42.042969 37.53125 42.0625 37.496094 42.078125 C 37.484375 42.082031 37.476562 42.089844 37.46875 42.09375 C 37.433594 42.109375 37.398438 42.128906 37.359375 42.144531 C 37.351562 42.148438 37.339844 42.152344 37.332031 42.160156 C 37.296875 42.175781 37.261719 42.191406 37.226562 42.210938 C 37.214844 42.214844 37.207031 42.21875 37.195312 42.222656 C 37.160156 42.242188 37.125 42.257812 37.089844 42.273438 C 37.078125 42.277344 37.066406 42.28125 37.058594 42.289062 C 37.023438 42.304688 36.988281 42.320312 36.949219 42.335938 C 36.941406 42.339844 36.929688 42.34375 36.917969 42.351562 C 36.882812 42.367188 36.847656 42.382812 36.808594 42.398438 C 36.800781 42.402344 36.789062 42.40625 36.777344 42.410156 C 36.742188 42.425781 36.703125 42.441406 36.667969 42.457031 C 36.65625 42.464844 36.644531 42.46875 36.636719 42.472656 C 36.597656 42.488281 36.558594 42.503906 36.519531 42.519531 C 36.511719 42.523438 36.503906 42.527344 36.492188 42.53125 C 36.453125 42.546875 36.410156 42.5625 36.367188 42.582031 C 36.359375 42.582031 36.355469 42.585938 36.347656 42.589844 C 36.292969 42.609375 36.242188 42.628906 36.1875 42.652344 C 36.09375 42.6875 36 42.722656 35.902344 42.757812 C 35.894531 42.757812 35.886719 42.761719 35.875 42.765625 C 35.835938 42.78125 35.796875 42.796875 35.753906 42.808594 C 35.738281 42.816406 35.71875 42.820312 35.699219 42.828125 C 35.667969 42.839844 35.636719 42.851562 35.605469 42.859375 C 35.582031 42.867188 35.5625 42.875 35.539062 42.882812 C 35.511719 42.894531 35.480469 42.902344 35.453125 42.910156 C 35.429688 42.921875 35.402344 42.929688 35.378906 42.9375 C 35.355469 42.945312 35.332031 42.949219 35.308594 42.957031 C 35.289062 42.964844 35.269531 42.96875 35.253906 42.976562 C 35.152344 42.996094 35.046875 42.976562 34.964844 42.914062 C 34.871094 42.84375 34.816406 42.738281 34.816406 42.621094 L 34.816406 38.046875 C 34.839844 38.066406 34.859375 38.085938 34.882812 38.101562 C 35.191406 38.347656 35.539062 38.472656 35.902344 38.472656 C 36.03125 38.472656 36.164062 38.457031 36.296875 38.425781 C 37.011719 38.257812 37.5625 37.691406 37.777344 37.234375 C 37.980469 36.796875 38.089844 36.324219 38.195312 35.871094 C 38.40625 34.960938 38.589844 34.175781 39.472656 33.800781 C 39.816406 33.65625 40.203125 33.621094 40.613281 33.589844 C 40.957031 33.558594 41.3125 33.53125 41.648438 33.429688 C 41.8125 33.378906 41.957031 33.320312 42.09375 33.242188 C 42.25 33.15625 42.390625 33.050781 42.519531 32.921875 Z M 42.519531 35.980469 " fill-opacity="1" fill-rule="nonzero"/></g><path fill="#000000" d="M 35.035156 25.6875 C 35.089844 25.6875 35.148438 25.664062 35.195312 25.625 L 35.324219 25.511719 C 35.429688 25.421875 35.441406 25.261719 35.351562 25.15625 C 35.261719 25.054688 35.105469 25.042969 35 25.132812 L 34.871094 25.246094 C 34.765625 25.335938 34.753906 25.492188 34.84375 25.597656 C 34.894531 25.65625 34.964844 25.6875 35.035156 25.6875 Z M 35.035156 25.6875 " fill-opacity="1" fill-rule="nonzero"/><path fill="#000000" d="M 33.886719 24.054688 C 33.925781 24.054688 33.964844 24.046875 34 24.027344 L 34.191406 23.933594 C 34.316406 23.871094 34.367188 23.71875 34.308594 23.59375 C 34.246094 23.472656 34.097656 23.417969 33.972656 23.480469 L 33.777344 23.578125 C 33.65625 23.636719 33.605469 23.789062 33.664062 23.914062 C 33.707031 24.003906 33.796875 24.054688 33.886719 24.054688 Z M 33.886719 24.054688 " fill-opacity="1" fill-rule="nonzero"/><path fill="#000000" d="M 32.4375 23.582031 C 32.476562 23.582031 32.519531 23.570312 32.5625 23.546875 L 32.707031 23.460938 C 32.828125 23.390625 32.867188 23.238281 32.796875 23.117188 C 32.730469 23 32.578125 22.957031 32.457031 23.027344 L 32.308594 23.113281 C 32.191406 23.183594 32.148438 23.335938 32.21875 23.457031 C 32.265625 23.539062 32.347656 23.582031 32.4375 23.582031 Z M 32.4375 23.582031 " fill-opacity="1" fill-rule="nonzero"/><path fill="#000000" d="M 34.171875 26.957031 C 34.214844 27.046875 34.304688 27.097656 34.394531 27.097656 C 34.433594 27.097656 34.46875 27.089844 34.503906 27.070312 L 34.660156 26.996094 C 34.78125 26.933594 34.832031 26.78125 34.773438 26.660156 C 34.710938 26.535156 34.5625 26.484375 34.4375 26.542969 L 34.285156 26.621094 C 34.160156 26.683594 34.109375 26.832031 34.171875 26.957031 Z M 34.171875 26.957031 " fill-opacity="1" fill-rule="nonzero"/><path fill="#000000" d="M 32.8125 26.183594 C 32.851562 26.277344 32.945312 26.335938 33.042969 26.335938 C 33.074219 26.335938 33.105469 26.332031 33.136719 26.316406 L 33.296875 26.25 C 33.425781 26.199219 33.484375 26.050781 33.433594 25.921875 C 33.378906 25.792969 33.234375 25.734375 33.105469 25.785156 L 32.945312 25.855469 C 32.820312 25.90625 32.757812 26.054688 32.8125 26.183594 Z M 32.8125 26.183594 " fill-opacity="1" fill-rule="nonzero"/><path fill="#000000" d="M 31.09375 25.070312 C 31.140625 25.101562 31.191406 25.121094 31.246094 25.121094 C 31.320312 25.121094 31.394531 25.085938 31.445312 25.019531 L 31.535156 24.902344 C 31.617188 24.792969 31.59375 24.632812 31.484375 24.550781 C 31.375 24.464844 31.21875 24.488281 31.136719 24.597656 L 31.046875 24.71875 C 30.964844 24.828125 30.984375 24.984375 31.09375 25.070312 Z M 31.09375 25.070312 " fill-opacity="1" fill-rule="nonzero"/><path fill="#000000" d="M 31.363281 26.402344 C 31.230469 26.367188 31.09375 26.453125 31.0625 26.585938 C 31.03125 26.722656 31.113281 26.855469 31.246094 26.890625 L 31.386719 26.925781 C 31.40625 26.929688 31.429688 26.929688 31.449219 26.929688 C 31.558594 26.929688 31.660156 26.855469 31.691406 26.738281 C 31.722656 26.605469 31.640625 26.46875 31.503906 26.4375 Z M 31.363281 26.402344 " fill-opacity="1" fill-rule="nonzero"/></svg>