<svg xmlns="http://www.w3.org/2000/svg" xmlns:xlink="http://www.w3.org/1999/xlink" width="60" zoomAndPan="magnify" viewBox="0 0 45 44.999999" height="60" preserveAspectRatio="xMidYMid meet" version="1.0"><defs><clipPath id="af758a30f5"><path d="M 0 7.460938 L 44.25 7.460938 L 44.25 38.210938 L 0 38.210938 Z M 0 7.460938 " clip-rule="nonzero"/></clipPath></defs><g clip-path="url(#af758a30f5)"><path fill="#000000" d="M 40.5625 7.460938 C 38.492188 7.460938 36.875 9.714844 36.875 12.585938 C 36.875 15.109375 38.121094 17.148438 39.824219 17.613281 L 39.824219 37.480469 C 39.824219 37.882812 40.15625 38.210938 40.5625 38.210938 C 40.96875 38.210938 41.300781 37.882812 41.300781 37.480469 L 41.300781 17.613281 C 43 17.148438 44.25 15.109375 44.25 12.585938 C 44.25 9.714844 42.628906 7.460938 40.5625 7.460938 Z M 40.5625 16.246094 C 39.363281 16.246094 38.347656 14.570312 38.347656 12.585938 C 38.347656 10.601562 39.363281 8.925781 40.5625 8.925781 C 41.761719 8.925781 42.773438 10.601562 42.773438 12.585938 C 42.773438 14.570312 41.761719 16.246094 40.5625 16.246094 Z M 22.125 7.460938 C 13.585938 7.460938 6.636719 14.359375 6.636719 22.835938 C 6.636719 31.316406 13.585938 38.210938 22.125 38.210938 C 30.664062 38.210938 37.613281 31.316406 37.613281 22.835938 C 37.613281 14.359375 30.664062 7.460938 22.125 7.460938 Z M 22.125 36.746094 C 14.398438 36.746094 8.113281 30.507812 8.113281 22.835938 C 8.113281 15.167969 14.398438 8.925781 22.125 8.925781 C 29.851562 8.925781 36.136719 15.167969 36.136719 22.835938 C 36.136719 30.507812 29.851562 36.746094 22.125 36.746094 Z M 22.125 13.320312 C 16.839844 13.320312 12.539062 17.589844 12.539062 22.835938 C 12.539062 23.242188 12.207031 23.570312 11.800781 23.570312 C 11.394531 23.570312 11.0625 23.242188 11.0625 22.835938 C 11.0625 16.78125 16.023438 11.855469 22.125 11.855469 C 22.53125 11.855469 22.863281 12.183594 22.863281 12.585938 C 22.863281 12.992188 22.53125 13.320312 22.125 13.320312 Z M 32.449219 22.105469 C 32.855469 22.105469 33.1875 22.433594 33.1875 22.835938 C 33.1875 28.890625 28.226562 33.820312 22.125 33.820312 C 21.71875 33.820312 21.386719 33.492188 21.386719 33.085938 C 21.386719 32.683594 21.71875 32.355469 22.125 32.355469 C 27.410156 32.355469 31.710938 28.085938 31.710938 22.835938 C 31.710938 22.433594 32.042969 22.105469 32.449219 22.105469 Z M 21.386719 27.960938 C 21.386719 28.367188 21.71875 28.695312 22.125 28.695312 C 22.53125 28.695312 22.863281 28.367188 22.863281 27.960938 L 22.863281 25.691406 C 25.664062 25.347656 27.570312 24.351562 28.542969 22.722656 C 29.972656 20.324219 28.75 17.53125 28.699219 17.414062 C 28.554688 17.097656 28.207031 16.921875 27.863281 16.996094 C 24.117188 17.824219 22.550781 19.988281 21.898438 21.65625 C 21.867188 21.730469 21.839844 21.804688 21.816406 21.878906 C 21.617188 21.609375 21.382812 21.34375 21.105469 21.097656 C 19.910156 20.050781 18.238281 19.652344 16.132812 19.914062 C 15.804688 19.953125 15.542969 20.210938 15.496094 20.535156 C 15.480469 20.628906 15.1875 22.816406 16.710938 24.375 C 17.660156 25.347656 19.0625 25.835938 20.890625 25.835938 C 21.054688 25.835938 21.21875 25.832031 21.386719 25.824219 Z M 27.546875 18.589844 C 27.761719 19.367188 27.988281 20.789062 27.269531 21.984375 C 26.554688 23.171875 25.070312 23.921875 22.839844 24.21875 C 22.902344 22.8125 23.515625 19.757812 27.546875 18.589844 Z M 17.78125 23.367188 C 17.140625 22.71875 16.976562 21.867188 16.945312 21.3125 C 18.300781 21.242188 19.367188 21.535156 20.121094 22.1875 C 20.875 22.84375 21.179688 23.75 21.304688 24.363281 C 19.6875 24.4375 18.503906 24.101562 17.78125 23.367188 Z M 7.375 14.050781 L 7.375 8.195312 C 7.375 7.789062 7.046875 7.460938 6.636719 7.460938 C 6.230469 7.460938 5.902344 7.789062 5.902344 8.195312 L 5.902344 11.855469 L 4.425781 11.855469 L 4.425781 8.195312 C 4.425781 7.789062 4.09375 7.460938 3.6875 7.460938 C 3.28125 7.460938 2.949219 7.789062 2.949219 8.195312 L 2.949219 11.855469 L 1.476562 11.855469 L 1.476562 8.195312 C 1.476562 7.789062 1.144531 7.460938 0.738281 7.460938 C 0.332031 7.460938 0 7.789062 0 8.195312 L 0 14.050781 C 0 15.820312 1.269531 17.296875 2.949219 17.636719 L 2.949219 37.480469 C 2.949219 37.882812 3.28125 38.210938 3.6875 38.210938 C 4.09375 38.210938 4.425781 37.882812 4.425781 37.480469 L 4.425781 17.636719 C 6.105469 17.296875 7.375 15.820312 7.375 14.050781 Z M 5.902344 14.050781 C 5.902344 15.261719 4.90625 16.246094 3.6875 16.246094 C 2.46875 16.246094 1.476562 15.261719 1.476562 14.050781 L 1.476562 13.320312 L 5.902344 13.320312 Z M 5.902344 14.050781 " fill-opacity="1" fill-rule="nonzero"/></g></svg>