<svg xmlns="http://www.w3.org/2000/svg" xmlns:xlink="http://www.w3.org/1999/xlink" width="60" zoomAndPan="magnify" viewBox="0 0 45 44.999999" height="60" preserveAspectRatio="xMidYMid meet" version="1.0"><defs><clipPath id="4632aa22de"><path d="M 1.199219 6.417969 L 43.949219 6.417969 L 43.949219 40.167969 L 1.199219 40.167969 Z M 1.199219 6.417969 " clip-rule="nonzero"/></clipPath></defs><g clip-path="url(#4632aa22de)"><path fill="#000000" d="M 24.804688 31.175781 C 22.453125 31.175781 20.308594 30.101562 19.003906 28.285156 C 18.285156 28.367188 17.566406 28.246094 16.921875 27.941406 C 16.40625 28.140625 15.585938 28.402344 14.773438 28.414062 C 12.660156 28.457031 10.679688 27.394531 9.65625 25.667969 C 9.042969 25.839844 8.40625 25.929688 7.757812 25.929688 C 4.144531 25.929688 1.203125 23.175781 1.203125 19.789062 C 1.203125 17.167969 2.992188 14.835938 5.605469 13.988281 C 5.558594 13.117188 5.835938 12.289062 6.40625 11.632812 C 7.25 10.648438 8.644531 10.191406 9.933594 10.460938 C 10.902344 9.1875 12.5 8.410156 14.179688 8.410156 C 15.601562 8.410156 16.945312 8.945312 17.925781 9.890625 C 19.195312 9.085938 20.773438 8.945312 22.199219 9.515625 C 23.445312 7.953125 25.378906 6.933594 27.570312 6.695312 C 30.175781 6.410156 32.148438 7.023438 33.941406 8.671875 C 35.988281 8.765625 37.78125 10.296875 38.160156 12.207031 C 39.5625 11.902344 40.890625 12.148438 41.953125 12.917969 C 43.1875 13.804688 43.953125 15.300781 43.953125 16.816406 C 43.953125 18.3125 43.230469 19.722656 42.035156 20.613281 C 42.449219 21.175781 42.671875 21.851562 42.671875 22.5625 C 42.671875 24.351562 41.222656 25.816406 39.417969 25.867188 C 38.59375 27.242188 37.257812 28.28125 35.632812 28.804688 C 33.925781 29.355469 32.050781 29.25 30.425781 28.519531 C 29.105469 30.191406 27.035156 31.175781 24.804688 31.175781 Z M 19.453125 27.257812 L 19.628906 27.523438 C 20.738281 29.222656 22.671875 30.238281 24.804688 30.238281 C 26.863281 30.238281 28.765625 29.273438 29.886719 27.660156 L 30.125 27.316406 L 30.5 27.511719 C 31.980469 28.28125 33.742188 28.425781 35.339844 27.914062 C 36.828125 27.433594 38.03125 26.460938 38.722656 25.171875 L 38.882812 24.875 L 39.21875 24.925781 C 39.25 24.933594 39.28125 24.929688 39.316406 24.929688 C 40.644531 24.929688 41.722656 23.867188 41.722656 22.558594 C 41.722656 21.910156 41.464844 21.304688 40.996094 20.855469 L 40.542969 20.425781 L 41.085938 20.117188 C 42.265625 19.429688 43 18.167969 43 16.816406 C 43 15.609375 42.371094 14.375 41.390625 13.671875 C 40.71875 13.1875 39.566406 12.71875 37.898438 13.242188 L 37.308594 13.429688 L 37.28125 12.863281 C 37.199219 11.121094 35.582031 9.699219 33.75 9.699219 L 33.554688 9.699219 L 33.417969 9.519531 C 31.789062 7.964844 30.066406 7.386719 27.675781 7.648438 C 25.609375 7.871094 23.8125 8.859375 22.746094 10.378906 L 22.507812 10.707031 L 22.140625 10.519531 C 20.820312 9.863281 19.292969 10 18.15625 10.878906 L 17.800781 11.15625 L 17.503906 10.816406 C 16.6875 9.882812 15.476562 9.347656 14.179688 9.347656 C 12.699219 9.347656 11.300781 10.074219 10.535156 11.25 L 10.339844 11.550781 L 9.996094 11.445312 C 8.96875 11.128906 7.808594 11.449219 7.128906 12.238281 C 6.792969 12.625 6.429688 13.292969 6.589844 14.25 L 6.660156 14.671875 L 6.242188 14.78125 C 3.832031 15.402344 2.152344 17.464844 2.152344 19.789062 C 2.152344 22.65625 4.667969 24.992188 7.757812 24.992188 C 8.441406 24.992188 9.101562 24.878906 9.726562 24.660156 L 10.128906 24.515625 L 10.3125 24.894531 C 11.109375 26.507812 12.863281 27.527344 14.757812 27.476562 C 15.324219 27.46875 16.054688 27.292969 16.757812 26.992188 L 16.972656 26.902344 L 17.175781 27.015625 C 17.765625 27.339844 18.464844 27.449219 19.136719 27.320312 Z M 8.714844 34.484375 C 6.9375 34.484375 5.492188 33.375 5.492188 32.007812 C 5.492188 30.644531 6.9375 29.53125 8.714844 29.53125 C 10.488281 29.53125 11.933594 30.644531 11.933594 32.007812 C 11.933594 33.375 10.488281 34.484375 8.714844 34.484375 Z M 8.714844 30.46875 C 7.484375 30.46875 6.445312 31.175781 6.445312 32.007812 C 6.445312 32.84375 7.484375 33.546875 8.714844 33.546875 C 9.945312 33.546875 10.984375 32.84375 10.984375 32.007812 C 10.984375 31.175781 9.945312 30.46875 8.714844 30.46875 Z M 3.886719 40.140625 C 2.789062 40.140625 1.894531 39.3125 1.894531 38.292969 C 1.894531 37.273438 2.789062 36.445312 3.886719 36.445312 C 4.984375 36.445312 5.875 37.273438 5.875 38.292969 C 5.875 39.3125 4.984375 40.140625 3.886719 40.140625 Z M 3.886719 37.382812 C 3.3125 37.382812 2.847656 37.789062 2.847656 38.292969 C 2.847656 38.796875 3.3125 39.203125 3.886719 39.203125 C 4.460938 39.203125 4.925781 38.796875 4.925781 38.292969 C 4.925781 37.789062 4.460938 37.382812 3.886719 37.382812 Z M 3.886719 37.382812 " fill-opacity="1" fill-rule="nonzero"/></g></svg>