<svg xmlns="http://www.w3.org/2000/svg" xmlns:xlink="http://www.w3.org/1999/xlink" width="60" zoomAndPan="magnify" viewBox="0 0 45 44.999999" height="60" preserveAspectRatio="xMidYMid meet" version="1.0"><defs><clipPath id="28018d6d4f"><path d="M 1.25 3.820312 L 43.25 3.820312 L 43.25 41.320312 L 1.25 41.320312 Z M 1.25 3.820312 " clip-rule="nonzero"/></clipPath></defs><path fill="#000000" d="M 14.707031 9.703125 L 26.261719 9.703125 C 26.445312 9.703125 26.59375 9.554688 26.59375 9.371094 C 26.59375 9.183594 26.445312 9.035156 26.261719 9.035156 L 14.707031 9.035156 C 14.519531 9.035156 14.371094 9.183594 14.371094 9.371094 C 14.371094 9.554688 14.519531 9.703125 14.707031 9.703125 Z M 14.707031 9.703125 " fill-opacity="1" fill-rule="nonzero"/><path fill="#000000" d="M 11.039062 13.265625 L 28.101562 13.265625 C 28.285156 13.265625 28.433594 13.117188 28.433594 12.933594 C 28.433594 12.75 28.285156 12.597656 28.101562 12.597656 L 11.039062 12.597656 C 10.855469 12.597656 10.707031 12.75 10.707031 12.933594 C 10.707031 13.117188 10.855469 13.265625 11.039062 13.265625 Z M 11.039062 13.265625 " fill-opacity="1" fill-rule="nonzero"/><path fill="#000000" d="M 28.101562 16.25 L 11.039062 16.25 C 10.855469 16.25 10.707031 16.398438 10.707031 16.585938 C 10.707031 16.769531 10.855469 16.917969 11.039062 16.917969 L 28.101562 16.917969 C 28.285156 16.917969 28.433594 16.769531 28.433594 16.585938 C 28.433594 16.398438 28.285156 16.25 28.101562 16.25 Z M 28.101562 16.25 " fill-opacity="1" fill-rule="nonzero"/><path fill="#000000" d="M 6.507812 24.066406 L 6.507812 26.84375 C 6.507812 27.027344 6.65625 27.179688 6.839844 27.179688 L 11.355469 27.179688 L 13.636719 28.445312 C 13.6875 28.472656 13.742188 28.488281 13.796875 28.488281 C 13.871094 28.488281 13.945312 28.464844 14.007812 28.414062 C 14.113281 28.328125 14.15625 28.1875 14.117188 28.058594 L 13.746094 26.796875 L 13.746094 24.066406 C 13.746094 23.882812 13.597656 23.734375 13.414062 23.734375 L 6.839844 23.734375 C 6.65625 23.734375 6.507812 23.882812 6.507812 24.066406 Z M 7.171875 24.402344 L 13.082031 24.402344 L 13.082031 26.84375 C 13.082031 26.875 13.085938 26.910156 13.09375 26.941406 L 13.25 27.46875 L 11.601562 26.550781 C 11.550781 26.523438 11.496094 26.511719 11.441406 26.511719 L 7.171875 26.511719 Z M 7.171875 24.402344 " fill-opacity="1" fill-rule="nonzero"/><path fill="#000000" d="M 12.277344 25.472656 C 12.277344 25.285156 12.128906 25.136719 11.945312 25.136719 L 8.234375 25.136719 C 8.046875 25.136719 7.898438 25.285156 7.898438 25.472656 C 7.898438 25.65625 8.046875 25.804688 8.234375 25.804688 L 11.945312 25.804688 C 12.128906 25.804688 12.277344 25.65625 12.277344 25.472656 Z M 12.277344 25.472656 " fill-opacity="1" fill-rule="nonzero"/><path fill="#000000" d="M 4.972656 30.570312 L 11.039062 30.570312 C 11.222656 30.570312 11.371094 30.421875 11.371094 30.238281 C 11.371094 30.050781 11.222656 29.902344 11.039062 29.902344 L 4.972656 29.902344 C 4.789062 29.902344 4.640625 30.050781 4.640625 30.238281 C 4.640625 30.421875 4.789062 30.570312 4.972656 30.570312 Z M 4.972656 30.570312 " fill-opacity="1" fill-rule="nonzero"/><path fill="#000000" d="M 4.972656 32.554688 L 11.039062 32.554688 C 11.222656 32.554688 11.371094 32.40625 11.371094 32.21875 C 11.371094 32.035156 11.222656 31.886719 11.039062 31.886719 L 4.972656 31.886719 C 4.789062 31.886719 4.640625 32.035156 4.640625 32.21875 C 4.640625 32.40625 4.789062 32.554688 4.972656 32.554688 Z M 4.972656 32.554688 " fill-opacity="1" fill-rule="nonzero"/><path fill="#000000" d="M 12.765625 28.582031 L 3.558594 28.582031 C 3.375 28.582031 3.226562 28.734375 3.226562 28.917969 L 3.226562 33.664062 L 2.429688 35.277344 C 2.367188 35.40625 2.390625 35.558594 2.492188 35.660156 C 2.554688 35.726562 2.640625 35.761719 2.726562 35.761719 C 2.777344 35.761719 2.824219 35.75 2.871094 35.726562 L 6.292969 34.074219 L 12.765625 34.074219 C 12.953125 34.074219 13.101562 33.925781 13.101562 33.742188 L 13.101562 28.917969 C 13.101562 28.734375 12.953125 28.582031 12.765625 28.582031 Z M 12.433594 33.40625 L 6.21875 33.40625 C 6.167969 33.40625 6.117188 33.417969 6.074219 33.441406 L 3.453125 34.707031 L 3.855469 33.890625 C 3.878906 33.84375 3.890625 33.792969 3.890625 33.742188 L 3.890625 29.25 L 12.433594 29.25 Z M 12.433594 33.40625 " fill-opacity="1" fill-rule="nonzero"/><g clip-path="url(#28018d6d4f)"><path fill="#000000" d="M 42.453125 13.863281 L 42.660156 13.511719 C 42.765625 13.335938 42.792969 13.128906 42.746094 12.929688 C 42.695312 12.730469 42.570312 12.566406 42.394531 12.460938 L 41.972656 12.210938 L 42.929688 10.589844 C 43.167969 10.183594 43.238281 9.710938 43.121094 9.257812 C 43.003906 8.800781 42.722656 8.417969 42.320312 8.179688 L 42.203125 8.109375 C 41.800781 7.871094 41.328125 7.800781 40.875 7.917969 C 40.425781 8.035156 40.042969 8.320312 39.804688 8.722656 L 38.847656 10.34375 L 38.425781 10.09375 C 38.0625 9.878906 37.59375 10 37.378906 10.363281 L 36.632812 11.621094 C 36.460938 11.914062 36.507812 12.273438 36.71875 12.515625 L 31.570312 21.230469 L 31.570312 4.265625 C 31.570312 4.082031 31.417969 3.929688 31.234375 3.929688 L 12.765625 3.929688 C 12.761719 3.929688 12.753906 3.933594 12.746094 3.933594 C 12.714844 3.9375 12.6875 3.941406 12.660156 3.953125 C 12.648438 3.957031 12.636719 3.960938 12.625 3.964844 C 12.597656 3.980469 12.574219 3.996094 12.550781 4.015625 C 12.542969 4.023438 12.535156 4.027344 12.53125 4.035156 C 12.527344 4.035156 12.527344 4.035156 12.523438 4.039062 L 7.296875 9.6875 C 7.273438 9.714844 7.253906 9.746094 7.238281 9.777344 C 7.234375 9.785156 7.234375 9.796875 7.230469 9.804688 C 7.21875 9.835938 7.214844 9.863281 7.210938 9.894531 C 7.210938 9.902344 7.207031 9.910156 7.207031 9.914062 L 7.207031 18.300781 L 3.867188 18.300781 C 2.425781 18.300781 1.25 19.476562 1.25 20.925781 L 1.25 38.574219 C 1.25 40.023438 2.425781 41.203125 3.867188 41.203125 L 12.597656 41.203125 C 14.042969 41.203125 15.214844 40.023438 15.214844 38.574219 L 15.214844 37.28125 L 31.234375 37.28125 C 31.417969 37.28125 31.570312 37.128906 31.570312 36.945312 L 31.570312 31.25 L 37.707031 20.863281 L 38.09375 21.09375 C 38.273438 21.203125 38.472656 21.253906 38.671875 21.253906 C 39.089844 21.253906 39.503906 21.03125 39.742188 20.632812 L 42.777344 15.492188 C 42.945312 15.207031 42.996094 14.882812 42.929688 14.566406 C 42.863281 14.273438 42.695312 14.027344 42.453125 13.863281 Z M 39.417969 10.6875 L 40.375 9.066406 C 40.523438 8.816406 40.761719 8.636719 41.042969 8.566406 C 41.324219 8.496094 41.613281 8.535156 41.863281 8.683594 L 41.980469 8.753906 C 42.230469 8.902344 42.40625 9.140625 42.476562 9.421875 C 42.550781 9.703125 42.507812 9.996094 42.359375 10.246094 L 41.402344 11.871094 L 40.113281 11.101562 Z M 37.207031 11.964844 L 37.949219 10.703125 C 37.976562 10.65625 38.039062 10.640625 38.085938 10.667969 L 40.070312 11.851562 L 41.347656 12.613281 L 42.054688 13.035156 C 42.082031 13.054688 42.09375 13.078125 42.101562 13.097656 C 42.105469 13.113281 42.105469 13.144531 42.089844 13.171875 L 41.71875 13.800781 C 41.71875 13.800781 41.714844 13.800781 41.714844 13.800781 L 41.34375 14.429688 C 41.316406 14.476562 41.253906 14.492188 41.207031 14.464844 L 41.128906 14.417969 L 37.773438 12.417969 L 37.242188 12.101562 C 37.195312 12.070312 37.179688 12.011719 37.207031 11.964844 Z M 26.734375 33.199219 C 27.128906 33.269531 27.476562 33.484375 27.78125 33.851562 C 27.316406 34.144531 26.96875 34.308594 26.835938 34.273438 C 26.730469 34.164062 26.699219 33.765625 26.734375 33.199219 Z M 28.332031 33.476562 C 27.902344 32.9375 27.386719 32.621094 26.796875 32.53125 C 26.878906 31.835938 27.023438 31.003906 27.214844 30.144531 L 30.242188 31.945312 C 29.574219 32.539062 28.90625 33.070312 28.332031 33.476562 Z M 30.683594 31.433594 L 27.453125 29.507812 L 37.269531 12.894531 L 40.503906 14.820312 L 37.304688 20.234375 Z M 12.433594 5.113281 L 12.433594 9.582031 L 8.304688 9.582031 Z M 3.867188 18.96875 L 12.597656 18.96875 C 13.367188 18.96875 14.03125 19.417969 14.351562 20.070312 C 14.351562 20.070312 14.347656 20.074219 14.347656 20.074219 C 14.347656 20.167969 14.386719 20.253906 14.449219 20.3125 C 14.515625 20.507812 14.550781 20.710938 14.550781 20.925781 L 14.550781 21.417969 L 11.335938 21.417969 C 11.226562 21.417969 11.121094 21.472656 11.0625 21.566406 L 10.421875 22.515625 L 6.042969 22.515625 L 5.40625 21.566406 C 5.34375 21.472656 5.238281 21.417969 5.128906 21.417969 L 1.914062 21.417969 L 1.914062 20.925781 C 1.914062 19.847656 2.792969 18.96875 3.867188 18.96875 Z M 12.195312 38.132812 C 12.285156 37.957031 12.34375 37.761719 12.34375 37.554688 L 12.34375 37.464844 C 12.34375 37.257812 12.285156 37.0625 12.195312 36.890625 L 14.550781 36.890625 L 14.550781 38.128906 L 12.195312 38.128906 Z M 14.550781 36.222656 L 1.914062 36.222656 L 1.914062 22.085938 L 4.953125 22.085938 L 5.59375 23.035156 C 5.65625 23.128906 5.757812 23.183594 5.867188 23.183594 L 10.597656 23.183594 C 10.707031 23.183594 10.8125 23.128906 10.875 23.035156 L 11.511719 22.085938 L 14.550781 22.085938 Z M 1.914062 36.890625 L 4.269531 36.890625 C 4.179688 37.0625 4.121094 37.257812 4.121094 37.46875 L 4.121094 37.554688 C 4.121094 37.765625 4.179688 37.957031 4.269531 38.132812 L 1.914062 38.132812 Z M 4.789062 37.554688 L 4.789062 37.464844 C 4.789062 37.148438 5.046875 36.890625 5.363281 36.890625 L 11.105469 36.890625 C 11.421875 36.890625 11.679688 37.148438 11.679688 37.464844 L 11.679688 37.554688 C 11.679688 37.871094 11.421875 38.132812 11.105469 38.132812 L 5.363281 38.132812 C 5.046875 38.132812 4.789062 37.871094 4.789062 37.554688 Z M 12.597656 40.535156 L 3.867188 40.535156 C 2.867188 40.535156 2.039062 39.773438 1.929688 38.800781 L 14.535156 38.800781 C 14.425781 39.773438 13.597656 40.535156 12.597656 40.535156 Z M 15.214844 36.613281 L 15.214844 28.777344 L 23.460938 28.777344 C 23.648438 28.777344 23.796875 28.628906 23.796875 28.441406 C 23.796875 28.257812 23.648438 28.109375 23.460938 28.109375 L 15.214844 28.109375 L 15.214844 24.640625 L 28.101562 24.640625 C 28.285156 24.640625 28.433594 24.492188 28.433594 24.304688 C 28.433594 24.121094 28.285156 23.972656 28.101562 23.972656 L 15.214844 23.972656 L 15.214844 20.929688 C 15.214844 20.75 15.195312 20.578125 15.164062 20.410156 L 22.777344 20.410156 C 22.964844 20.410156 23.113281 20.257812 23.113281 20.074219 C 23.113281 19.890625 22.964844 19.742188 22.777344 19.742188 L 14.929688 19.742188 C 14.496094 18.886719 13.617188 18.300781 12.597656 18.300781 L 7.875 18.300781 L 7.875 10.25 L 12.765625 10.25 C 12.953125 10.25 13.101562 10.097656 13.101562 9.914062 L 13.101562 4.597656 L 30.902344 4.597656 L 30.902344 22.355469 L 26.710938 29.453125 C 26.703125 29.46875 26.699219 29.484375 26.695312 29.5 C 26.6875 29.515625 26.675781 29.527344 26.671875 29.542969 C 26.242188 31.304688 25.648438 34.339844 26.488281 34.839844 C 26.578125 34.894531 26.6875 34.917969 26.8125 34.917969 C 27.796875 34.917969 29.703125 33.339844 30.902344 32.25 L 30.902344 36.613281 Z M 42.207031 15.148438 L 39.167969 20.289062 C 39.007812 20.5625 38.675781 20.664062 38.433594 20.519531 L 38.046875 20.289062 L 41.097656 15.125 C 41.148438 15.136719 41.203125 15.148438 41.257812 15.148438 C 41.519531 15.148438 41.773438 15.015625 41.917969 14.773438 L 42.109375 14.445312 C 42.191406 14.511719 42.253906 14.601562 42.277344 14.710938 C 42.3125 14.859375 42.285156 15.015625 42.207031 15.148438 Z M 42.207031 15.148438 " fill-opacity="1" fill-rule="nonzero"/></g></svg>