<svg xmlns="http://www.w3.org/2000/svg" xmlns:xlink="http://www.w3.org/1999/xlink" width="60" zoomAndPan="magnify" viewBox="0 0 45 44.999999" height="60" preserveAspectRatio="xMidYMid meet" version="1.0"><defs><clipPath id="e4d822154c"><path d="M 2.703125 3.195312 L 40 3.195312 L 40 43.695312 L 2.703125 43.695312 Z M 2.703125 3.195312 " clip-rule="nonzero"/></clipPath></defs><path fill="#000000" d="M 26.789062 41.988281 C 26.796875 41.980469 26.808594 41.976562 26.820312 41.972656 C 26.753906 42 26.769531 41.996094 26.789062 41.988281 " fill-opacity="1" fill-rule="nonzero"/><g clip-path="url(#e4d822154c)"><path fill="#000000" d="M 39.292969 26.035156 C 39.289062 26.046875 39.28125 26.0625 39.277344 26.078125 C 39.277344 26.078125 39.269531 26.09375 39.265625 26.105469 C 39.257812 26.121094 39.25 26.144531 39.25 26.144531 C 39.238281 26.171875 39.226562 26.195312 39.214844 26.222656 C 38.789062 27.183594 38.300781 28.121094 37.820312 29.058594 C 36.945312 30.773438 35.804688 32.339844 34.632812 33.859375 C 33.699219 35.058594 32.726562 36.234375 31.710938 37.367188 C 30.558594 38.648438 29.335938 39.871094 28.074219 41.042969 C 28.085938 40.777344 28.039062 40.507812 27.949219 40.253906 C 27.632812 39.378906 26.910156 38.605469 25.996094 38.382812 C 25.957031 38.371094 25.914062 38.363281 25.875 38.355469 C 26.351562 37.96875 26.824219 37.578125 27.289062 37.179688 C 28.28125 36.324219 29.242188 35.433594 30.144531 34.484375 C 31.039062 33.539062 31.890625 32.535156 32.574219 31.421875 C 33.042969 30.652344 33.445312 29.832031 33.859375 29.027344 C 34.289062 28.195312 34.710938 27.355469 35.121094 26.515625 C 35.128906 26.503906 35.132812 26.492188 35.140625 26.476562 C 35.390625 25.960938 35.640625 25.445312 35.886719 24.925781 C 35.917969 24.851562 35.953125 24.78125 35.988281 24.710938 C 36.460938 24.6875 36.933594 24.691406 37.402344 24.730469 C 37.492188 24.734375 37.578125 24.746094 37.667969 24.753906 C 37.710938 24.757812 37.757812 24.765625 37.800781 24.769531 C 37.804688 24.769531 37.804688 24.769531 37.808594 24.769531 C 37.835938 24.773438 37.863281 24.777344 37.890625 24.78125 C 38.070312 24.808594 38.246094 24.84375 38.417969 24.890625 C 38.492188 24.910156 38.570312 24.929688 38.644531 24.957031 C 38.679688 24.96875 38.710938 24.980469 38.746094 24.992188 C 38.769531 25 38.789062 25.011719 38.8125 25.019531 C 38.816406 25.019531 38.816406 25.019531 38.820312 25.019531 C 38.820312 25.019531 38.824219 25.023438 38.828125 25.023438 C 38.894531 25.054688 38.960938 25.085938 39.023438 25.125 C 39.054688 25.140625 39.078125 25.160156 39.105469 25.175781 C 39.121094 25.1875 39.132812 25.199219 39.148438 25.207031 C 39.148438 25.207031 39.152344 25.207031 39.152344 25.207031 C 39.152344 25.207031 39.152344 25.210938 39.152344 25.210938 C 39.199219 25.253906 39.246094 25.300781 39.292969 25.347656 C 39.300781 25.359375 39.308594 25.367188 39.3125 25.378906 C 39.332031 25.40625 39.347656 25.4375 39.363281 25.46875 C 39.367188 25.472656 39.367188 25.472656 39.367188 25.476562 C 39.371094 25.480469 39.371094 25.484375 39.371094 25.492188 C 39.378906 25.519531 39.386719 25.542969 39.390625 25.566406 C 39.394531 25.566406 39.394531 25.566406 39.394531 25.5625 C 39.394531 25.566406 39.394531 25.570312 39.394531 25.582031 C 39.40625 25.621094 39.402344 25.617188 39.398438 25.605469 C 39.398438 25.621094 39.398438 25.632812 39.398438 25.632812 C 39.398438 25.652344 39.398438 25.671875 39.398438 25.691406 C 39.386719 25.746094 39.375 25.796875 39.359375 25.847656 C 39.339844 25.910156 39.316406 25.972656 39.292969 26.035156 Z M 26.835938 40.675781 C 26.667969 40.796875 26.5 40.921875 26.324219 41.027344 C 26.25 41.070312 26.175781 41.113281 26.09375 41.140625 C 26.035156 41.164062 25.910156 41.195312 25.882812 41.199219 C 25.722656 41.214844 25.628906 41.203125 25.480469 41.140625 C 25.496094 41.148438 25.433594 41.121094 25.425781 41.117188 C 25.390625 41.097656 25.359375 41.078125 25.328125 41.058594 C 25.261719 41.015625 25.238281 40.996094 25.175781 40.9375 C 25.0625 40.828125 24.992188 40.738281 24.910156 40.601562 C 24.757812 40.339844 24.679688 40.042969 24.6875 39.742188 C 24.691406 39.460938 24.777344 39.175781 25.046875 39.023438 C 25.3125 38.871094 25.640625 38.90625 25.925781 38.992188 C 26.539062 39.171875 27.019531 39.671875 27.296875 40.253906 C 27.257812 40.296875 27.230469 40.351562 27.210938 40.410156 C 27.179688 40.433594 27.144531 40.453125 27.128906 40.46875 C 27.03125 40.535156 26.933594 40.605469 26.835938 40.675781 Z M 5.683594 20.011719 C 5.992188 19.589844 6.304688 19.164062 6.609375 18.742188 C 7.074219 18.101562 7.535156 17.460938 7.996094 16.820312 C 8.476562 16.152344 8.949219 15.476562 9.433594 14.808594 C 9.503906 14.710938 9.574219 14.613281 9.644531 14.519531 C 9.679688 14.472656 9.710938 14.429688 9.746094 14.382812 C 9.761719 14.367188 9.773438 14.347656 9.789062 14.328125 C 9.792969 14.320312 9.800781 14.3125 9.804688 14.304688 C 9.953125 14.113281 10.105469 13.925781 10.261719 13.738281 C 11.257812 12.53125 12.28125 11.347656 13.3125 10.171875 C 13.511719 9.945312 13.710938 9.722656 13.914062 9.496094 C 14.386719 9.316406 14.886719 9.238281 15.386719 9.332031 C 15.742188 9.398438 16.109375 9.554688 16.375 9.769531 C 16.496094 9.863281 16.605469 9.972656 16.707031 10.089844 C 16.726562 10.113281 16.746094 10.136719 16.765625 10.160156 C 16.773438 10.167969 16.792969 10.195312 16.796875 10.203125 C 16.835938 10.257812 16.875 10.3125 16.910156 10.371094 C 16.972656 10.46875 17.027344 10.570312 17.074219 10.675781 C 15.363281 12.507812 13.695312 14.382812 12.0625 16.289062 C 11.449219 17.007812 10.839844 17.738281 10.289062 18.507812 C 9.734375 19.277344 9.234375 20.089844 8.78125 20.925781 C 8.242188 21.921875 7.773438 22.960938 7.371094 24.023438 C 7.136719 23.292969 6.542969 22.6875 5.765625 22.558594 C 5.453125 22.507812 5.140625 22.53125 4.855469 22.671875 C 4.617188 22.789062 4.417969 22.984375 4.246094 23.183594 C 3.96875 23.511719 3.6875 23.863281 3.5 24.257812 C 3.582031 23.277344 4.058594 22.304688 4.613281 21.484375 C 4.957031 20.984375 5.328125 20.5 5.683594 20.011719 Z M 17.097656 10.726562 C 17.097656 10.726562 17.097656 10.726562 17.097656 10.730469 C 17.09375 10.722656 17.09375 10.71875 17.089844 10.714844 C 17.09375 10.71875 17.09375 10.722656 17.097656 10.726562 Z M 6.738281 25.191406 C 6.527344 25.46875 6.148438 25.539062 5.8125 25.472656 C 5.59375 25.425781 5.34375 25.363281 5.175781 25.242188 C 5.171875 25.242188 5.171875 25.242188 5.167969 25.238281 C 5.167969 25.238281 5.164062 25.234375 5.160156 25.230469 C 5.15625 25.226562 5.152344 25.21875 5.144531 25.214844 C 5.148438 25.210938 5.136719 25.183594 5.132812 25.199219 C 5.148438 25.085938 5.238281 24.980469 5.296875 24.886719 C 5.574219 24.4375 5.886719 24.011719 6.238281 23.617188 C 6.277344 23.570312 6.300781 23.519531 6.316406 23.460938 C 6.523438 23.636719 6.703125 23.902344 6.789062 24.164062 C 6.886719 24.46875 6.949219 24.90625 6.738281 25.191406 Z M 5.132812 25.199219 C 5.132812 25.199219 5.132812 25.203125 5.132812 25.203125 C 5.132812 25.203125 5.132812 25.199219 5.132812 25.199219 Z M 26.273438 10.828125 C 26.273438 10.828125 26.273438 10.832031 26.273438 10.832031 C 26.273438 10.832031 26.273438 10.832031 26.273438 10.828125 Z M 24.84375 8.855469 C 23.703125 10.132812 22.679688 11.515625 21.761719 12.96875 C 21.199219 13.863281 20.679688 14.78125 20.199219 15.71875 C 20.308594 15.359375 20.425781 15.003906 20.542969 14.648438 C 20.878906 13.65625 21.257812 12.683594 21.707031 11.738281 C 22.550781 9.957031 23.628906 8.277344 25.015625 6.875 C 25.449219 6.4375 25.90625 6.027344 26.394531 5.65625 C 26.167969 6.078125 25.96875 6.511719 25.785156 6.953125 C 25.683594 7.199219 26.019531 7.433594 26.226562 7.296875 C 27.046875 6.746094 27.460938 5.828125 28.132812 5.140625 C 28.496094 4.765625 28.949219 4.539062 29.449219 4.375 C 30.015625 4.1875 30.601562 4.046875 31.191406 3.957031 C 31.292969 3.941406 31.390625 3.929688 31.492188 3.917969 C 30.476562 4.269531 29.519531 4.789062 28.628906 5.40625 C 27.226562 6.382812 25.980469 7.578125 24.84375 8.855469 Z M 38.039062 24.195312 C 37.378906 24.09375 36.710938 24.074219 36.042969 24.101562 C 35.960938 24.101562 35.875 24.105469 35.792969 24.113281 C 35.691406 24.117188 35.578125 24.164062 35.53125 24.261719 C 35.257812 24.851562 34.976562 25.433594 34.691406 26.019531 C 33.902344 25.84375 33.148438 25.558594 32.46875 25.109375 C 31.707031 24.605469 31.113281 23.902344 30.621094 23.140625 C 30.492188 22.9375 30.367188 22.734375 30.253906 22.523438 C 30.203125 22.429688 30.140625 22.335938 30.082031 22.246094 C 30.011719 22.140625 29.953125 22.027344 29.890625 21.910156 C 29.644531 21.460938 29.390625 21.019531 29.144531 20.570312 C 28.660156 19.691406 28.175781 18.808594 27.707031 17.921875 C 27.441406 17.417969 27.183594 16.914062 26.890625 16.429688 C 26.605469 15.960938 26.28125 15.539062 25.890625 15.148438 C 25.882812 15.140625 25.875 15.136719 25.867188 15.128906 C 25.910156 15.0625 25.957031 14.996094 26.003906 14.929688 C 26.125 14.742188 25.964844 14.457031 25.742188 14.472656 C 24.792969 14.539062 23.835938 14.523438 22.890625 14.429688 C 22.921875 14.421875 22.953125 14.410156 22.984375 14.40625 C 23.011719 14.398438 23.039062 14.394531 23.066406 14.390625 C 23.070312 14.390625 23.074219 14.386719 23.078125 14.386719 C 23.082031 14.386719 23.085938 14.386719 23.09375 14.386719 C 23.246094 14.371094 23.394531 14.367188 23.546875 14.359375 C 24.199219 14.324219 24.867188 14.320312 25.515625 14.230469 C 26.605469 14.078125 27.484375 13.429688 28.191406 12.613281 C 28.582031 12.160156 28.925781 11.667969 29.261719 11.175781 C 29.328125 11.074219 29.308594 10.925781 29.238281 10.835938 C 29.15625 10.734375 29.046875 10.710938 28.921875 10.726562 C 28.242188 10.820312 27.550781 10.796875 26.882812 10.667969 C 27.210938 10.648438 27.539062 10.628906 27.867188 10.585938 C 28.257812 10.535156 28.652344 10.464844 29.039062 10.375 C 29.390625 10.289062 29.746094 10.195312 30.074219 10.035156 C 30.410156 9.871094 30.65625 9.609375 30.855469 9.296875 C 31.058594 8.984375 31.242188 8.652344 31.425781 8.324219 C 31.800781 7.65625 32.160156 6.976562 32.5 6.289062 C 32.882812 5.511719 33.242188 4.726562 33.582031 3.929688 C 33.625 3.828125 33.640625 3.726562 33.582031 3.625 C 33.558594 3.585938 33.527344 3.550781 33.488281 3.523438 C 33.472656 3.382812 33.378906 3.25 33.199219 3.242188 C 31.953125 3.195312 30.695312 3.355469 29.503906 3.71875 C 28.941406 3.890625 28.390625 4.113281 27.933594 4.496094 C 27.796875 4.613281 27.667969 4.742188 27.546875 4.878906 C 27.570312 4.847656 27.589844 4.816406 27.609375 4.789062 C 27.777344 4.53125 27.445312 4.21875 27.195312 4.371094 C 25.488281 5.40625 24.054688 6.84375 22.898438 8.472656 C 21.667969 10.214844 20.765625 12.171875 20.066406 14.183594 C 19.863281 14.761719 19.675781 15.347656 19.507812 15.9375 C 19.34375 16.503906 19.222656 17.082031 19.269531 17.667969 C 18.597656 19.183594 18.011719 20.742188 17.507812 22.328125 C 17.441406 22.527344 17.382812 22.730469 17.320312 22.929688 C 17.277344 23.074219 17.332031 23.183594 17.425781 23.246094 C 17.5 23.34375 17.628906 23.398438 17.746094 23.359375 C 18.335938 23.167969 18.691406 22.625 18.828125 22.039062 C 18.902344 21.722656 18.925781 21.394531 18.953125 21.070312 C 18.984375 20.726562 19.011719 20.378906 19.042969 20.03125 C 19.046875 19.976562 19.03125 19.925781 19.003906 19.878906 C 19.199219 19.371094 19.402344 18.867188 19.621094 18.367188 C 19.664062 18.265625 19.707031 18.160156 19.753906 18.058594 C 19.847656 17.996094 19.890625 17.886719 19.882812 17.769531 C 20.488281 16.429688 21.164062 15.125 21.921875 13.867188 C 22.777344 12.445312 23.734375 11.085938 24.804688 9.820312 C 25.878906 8.554688 27.054688 7.347656 28.375 6.339844 C 29.675781 5.34375 31.140625 4.527344 32.75 4.183594 C 32.773438 4.175781 32.800781 4.171875 32.824219 4.167969 C 32.28125 5.410156 31.679688 6.625 31.019531 7.808594 C 30.835938 8.144531 30.644531 8.476562 30.449219 8.804688 C 30.28125 9.089844 30.105469 9.335938 29.808594 9.492188 C 29.507812 9.648438 29.160156 9.722656 28.832031 9.796875 C 28.464844 9.882812 28.09375 9.953125 27.722656 9.996094 C 27.320312 10.042969 26.914062 10.035156 26.511719 10.09375 C 26.144531 10.144531 25.835938 10.308594 25.691406 10.667969 C 25.628906 10.824219 25.761719 10.992188 25.902344 11.039062 C 26.707031 11.304688 27.550781 11.414062 28.390625 11.375 C 27.910156 12.054688 27.375 12.71875 26.683594 13.164062 C 26.21875 13.460938 25.722656 13.613281 25.171875 13.660156 C 24.511719 13.71875 23.84375 13.734375 23.179688 13.773438 C 22.632812 13.804688 21.914062 14.070312 22.03125 14.75 C 22.058594 14.890625 22.199219 14.957031 22.324219 14.972656 C 23.253906 15.09375 24.191406 15.140625 25.128906 15.109375 C 24.179688 16.316406 22.871094 17.238281 21.425781 17.722656 C 20.960938 17.875 20.46875 17.996094 19.996094 18.058594 C 19.835938 18.078125 19.695312 18.179688 19.695312 18.359375 C 19.695312 18.507812 19.835938 18.683594 19.996094 18.664062 C 21.882812 18.421875 23.652344 17.542969 24.992188 16.183594 C 25.167969 16 25.335938 15.8125 25.496094 15.613281 C 25.820312 15.941406 26.097656 16.285156 26.335938 16.679688 C 26.601562 17.117188 26.835938 17.5625 27.074219 18.015625 C 27.546875 18.910156 28.035156 19.792969 28.515625 20.679688 C 28.761719 21.140625 29.023438 21.589844 29.273438 22.046875 C 29.394531 22.265625 29.511719 22.488281 29.652344 22.695312 C 29.78125 22.894531 29.890625 23.113281 30.015625 23.316406 C 30.269531 23.722656 30.558594 24.109375 30.867188 24.480469 C 31.179688 24.851562 31.539062 25.175781 31.925781 25.464844 C 32.65625 26.019531 33.53125 26.367188 34.417969 26.578125 C 34.148438 27.125 33.875 27.671875 33.597656 28.214844 C 33.167969 29.058594 32.734375 29.90625 32.273438 30.734375 C 31.675781 31.8125 30.902344 32.761719 30.074219 33.667969 C 29.1875 34.640625 28.230469 35.550781 27.242188 36.421875 C 26.433594 37.128906 25.605469 37.8125 24.761719 38.472656 C 24.742188 38.488281 24.722656 38.503906 24.703125 38.519531 C 24.699219 38.523438 24.667969 38.542969 24.65625 38.554688 C 24.652344 38.558594 24.648438 38.5625 24.640625 38.566406 C 24.632812 38.574219 24.625 38.578125 24.613281 38.585938 C 24.605469 38.59375 24.59375 38.601562 24.585938 38.609375 C 24.578125 38.613281 24.570312 38.621094 24.5625 38.628906 C 24.542969 38.644531 24.523438 38.660156 24.507812 38.679688 C 24.195312 38.980469 24.066406 39.417969 24.085938 39.851562 C 24.121094 40.695312 24.675781 41.65625 25.566406 41.789062 C 26.171875 41.882812 26.652344 41.546875 27.121094 41.210938 C 27.242188 41.128906 27.359375 41.042969 27.476562 40.957031 C 27.484375 41.128906 27.457031 41.300781 27.390625 41.457031 C 27.304688 41.660156 27.164062 41.835938 26.984375 41.945312 C 26.925781 41.941406 26.863281 41.953125 26.804688 41.980469 C 26.800781 41.980469 26.792969 41.984375 26.789062 41.988281 C 26.785156 41.988281 26.777344 41.992188 26.773438 41.992188 C 26.746094 42.003906 26.71875 42.015625 26.691406 42.027344 C 26.617188 42.058594 26.539062 42.085938 26.460938 42.117188 C 26.28125 42.1875 26.097656 42.25 25.914062 42.308594 C 25.441406 42.460938 24.957031 42.578125 24.464844 42.65625 C 23.308594 42.839844 22.042969 42.769531 20.929688 42.308594 C 19.921875 41.894531 19.109375 41.164062 18.480469 40.296875 C 18.136719 39.824219 17.835938 39.324219 17.546875 38.816406 C 17.222656 38.246094 16.902344 37.667969 16.609375 37.078125 C 16.152344 36.152344 15.8125 35.191406 15.523438 34.195312 C 15.304688 33.449219 15.082031 32.707031 14.710938 32.019531 C 14.085938 30.851562 13.125 29.90625 12.035156 29.175781 C 10.261719 27.984375 8.167969 27.304688 6.101562 26.847656 C 5.78125 26.777344 5.464844 26.714844 5.140625 26.652344 C 5.105469 26.636719 5.066406 26.625 5.023438 26.625 C 4.902344 26.613281 4.785156 26.585938 4.671875 26.539062 C 4.632812 26.484375 4.574219 26.4375 4.503906 26.410156 C 4.433594 26.386719 4.359375 26.347656 4.289062 26.304688 C 4.242188 26.261719 4.199219 26.21875 4.15625 26.171875 C 3.921875 25.894531 3.839844 25.492188 3.871094 25.121094 C 3.90625 24.679688 4.140625 24.292969 4.40625 23.949219 C 4.636719 23.644531 4.898438 23.25 5.292969 23.15625 C 5.464844 23.113281 5.644531 23.132812 5.8125 23.1875 C 5.8125 23.1875 5.8125 23.1875 5.808594 23.1875 C 5.421875 23.628906 5.070312 24.097656 4.765625 24.597656 C 4.613281 24.84375 4.464844 25.117188 4.570312 25.410156 C 4.671875 25.679688 4.917969 25.816406 5.171875 25.910156 C 5.699219 26.113281 6.277344 26.195312 6.792969 25.917969 C 6.992188 25.808594 7.144531 25.660156 7.257812 25.484375 C 7.398438 25.492188 7.523438 25.398438 7.570312 25.261719 C 8.300781 23.058594 9.320312 20.953125 10.644531 19.046875 C 10.761719 18.878906 10.878906 18.714844 11 18.550781 C 11.0625 18.46875 11.125 18.386719 11.183594 18.308594 C 11.191406 18.300781 11.195312 18.292969 11.199219 18.289062 C 11.210938 18.273438 11.226562 18.253906 11.238281 18.238281 C 11.277344 18.183594 11.320312 18.132812 11.359375 18.082031 C 11.660156 17.703125 11.96875 17.328125 12.285156 16.960938 C 13.160156 15.925781 14.054688 14.910156 14.953125 13.898438 C 15.476562 13.308594 16.007812 12.722656 16.539062 12.144531 C 16.59375 12.183594 16.660156 12.210938 16.734375 12.21875 C 17.757812 12.339844 18.777344 12.507812 19.777344 12.746094 C 20.15625 12.839844 20.316406 12.253906 19.9375 12.164062 C 18.96875 11.929688 17.988281 11.765625 17 11.644531 C 17.210938 11.414062 17.425781 11.1875 17.636719 10.960938 C 17.707031 10.886719 17.75 10.765625 17.714844 10.664062 C 17.371094 9.691406 16.550781 8.925781 15.527344 8.742188 C 14.953125 8.640625 14.355469 8.695312 13.808594 8.890625 C 13.734375 8.914062 13.648438 8.941406 13.582031 8.980469 C 13.503906 9.027344 13.445312 9.109375 13.386719 9.175781 C 13.3125 9.265625 13.234375 9.351562 13.160156 9.4375 C 12.910156 9.71875 12.660156 10.003906 12.414062 10.285156 C 11.4375 11.40625 10.457031 12.519531 9.53125 13.683594 C 9.113281 14.207031 8.726562 14.757812 8.339844 15.304688 C 7.316406 16.742188 6.28125 18.171875 5.242188 19.597656 C 4.433594 20.707031 3.542969 21.78125 3.128906 23.113281 C 2.777344 24.238281 2.71875 25.664062 3.625 26.550781 C 3.726562 26.652344 3.835938 26.734375 3.949219 26.808594 C 4.21875 27.027344 4.542969 27.164062 4.890625 27.214844 C 4.90625 27.222656 4.921875 27.226562 4.941406 27.230469 C 7.15625 27.644531 9.371094 28.257812 11.296875 29.421875 C 11.476562 29.53125 11.648438 29.640625 11.820312 29.757812 C 11.894531 29.8125 11.972656 29.867188 12.050781 29.921875 C 12.085938 29.949219 12.125 29.976562 12.160156 30.003906 C 12.175781 30.015625 12.191406 30.03125 12.210938 30.042969 C 12.214844 30.046875 12.253906 30.074219 12.261719 30.082031 C 12.53125 30.296875 12.792969 30.523438 13.035156 30.769531 C 13.148438 30.882812 13.257812 31 13.363281 31.125 C 13.410156 31.179688 13.460938 31.234375 13.507812 31.292969 C 13.527344 31.316406 13.546875 31.34375 13.566406 31.371094 C 13.582031 31.382812 13.59375 31.398438 13.605469 31.414062 C 13.609375 31.421875 13.613281 31.425781 13.613281 31.429688 C 13.613281 31.429688 13.617188 31.429688 13.617188 31.429688 C 13.785156 31.65625 13.941406 31.886719 14.082031 32.128906 C 14.148438 32.242188 14.210938 32.355469 14.269531 32.472656 C 14.3125 32.558594 14.355469 32.648438 14.394531 32.738281 C 14.414062 32.777344 14.429688 32.820312 14.445312 32.859375 C 14.449219 32.863281 14.449219 32.867188 14.453125 32.867188 C 14.453125 32.871094 14.453125 32.875 14.457031 32.882812 C 14.46875 32.910156 14.480469 32.9375 14.488281 32.964844 C 14.632812 33.324219 14.746094 33.695312 14.855469 34.066406 C 15.136719 35.027344 15.4375 35.96875 15.851562 36.882812 C 16.132812 37.5 16.460938 38.097656 16.789062 38.695312 C 17.078125 39.21875 17.375 39.742188 17.707031 40.242188 C 18.332031 41.179688 19.09375 42.019531 20.082031 42.566406 C 22.109375 43.695312 24.574219 43.496094 26.675781 42.683594 C 26.707031 42.667969 26.738281 42.65625 26.769531 42.644531 C 26.792969 42.644531 26.820312 42.644531 26.84375 42.640625 C 27.082031 42.605469 27.304688 42.488281 27.492188 42.324219 C 27.550781 42.316406 27.613281 42.289062 27.660156 42.242188 C 29.191406 40.867188 30.664062 39.417969 32.050781 37.890625 C 32.984375 36.859375 33.878906 35.789062 34.738281 34.695312 C 35.460938 33.777344 36.164062 32.839844 36.824219 31.875 C 37.320312 31.152344 37.796875 30.414062 38.203125 29.636719 C 38.6875 28.703125 39.160156 27.757812 39.605469 26.808594 C 39.859375 26.273438 40.191406 25.65625 39.84375 25.089844 C 39.476562 24.488281 38.683594 24.292969 38.039062 24.195312 " fill-opacity="1" fill-rule="nonzero"/></g><path fill="#000000" d="M 39.398438 25.605469 C 39.398438 25.597656 39.394531 25.589844 39.394531 25.582031 C 39.394531 25.582031 39.394531 25.578125 39.394531 25.578125 C 39.394531 25.574219 39.394531 25.570312 39.390625 25.566406 C 39.390625 25.574219 39.394531 25.59375 39.398438 25.605469 " fill-opacity="1" fill-rule="nonzero"/><path fill="#000000" d="M 18.199219 16.859375 C 18.09375 16.75 17.878906 16.730469 17.773438 16.859375 C 16.132812 18.792969 14.496094 20.730469 12.855469 22.667969 C 12.386719 23.21875 11.921875 23.769531 11.453125 24.320312 C 11.347656 24.445312 11.332031 24.628906 11.453125 24.75 C 11.5625 24.859375 11.773438 24.875 11.878906 24.75 C 13.519531 22.8125 15.160156 20.878906 16.800781 18.941406 C 17.265625 18.390625 17.734375 17.839844 18.199219 17.285156 C 18.304688 17.160156 18.320312 16.980469 18.199219 16.859375 " fill-opacity="1" fill-rule="nonzero"/><path fill="#000000" d="M 14.300781 26.351562 C 14.195312 26.476562 14.175781 26.65625 14.300781 26.78125 C 14.40625 26.886719 14.621094 26.90625 14.726562 26.78125 C 15.589844 25.746094 16.453125 24.714844 17.320312 23.683594 C 17.425781 23.558594 17.441406 23.378906 17.320312 23.253906 C 17.210938 23.148438 17 23.128906 16.894531 23.253906 C 16.027344 24.285156 15.164062 25.320312 14.300781 26.351562 " fill-opacity="1" fill-rule="nonzero"/><path fill="#000000" d="M 25.597656 20.484375 C 23.519531 23.09375 21.441406 25.703125 19.367188 28.3125 C 18.78125 29.046875 18.195312 29.78125 17.613281 30.515625 C 17.511719 30.644531 17.488281 30.820312 17.613281 30.945312 C 17.71875 31.054688 17.9375 31.074219 18.039062 30.945312 C 20.117188 28.335938 22.191406 25.726562 24.269531 23.117188 C 24.855469 22.382812 25.441406 21.644531 26.023438 20.910156 C 26.125 20.785156 26.148438 20.609375 26.023438 20.484375 C 25.917969 20.375 25.699219 20.355469 25.597656 20.484375 " fill-opacity="1" fill-rule="nonzero"/><path fill="#000000" d="M 27.4375 25.246094 C 25.460938 27.796875 23.480469 30.347656 21.503906 32.898438 C 21.222656 33.257812 20.945312 33.613281 20.667969 33.972656 C 20.535156 34.144531 20.398438 34.320312 20.265625 34.492188 C 20.195312 34.585938 20.121094 34.675781 20.050781 34.769531 C 19.980469 34.863281 19.949219 34.949219 19.925781 35.058594 C 19.832031 35.4375 20.414062 35.601562 20.503906 35.21875 C 20.511719 35.191406 20.515625 35.164062 20.523438 35.136719 C 20.539062 35.117188 20.554688 35.097656 20.566406 35.082031 C 20.628906 35 20.691406 34.921875 20.753906 34.839844 C 20.878906 34.683594 21 34.523438 21.125 34.363281 C 21.367188 34.050781 21.609375 33.738281 21.851562 33.425781 C 22.339844 32.796875 22.832031 32.164062 23.320312 31.53125 C 24.289062 30.285156 25.257812 29.035156 26.226562 27.785156 C 26.773438 27.082031 27.320312 26.378906 27.863281 25.675781 C 27.964844 25.546875 27.988281 25.371094 27.863281 25.246094 C 27.761719 25.140625 27.539062 25.117188 27.4375 25.246094 " fill-opacity="1" fill-rule="nonzero"/><path fill="#000000" d="M 23.855469 36.335938 C 23.238281 37.152344 22.621094 37.96875 22.007812 38.789062 C 21.910156 38.917969 21.988281 39.128906 22.117188 39.203125 C 22.269531 39.292969 22.429688 39.226562 22.527344 39.09375 C 23.613281 37.652344 24.699219 36.210938 25.78125 34.773438 C 26.867188 33.332031 27.953125 31.890625 29.039062 30.449219 C 29.652344 29.632812 30.269531 28.816406 30.886719 28 C 30.984375 27.867188 30.90625 27.660156 30.777344 27.582031 C 30.621094 27.492188 30.464844 27.5625 30.363281 27.691406 C 29.28125 29.132812 28.195312 30.574219 27.109375 32.011719 C 26.023438 33.453125 24.941406 34.894531 23.855469 36.335938 " fill-opacity="1" fill-rule="nonzero"/></svg>