<svg xmlns="http://www.w3.org/2000/svg" xmlns:xlink="http://www.w3.org/1999/xlink" width="60" zoomAndPan="magnify" viewBox="0 0 45 44.999999" height="60" preserveAspectRatio="xMidYMid meet" version="1.0"><defs><clipPath id="52d692913e"><path d="M 0.527344 11.550781 L 17.507812 11.550781 L 17.507812 39.113281 L 0.527344 39.113281 Z M 0.527344 11.550781 " clip-rule="nonzero"/></clipPath><clipPath id="05b56505ad"><path d="M 8 5.523438 L 21 5.523438 L 21 16 L 8 16 Z M 8 5.523438 " clip-rule="nonzero"/></clipPath><clipPath id="a7cd0d018a"><path d="M 21 16 L 44.777344 16 L 44.777344 38 L 21 38 Z M 21 16 " clip-rule="nonzero"/></clipPath></defs><g clip-path="url(#52d692913e)"><path fill="#040606" d="M 12.929688 12.484375 C 9.460938 11.066406 5.472656 12.679688 4.011719 16.09375 C 4.011719 16.09375 4.011719 16.097656 4.007812 16.097656 C 3.789062 16.609375 3.632812 17.144531 3.546875 17.695312 C 3.546875 17.695312 3.546875 17.695312 3.546875 17.699219 L 2.28125 25.875 L 4.433594 26.773438 C 5.023438 27.019531 5.296875 27.6875 5.046875 28.269531 C 4.796875 28.855469 4.117188 29.125 3.53125 28.878906 L 1.917969 28.203125 L 0.546875 37.078125 C 0.398438 38.046875 1.074219 38.949219 2.058594 39.09375 C 2.703125 39.191406 3.355469 38.933594 3.753906 38.417969 L 13.816406 25.367188 L 10.089844 23.804688 C 9.496094 23.554688 9.222656 22.890625 9.472656 22.304688 C 9.726562 21.722656 10.402344 21.453125 10.996094 21.699219 L 15.261719 23.484375 L 15.742188 22.863281 C 15.746094 22.863281 15.746094 22.859375 15.75 22.859375 C 15.75 22.859375 15.753906 22.855469 15.757812 22.851562 L 15.757812 22.847656 C 16.09375 22.414062 16.378906 21.921875 16.617188 21.375 C 18.097656 17.921875 16.425781 13.949219 12.945312 12.492188 C 12.941406 12.488281 12.9375 12.484375 12.929688 12.484375 " fill-opacity="1" fill-rule="nonzero"/></g><g clip-path="url(#05b56505ad)"><path fill="#040606" d="M 10.570312 5.9375 C 10.25 5.8125 9.921875 5.71875 9.59375 5.648438 C 9.351562 5.597656 9.101562 5.710938 8.984375 5.925781 C 8.902344 6.082031 8.828125 6.234375 8.753906 6.402344 C 8.109375 7.910156 8.089844 9.652344 8.710938 11.171875 C 9.332031 12.691406 10.574219 13.929688 12.101562 14.566406 C 13.628906 15.207031 15.390625 15.226562 16.933594 14.613281 C 18.46875 13.996094 19.726562 12.773438 20.375 11.265625 C 20.449219 11.089844 20.503906 10.925781 20.554688 10.773438 C 20.632812 10.539062 20.539062 10.28125 20.332031 10.144531 C 20.054688 9.964844 19.761719 9.796875 19.449219 9.65625 C 19.449219 9.65625 19.445312 9.65625 19.445312 9.65625 C 19.410156 9.640625 19.371094 9.625 19.335938 9.609375 L 19.332031 9.609375 C 17.808594 8.972656 16.042969 8.957031 14.503906 9.566406 C 14.394531 9.613281 14.292969 9.675781 14.183594 9.730469 C 14.144531 9.613281 14.117188 9.496094 14.070312 9.382812 C 13.449219 7.867188 12.210938 6.628906 10.6875 5.988281 C 10.652344 5.972656 10.613281 5.957031 10.574219 5.941406 C 10.574219 5.941406 10.570312 5.941406 10.570312 5.9375 " fill-opacity="1" fill-rule="nonzero"/></g><path fill="#040606" d="M 26.140625 10.582031 C 26.074219 10.65625 26.035156 10.75 26.03125 10.851562 C 26.015625 11.328125 26.019531 11.816406 26.097656 12.3125 C 26.199219 12.941406 26.414062 13.566406 26.796875 14.101562 C 27.292969 14.796875 28.050781 15.292969 28.890625 15.472656 C 29.6875 15.644531 30.527344 15.523438 31.25 15.148438 C 31.347656 15.101562 31.425781 15.011719 31.464844 14.902344 C 31.734375 14.148438 31.734375 13.308594 31.449219 12.554688 C 31.144531 11.761719 30.535156 11.09375 29.773438 10.707031 C 29.179688 10.410156 28.523438 10.292969 27.878906 10.28125 C 27.371094 10.273438 26.878906 10.34375 26.402344 10.429688 C 26.296875 10.449219 26.207031 10.503906 26.140625 10.582031 " fill-opacity="1" fill-rule="nonzero"/><g clip-path="url(#a7cd0d018a)"><path fill="#040606" d="M 28.320312 16.394531 C 26.929688 16.429688 25.554688 16.84375 24.460938 17.683594 C 23.570312 18.363281 22.898438 19.296875 22.445312 20.324219 C 21.992188 21.339844 21.753906 22.441406 21.640625 23.550781 C 21.21875 27.6875 22.589844 31.9375 25.152344 35.238281 C 25.753906 36.011719 26.421875 36.738281 27.324219 37.105469 C 27.914062 37.34375 28.5625 37.40625 29.203125 37.363281 C 29.835938 37.316406 30.457031 37.160156 31.074219 36.976562 C 31.628906 36.8125 32.179688 36.59375 32.753906 36.367188 C 32.921875 36.296875 33.109375 36.296875 33.277344 36.367188 C 33.847656 36.59375 34.414062 36.8125 34.972656 36.976562 C 35.585938 37.160156 36.203125 37.316406 36.839844 37.363281 C 37.476562 37.40625 38.121094 37.34375 38.707031 37.105469 C 39.613281 36.738281 40.289062 36.007812 40.886719 35.238281 C 43.449219 31.9375 44.824219 27.6875 44.398438 23.550781 C 44.285156 22.441406 44.050781 21.339844 43.59375 20.324219 C 43.140625 19.300781 42.460938 18.367188 41.574219 17.683594 C 40.109375 16.566406 38.167969 16.207031 36.335938 16.480469 C 35.296875 16.632812 34.28125 17.003906 33.355469 17.519531 C 33.144531 17.636719 32.886719 17.636719 32.675781 17.519531 C 31.75 17.003906 30.742188 16.632812 29.707031 16.480469 C 29.246094 16.410156 28.777344 16.378906 28.320312 16.394531 " fill-opacity="1" fill-rule="nonzero"/></g><path fill="#040606" d="M 35.914062 10.386719 C 35.660156 10.394531 35.378906 10.445312 35.066406 10.578125 C 35.0625 10.578125 35.058594 10.578125 35.054688 10.578125 C 35.050781 10.582031 35.050781 10.585938 35.046875 10.585938 C 34.464844 10.828125 33.972656 11.292969 33.519531 12.023438 C 33.066406 12.753906 32.695312 13.691406 32.445312 14.675781 C 32.191406 15.660156 32.066406 16.65625 32.003906 17.15625 C 31.972656 17.40625 31.960938 17.523438 31.957031 17.59375 C 31.933594 17.828125 32.007812 18.078125 32.15625 18.261719 C 32.308594 18.449219 32.535156 18.574219 32.773438 18.605469 C 32.777344 18.605469 32.785156 18.605469 32.789062 18.605469 L 32.808594 18.613281 C 33.242188 18.664062 33.6875 18.375 33.8125 17.957031 C 33.816406 17.957031 33.816406 17.957031 33.820312 17.957031 C 34.117188 17.007812 34.402344 16.078125 34.742188 15.355469 C 35.085938 14.605469 35.476562 14.058594 35.828125 13.679688 C 36.179688 13.296875 36.488281 13.09375 36.835938 12.789062 C 37.019531 12.628906 37.164062 12.476562 37.289062 12.320312 C 37.433594 12.148438 37.5 12.089844 37.613281 11.828125 C 37.644531 11.753906 37.636719 11.796875 37.671875 11.695312 C 37.664062 11.71875 37.675781 11.667969 37.683594 11.636719 C 37.6875 11.621094 37.691406 11.609375 37.691406 11.597656 C 37.695312 11.59375 37.691406 11.589844 37.691406 11.585938 L 37.691406 11.578125 C 37.691406 11.578125 37.710938 11.515625 37.714844 11.476562 C 37.714844 11.460938 37.714844 11.4375 37.714844 11.414062 C 37.714844 11.402344 37.714844 11.394531 37.714844 11.386719 C 37.710938 11.375 37.714844 11.347656 37.714844 11.347656 C 37.714844 11.347656 37.714844 11.34375 37.714844 11.34375 C 37.695312 10.9375 37.378906 10.566406 36.976562 10.476562 C 36.976562 10.476562 36.792969 10.441406 36.609375 10.421875 C 36.398438 10.402344 36.167969 10.375 35.914062 10.386719 " fill-opacity="1" fill-rule="nonzero"/></svg>