<svg xmlns="http://www.w3.org/2000/svg" xmlns:xlink="http://www.w3.org/1999/xlink" width="60" zoomAndPan="magnify" viewBox="0 0 45 44.999999" height="60" preserveAspectRatio="xMidYMid meet" version="1.0"><defs><clipPath id="288510e2bf"><path d="M 3 26 L 41.988281 26 L 41.988281 42.835938 L 3 42.835938 Z M 3 26 " clip-rule="nonzero"/></clipPath><clipPath id="e1d93d766e"><path d="M 19 2.335938 L 26 2.335938 L 26 13 L 19 13 Z M 19 2.335938 " clip-rule="nonzero"/></clipPath></defs><path fill="#100f0d" d="M 23.851562 26.84375 C 23.875 26.785156 23.886719 26.71875 23.882812 26.652344 C 23.878906 26.488281 23.832031 26.359375 23.734375 26.230469 C 23.640625 26.101562 23.480469 26.039062 23.328125 26.011719 C 23.183594 25.984375 23.039062 25.980469 22.894531 25.980469 C 22.648438 25.980469 22.402344 25.980469 22.15625 25.980469 C 22.011719 25.980469 21.863281 25.980469 21.722656 26.003906 C 21.5625 26.03125 21.398438 26.082031 21.292969 26.207031 C 21.183594 26.335938 21.121094 26.480469 21.121094 26.652344 C 21.113281 26.84375 21.226562 27.015625 21.335938 27.160156 C 21.460938 27.328125 21.574219 27.5 21.695312 27.671875 C 21.835938 27.871094 21.953125 28.070312 21.964844 28.304688 C 21.964844 28.367188 21.960938 28.429688 21.953125 28.496094 C 21.949219 28.511719 21.695312 30.699219 21.640625 30.84375 C 21.550781 31.082031 21.683594 31.28125 21.753906 31.480469 C 21.890625 31.886719 22.292969 32.886719 22.335938 32.992188 C 22.367188 33.070312 22.4375 33.285156 22.503906 33.285156 C 22.570312 33.285156 22.640625 33.070312 22.671875 32.992188 C 22.765625 32.757812 23.246094 31.503906 23.253906 31.480469 C 23.324219 31.28125 23.453125 31.082031 23.367188 30.84375 C 23.308594 30.699219 23.058594 28.511719 23.054688 28.496094 C 23.046875 28.429688 23.039062 28.367188 23.039062 28.304688 C 23.050781 28.070312 23.171875 27.871094 23.3125 27.671875 C 23.5 27.410156 23.722656 27.140625 23.851562 26.84375 " fill-opacity="1" fill-rule="nonzero"/><path fill="#100f0d" d="M 22.503906 25.125 C 25.265625 25.125 27.503906 22.875 27.503906 20.097656 C 27.503906 17.324219 25.265625 15.074219 22.503906 15.074219 C 19.738281 15.074219 17.5 17.324219 17.5 20.097656 C 17.5 22.875 19.738281 25.125 22.503906 25.125 " fill-opacity="1" fill-rule="nonzero"/><g clip-path="url(#288510e2bf)"><path fill="#100f0d" d="M 41.289062 29.117188 C 40.570312 28.304688 39.339844 28.230469 38.53125 28.949219 L 35.445312 31.699219 C 35.386719 31.753906 35.296875 31.75 35.238281 31.695312 C 34.558594 31.054688 30.691406 27.394531 30.484375 27.207031 C 30.136719 26.882812 29.738281 26.652344 29.300781 26.503906 C 28.773438 26.320312 27.921875 26.179688 27.269531 26.09375 C 26.734375 26.019531 26.222656 26.324219 26.023438 26.824219 C 25.257812 28.761719 23.398438 33.4375 23.011719 34.265625 C 22.960938 34.367188 22.898438 34.46875 22.808594 34.539062 C 22.570312 34.730469 22.273438 34.636719 22.089844 34.417969 C 21.941406 34.238281 19.828125 28.949219 18.988281 26.839844 C 18.789062 26.335938 18.269531 26.035156 17.734375 26.113281 C 17.589844 26.132812 17.449219 26.152344 17.339844 26.167969 C 16.792969 26.253906 16.234375 26.320312 15.707031 26.503906 C 15.265625 26.652344 14.867188 26.882812 14.519531 27.207031 C 14.316406 27.394531 10.449219 31.054688 9.765625 31.695312 C 9.710938 31.75 9.617188 31.753906 9.558594 31.699219 L 6.476562 28.949219 C 5.667969 28.230469 4.433594 28.304688 3.71875 29.117188 C 3 29.925781 3.074219 31.167969 3.882812 31.886719 L 8.242188 35.777344 C 9.078125 36.519531 10.339844 36.507812 11.160156 35.746094 L 13.042969 34 L 16.695312 41.457031 C 17.097656 42.277344 17.925781 42.792969 18.828125 42.792969 L 26.179688 42.792969 C 27.082031 42.792969 27.90625 42.277344 28.308594 41.464844 L 31.984375 34.023438 L 33.847656 35.746094 C 34.667969 36.507812 35.925781 36.519531 36.761719 35.777344 L 41.125 31.886719 C 41.929688 31.167969 42.003906 29.925781 41.289062 29.117188 " fill-opacity="1" fill-rule="nonzero"/></g><path fill="#100f0d" d="M 29.851562 19.289062 C 30.121094 19.457031 30.476562 19.375 30.644531 19.105469 C 30.8125 18.835938 30.730469 18.480469 30.460938 18.3125 C 30.191406 18.140625 29.839844 18.222656 29.671875 18.492188 C 29.5 18.761719 29.582031 19.121094 29.851562 19.289062 " fill-opacity="1" fill-rule="nonzero"/><path fill="#100f0d" d="M 30.390625 17.960938 C 30.621094 18.105469 30.925781 18.039062 31.070312 17.804688 L 33.003906 14.707031 C 34.773438 15.535156 36.933594 14.925781 37.996094 13.21875 C 39.199219 11.289062 38.535156 8.707031 36.496094 7.621094 C 34.816406 6.726562 32.695312 7.191406 31.539062 8.707031 C 31.261719 9.070312 31.058594 9.460938 30.925781 9.867188 C 30.832031 10.148438 31.011719 10.449219 31.304688 10.503906 C 31.546875 10.550781 31.785156 10.40625 31.863281 10.167969 C 31.933594 9.953125 32.03125 9.746094 32.15625 9.542969 C 33.023438 8.15625 34.847656 7.738281 36.226562 8.605469 C 37.605469 9.472656 38.027344 11.308594 37.160156 12.695312 C 36.386719 13.9375 34.835938 14.40625 33.53125 13.859375 C 33.382812 13.796875 33.234375 13.722656 33.089844 13.632812 C 33.089844 13.632812 33.089844 13.632812 33.085938 13.628906 C 32.863281 13.488281 32.566406 13.546875 32.425781 13.773438 L 32.167969 14.183594 L 30.234375 17.28125 C 30.089844 17.511719 30.160156 17.816406 30.390625 17.960938 " fill-opacity="1" fill-rule="nonzero"/><path fill="#100f0d" d="M 7.457031 13.640625 C 7.660156 13.859375 8.007812 13.84375 8.195312 13.613281 C 8.351562 13.421875 8.339844 13.144531 8.171875 12.960938 C 8.019531 12.792969 7.882812 12.605469 7.769531 12.398438 C 6.972656 10.972656 7.484375 9.160156 8.90625 8.363281 C 10.324219 7.566406 12.128906 8.074219 12.921875 9.503906 C 13.636719 10.785156 13.296875 12.375 12.195312 13.261719 C 12.070312 13.367188 11.933594 13.460938 11.785156 13.542969 C 11.785156 13.542969 11.785156 13.542969 11.78125 13.542969 C 11.546875 13.671875 11.457031 13.964844 11.585938 14.195312 L 11.820312 14.617188 L 13.597656 17.808594 C 13.730469 18.046875 14.03125 18.132812 14.265625 18 C 14.503906 17.867188 14.589844 17.566406 14.457031 17.328125 L 12.679688 14.136719 C 14.253906 12.972656 14.757812 10.777344 13.78125 9.023438 C 12.675781 7.03125 10.101562 6.375 8.171875 7.652344 C 6.585938 8.703125 5.96875 10.796875 6.738281 12.542969 C 6.925781 12.960938 7.167969 13.328125 7.457031 13.640625 " fill-opacity="1" fill-rule="nonzero"/><path fill="#100f0d" d="M 14.246094 19.144531 C 14.402344 19.421875 14.75 19.523438 15.027344 19.367188 C 15.304688 19.210938 15.402344 18.859375 15.25 18.582031 C 15.09375 18.304688 14.746094 18.203125 14.46875 18.359375 C 14.191406 18.515625 14.09375 18.867188 14.246094 19.144531 " fill-opacity="1" fill-rule="nonzero"/><g clip-path="url(#e1d93d766e)"><path fill="#100f0d" d="M 19.988281 6.65625 C 20.171875 6.585938 20.269531 6.386719 20.222656 6.195312 C 20.179688 6.019531 20.160156 5.839844 20.160156 5.648438 C 20.160156 4.351562 21.210938 3.292969 22.503906 3.292969 C 23.796875 3.292969 24.847656 4.351562 24.847656 5.648438 C 24.847656 6.816406 24 7.785156 22.894531 7.972656 C 22.765625 7.992188 22.636719 8.003906 22.503906 8.003906 C 22.5 8.003906 22.5 8.003906 22.5 8.003906 C 22.285156 8.003906 22.113281 8.167969 22.113281 8.382812 L 22.113281 11.667969 C 22.113281 11.886719 22.289062 12.0625 22.503906 12.0625 C 22.71875 12.0625 22.894531 11.886719 22.894531 11.667969 L 22.894531 8.765625 C 24.433594 8.570312 25.628906 7.25 25.628906 5.648438 C 25.628906 3.84375 24.097656 2.382812 22.269531 2.519531 C 20.765625 2.628906 19.53125 3.839844 19.390625 5.347656 C 19.359375 5.710938 19.386719 6.058594 19.464844 6.390625 C 19.519531 6.617188 19.769531 6.742188 19.988281 6.65625 " fill-opacity="1" fill-rule="nonzero"/></g><path fill="#100f0d" d="M 22.503906 12.386719 C 22.25 12.386719 22.046875 12.59375 22.046875 12.847656 C 22.046875 13.101562 22.25 13.304688 22.503906 13.304688 C 22.753906 13.304688 22.960938 13.101562 22.960938 12.847656 C 22.960938 12.59375 22.753906 12.386719 22.503906 12.386719 " fill-opacity="1" fill-rule="nonzero"/></svg>