<svg xmlns="http://www.w3.org/2000/svg" xmlns:xlink="http://www.w3.org/1999/xlink" width="60" zoomAndPan="magnify" viewBox="0 0 45 44.999999" height="60" preserveAspectRatio="xMidYMid meet" version="1.0"><defs><clipPath id="ebdd813705"><path d="M 1 7.246094 L 44 7.246094 L 44 36.496094 L 1 36.496094 Z M 1 7.246094 " clip-rule="nonzero"/></clipPath><clipPath id="45afb1bcb4"><path d="M 0.742188 7.246094 L 44 7.246094 L 44 36.496094 L 0.742188 36.496094 Z M 0.742188 7.246094 " clip-rule="nonzero"/></clipPath><clipPath id="34c8bba232"><path d="M 22 8.972656 L 24 8.972656 L 24 13 L 22 13 Z M 22 8.972656 " clip-rule="nonzero"/></clipPath><clipPath id="f2b199c913"><path d="M 29.820312 18.804688 L 33.078125 18.804688 L 33.078125 19.71875 L 29.820312 19.71875 Z M 29.820312 18.804688 " clip-rule="nonzero"/></clipPath><clipPath id="599533e8f3"><path d="M 12.828125 18 L 17 18 L 17 20 L 12.828125 20 Z M 12.828125 18 " clip-rule="nonzero"/></clipPath><clipPath id="11f367f39a"><path d="M 20 29 L 26 29 L 26 30.722656 L 20 30.722656 Z M 20 29 " clip-rule="nonzero"/></clipPath></defs><g clip-path="url(#ebdd813705)"><path fill="#000000" d="M 41.949219 12.390625 C 41.285156 10.871094 40.550781 9.824219 39.640625 9.105469 L 39.640625 9.101562 C 38.867188 8.5 37.964844 8.085938 36.875 7.835938 C 36 7.632812 35.03125 7.539062 33.824219 7.539062 C 32.976562 7.539062 32.132812 7.585938 31.316406 7.628906 C 30.71875 7.664062 30.152344 7.695312 29.609375 7.707031 C 28.167969 7.738281 26.707031 7.753906 25.265625 7.753906 C 22.921875 7.753906 20.542969 7.710938 18.199219 7.625 C 18.035156 7.621094 17.867188 7.613281 17.699219 7.605469 C 16.796875 7.574219 15.859375 7.535156 14.933594 7.535156 C 13.726562 7.535156 12.726562 7.597656 11.785156 7.726562 C 10.117188 7.949219 8.566406 8.46875 7.175781 9.257812 C 5.742188 10.078125 4.511719 11.167969 3.523438 12.5 C 2.652344 13.675781 2 15.007812 1.585938 16.453125 C 1.175781 17.894531 1.027344 19.371094 1.140625 20.84375 C 1.316406 23.144531 1.742188 25 2.433594 26.511719 C 3.3125 28.433594 4.640625 29.773438 6.378906 30.496094 C 7.179688 30.828125 7.601562 31.675781 7.367188 32.464844 C 7.128906 33.257812 6.433594 34.222656 5.175781 35.507812 L 4.546875 36.148438 L 5.441406 36.199219 C 5.449219 36.199219 5.53125 36.203125 5.671875 36.203125 C 6.199219 36.203125 7.601562 36.140625 9.164062 35.570312 C 10.050781 35.25 10.855469 34.808594 11.558594 34.265625 C 12.339844 33.660156 13 32.921875 13.523438 32.070312 C 15.144531 32.285156 16.789062 32.449219 18.410156 32.558594 C 20.136719 32.671875 21.835938 32.730469 23.457031 32.730469 C 26.191406 32.730469 28.835938 32.5625 31.3125 32.238281 C 33.058594 32.007812 34.757812 31.757812 36.363281 31.238281 C 38.304688 30.617188 39.742188 29.710938 40.765625 28.46875 C 41.6875 27.351562 42.402344 25.925781 42.890625 24.222656 C 43.957031 20.511719 43.613281 16.199219 41.949219 12.390625 Z M 42.503906 24.109375 C 42.078125 25.589844 41.433594 27.023438 40.457031 28.207031 C 38.277344 30.847656 34.460938 31.410156 31.261719 31.832031 C 28.675781 32.175781 26.066406 32.324219 23.457031 32.324219 C 21.78125 32.324219 20.101562 32.261719 18.433594 32.152344 C 16.722656 32.035156 15.015625 31.863281 13.3125 31.628906 C 11.066406 35.566406 6.671875 35.796875 5.671875 35.796875 C 5.539062 35.796875 5.464844 35.792969 5.464844 35.792969 C 6.6875 34.542969 7.476562 33.503906 7.753906 32.585938 C 8.054688 31.578125 7.496094 30.519531 6.53125 30.121094 C 2.9375 28.625 1.839844 24.640625 1.542969 20.8125 C 1.320312 17.960938 2.148438 15.03125 3.847656 12.742188 C 5.792969 10.117188 8.640625 8.5625 11.839844 8.128906 C 12.863281 7.988281 13.898438 7.945312 14.933594 7.945312 C 16.019531 7.945312 17.101562 7.992188 18.1875 8.03125 C 20.546875 8.117188 22.90625 8.164062 25.265625 8.164062 C 26.714844 8.164062 28.167969 8.144531 29.621094 8.113281 C 30.921875 8.082031 32.378906 7.945312 33.824219 7.945312 C 35.839844 7.945312 37.84375 8.214844 39.390625 9.421875 C 40.398438 10.21875 41.066406 11.375 41.582031 12.554688 C 43.140625 16.125 43.585938 20.339844 42.503906 24.109375 Z M 42.503906 24.109375 " fill-opacity="1" fill-rule="nonzero"/></g><g clip-path="url(#45afb1bcb4)"><path fill="#000000" d="M 42.207031 12.277344 C 41.523438 10.710938 40.761719 9.632812 39.808594 8.878906 C 39.007812 8.253906 38.066406 7.820312 36.9375 7.558594 C 36.039062 7.351562 35.050781 7.257812 33.824219 7.257812 C 32.96875 7.257812 32.121094 7.304688 31.300781 7.347656 C 30.703125 7.382812 30.140625 7.414062 29.605469 7.425781 C 28.164062 7.457031 26.703125 7.472656 25.265625 7.472656 C 22.925781 7.472656 20.550781 7.429688 18.210938 7.34375 L 17.710938 7.324219 C 16.800781 7.289062 15.863281 7.253906 14.933594 7.253906 C 13.714844 7.253906 12.703125 7.316406 11.746094 7.445312 C 10.042969 7.675781 8.460938 8.203125 7.035156 9.015625 C 5.570312 9.851562 4.3125 10.964844 3.300781 12.328125 C 2.40625 13.535156 1.738281 14.894531 1.316406 16.375 C 0.898438 17.851562 0.742188 19.359375 0.859375 20.863281 C 1.039062 23.203125 1.472656 25.085938 2.179688 26.628906 C 3.089844 28.617188 4.464844 30.007812 6.269531 30.757812 C 6.9375 31.035156 7.292969 31.734375 7.097656 32.386719 C 6.875 33.128906 6.199219 34.058594 4.976562 35.308594 L 3.914062 36.394531 L 5.425781 36.480469 C 5.449219 36.480469 5.53125 36.484375 5.671875 36.484375 C 6.214844 36.484375 7.65625 36.421875 9.257812 35.835938 C 10.171875 35.503906 11.003906 35.050781 11.730469 34.488281 C 12.488281 33.902344 13.140625 33.191406 13.664062 32.371094 C 15.234375 32.578125 16.824219 32.734375 18.390625 32.839844 C 20.125 32.953125 21.828125 33.011719 23.457031 33.011719 C 26.203125 33.011719 28.859375 32.84375 31.351562 32.515625 C 33.109375 32.285156 34.820312 32.03125 36.449219 31.507812 C 38.441406 30.867188 39.921875 29.933594 40.980469 28.648438 C 41.929688 27.503906 42.660156 26.039062 43.160156 24.300781 C 44.242188 20.527344 43.894531 16.144531 42.207031 12.277344 Z M 23.457031 32.042969 C 21.847656 32.042969 20.164062 31.984375 18.453125 31.871094 C 16.761719 31.757812 15.042969 31.582031 13.351562 31.351562 L 13.164062 31.328125 L 13.070312 31.492188 C 11.152344 34.851562 7.558594 35.410156 6.132812 35.5 C 7.1875 34.355469 7.777344 33.46875 8.019531 32.667969 C 8.359375 31.535156 7.765625 30.328125 6.636719 29.859375 C 3.777344 28.671875 2.203125 25.703125 1.820312 20.789062 C 1.605469 18 2.425781 15.128906 4.070312 12.910156 C 5.90625 10.441406 8.675781 8.839844 11.875 8.40625 C 12.789062 8.285156 13.757812 8.226562 14.933594 8.226562 C 15.847656 8.226562 16.777344 8.261719 17.675781 8.296875 C 17.84375 8.300781 18.007812 8.308594 18.175781 8.3125 C 20.527344 8.398438 22.914062 8.445312 25.265625 8.445312 C 26.710938 8.445312 28.179688 8.425781 29.625 8.394531 C 30.179688 8.382812 30.75 8.351562 31.351562 8.316406 C 32.160156 8.273438 32.996094 8.226562 33.824219 8.226562 C 35.488281 8.226562 37.609375 8.386719 39.21875 9.644531 C 40.039062 10.292969 40.707031 11.253906 41.324219 12.667969 C 42.925781 16.332031 43.253906 20.472656 42.234375 24.03125 C 41.773438 25.640625 41.101562 26.984375 40.242188 28.027344 C 38.078125 30.648438 34.117188 31.171875 31.226562 31.554688 C 28.777344 31.875 26.164062 32.042969 23.457031 32.042969 Z M 23.457031 32.042969 " fill-opacity="1" fill-rule="nonzero"/></g><path fill="#000000" d="M 26.425781 21.980469 C 25.191406 23.503906 25.191406 24.800781 25.191406 24.800781 L 25.191406 25.679688 L 20.714844 25.679688 L 20.714844 24.800781 C 20.714844 24.800781 20.714844 23.503906 19.476562 21.980469 C 19.476562 21.980469 17.949219 20.171875 18.8125 17.824219 C 19.652344 15.539062 21.613281 14.816406 22.851562 14.816406 C 22.886719 14.816406 22.917969 14.820312 22.953125 14.820312 C 22.984375 14.820312 23.019531 14.816406 23.050781 14.816406 C 24.292969 14.816406 26.253906 15.539062 27.09375 17.824219 C 27.957031 20.171875 26.425781 21.980469 26.425781 21.980469 Z M 28.167969 19.5 C 28.199219 18.835938 28.09375 18.175781 27.859375 17.535156 C 27.628906 16.90625 27.308594 16.339844 26.90625 15.855469 C 26.546875 15.421875 26.125 15.050781 25.648438 14.757812 C 25.230469 14.496094 24.777344 14.296875 24.304688 14.167969 C 23.886719 14.050781 23.453125 13.988281 23.050781 13.988281 C 23.019531 13.988281 22.984375 13.988281 22.953125 13.992188 C 22.917969 13.988281 22.886719 13.988281 22.851562 13.988281 C 22.449219 13.988281 22.019531 14.050781 21.601562 14.167969 C 21.125 14.296875 20.671875 14.496094 20.253906 14.757812 C 19.777344 15.050781 19.355469 15.421875 18.996094 15.855469 C 18.597656 16.339844 18.277344 16.90625 18.046875 17.535156 C 17.808594 18.175781 17.707031 18.835938 17.734375 19.5 C 17.757812 20.03125 17.867188 20.558594 18.054688 21.074219 C 18.359375 21.898438 18.777344 22.421875 18.851562 22.511719 C 19.402344 23.191406 19.65625 23.804688 19.777344 24.203125 C 19.886719 24.5625 19.894531 24.800781 19.894531 24.800781 L 19.894531 25.917969 C 19.894531 26.246094 20.15625 26.511719 20.480469 26.511719 L 25.421875 26.511719 C 25.746094 26.511719 26.007812 26.246094 26.007812 25.917969 L 26.007812 24.808594 C 26.007812 24.78125 26.023438 24.523438 26.148438 24.132812 C 26.269531 23.75 26.527344 23.160156 27.054688 22.511719 C 27.128906 22.421875 27.542969 21.898438 27.847656 21.074219 C 28.039062 20.558594 28.144531 20.03125 28.167969 19.5 " fill-opacity="1" fill-rule="nonzero"/><g clip-path="url(#34c8bba232)"><path fill="#000000" d="M 23.359375 9.40625 C 23.359375 9.175781 23.175781 8.992188 22.953125 8.992188 C 22.726562 8.992188 22.542969 9.175781 22.542969 9.40625 L 22.542969 12.292969 L 23.359375 12.292969 L 23.359375 9.40625 " fill-opacity="1" fill-rule="nonzero"/></g><g clip-path="url(#f2b199c913)"><path fill="#000000" d="M 32.667969 18.847656 L 29.820312 18.847656 L 29.820312 19.675781 L 32.667969 19.675781 C 32.894531 19.675781 33.078125 19.492188 33.078125 19.261719 C 33.078125 19.035156 32.894531 18.847656 32.667969 18.847656 " fill-opacity="1" fill-rule="nonzero"/></g><path fill="#000000" d="M 28.097656 23.898438 L 27.519531 24.484375 L 29.535156 26.527344 C 29.691406 26.6875 29.953125 26.6875 30.109375 26.527344 C 30.269531 26.363281 30.269531 26.101562 30.109375 25.941406 L 28.097656 23.898438 " fill-opacity="1" fill-rule="nonzero"/><path fill="#000000" d="M 30.109375 12.585938 C 30.269531 12.425781 30.269531 12.160156 30.109375 12 C 29.953125 11.839844 29.691406 11.839844 29.535156 12 L 27.519531 14.042969 L 28.097656 14.628906 L 30.109375 12.585938 " fill-opacity="1" fill-rule="nonzero"/><g clip-path="url(#599533e8f3)"><path fill="#000000" d="M 16.082031 18.847656 L 13.234375 18.847656 C 13.011719 18.847656 12.828125 19.035156 12.828125 19.261719 C 12.828125 19.492188 13.011719 19.675781 13.234375 19.675781 L 16.082031 19.675781 L 16.082031 18.847656 " fill-opacity="1" fill-rule="nonzero"/></g><path fill="#000000" d="M 15.792969 25.941406 C 15.632812 26.101562 15.632812 26.363281 15.792969 26.527344 C 15.953125 26.6875 16.210938 26.6875 16.371094 26.527344 L 18.382812 24.484375 L 17.804688 23.898438 L 15.792969 25.941406 " fill-opacity="1" fill-rule="nonzero"/><path fill="#000000" d="M 17.804688 14.628906 L 18.382812 14.042969 L 16.371094 12 C 16.210938 11.839844 15.953125 11.839844 15.792969 12 C 15.632812 12.160156 15.632812 12.425781 15.792969 12.585938 L 17.804688 14.628906 " fill-opacity="1" fill-rule="nonzero"/><path fill="#000000" d="M 22.871094 15.878906 C 22.855469 15.636719 22.636719 15.460938 22.402344 15.503906 C 21.308594 15.6875 20.632812 16.242188 20.246094 16.703125 C 20.042969 16.953125 19.894531 17.195312 19.796875 17.394531 C 19.683594 17.625 19.804688 17.90625 20.050781 17.972656 L 20.0625 17.976562 C 20.246094 18.027344 20.441406 17.941406 20.527344 17.765625 C 20.746094 17.324219 21.304688 16.53125 22.535156 16.320312 C 22.742188 16.285156 22.886719 16.101562 22.871094 15.890625 L 22.871094 15.878906 " fill-opacity="1" fill-rule="nonzero"/><path fill="#000000" d="M 25.238281 26.898438 L 20.636719 26.898438 C 20.417969 26.898438 20.242188 27.082031 20.242188 27.3125 C 20.242188 27.542969 20.417969 27.726562 20.636719 27.726562 L 25.238281 27.726562 C 25.457031 27.726562 25.632812 27.542969 25.632812 27.3125 C 25.632812 27.082031 25.457031 26.898438 25.238281 26.898438 " fill-opacity="1" fill-rule="nonzero"/><path fill="#000000" d="M 25.238281 28.113281 L 20.636719 28.113281 C 20.417969 28.113281 20.242188 28.300781 20.242188 28.527344 C 20.242188 28.757812 20.417969 28.945312 20.636719 28.945312 L 25.238281 28.945312 C 25.457031 28.945312 25.632812 28.757812 25.632812 28.527344 C 25.632812 28.300781 25.457031 28.113281 25.238281 28.113281 " fill-opacity="1" fill-rule="nonzero"/><g clip-path="url(#11f367f39a)"><path fill="#000000" d="M 25.011719 29.332031 L 20.863281 29.332031 C 20.742188 29.332031 20.683594 29.480469 20.769531 29.566406 L 21.457031 30.265625 C 21.65625 30.46875 21.914062 30.601562 22.195312 30.648438 C 22.386719 30.679688 22.636719 30.703125 22.9375 30.703125 C 23.242188 30.703125 23.488281 30.679688 23.679688 30.648438 C 23.960938 30.601562 24.21875 30.46875 24.421875 30.265625 L 25.109375 29.566406 C 25.195312 29.480469 25.132812 29.332031 25.011719 29.332031 " fill-opacity="1" fill-rule="nonzero"/></g></svg>