<svg xmlns="http://www.w3.org/2000/svg" xmlns:xlink="http://www.w3.org/1999/xlink" width="60" zoomAndPan="magnify" viewBox="0 0 45 44.999999" height="60" preserveAspectRatio="xMidYMid meet" version="1.0"><defs><clipPath id="f9ae0776b6"><path d="M 1.125 16 L 7 16 L 7 26 L 1.125 26 Z M 1.125 16 " clip-rule="nonzero"/></clipPath><clipPath id="85bdd1bb1f"><path d="M 38 20 L 43.875 20 L 43.875 30 L 38 30 Z M 38 20 " clip-rule="nonzero"/></clipPath><clipPath id="8da78ba272"><path d="M 12 34 L 28 34 L 28 44.101562 L 12 44.101562 Z M 12 34 " clip-rule="nonzero"/></clipPath><clipPath id="bbb92039ce"><path d="M 17 1.351562 L 33 1.351562 L 33 12 L 17 12 Z M 17 1.351562 " clip-rule="nonzero"/></clipPath></defs><path fill="#000000" d="M 3.988281 30.300781 L 37.28125 36.058594 L 41.011719 15.300781 L 7.71875 9.535156 Z M 37.890625 37.699219 C 37.851562 37.699219 37.808594 37.695312 37.765625 37.6875 L 2.972656 31.671875 C 2.777344 31.632812 2.597656 31.519531 2.480469 31.359375 C 2.367188 31.191406 2.316406 30.984375 2.355469 30.789062 L 6.351562 8.527344 C 6.429688 8.117188 6.824219 7.84375 7.234375 7.914062 L 42.027344 13.929688 C 42.222656 13.964844 42.402344 14.078125 42.519531 14.242188 C 42.632812 14.410156 42.683594 14.617188 42.644531 14.8125 L 38.640625 37.074219 C 38.582031 37.445312 38.253906 37.699219 37.890625 37.699219 " fill-opacity="1" fill-rule="nonzero"/><path fill="#000000" d="M 33.148438 18.238281 C 31.699219 18.238281 30.414062 19.277344 30.15625 20.75 C 30.011719 21.546875 30.191406 22.355469 30.660156 23.027344 C 31.121094 23.691406 31.824219 24.136719 32.621094 24.273438 C 33.421875 24.417969 34.230469 24.238281 34.898438 23.769531 C 35.5625 23.304688 36.003906 22.605469 36.144531 21.808594 C 36.289062 21.007812 36.109375 20.199219 35.640625 19.53125 C 35.175781 18.867188 34.476562 18.425781 33.679688 18.285156 C 33.5 18.253906 33.320312 18.238281 33.148438 18.238281 Z M 33.160156 25.84375 C 32.894531 25.84375 32.625 25.820312 32.359375 25.773438 C 31.160156 25.566406 30.113281 24.898438 29.410156 23.894531 C 28.714844 22.894531 28.441406 21.683594 28.65625 20.484375 C 29.097656 18.003906 31.460938 16.339844 33.941406 16.785156 C 35.140625 16.996094 36.1875 17.667969 36.886719 18.664062 C 37.582031 19.664062 37.855469 20.871094 37.640625 22.070312 C 37.433594 23.269531 36.769531 24.316406 35.765625 25.019531 C 34.992188 25.566406 34.082031 25.84375 33.160156 25.84375 " fill-opacity="1" fill-rule="nonzero"/><path fill="#000000" d="M 25.792969 35.609375 C 25.558594 35.609375 25.324219 35.496094 25.175781 35.285156 L 13.152344 18.4375 L 4.867188 24.125 C 4.523438 24.363281 4.046875 24.273438 3.808594 23.929688 C 3.570312 23.585938 3.660156 23.109375 4.007812 22.871094 L 12.902344 16.761719 C 13.246094 16.527344 13.710938 16.609375 13.953125 16.949219 L 26.417969 34.402344 C 26.652344 34.746094 26.578125 35.222656 26.238281 35.464844 C 26.101562 35.558594 25.945312 35.609375 25.792969 35.609375 " fill-opacity="1" fill-rule="nonzero"/><path fill="#000000" d="M 34.871094 37.175781 C 34.628906 37.175781 34.398438 37.0625 34.25 36.855469 L 27.207031 26.992188 L 22.488281 30.234375 C 22.144531 30.472656 21.667969 30.382812 21.429688 30.039062 C 21.191406 29.695312 21.28125 29.21875 21.625 28.980469 L 26.964844 25.316406 C 27.300781 25.078125 27.769531 25.160156 28.007812 25.5 L 35.484375 35.96875 C 35.734375 36.316406 35.65625 36.789062 35.3125 37.035156 C 35.183594 37.128906 35.019531 37.175781 34.871094 37.175781 " fill-opacity="1" fill-rule="nonzero"/><g clip-path="url(#f9ae0776b6)"><path fill="#000000" d="M 4.28125 25.125 C 3.976562 25.125 3.683594 24.933594 3.566406 24.625 L 1.25 18.367188 C 1.175781 18.175781 1.183594 17.964844 1.273438 17.78125 C 1.355469 17.59375 1.515625 17.453125 1.707031 17.386719 L 5.390625 16.0625 C 5.78125 15.917969 6.222656 16.121094 6.367188 16.519531 C 6.503906 16.917969 6.300781 17.351562 5.902344 17.496094 L 2.941406 18.558594 L 4.992188 24.097656 C 5.140625 24.488281 4.9375 24.929688 4.546875 25.070312 C 4.457031 25.105469 4.367188 25.125 4.28125 25.125 " fill-opacity="1" fill-rule="nonzero"/></g><g clip-path="url(#85bdd1bb1f)"><path fill="#000000" d="M 39.355469 29.582031 C 39.039062 29.582031 38.746094 29.390625 38.632812 29.078125 C 38.496094 28.683594 38.699219 28.25 39.097656 28.109375 L 42.058594 27.042969 L 40 21.503906 C 39.859375 21.105469 40.054688 20.671875 40.453125 20.523438 C 40.84375 20.375 41.285156 20.578125 41.429688 20.96875 L 43.75 27.234375 C 43.824219 27.425781 43.816406 27.636719 43.726562 27.824219 C 43.644531 28.007812 43.484375 28.148438 43.292969 28.214844 L 39.609375 29.539062 C 39.527344 29.570312 39.441406 29.582031 39.355469 29.582031 " fill-opacity="1" fill-rule="nonzero"/></g><path fill="#000000" d="M 9.835938 40.113281 C 9.53125 40.113281 9.242188 39.921875 9.121094 39.613281 L 6.246094 31.851562 C 6.097656 31.460938 6.300781 31.019531 6.699219 30.871094 C 7.089844 30.722656 7.523438 30.929688 7.671875 31.324219 L 10.292969 38.382812 L 23.296875 33.742188 C 23.695312 33.597656 24.128906 33.808594 24.269531 34.199219 C 24.414062 34.597656 24.207031 35.03125 23.808594 35.175781 L 10.089844 40.070312 C 10.007812 40.09375 9.925781 40.113281 9.835938 40.113281 " fill-opacity="1" fill-rule="nonzero"/><path fill="#000000" d="M 38.039062 14.773438 C 37.730469 14.773438 37.441406 14.582031 37.328125 14.277344 L 34.707031 7.21875 L 21.699219 11.859375 C 21.304688 12.003906 20.871094 11.796875 20.730469 11.398438 C 20.585938 11.003906 20.792969 10.570312 21.191406 10.429688 L 34.902344 5.53125 C 35.292969 5.390625 35.730469 5.589844 35.871094 5.984375 L 38.753906 13.746094 C 38.902344 14.140625 38.699219 14.578125 38.308594 14.726562 C 38.21875 14.761719 38.128906 14.773438 38.039062 14.773438 " fill-opacity="1" fill-rule="nonzero"/><g clip-path="url(#8da78ba272)"><path fill="#000000" d="M 19.980469 44.101562 C 19.808594 44.101562 19.636719 44.039062 19.492188 43.925781 L 13.050781 38.621094 C 12.730469 38.351562 12.683594 37.871094 12.949219 37.550781 C 13.21875 37.222656 13.699219 37.183594 14.019531 37.445312 L 19.886719 42.277344 L 26.480469 34.566406 C 26.753906 34.253906 27.238281 34.210938 27.558594 34.484375 C 27.878906 34.757812 27.914062 35.238281 27.640625 35.558594 L 20.558594 43.839844 C 20.402344 44.011719 20.1875 44.101562 19.980469 44.101562 " fill-opacity="1" fill-rule="nonzero"/></g><g clip-path="url(#bbb92039ce)"><path fill="#000000" d="M 17.953125 11.300781 C 17.777344 11.300781 17.597656 11.238281 17.453125 11.117188 C 17.140625 10.84375 17.097656 10.363281 17.371094 10.042969 L 24.457031 1.769531 C 24.730469 1.453125 25.203125 1.414062 25.519531 1.675781 L 31.960938 6.980469 C 32.28125 7.25 32.328125 7.730469 32.0625 8.050781 C 31.792969 8.378906 31.320312 8.417969 30.992188 8.152344 L 25.125 3.328125 L 18.53125 11.035156 C 18.375 11.207031 18.167969 11.300781 17.953125 11.300781 " fill-opacity="1" fill-rule="nonzero"/></g><path fill="#000000" d="M 30.777344 42.585938 C 30.730469 42.585938 30.6875 42.585938 30.648438 42.578125 L 22.375 41.140625 C 21.960938 41.074219 21.679688 40.675781 21.75 40.265625 C 21.824219 39.851562 22.21875 39.570312 22.628906 39.648438 L 30.160156 40.949219 L 31.097656 35.757812 C 31.171875 35.339844 31.5625 35.066406 31.980469 35.144531 C 32.394531 35.214844 32.667969 35.613281 32.597656 36.03125 L 31.527344 41.960938 C 31.460938 42.328125 31.140625 42.585938 30.777344 42.585938 " fill-opacity="1" fill-rule="nonzero"/><path fill="#000000" d="M 13.15625 10.46875 C 13.109375 10.46875 13.070312 10.464844 13.019531 10.457031 C 12.605469 10.378906 12.332031 9.988281 12.402344 9.574219 L 13.472656 3.640625 C 13.542969 3.226562 13.941406 2.957031 14.351562 3.023438 L 22.644531 4.457031 C 23.050781 4.527344 23.332031 4.925781 23.261719 5.335938 C 23.1875 5.75 22.808594 6.03125 22.382812 5.960938 L 14.832031 4.652344 L 13.90625 9.839844 C 13.835938 10.207031 13.515625 10.46875 13.15625 10.46875 " fill-opacity="1" fill-rule="nonzero"/></svg>