<svg xmlns="http://www.w3.org/2000/svg" xmlns:xlink="http://www.w3.org/1999/xlink" width="60" zoomAndPan="magnify" viewBox="0 0 45 44.999999" height="60" preserveAspectRatio="xMidYMid meet" version="1.0"><defs><clipPath id="669a60c9af"><path d="M 18 4.5 L 22 4.5 L 22 9 L 18 9 Z M 18 4.5 " clip-rule="nonzero"/></clipPath><clipPath id="8c0d2324eb"><path d="M 1.902344 23 L 4 23 L 4 25 L 1.902344 25 Z M 1.902344 23 " clip-rule="nonzero"/></clipPath><clipPath id="9f4facc59d"><path d="M 23.167969 4.5 L 43.152344 4.5 L 43.152344 43.5 L 23.167969 43.5 Z M 23.167969 4.5 " clip-rule="nonzero"/></clipPath></defs><path fill="#1e1e1e" d="M 4.976562 20.601562 L 6.085938 21.707031 L 19.6875 8.132812 L 18.582031 7.023438 Z M 6.085938 22.664062 C 5.984375 22.664062 5.882812 22.625 5.804688 22.546875 L 4.132812 20.882812 C 3.980469 20.726562 3.980469 20.476562 4.132812 20.320312 L 18.300781 6.1875 C 18.375 6.113281 18.476562 6.070312 18.582031 6.070312 C 18.683594 6.070312 18.785156 6.113281 18.859375 6.1875 L 20.53125 7.851562 C 20.683594 8.007812 20.683594 8.257812 20.53125 8.410156 L 6.363281 22.546875 C 6.289062 22.625 6.1875 22.664062 6.085938 22.664062 " fill-opacity="1" fill-rule="nonzero"/><path fill="#1e1e1e" d="M 2.773438 24.304688 C 2.667969 24.304688 2.570312 24.261719 2.492188 24.1875 C 2.371094 24.066406 2.34375 23.882812 2.417969 23.730469 L 4.058594 20.425781 C 4.15625 20.230469 4.394531 20.152344 4.589844 20.246094 C 4.789062 20.34375 4.867188 20.582031 4.769531 20.777344 L 3.648438 23.03125 L 5.910156 21.914062 C 6.105469 21.816406 6.34375 21.898438 6.441406 22.09375 C 6.535156 22.289062 6.457031 22.527344 6.261719 22.621094 L 2.949219 24.261719 C 2.894531 24.289062 2.832031 24.304688 2.773438 24.304688 " fill-opacity="1" fill-rule="nonzero"/><g clip-path="url(#669a60c9af)"><path fill="#1e1e1e" d="M 19.140625 6.464844 L 20.25 7.570312 L 21.085938 6.738281 C 21.132812 6.691406 21.140625 6.636719 21.140625 6.605469 C 21.140625 6.578125 21.132812 6.523438 21.085938 6.476562 L 20.238281 5.632812 C 20.191406 5.585938 20.136719 5.578125 20.109375 5.578125 C 20.078125 5.578125 20.023438 5.585938 19.976562 5.632812 Z M 20.25 8.527344 C 20.144531 8.527344 20.042969 8.484375 19.96875 8.410156 L 18.300781 6.746094 C 18.144531 6.589844 18.144531 6.339844 18.300781 6.1875 L 19.414062 5.070312 C 19.601562 4.886719 19.847656 4.785156 20.109375 4.785156 C 20.371094 4.785156 20.617188 4.886719 20.800781 5.070312 L 21.644531 5.917969 C 21.832031 6.101562 21.933594 6.347656 21.933594 6.605469 C 21.933594 6.867188 21.832031 7.113281 21.644531 7.296875 L 20.53125 8.410156 C 20.457031 8.484375 20.355469 8.527344 20.25 8.527344 " fill-opacity="1" fill-rule="nonzero"/></g><g clip-path="url(#8c0d2324eb)"><path fill="#1e1e1e" d="M 2.34375 24.730469 C 2.242188 24.730469 2.140625 24.691406 2.0625 24.617188 C 1.90625 24.460938 1.90625 24.210938 2.0625 24.054688 L 2.492188 23.628906 C 2.648438 23.472656 2.898438 23.472656 3.054688 23.628906 C 3.207031 23.78125 3.207031 24.03125 3.054688 24.1875 L 2.625 24.617188 C 2.546875 24.691406 2.445312 24.730469 2.34375 24.730469 " fill-opacity="1" fill-rule="nonzero"/></g><g clip-path="url(#9f4facc59d)"><path fill="#1e1e1e" d="M 24.007812 5.851562 L 24.007812 42.152344 L 42.195312 24 Z M 23.613281 43.503906 C 23.5625 43.503906 23.507812 43.492188 23.460938 43.472656 C 23.3125 43.410156 23.214844 43.265625 23.214844 43.105469 L 23.214844 4.894531 C 23.214844 4.734375 23.3125 4.589844 23.460938 4.53125 C 23.609375 4.46875 23.777344 4.503906 23.890625 4.617188 L 43.035156 23.722656 C 43.191406 23.875 43.191406 24.125 43.035156 24.28125 L 23.890625 43.386719 C 23.816406 43.460938 23.714844 43.503906 23.613281 43.503906 " fill-opacity="1" fill-rule="nonzero"/></g><path fill="#1e1e1e" d="M 36.0625 20.433594 C 35.960938 20.433594 35.859375 20.394531 35.78125 20.316406 L 35.082031 19.621094 C 34.929688 19.46875 34.929688 19.214844 35.082031 19.0625 C 35.238281 18.90625 35.488281 18.90625 35.644531 19.0625 L 36.34375 19.757812 C 36.496094 19.914062 36.496094 20.164062 36.34375 20.316406 C 36.265625 20.394531 36.164062 20.433594 36.0625 20.433594 " fill-opacity="1" fill-rule="nonzero"/><path fill="#1e1e1e" d="M 33.867188 18.246094 C 33.765625 18.246094 33.664062 18.207031 33.589844 18.128906 L 26.890625 11.445312 C 26.738281 11.292969 26.738281 11.042969 26.890625 10.886719 C 27.046875 10.730469 27.296875 10.730469 27.453125 10.886719 L 34.148438 17.570312 C 34.304688 17.722656 34.304688 17.972656 34.148438 18.128906 C 34.070312 18.207031 33.96875 18.246094 33.867188 18.246094 " fill-opacity="1" fill-rule="nonzero"/><path fill="#1e1e1e" d="M 28.742188 17.253906 L 28.742188 30.746094 L 35.5 24 Z M 28.34375 32.097656 C 28.292969 32.097656 28.242188 32.089844 28.195312 32.066406 C 28.046875 32.007812 27.949219 31.863281 27.949219 31.703125 L 27.949219 16.300781 C 27.949219 16.140625 28.046875 15.996094 28.195312 15.933594 C 28.34375 15.871094 28.511719 15.90625 28.625 16.019531 L 36.34375 23.722656 C 36.496094 23.875 36.496094 24.125 36.34375 24.28125 L 28.625 31.980469 C 28.550781 32.058594 28.449219 32.097656 28.34375 32.097656 " fill-opacity="1" fill-rule="nonzero"/><path fill="#1e1e1e" d="M 39.871094 27.277344 C 39.769531 27.277344 39.667969 27.238281 39.589844 27.160156 L 38.5625 26.136719 C 38.410156 25.980469 38.410156 25.730469 38.5625 25.578125 C 38.71875 25.421875 38.96875 25.421875 39.125 25.578125 L 40.152344 26.601562 C 40.304688 26.753906 40.304688 27.003906 40.152344 27.160156 C 40.074219 27.238281 39.972656 27.277344 39.871094 27.277344 " fill-opacity="1" fill-rule="nonzero"/><path fill="#1e1e1e" d="M 36.984375 30.15625 C 36.882812 30.15625 36.78125 30.117188 36.707031 30.039062 L 35.082031 28.421875 C 34.929688 28.265625 34.929688 28.015625 35.082031 27.863281 C 35.238281 27.707031 35.488281 27.707031 35.644531 27.863281 L 37.265625 29.480469 C 37.421875 29.632812 37.421875 29.886719 37.265625 30.039062 C 37.1875 30.117188 37.085938 30.15625 36.984375 30.15625 " fill-opacity="1" fill-rule="nonzero"/><path fill="#1e1e1e" d="M 34.101562 33.035156 C 34 33.035156 33.898438 32.996094 33.820312 32.917969 L 32.792969 31.894531 C 32.640625 31.742188 32.640625 31.488281 32.792969 31.335938 C 32.949219 31.179688 33.199219 31.179688 33.355469 31.335938 L 34.378906 32.359375 C 34.535156 32.515625 34.535156 32.765625 34.378906 32.917969 C 34.304688 32.996094 34.203125 33.035156 34.101562 33.035156 " fill-opacity="1" fill-rule="nonzero"/><path fill="#1e1e1e" d="M 31.214844 35.914062 C 31.113281 35.914062 31.011719 35.875 30.933594 35.796875 L 29.3125 34.179688 C 29.160156 34.027344 29.160156 33.773438 29.3125 33.621094 C 29.46875 33.464844 29.71875 33.464844 29.875 33.621094 L 31.496094 35.238281 C 31.652344 35.394531 31.652344 35.644531 31.496094 35.796875 C 31.417969 35.875 31.316406 35.914062 31.214844 35.914062 " fill-opacity="1" fill-rule="nonzero"/><path fill="#1e1e1e" d="M 28.328125 38.792969 C 28.230469 38.792969 28.125 38.753906 28.050781 38.679688 L 27.023438 37.652344 C 26.867188 37.5 26.867188 37.25 27.023438 37.09375 C 27.179688 36.941406 27.429688 36.941406 27.585938 37.09375 L 28.609375 38.117188 C 28.765625 38.273438 28.765625 38.523438 28.609375 38.679688 C 28.53125 38.753906 28.429688 38.792969 28.328125 38.792969 " fill-opacity="1" fill-rule="nonzero"/><path fill="#1e1e1e" d="M 21.914062 39.964844 L 10.414062 39.964844 C 10.195312 39.964844 10.015625 39.785156 10.015625 39.570312 L 10.015625 21.605469 C 10.015625 21.386719 10.195312 21.210938 10.414062 21.210938 C 10.632812 21.210938 10.808594 21.386719 10.808594 21.605469 L 10.808594 39.171875 L 21.914062 39.171875 C 22.132812 39.171875 22.308594 39.351562 22.308594 39.570312 C 22.308594 39.785156 22.132812 39.964844 21.914062 39.964844 " fill-opacity="1" fill-rule="nonzero"/><path fill="#1e1e1e" d="M 21.914062 39.964844 L 19.378906 39.964844 C 19.160156 39.964844 18.980469 39.785156 18.980469 39.570312 L 18.980469 27.734375 C 18.980469 27.515625 19.160156 27.339844 19.378906 27.339844 L 21.914062 27.339844 C 22.132812 27.339844 22.308594 27.515625 22.308594 27.734375 C 22.308594 27.953125 22.132812 28.128906 21.914062 28.128906 L 19.773438 28.128906 L 19.773438 39.171875 L 21.914062 39.171875 C 22.132812 39.171875 22.308594 39.351562 22.308594 39.570312 C 22.308594 39.785156 22.132812 39.964844 21.914062 39.964844 " fill-opacity="1" fill-rule="nonzero"/><path fill="#1e1e1e" d="M 6.046875 26.359375 C 5.945312 26.359375 5.84375 26.320312 5.769531 26.242188 C 5.613281 26.085938 5.613281 25.835938 5.769531 25.683594 L 21.632812 9.847656 C 21.789062 9.695312 22.039062 9.695312 22.195312 9.847656 C 22.347656 10.003906 22.347656 10.253906 22.195312 10.410156 L 6.328125 26.242188 C 6.25 26.320312 6.148438 26.359375 6.046875 26.359375 " fill-opacity="1" fill-rule="nonzero"/><path fill="#1e1e1e" d="M 13.046875 22.089844 C 12.945312 22.089844 12.84375 22.050781 12.765625 21.976562 C 12.613281 21.820312 12.613281 21.570312 12.765625 21.414062 L 18.300781 15.894531 C 18.453125 15.738281 18.707031 15.738281 18.859375 15.894531 C 19.015625 16.046875 19.015625 16.296875 18.859375 16.453125 L 13.328125 21.976562 C 13.25 22.050781 13.148438 22.089844 13.046875 22.089844 " fill-opacity="1" fill-rule="nonzero"/><path fill="#1e1e1e" d="M 5.066406 39.964844 L 4.429688 39.964844 C 4.210938 39.964844 4.03125 39.785156 4.03125 39.570312 C 4.03125 39.351562 4.210938 39.171875 4.429688 39.171875 L 5.066406 39.171875 C 5.285156 39.171875 5.464844 39.351562 5.464844 39.570312 C 5.464844 39.785156 5.285156 39.964844 5.066406 39.964844 " fill-opacity="1" fill-rule="nonzero"/><path fill="#1e1e1e" d="M 10.414062 39.964844 L 6.765625 39.964844 C 6.546875 39.964844 6.371094 39.785156 6.371094 39.570312 C 6.371094 39.351562 6.546875 39.171875 6.765625 39.171875 L 10.414062 39.171875 C 10.632812 39.171875 10.808594 39.351562 10.808594 39.570312 C 10.808594 39.785156 10.632812 39.964844 10.414062 39.964844 " fill-opacity="1" fill-rule="nonzero"/></svg>