<svg xmlns="http://www.w3.org/2000/svg" xmlns:xlink="http://www.w3.org/1999/xlink" width="60" zoomAndPan="magnify" viewBox="0 0 45 44.999999" height="60" preserveAspectRatio="xMidYMid meet" version="1.0"><defs><clipPath id="5bf890bd2d"><path d="M 0.546875 7 L 44.796875 7 L 44.796875 38 L 0.546875 38 Z M 0.546875 7 " clip-rule="nonzero"/></clipPath><clipPath id="8362ffb6a1"><path d="M 13 6.886719 L 41 6.886719 L 41 23 L 13 23 Z M 13 6.886719 " clip-rule="nonzero"/></clipPath><clipPath id="9ffbbe179f"><path d="M 15 36 L 20 36 L 20 38.386719 L 15 38.386719 Z M 15 36 " clip-rule="nonzero"/></clipPath><clipPath id="da3a0b66e8"><path d="M 20 36 L 24 36 L 24 38.386719 L 20 38.386719 Z M 20 36 " clip-rule="nonzero"/></clipPath><clipPath id="2dfce5ff40"><path d="M 24 36 L 36 36 L 36 38.386719 L 24 38.386719 Z M 24 36 " clip-rule="nonzero"/></clipPath></defs><g clip-path="url(#5bf890bd2d)"><path fill="#000000" d="M 43.902344 33.902344 L 39.667969 33.902344 L 39.667969 17.925781 C 39.667969 17.53125 39.34375 17.207031 38.949219 17.207031 L 35.925781 17.207031 C 35.53125 17.207031 35.210938 17.53125 35.210938 17.925781 L 35.210938 33.902344 L 33.535156 33.902344 L 33.535156 24.914062 C 33.535156 24.519531 33.214844 24.195312 32.820312 24.195312 L 29.796875 24.195312 C 29.402344 24.195312 29.082031 24.519531 29.082031 24.914062 L 29.082031 33.902344 L 27.40625 33.902344 L 27.40625 20.886719 C 27.40625 20.492188 27.085938 20.171875 26.691406 20.171875 L 23.667969 20.171875 C 23.273438 20.171875 22.953125 20.492188 22.953125 20.886719 L 22.953125 33.902344 L 21.277344 33.902344 L 21.277344 27.714844 C 21.277344 27.320312 20.957031 27 20.5625 27 L 17.539062 27 C 17.144531 27 16.824219 27.320312 16.824219 27.714844 L 16.824219 33.902344 L 14.417969 33.902344 C 14.976562 32.863281 15.296875 31.675781 15.296875 30.414062 C 15.296875 26.667969 12.492188 23.5625 8.875 23.09375 L 8.875 8.019531 C 8.875 7.527344 8.472656 7.125 7.980469 7.125 C 7.484375 7.125 7.085938 7.527344 7.085938 8.019531 L 7.085938 23.078125 C 3.410156 23.496094 0.542969 26.625 0.542969 30.414062 C 0.542969 34.484375 3.851562 37.796875 7.921875 37.796875 C 9.921875 37.796875 11.738281 36.996094 13.066406 35.695312 L 43.902344 35.695312 C 44.398438 35.695312 44.796875 35.296875 44.796875 34.800781 C 44.796875 34.304688 44.398438 33.902344 43.902344 33.902344 Z M 36.644531 18.640625 L 38.234375 18.640625 L 38.234375 33.902344 L 36.644531 33.902344 Z M 30.515625 25.628906 L 32.105469 25.628906 L 32.105469 33.902344 L 30.515625 33.902344 Z M 24.386719 21.605469 L 25.976562 21.605469 L 25.976562 33.902344 L 24.386719 33.902344 Z M 18.253906 28.433594 L 19.847656 28.433594 L 19.847656 33.902344 L 18.253906 33.902344 Z M 6.351562 33.460938 C 6.050781 33.28125 5.804688 33.042969 5.613281 32.746094 C 5.425781 32.445312 5.332031 32.15625 5.332031 31.875 C 5.332031 31.710938 5.386719 31.570312 5.5 31.453125 C 5.613281 31.335938 5.757812 31.277344 5.933594 31.277344 C 6.078125 31.277344 6.199219 31.324219 6.296875 31.414062 C 6.394531 31.503906 6.480469 31.640625 6.550781 31.820312 C 6.632812 32.03125 6.726562 32.207031 6.824219 32.351562 C 6.921875 32.492188 7.0625 32.609375 7.238281 32.703125 C 7.417969 32.796875 7.652344 32.84375 7.945312 32.84375 C 8.34375 32.84375 8.667969 32.75 8.917969 32.5625 C 9.167969 32.375 9.292969 32.144531 9.292969 31.863281 C 9.292969 31.644531 9.226562 31.464844 9.09375 31.324219 C 8.957031 31.1875 8.785156 31.082031 8.570312 31.007812 C 8.355469 30.9375 8.070312 30.859375 7.710938 30.777344 C 7.234375 30.664062 6.832031 30.53125 6.511719 30.382812 C 6.1875 30.234375 5.929688 30.027344 5.742188 29.769531 C 5.550781 29.507812 5.457031 29.1875 5.457031 28.800781 C 5.457031 28.433594 5.558594 28.109375 5.757812 27.824219 C 5.957031 27.539062 6.246094 27.320312 6.625 27.164062 C 6.875 27.066406 7.152344 27 7.460938 26.964844 L 7.460938 26.398438 C 7.460938 26.113281 7.695312 25.882812 7.980469 25.882812 C 8.261719 25.882812 8.496094 26.113281 8.496094 26.398438 L 8.496094 26.96875 C 8.6875 26.996094 8.863281 27.035156 9.023438 27.089844 C 9.324219 27.191406 9.570312 27.324219 9.765625 27.492188 C 9.964844 27.660156 10.109375 27.839844 10.199219 28.023438 C 10.289062 28.207031 10.335938 28.390625 10.335938 28.566406 C 10.335938 28.726562 10.277344 28.871094 10.164062 29 C 10.050781 29.128906 9.910156 29.191406 9.738281 29.191406 C 9.585938 29.191406 9.46875 29.15625 9.386719 29.078125 C 9.308594 29 9.21875 28.875 9.125 28.695312 C 9.003906 28.445312 8.859375 28.25 8.691406 28.109375 C 8.519531 27.964844 8.246094 27.894531 7.871094 27.894531 C 7.523438 27.894531 7.242188 27.972656 7.027344 28.125 C 6.816406 28.277344 6.707031 28.464844 6.707031 28.679688 C 6.707031 28.8125 6.746094 28.925781 6.816406 29.023438 C 6.890625 29.121094 6.988281 29.207031 7.117188 29.273438 C 7.246094 29.34375 7.375 29.398438 7.503906 29.4375 C 7.632812 29.476562 7.847656 29.535156 8.148438 29.613281 C 8.523438 29.699219 8.863281 29.796875 9.167969 29.902344 C 9.472656 30.007812 9.734375 30.136719 9.945312 30.289062 C 10.160156 30.441406 10.328125 30.632812 10.445312 30.867188 C 10.566406 31.097656 10.625 31.382812 10.625 31.71875 C 10.625 32.121094 10.523438 32.484375 10.316406 32.804688 C 10.105469 33.128906 9.804688 33.378906 9.402344 33.5625 C 9.132812 33.683594 8.832031 33.765625 8.492188 33.804688 C 8.492188 33.8125 8.496094 33.820312 8.496094 33.828125 L 8.496094 34.402344 C 8.496094 34.6875 8.261719 34.921875 7.976562 34.921875 C 7.695312 34.921875 7.460938 34.6875 7.460938 34.402344 L 7.460938 33.828125 C 7.460938 33.820312 7.460938 33.8125 7.464844 33.804688 C 7.035156 33.753906 6.664062 33.640625 6.351562 33.460938 Z M 6.351562 33.460938 " fill-opacity="1" fill-rule="nonzero"/></g><g clip-path="url(#8362ffb6a1)"><path fill="#000000" d="M 14.640625 22.9375 C 14.867188 22.9375 15.097656 22.847656 15.273438 22.671875 L 24.125 13.8125 L 28.757812 18.453125 C 28.925781 18.621094 29.15625 18.714844 29.394531 18.714844 C 29.628906 18.714844 29.859375 18.621094 30.027344 18.453125 L 37.148438 11.324219 L 38.257812 12.4375 C 38.371094 12.550781 38.527344 12.613281 38.679688 12.613281 C 38.738281 12.613281 38.792969 12.605469 38.851562 12.589844 C 39.058594 12.527344 39.21875 12.355469 39.265625 12.140625 L 40.230469 7.636719 C 40.273438 7.4375 40.210938 7.230469 40.066406 7.089844 C 39.925781 6.945312 39.71875 6.882812 39.519531 6.925781 L 35.019531 7.890625 C 34.804688 7.9375 34.632812 8.097656 34.574219 8.308594 C 34.511719 8.515625 34.566406 8.742188 34.722656 8.898438 L 35.882812 10.058594 L 29.394531 16.554688 L 24.757812 11.914062 C 24.40625 11.5625 23.839844 11.5625 23.492188 11.914062 L 14.007812 21.40625 C 13.65625 21.757812 13.65625 22.324219 14.007812 22.671875 C 14.183594 22.847656 14.410156 22.9375 14.640625 22.9375 Z M 14.640625 22.9375 " fill-opacity="1" fill-rule="nonzero"/></g><g clip-path="url(#9ffbbe179f)"><path fill="#000000" d="M 19.246094 36.941406 L 16.039062 36.941406 C 15.644531 36.941406 15.324219 37.261719 15.324219 37.660156 C 15.324219 38.054688 15.644531 38.375 16.039062 38.375 L 19.246094 38.375 C 19.640625 38.375 19.960938 38.054688 19.960938 37.660156 C 19.960938 37.261719 19.640625 36.941406 19.246094 36.941406 Z M 19.246094 36.941406 " fill-opacity="1" fill-rule="nonzero"/></g><g clip-path="url(#da3a0b66e8)"><path fill="#000000" d="M 22.875 36.941406 L 21.695312 36.941406 C 21.300781 36.941406 20.980469 37.261719 20.980469 37.660156 C 20.980469 38.054688 21.300781 38.375 21.695312 38.375 L 22.875 38.375 C 23.269531 38.375 23.589844 38.054688 23.589844 37.660156 C 23.589844 37.261719 23.269531 36.941406 22.875 36.941406 Z M 22.875 36.941406 " fill-opacity="1" fill-rule="nonzero"/></g><g clip-path="url(#2dfce5ff40)"><path fill="#000000" d="M 34.710938 36.941406 L 25.460938 36.941406 C 25.066406 36.941406 24.746094 37.261719 24.746094 37.660156 C 24.746094 38.054688 25.066406 38.375 25.460938 38.375 L 34.710938 38.375 C 35.105469 38.375 35.425781 38.054688 35.425781 37.660156 C 35.425781 37.261719 35.105469 36.941406 34.710938 36.941406 Z M 34.710938 36.941406 " fill-opacity="1" fill-rule="nonzero"/></g></svg>