<svg xmlns="http://www.w3.org/2000/svg" xmlns:xlink="http://www.w3.org/1999/xlink" width="60" zoomAndPan="magnify" viewBox="0 0 45 44.999999" height="60" preserveAspectRatio="xMidYMid meet" version="1.0"><defs><clipPath id="98dcffd45a"><path d="M 19 5 L 40.5 5 L 40.5 35 L 19 35 Z M 19 5 " clip-rule="nonzero"/></clipPath><clipPath id="2b87a45d17"><path d="M 5 14 L 19 14 L 19 43.03125 L 5 43.03125 Z M 5 14 " clip-rule="nonzero"/></clipPath><clipPath id="f0c2625023"><path d="M 13 1.78125 L 23 1.78125 L 23 16 L 13 16 Z M 13 1.78125 " clip-rule="nonzero"/></clipPath></defs><g clip-path="url(#98dcffd45a)"><path fill="#0cc0df" d="M 26.921875 5.777344 L 24.84375 23.308594 C 24.621094 23.273438 24.394531 23.257812 24.15625 23.265625 C 23.691406 23.273438 23.214844 23.367188 22.746094 23.535156 C 20.746094 24.257812 19.441406 26.148438 19.777344 27.839844 C 20.027344 29.132812 21.203125 30 22.695312 30 C 22.726562 30 22.757812 30 22.789062 29.996094 C 23.253906 29.988281 23.730469 29.894531 24.203125 29.726562 C 25.8125 29.144531 27.027344 27.769531 27.222656 26.296875 L 28.863281 12.449219 L 37.25 16.910156 L 35.917969 28.164062 C 35.703125 28.128906 35.476562 28.113281 35.253906 28.121094 C 34.789062 28.132812 34.3125 28.222656 33.84375 28.390625 C 31.847656 29.113281 30.542969 31.003906 30.871094 32.699219 C 31.125 33.988281 32.300781 34.855469 33.792969 34.855469 C 33.824219 34.855469 33.855469 34.855469 33.886719 34.855469 C 34.351562 34.84375 34.828125 34.75 35.300781 34.582031 C 36.90625 34 38.113281 32.636719 38.296875 31.175781 L 40.488281 12.679688 L 26.921875 5.777344 " fill-opacity="1" fill-rule="nonzero"/></g><g clip-path="url(#2b87a45d17)"><path fill="#0cc0df" d="M 15.089844 20.042969 C 14.804688 19.816406 14.496094 19.601562 14.148438 19.382812 C 13.988281 19.285156 13.828125 19.1875 13.675781 19.101562 C 13.492188 19 13.328125 18.914062 13.171875 18.835938 C 12.980469 18.738281 12.789062 18.648438 12.605469 18.558594 C 12.210938 18.367188 11.839844 18.191406 11.519531 17.996094 C 11.097656 17.742188 10.785156 17.464844 10.597656 17.167969 C 10.542969 17.085938 10.429688 16.851562 10.339844 16.664062 L 10.191406 16.359375 C 10.054688 16.078125 9.898438 15.757812 9.582031 15.339844 C 9.269531 14.925781 8.796875 14.6875 8.289062 14.6875 C 8.089844 14.6875 7.890625 14.722656 7.703125 14.796875 C 7.628906 14.824219 7.558594 14.855469 7.488281 14.894531 C 6.75 15.296875 6.347656 16.171875 6.511719 17.027344 L 10.285156 33.636719 C 9.898438 33.679688 9.507812 33.777344 9.117188 33.925781 C 8.542969 34.144531 7.992188 34.472656 7.476562 34.890625 C 5.300781 36.683594 4.496094 39.609375 5.648438 41.554688 C 6.257812 42.582031 7.335938 43.171875 8.597656 43.171875 C 9.144531 43.171875 9.699219 43.066406 10.253906 42.851562 C 10.828125 42.632812 11.382812 42.308594 11.898438 41.882812 C 13.652344 40.4375 14.558594 38.199219 14.148438 36.304688 L 10.820312 21.660156 C 10.996094 21.722656 11.167969 21.78125 11.335938 21.839844 C 11.515625 21.902344 11.691406 21.964844 11.847656 22.019531 L 12.261719 22.179688 C 12.417969 22.246094 12.539062 22.300781 12.644531 22.351562 C 12.894531 22.472656 13.140625 22.605469 13.375 22.746094 C 14.394531 23.363281 15.121094 24.152344 15.53125 25.109375 C 15.980469 26.109375 16.089844 27.402344 15.84375 28.761719 C 15.753906 29.28125 16.050781 29.785156 16.535156 29.9375 C 16.742188 30 16.96875 29.992188 17.179688 29.914062 C 17.484375 29.796875 17.714844 29.542969 17.808594 29.222656 C 18.351562 27.429688 18.382812 25.589844 17.90625 24.054688 C 17.4375 22.519531 16.464844 21.132812 15.089844 20.042969 " fill-opacity="1" fill-rule="nonzero"/></g><g clip-path="url(#f0c2625023)"><path fill="#0cc0df" d="M 21.996094 5.628906 C 21.894531 5.472656 21.78125 5.316406 21.644531 5.148438 C 21.585938 5.074219 21.523438 5.003906 21.460938 4.933594 C 21.390625 4.855469 21.324219 4.785156 21.261719 4.722656 C 21.183594 4.644531 21.105469 4.566406 21.03125 4.492188 C 20.871094 4.335938 20.722656 4.183594 20.597656 4.035156 C 20.433594 3.84375 20.328125 3.65625 20.285156 3.480469 C 20.273438 3.429688 20.257812 3.296875 20.246094 3.191406 L 20.222656 3.019531 C 20.203125 2.859375 20.179688 2.675781 20.097656 2.421875 C 20.011719 2.167969 19.820312 1.972656 19.574219 1.886719 C 19.476562 1.855469 19.375 1.839844 19.269531 1.84375 C 19.230469 1.84375 19.191406 1.847656 19.148438 1.855469 C 18.722656 1.929688 18.382812 2.289062 18.320312 2.730469 L 17.394531 11.449219 C 17.199219 11.40625 16.992188 11.386719 16.777344 11.394531 C 16.460938 11.40625 16.136719 11.476562 15.820312 11.59375 C 14.460938 12.105469 13.582031 13.394531 13.820312 14.535156 C 13.945312 15.136719 14.371094 15.601562 14.988281 15.8125 C 15.25 15.902344 15.539062 15.945312 15.84375 15.933594 C 16.164062 15.921875 16.488281 15.855469 16.808594 15.734375 C 17.902344 15.324219 18.714844 14.382812 18.832031 13.390625 L 19.648438 5.707031 C 19.722656 5.765625 19.796875 5.824219 19.867188 5.878906 C 19.945312 5.941406 20.019531 5.996094 20.089844 6.050781 L 20.261719 6.199219 C 20.328125 6.257812 20.378906 6.304688 20.421875 6.347656 C 20.523438 6.445312 20.621094 6.550781 20.710938 6.660156 C 21.105469 7.128906 21.324219 7.632812 21.367188 8.167969 C 21.421875 8.730469 21.257812 9.378906 20.910156 10 C 20.78125 10.238281 20.84375 10.53125 21.054688 10.6875 C 21.144531 10.753906 21.253906 10.785156 21.371094 10.78125 C 21.539062 10.777344 21.695312 10.691406 21.792969 10.550781 C 22.355469 9.765625 22.675781 8.878906 22.699219 8.050781 C 22.726562 7.226562 22.484375 6.390625 21.996094 5.628906 " fill-opacity="1" fill-rule="nonzero"/></g></svg>