<svg xmlns="http://www.w3.org/2000/svg" xmlns:xlink="http://www.w3.org/1999/xlink" width="60" zoomAndPan="magnify" viewBox="0 0 45 44.999999" height="60" preserveAspectRatio="xMidYMid meet" version="1.0"><defs><clipPath id="9bd65b2d16"><path d="M 6.457031 4 L 14 4 L 14 12 L 6.457031 12 Z M 6.457031 4 " clip-rule="nonzero"/></clipPath><clipPath id="3a5e5eab81"><path d="M 31 6 L 38.707031 6 L 38.707031 14 L 31 14 Z M 31 6 " clip-rule="nonzero"/></clipPath></defs><path fill="#000000" d="M 24.878906 27.988281 L 19.976562 27.988281 C 19.214844 27.988281 18.597656 27.367188 18.597656 26.601562 C 18.597656 25.769531 18.40625 24.863281 19.074219 24.863281 C 20.121094 24.863281 18.976562 27.03125 19.976562 27.03125 L 24.878906 27.03125 C 25.878906 27.03125 24.761719 24.863281 25.808594 24.863281 C 26.453125 24.863281 26.285156 25.769531 26.285156 26.601562 C 26.285156 27.367188 25.664062 27.988281 24.878906 27.988281 Z M 24.878906 27.988281 " fill-opacity="1" fill-rule="evenodd"/><path fill="#000000" d="M 22.429688 43.769531 C 21.5 43.769531 20.667969 43.269531 20.046875 42.410156 C 18.574219 40.359375 18.574219 36.710938 20.023438 32.375 C 21.335938 28.511719 19.714844 27.914062 20.121094 27.246094 C 20.214844 27.128906 20.359375 27.03125 20.523438 27.03125 L 24.285156 27.03125 C 24.640625 27.03125 24.878906 27.414062 24.714844 27.722656 C 24.09375 28.964844 24.140625 30.488281 24.832031 32.492188 C 26.902344 38.5 25.523438 41.410156 24.832031 42.363281 C 24.191406 43.269531 23.332031 43.769531 22.429688 43.769531 Z M 21.238281 27.988281 C 21.644531 29.296875 21.546875 30.800781 20.929688 32.683594 C 16.359375 46.273438 28.5 46.011719 23.929688 32.800781 C 23.5 31.539062 23.023438 29.75 23.59375 27.988281 Z M 21.238281 27.988281 " fill-opacity="1" fill-rule="evenodd"/><path fill="#000000" d="M 23.808594 30.273438 L 21 30.273438 C 20.382812 30.273438 20.382812 29.320312 21 29.320312 L 23.808594 29.320312 C 24.429688 29.320312 24.429688 30.273438 23.808594 30.273438 Z M 23.808594 30.273438 " fill-opacity="1" fill-rule="evenodd"/><path fill="#000000" d="M 22.429688 26.675781 C 14.195312 26.675781 10.050781 13.992188 15.8125 6.574219 C 21.667969 -0.933594 31.734375 4.40625 31.734375 14.871094 C 31.734375 21.382812 27.570312 26.675781 22.429688 26.675781 Z M 22.429688 4.023438 C 17.3125 4.023438 14.074219 9.605469 14.074219 14.871094 C 14.074219 20.859375 17.835938 25.722656 22.429688 25.722656 C 27.046875 25.722656 30.78125 20.859375 30.78125 14.871094 C 30.78125 8.886719 27.046875 4.023438 22.429688 4.023438 Z M 22.429688 4.023438 " fill-opacity="1" fill-rule="evenodd"/><path fill="#000000" d="M 22.429688 24.910156 C 18.265625 24.910156 14.882812 20.40625 14.882812 14.871094 C 14.882812 9.339844 18.265625 4.835938 22.429688 4.835938 C 26.59375 4.835938 29.972656 9.339844 29.972656 14.871094 C 29.972656 20.40625 26.59375 24.910156 22.429688 24.910156 Z M 22.429688 5.789062 C 18.789062 5.789062 15.835938 9.867188 15.835938 14.871094 C 15.835938 19.878906 18.789062 23.957031 22.429688 23.957031 C 26.070312 23.957031 29.023438 19.878906 29.023438 14.871094 C 29.023438 9.867188 26.070312 5.789062 22.429688 5.789062 Z M 22.429688 5.789062 " fill-opacity="1" fill-rule="evenodd"/><path fill="#000000" d="M 22.429688 41.027344 C 20.046875 41.027344 20.046875 37.402344 22.429688 37.402344 C 24.832031 37.402344 24.832031 41.027344 22.429688 41.027344 Z M 22.429688 38.359375 C 21.285156 38.359375 21.285156 40.074219 22.429688 40.074219 C 23.570312 40.074219 23.570312 38.359375 22.429688 38.359375 Z M 22.429688 38.359375 " fill-opacity="1" fill-rule="evenodd"/><path fill="#000000" d="M 17.574219 14.609375 C 17.214844 14.609375 16.976562 14.207031 17.167969 13.894531 L 20.40625 8.292969 C 20.523438 8.054688 20.835938 7.984375 21.046875 8.101562 C 21.285156 8.246094 21.359375 8.53125 21.238281 8.769531 L 18 14.371094 C 17.90625 14.515625 17.738281 14.609375 17.574219 14.609375 Z M 17.574219 14.609375 " fill-opacity="1" fill-rule="evenodd"/><path fill="#000000" d="M 20.074219 15.636719 C 19.714844 15.636719 19.476562 15.230469 19.667969 14.921875 L 22.359375 10.222656 C 22.691406 9.699219 23.5 10.175781 23.191406 10.699219 L 20.5 15.398438 C 20.40625 15.539062 20.238281 15.636719 20.074219 15.636719 Z M 20.074219 15.636719 " fill-opacity="1" fill-rule="evenodd"/><g clip-path="url(#9bd65b2d16)"><path fill="#000000" d="M 9.148438 11.441406 C 8.910156 11.441406 8.71875 11.25 8.671875 11.011719 L 8.433594 8.984375 L 6.792969 7.742188 C 6.457031 7.480469 6.601562 6.957031 7.03125 6.886719 L 9.054688 6.648438 L 10.289062 5.003906 C 10.550781 4.667969 11.074219 4.8125 11.148438 5.242188 L 11.386719 7.265625 L 13.027344 8.507812 C 13.359375 8.769531 13.21875 9.292969 12.789062 9.367188 L 10.765625 9.605469 L 9.527344 11.25 C 9.433594 11.367188 9.289062 11.441406 9.148438 11.441406 Z M 8.292969 7.695312 C 9.527344 8.625 9.289062 8.222656 9.480469 9.746094 C 10.410156 8.507812 10.003906 8.746094 11.527344 8.554688 C 10.3125 7.625 10.527344 8.03125 10.339844 6.503906 C 9.410156 7.71875 9.816406 7.503906 8.292969 7.695312 Z M 8.292969 7.695312 " fill-opacity="1" fill-rule="evenodd"/></g><path fill="#000000" d="M 33.519531 27.34375 C 33.378906 27.34375 33.234375 27.292969 33.140625 27.175781 L 31.902344 25.53125 L 29.878906 25.269531 C 29.449219 25.21875 29.308594 24.671875 29.664062 24.433594 L 31.28125 23.195312 L 31.542969 21.144531 C 31.59375 20.738281 32.140625 20.59375 32.402344 20.929688 L 33.640625 22.550781 L 35.660156 22.8125 C 36.066406 22.859375 36.210938 23.410156 35.875 23.671875 L 34.257812 24.910156 L 33.996094 26.9375 C 33.972656 27.175781 33.757812 27.34375 33.519531 27.34375 Z M 31.164062 24.480469 C 32.664062 24.671875 32.28125 24.433594 33.210938 25.648438 C 33.402344 24.148438 33.164062 24.527344 34.375 23.625 C 32.855469 23.433594 33.257812 23.648438 32.328125 22.429688 C 32.140625 23.957031 32.378906 23.550781 31.164062 24.480469 Z M 31.164062 24.480469 " fill-opacity="1" fill-rule="evenodd"/><g clip-path="url(#3a5e5eab81)"><path fill="#000000" d="M 35.996094 13.488281 C 35.851562 13.488281 35.710938 13.417969 35.613281 13.300781 L 34.402344 11.679688 L 32.355469 11.414062 C 31.949219 11.367188 31.804688 10.820312 32.140625 10.558594 L 33.757812 9.316406 L 34.019531 7.292969 C 34.066406 6.886719 34.613281 6.71875 34.875 7.078125 L 36.113281 8.699219 L 38.136719 8.960938 C 38.566406 9.007812 38.707031 9.554688 38.351562 9.816406 L 36.734375 11.058594 L 36.472656 13.085938 C 36.449219 13.324219 36.234375 13.488281 35.996094 13.488281 Z M 33.640625 10.628906 C 35.164062 10.820312 34.757812 10.582031 35.6875 11.796875 C 35.875 10.269531 35.636719 10.675781 36.851562 9.746094 C 35.351562 9.554688 35.734375 9.792969 34.804688 8.578125 C 34.613281 10.105469 34.851562 9.699219 33.640625 10.628906 Z M 33.640625 10.628906 " fill-opacity="1" fill-rule="evenodd"/></g></svg>