<svg xmlns="http://www.w3.org/2000/svg" xmlns:xlink="http://www.w3.org/1999/xlink" width="60" zoomAndPan="magnify" viewBox="0 0 45 44.999999" height="60" preserveAspectRatio="xMidYMid meet" version="1.0"><defs><clipPath id="028b7c3943"><path d="M 3.394531 2.894531 L 41.644531 2.894531 L 41.644531 41.894531 L 3.394531 41.894531 Z M 3.394531 2.894531 " clip-rule="nonzero"/></clipPath></defs><g clip-path="url(#028b7c3943)"><path fill="#000000" d="M 3.4375 18.734375 L 3.4375 41.480469 C 3.4375 41.597656 3.476562 41.695312 3.558594 41.773438 C 3.640625 41.855469 3.738281 41.894531 3.855469 41.894531 L 39.53125 41.894531 C 39.644531 41.894531 39.742188 41.855469 39.824219 41.773438 C 39.90625 41.695312 39.949219 41.597656 39.949219 41.480469 L 39.949219 18.734375 C 39.945312 18.660156 39.925781 18.589844 39.886719 18.527344 L 39.914062 18.507812 L 39.933594 18.492188 C 39.945312 18.480469 39.957031 18.46875 39.96875 18.453125 L 39.984375 18.433594 L 40.015625 18.390625 C 40.019531 18.382812 40.023438 18.378906 40.023438 18.371094 C 40.035156 18.347656 40.046875 18.324219 40.054688 18.300781 L 41.53125 13.21875 C 41.5625 13.109375 41.550781 13.007812 41.492188 12.90625 C 41.4375 12.808594 41.355469 12.742188 41.246094 12.710938 L 38.40625 11.894531 L 35.199219 10.984375 L 32.386719 10.183594 L 28.308594 9.015625 L 25.914062 8.332031 L 22.777344 7.453125 L 21.132812 6.984375 L 16.679688 5.71875 L 16.257812 5.597656 L 10.421875 3.9375 L 7.328125 3.054688 L 6.957031 2.949219 C 6.84375 2.917969 6.738281 2.929688 6.640625 2.984375 C 6.539062 3.039062 6.472656 3.121094 6.441406 3.230469 L 4.964844 8.3125 C 4.9375 8.425781 4.949219 8.527344 5.011719 8.625 C 5.066406 8.726562 5.148438 8.789062 5.257812 8.820312 L 7.625 9.5 L 10.71875 10.378906 L 13.882812 11.28125 L 14.179688 11.367188 L 27.007812 15.011719 L 29.304688 15.667969 L 32.402344 16.546875 L 33.40625 16.832031 L 38.621094 18.324219 L 3.855469 18.324219 C 3.738281 18.324219 3.640625 18.363281 3.558594 18.445312 C 3.476562 18.523438 3.4375 18.621094 3.4375 18.734375 Z M 9.828125 23.605469 L 8.070312 19.144531 L 10.464844 19.144531 L 12.222656 23.609375 Z M 16.335938 23.605469 L 14.578125 19.144531 L 16.820312 19.144531 L 18.578125 23.609375 Z M 22.679688 23.605469 L 20.921875 19.144531 L 23.296875 19.144531 L 25.054688 23.609375 Z M 29.167969 23.605469 L 27.410156 19.144531 L 29.738281 19.144531 L 31.496094 23.609375 Z M 35.609375 23.605469 L 33.851562 19.140625 L 36.292969 19.140625 L 38.050781 23.605469 Z M 10.777344 4.894531 L 13.082031 5.550781 L 13.523438 10.320312 L 11.222656 9.664062 Z M 17.035156 6.675781 L 19.183594 7.285156 L 19.625 12.054688 L 17.476562 11.445312 Z M 23.136719 8.414062 L 25.414062 9.0625 L 25.859375 13.828125 L 23.574219 13.179688 Z M 29.367188 10.1875 L 31.605469 10.824219 L 32.046875 15.597656 L 29.808594 14.957031 Z M 35.5625 11.941406 L 37.90625 12.609375 L 38.347656 17.378906 L 36.003906 16.710938 Z M 5.714844 23.609375 L 4.269531 23.609375 L 4.269531 19.945312 Z M 6.894531 4.625 L 7.257812 8.539062 L 5.882812 8.148438 Z M 4.269531 41.070312 L 4.269531 24.433594 L 39.105469 24.433594 L 39.105469 41.070312 Z M 4.269531 41.070312 " fill-opacity="1" fill-rule="nonzero"/></g></svg>