<svg xmlns="http://www.w3.org/2000/svg" xmlns:xlink="http://www.w3.org/1999/xlink" width="60" zoomAndPan="magnify" viewBox="0 0 45 44.999999" height="60" preserveAspectRatio="xMidYMid meet" version="1.0"><defs><clipPath id="e300345322"><path d="M 3 4.5 L 41.035156 4.5 L 41.035156 42 L 3 42 Z M 3 4.5 " clip-rule="nonzero"/></clipPath></defs><g clip-path="url(#e300345322)"><path fill="#231f20" d="M 5.957031 14.511719 C 5.925781 14.90625 6.097656 15.097656 6.496094 15.136719 C 6.398438 14.867188 6.28125 14.625 5.957031 14.511719 Z M 21.15625 37.878906 C 20.988281 38.15625 20.90625 38.386719 20.953125 38.613281 C 21 38.835938 21.183594 38.960938 21.4375 39.007812 C 21.453125 38.621094 21.378906 38.289062 21.15625 37.878906 Z M 20.875 37.492188 C 20.789062 37.425781 20.730469 37.367188 20.664062 37.320312 C 20.449219 37.179688 20.222656 37.164062 20.003906 37.292969 C 19.78125 37.429688 19.722656 37.652344 19.753906 37.898438 C 19.792969 38.210938 19.949219 38.457031 20.222656 38.648438 C 20.324219 37.992188 20.371094 37.90625 20.875 37.492188 Z M 6.152344 13.914062 C 7.191406 14.515625 7.296875 15.414062 7.128906 16.457031 C 7.546875 16.328125 7.925781 16.210938 8.328125 16.089844 C 8.007812 14.988281 7.734375 13.929688 7.039062 13.042969 C 6.605469 13.238281 6.429688 13.617188 6.152344 13.914062 Z M 6.570312 15.824219 C 6.398438 15.761719 6.21875 15.714844 6.0625 15.625 C 5.890625 15.53125 5.742188 15.402344 5.589844 15.285156 C 5.273438 15.039062 5.171875 14.621094 5.359375 14.273438 C 5.636719 13.746094 5.941406 13.230469 6.410156 12.839844 C 6.480469 12.78125 6.570312 12.742188 6.671875 12.683594 C 6.550781 12.585938 6.515625 12.554688 6.476562 12.527344 C 6.425781 12.492188 6.375 12.457031 6.320312 12.433594 C 5.757812 12.191406 5.191406 12.125 4.675781 12.507812 C 4.316406 12.773438 4.097656 13.160156 3.996094 13.605469 C 3.773438 14.585938 4.242188 15.859375 5.0625 16.4375 C 5.226562 16.554688 5.429688 16.644531 5.628906 16.6875 C 6.230469 16.816406 6.609375 16.460938 6.570312 15.824219 Z M 20.945312 41.367188 C 21.707031 41.449219 22.386719 41.367188 23.03125 41.109375 C 23.851562 40.785156 24.660156 40.429688 25.46875 40.074219 C 26.492188 39.625 27.5 39.144531 28.527344 38.710938 C 30.160156 38.023438 31.828125 37.441406 33.511719 36.894531 C 34.203125 36.671875 34.898438 36.46875 35.574219 36.207031 C 36.492188 35.851562 37.378906 35.441406 38.074219 34.695312 C 38.511719 34.226562 38.675781 33.707031 38.609375 33.097656 C 38.570312 32.75 38.449219 32.417969 38.199219 32.171875 C 37.683594 31.671875 37.0625 31.433594 36.332031 31.453125 C 35.535156 31.476562 34.761719 31.632812 34.023438 31.898438 C 32.738281 32.359375 31.472656 32.855469 30.195312 33.339844 C 29.839844 33.476562 29.488281 33.625 29.128906 33.75 C 27.601562 34.292969 26.066406 34.816406 24.542969 35.367188 C 23.585938 35.710938 22.636719 36.085938 21.6875 36.460938 C 21.457031 36.550781 21.222656 36.644531 21.015625 36.8125 C 22.527344 38.046875 22.515625 40.21875 20.945312 41.367188 Z M 29.078125 23.695312 C 29.273438 23.441406 29.445312 23.199219 29.632812 22.980469 C 30.320312 22.183594 31.019531 21.398438 31.785156 20.671875 C 32.53125 19.964844 33.214844 19.191406 33.902344 18.421875 C 34.5625 17.6875 35.222656 16.949219 35.761719 16.113281 C 36.078125 15.621094 36.210938 15.113281 36.089844 14.542969 C 36.027344 14.242188 35.964844 13.945312 35.898438 13.644531 C 35.871094 13.523438 35.832031 13.390625 35.992188 13.339844 C 36.140625 13.289062 36.226562 13.402344 36.277344 13.515625 C 36.378906 13.75 36.46875 13.988281 36.554688 14.230469 C 36.59375 14.339844 36.617188 14.453125 36.65625 14.605469 C 36.910156 14.265625 37.019531 13.945312 37.011719 13.570312 C 37 13.117188 36.851562 12.710938 36.65625 12.3125 C 36.605469 12.210938 36.46875 12.085938 36.609375 11.992188 C 36.773438 11.882812 36.828125 12.078125 36.914062 12.164062 C 36.941406 12.191406 36.960938 12.222656 36.980469 12.253906 C 37.136719 12.515625 37.289062 12.78125 37.464844 13.082031 C 37.714844 12.339844 37.683594 11.644531 37.394531 10.953125 C 37.824219 11.054688 37.773438 11.480469 38.007812 11.765625 C 38.292969 11.242188 38.558594 10.753906 38.824219 10.261719 C 38.890625 10.765625 38.859375 11.234375 38.703125 11.6875 C 38.503906 12.261719 38.285156 12.824219 38.019531 13.375 C 37.398438 14.65625 36.703125 15.894531 35.875 17.050781 C 35.515625 17.550781 35.082031 18.003906 34.679688 18.480469 C 34.507812 18.683594 34.332031 18.882812 34.109375 19.140625 C 34.785156 19.09375 35.390625 18.894531 36.027344 19.117188 C 35.675781 19.351562 35.296875 19.425781 34.929688 19.488281 C 34 19.644531 33.195312 20.007812 32.5625 20.71875 C 32.375 20.929688 32.167969 21.117188 31.96875 21.320312 C 31.910156 21.382812 31.855469 21.457031 31.761719 21.570312 C 32.121094 21.429688 32.40625 21.285156 32.710938 21.207031 C 33.019531 21.128906 33.34375 21.09375 33.679688 21.242188 C 33.496094 21.445312 33.28125 21.496094 33.070312 21.554688 C 32.765625 21.640625 32.460938 21.738281 32.164062 21.847656 C 31.921875 21.9375 31.691406 22.050781 31.453125 22.148438 C 31.03125 22.324219 30.632812 22.53125 30.355469 22.917969 C 30.199219 23.136719 30.003906 23.324219 29.824219 23.527344 C 29.679688 23.691406 29.539062 23.855469 29.371094 24.046875 C 29.496094 24.152344 29.582031 24.257812 29.695312 24.316406 C 30.097656 24.527344 30.527344 24.613281 30.980469 24.53125 C 31.472656 24.445312 31.9375 24.289062 32.324219 23.96875 C 32.695312 23.667969 33.050781 23.34375 33.410156 23.03125 C 33.925781 22.578125 34.4375 22.128906 34.953125 21.679688 C 35.792969 20.941406 36.679688 20.257812 37.414062 19.410156 C 37.679688 19.109375 37.972656 18.832031 38.238281 18.53125 C 38.460938 18.277344 38.664062 18.003906 38.925781 17.679688 C 38.730469 17.695312 38.625 17.707031 38.515625 17.714844 C 38.109375 17.738281 37.707031 17.769531 37.300781 17.777344 C 37.097656 17.785156 36.863281 17.800781 36.773438 17.546875 C 36.691406 17.316406 36.859375 17.183594 36.996094 17.046875 C 37.050781 16.992188 37.105469 16.945312 37.160156 16.894531 C 37.535156 16.542969 37.933594 16.21875 38.277344 15.835938 C 39.226562 14.785156 39.941406 13.597656 40.257812 12.203125 C 40.421875 11.484375 40.484375 10.753906 40.476562 10.015625 C 40.460938 8.683594 40.433594 7.351562 40.410156 6.019531 C 40.410156 5.988281 40.394531 5.957031 40.382812 5.914062 C 40.339844 5.941406 40.304688 5.953125 40.285156 5.980469 C 39.5625 6.8125 38.796875 7.597656 37.953125 8.316406 C 37.386719 8.800781 36.875 9.359375 36.386719 9.917969 C 35.679688 10.726562 35.214844 11.664062 35.054688 12.734375 C 34.949219 13.457031 35.011719 14.175781 35.0625 14.894531 C 35.074219 15.0625 35.085938 15.238281 35.066406 15.40625 C 35.046875 15.582031 34.929688 15.679688 34.738281 15.6875 C 34.550781 15.695312 34.433594 15.609375 34.375 15.441406 C 34.351562 15.359375 34.339844 15.273438 34.332031 15.1875 C 34.292969 14.664062 34.269531 14.140625 34.21875 13.617188 C 34.179688 13.199219 34.109375 12.785156 34.046875 12.320312 C 33.976562 12.398438 33.945312 12.421875 33.929688 12.449219 C 33.277344 13.777344 32.441406 14.964844 31.398438 16.023438 C 30.804688 16.625 30.289062 17.300781 29.738281 17.941406 C 29.0625 18.734375 28.5625 19.636719 28.257812 20.617188 C 27.917969 21.71875 28.21875 22.734375 28.957031 23.617188 C 28.980469 23.644531 29.015625 23.65625 29.078125 23.695312 Z M 29.023438 24.507812 C 28.722656 24.863281 28.414062 25.210938 28.125 25.574219 C 27.6875 26.117188 27.28125 26.6875 26.828125 27.214844 C 26.414062 27.699219 25.957031 28.144531 25.511719 28.601562 C 25.3125 28.800781 25.066406 28.921875 24.722656 29.015625 C 24.851562 28.859375 24.925781 28.75 25.015625 28.65625 C 25.242188 28.417969 25.496094 28.203125 25.703125 27.949219 C 26.507812 26.945312 27.296875 25.929688 28.097656 24.921875 C 28.296875 24.667969 28.519531 24.429688 28.742188 24.167969 C 28.648438 24.09375 28.589844 24.027344 28.515625 23.988281 C 28.222656 23.839844 28.078125 23.578125 27.945312 23.300781 C 27.566406 22.515625 27.472656 21.683594 27.605469 20.832031 C 27.722656 20.082031 27.949219 19.371094 28.433594 18.753906 C 28.945312 18.097656 29.425781 17.417969 29.925781 16.75 C 29.988281 16.664062 30.058594 16.574219 30.136719 16.496094 C 30.242188 16.386719 30.261719 16.277344 30.195312 16.132812 C 29.9375 15.554688 29.6875 14.972656 29.414062 14.347656 C 29.09375 14.332031 28.730469 14.296875 28.367188 14.308594 C 28.109375 14.3125 27.855469 14.378906 27.601562 14.417969 C 27.355469 14.457031 27.179688 14.394531 27.089844 14.226562 C 27.003906 14.0625 27.035156 13.859375 27.222656 13.703125 C 27.628906 13.367188 27.90625 12.9375 28.222656 12.53125 C 28.5 12.183594 28.671875 11.804688 28.75 11.386719 C 29.0625 9.765625 28.472656 8.445312 27.292969 7.351562 C 27.101562 7.175781 26.839844 7.0625 26.59375 6.960938 C 25.910156 6.683594 25.191406 6.660156 24.484375 6.78125 C 23.503906 6.941406 22.527344 7.140625 21.566406 7.394531 C 19.378906 7.964844 17.199219 8.566406 15.023438 9.179688 C 13.25 9.679688 11.488281 10.226562 9.71875 10.734375 C 8.738281 11.011719 7.746094 11.25 6.757812 11.507812 C 6.585938 11.554688 6.417969 11.617188 6.222656 11.683594 C 6.277344 11.734375 6.300781 11.765625 6.328125 11.777344 C 7.074219 12.054688 7.597656 12.585938 7.9375 13.269531 C 8.300781 14.011719 8.648438 14.769531 8.90625 15.550781 C 9.5 17.351562 10.03125 19.167969 10.597656 20.976562 C 10.773438 21.539062 10.964844 22.09375 11.175781 22.640625 C 11.351562 23.101562 11.617188 23.519531 11.980469 23.855469 C 12.355469 24.207031 12.757812 24.527344 13.164062 24.84375 C 13.824219 25.359375 14.160156 26.007812 14.050781 26.855469 C 14.042969 26.925781 14.046875 27 14.039062 27.074219 C 13.992188 27.691406 14.125 28.269531 14.46875 28.785156 C 14.785156 29.261719 15.132812 29.714844 15.460938 30.183594 C 16.160156 31.191406 16.722656 32.265625 16.941406 33.472656 C 17.113281 34.410156 17.195312 35.363281 17.304688 36.308594 C 17.410156 37.210938 17.554688 38.097656 17.898438 38.945312 C 18.160156 39.585938 18.582031 40.097656 19.128906 40.511719 C 19.328125 40.660156 19.570312 40.785156 19.8125 40.855469 C 20.558594 41.070312 21.300781 40.496094 21.324219 39.691406 C 21.242188 39.683594 21.160156 39.675781 21.074219 39.671875 C 20.238281 39.632812 19.378906 38.941406 19.183594 38.15625 C 19.054688 37.628906 19.230469 37.074219 19.632812 36.816406 C 20.015625 36.570312 20.398438 36.320312 20.808594 36.128906 C 21.476562 35.816406 22.152344 35.523438 22.84375 35.277344 C 24.730469 34.601562 26.628906 33.964844 28.511719 33.289062 C 29.632812 32.886719 30.738281 32.441406 31.851562 32.015625 C 32.597656 31.730469 33.347656 31.453125 34.09375 31.171875 C 34.179688 31.136719 34.265625 31.097656 34.34375 31.0625 C 34.183594 30.507812 34.03125 29.976562 33.878906 29.449219 C 33.746094 29.003906 33.609375 28.5625 33.476562 28.117188 C 33.257812 27.394531 33.054688 26.664062 32.816406 25.945312 C 32.675781 25.535156 32.476562 25.144531 32.304688 24.742188 C 31.171875 25.226562 30.074219 25.386719 29.023438 24.507812 Z M 8.4375 16.65625 C 8.082031 16.753906 7.738281 16.84375 7.398438 16.933594 C 6.996094 17.039062 6.597656 17.15625 6.191406 17.25 C 5.847656 17.328125 5.503906 17.277344 5.183594 17.132812 C 3.710938 16.46875 2.78125 14.074219 3.894531 12.542969 C 4.316406 11.96875 4.882812 11.605469 5.53125 11.339844 C 6.878906 10.792969 8.308594 10.515625 9.699219 10.117188 C 11.257812 9.671875 12.808594 9.1875 14.367188 8.75 C 15.785156 8.347656 17.214844 7.988281 18.640625 7.601562 C 19.539062 7.355469 20.429688 7.070312 21.335938 6.84375 C 22.324219 6.601562 23.324219 6.386719 24.324219 6.195312 C 24.929688 6.082031 25.550781 6.113281 26.160156 6.222656 C 26.691406 6.320312 27.164062 6.539062 27.59375 6.863281 C 28.59375 7.617188 29.136719 8.640625 29.351562 9.851562 C 29.574219 11.117188 29.238281 12.246094 28.488281 13.269531 C 28.386719 13.414062 28.25 13.53125 28.113281 13.671875 C 28.597656 13.671875 29.046875 13.695312 29.492188 13.664062 C 29.761719 13.644531 29.964844 13.703125 30.078125 13.9375 C 30.179688 14.140625 30.3125 14.363281 30.3125 14.578125 C 30.308594 15.023438 30.539062 15.363281 30.707031 15.746094 C 30.753906 15.730469 30.796875 15.730469 30.816406 15.710938 C 32.027344 14.5 32.996094 13.132812 33.621094 11.539062 C 33.699219 11.332031 33.765625 11.089844 34.039062 11.082031 C 34.328125 11.070312 34.40625 11.324219 34.5 11.535156 C 34.515625 11.570312 34.527344 11.601562 34.550781 11.660156 C 34.671875 11.457031 34.804688 11.277344 34.898438 11.082031 C 35.320312 10.195312 35.941406 9.453125 36.632812 8.769531 C 37.15625 8.257812 37.734375 7.796875 38.25 7.28125 C 39.03125 6.5 39.847656 5.75 40.40625 4.78125 C 40.488281 4.636719 40.585938 4.5 40.777344 4.550781 C 40.964844 4.601562 41.011719 4.761719 40.996094 4.933594 C 40.847656 6.53125 40.980469 8.132812 41.015625 9.734375 C 41.035156 10.777344 40.976562 11.8125 40.691406 12.820312 C 40.410156 13.808594 39.945312 14.710938 39.316406 15.519531 C 38.910156 16.039062 38.539062 16.589844 38 16.988281 C 37.972656 17.007812 37.964844 17.050781 37.933594 17.117188 C 38.519531 17.105469 39.078125 17.097656 39.632812 16.992188 C 39.714844 16.976562 39.8125 16.929688 39.882812 16.957031 C 39.988281 16.996094 40.121094 17.070312 40.152344 17.160156 C 40.1875 17.25 40.148438 17.4375 40.074219 17.480469 C 39.277344 17.964844 38.925781 18.839844 38.285156 19.457031 C 37.429688 20.277344 36.558594 21.082031 35.675781 21.878906 C 34.785156 22.679688 33.875 23.464844 32.972656 24.25 C 32.871094 24.335938 32.84375 24.425781 32.886719 24.539062 C 32.960938 24.746094 33.019531 24.960938 33.113281 25.160156 C 33.566406 26.089844 33.855469 27.070312 34.109375 28.066406 C 34.285156 28.765625 34.523438 29.445312 34.746094 30.132812 C 34.835938 30.394531 34.964844 30.640625 35.085938 30.917969 C 35.253906 30.890625 35.421875 30.863281 35.589844 30.835938 C 36.519531 30.683594 37.410156 30.800781 38.21875 31.289062 C 38.847656 31.667969 39.183594 32.265625 39.265625 32.980469 C 39.390625 34.070312 38.957031 34.90625 38.082031 35.574219 C 36.921875 36.460938 35.578125 36.902344 34.214844 37.339844 C 32.742188 37.8125 31.265625 38.285156 29.816406 38.824219 C 28.378906 39.355469 26.984375 39.996094 25.597656 40.664062 C 24.597656 41.148438 23.589844 41.644531 22.472656 41.839844 C 21.566406 42 20.699219 41.972656 19.84375 41.566406 C 19.421875 41.367188 18.96875 41.238281 18.605469 40.929688 C 18.414062 40.765625 18.207031 40.609375 18.046875 40.417969 C 17.453125 39.714844 17.109375 38.886719 16.945312 38.003906 C 16.769531 37.054688 16.664062 36.09375 16.566406 35.132812 C 16.441406 33.867188 16.183594 32.640625 15.535156 31.53125 C 15.277344 31.09375 14.960938 30.6875 14.679688 30.261719 C 14.398438 29.84375 14.117188 29.429688 13.859375 29 C 13.496094 28.390625 13.355469 27.730469 13.433594 27.027344 C 13.453125 26.867188 13.449219 26.707031 13.457031 26.550781 C 13.464844 26.160156 13.339844 25.820312 13.050781 25.5625 C 12.71875 25.273438 12.347656 25.027344 12.023438 24.730469 C 11.710938 24.445312 11.402344 24.140625 11.144531 23.800781 C 10.707031 23.234375 10.445312 22.570312 10.222656 21.894531 C 9.796875 20.589844 9.378906 19.285156 8.949219 17.988281 C 8.804688 17.554688 8.621094 17.128906 8.4375 16.65625 " fill-opacity="1" fill-rule="nonzero"/></g><path fill="#231f20" d="M 25.445312 13.230469 C 25.28125 13.53125 25.074219 13.570312 24.875 13.625 C 23.582031 13.972656 22.28125 14.292969 20.996094 14.671875 C 19.148438 15.214844 17.308594 15.792969 15.464844 16.363281 C 14.765625 16.582031 14.074219 16.824219 13.347656 17.003906 C 13.464844 16.929688 13.582031 16.855469 13.699219 16.785156 C 14.539062 16.257812 15.46875 15.933594 16.40625 15.644531 C 18.132812 15.113281 19.863281 14.601562 21.601562 14.105469 C 22.613281 13.8125 23.640625 13.558594 24.667969 13.304688 C 24.898438 13.25 25.144531 13.257812 25.445312 13.230469 " fill-opacity="1" fill-rule="nonzero"/><path fill="#231f20" d="M 15.039062 18.421875 C 15.285156 18.335938 15.53125 18.246094 15.78125 18.160156 C 17.792969 17.480469 19.863281 16.996094 21.910156 16.445312 C 22.707031 16.230469 23.5 16.011719 24.289062 15.785156 C 24.667969 15.679688 24.664062 15.667969 25.101562 15.828125 C 24.882812 16.144531 24.539062 16.203125 24.199219 16.289062 C 22.476562 16.734375 20.757812 17.207031 19.035156 17.644531 C 17.894531 17.933594 16.742188 18.179688 15.59375 18.441406 C 15.417969 18.480469 15.234375 18.476562 15.054688 18.492188 C 15.050781 18.46875 15.042969 18.445312 15.039062 18.421875 " fill-opacity="1" fill-rule="nonzero"/><path fill="#231f20" d="M 16.382812 20.398438 C 16.835938 20.214844 17.234375 20.042969 17.636719 19.894531 C 18.855469 19.449219 20.089844 19.039062 21.296875 18.5625 C 22.394531 18.132812 23.488281 17.710938 24.625 17.390625 C 24.847656 17.328125 25.078125 17.292969 25.3125 17.269531 C 25.453125 17.253906 25.632812 17.253906 25.667969 17.445312 C 25.703125 17.664062 25.507812 17.695312 25.359375 17.734375 C 24.867188 17.878906 24.359375 17.984375 23.871094 18.148438 C 22.816406 18.507812 21.773438 18.898438 20.722656 19.269531 C 20.304688 19.414062 19.886719 19.554688 19.464844 19.679688 C 18.644531 19.925781 17.816406 20.15625 16.996094 20.398438 C 16.808594 20.453125 16.628906 20.496094 16.382812 20.398438 " fill-opacity="1" fill-rule="nonzero"/><path fill="#231f20" d="M 26.292969 19.296875 C 26.128906 19.394531 25.980469 19.519531 25.804688 19.585938 C 25.097656 19.859375 24.382812 20.121094 23.667969 20.371094 C 22.113281 20.910156 20.558594 21.445312 19.003906 21.96875 C 18.445312 22.15625 17.878906 22.3125 17.3125 22.480469 C 17.226562 22.503906 17.132812 22.507812 17.019531 22.453125 C 17.441406 22.273438 17.859375 22.082031 18.289062 21.917969 C 19.355469 21.515625 20.421875 21.117188 21.492188 20.726562 C 22.574219 20.328125 23.660156 19.9375 24.746094 19.554688 C 25.09375 19.433594 25.449219 19.335938 25.808594 19.246094 C 25.953125 19.210938 26.109375 19.21875 26.257812 19.207031 C 26.269531 19.238281 26.28125 19.265625 26.292969 19.296875 " fill-opacity="1" fill-rule="nonzero"/><path fill="#231f20" d="M 24.851562 21.855469 C 24.488281 21.996094 24.136719 22.1875 23.761719 22.273438 C 22.066406 22.660156 20.480469 23.34375 18.875 23.976562 C 18.652344 24.066406 18.417969 24.128906 18.179688 24.183594 C 20.304688 23.125 22.511719 22.308594 24.820312 21.757812 C 24.832031 21.789062 24.839844 21.820312 24.851562 21.855469 " fill-opacity="1" fill-rule="nonzero"/><path fill="#231f20" d="M 18.613281 28.394531 C 18.707031 28.351562 18.75 28.316406 18.792969 28.316406 C 19.441406 28.261719 20.019531 27.984375 20.621094 27.769531 C 21.277344 27.53125 21.945312 27.316406 22.609375 27.105469 C 22.746094 27.0625 22.90625 27.082031 23.054688 27.070312 C 23.0625 27.105469 23.070312 27.140625 23.078125 27.171875 C 22.988281 27.21875 22.902344 27.277344 22.808594 27.308594 C 21.800781 27.660156 20.792969 28.011719 19.785156 28.359375 C 19.601562 28.421875 19.410156 28.472656 19.214844 28.511719 C 18.984375 28.558594 18.882812 28.53125 18.613281 28.394531 " fill-opacity="1" fill-rule="nonzero"/><path fill="#231f20" d="M 24.539062 24.257812 C 24.5 24.28125 24.464844 24.320312 24.421875 24.332031 C 22.925781 24.6875 21.523438 25.304688 20.089844 25.839844 C 19.511719 26.058594 18.90625 26.210938 18.308594 26.390625 C 18.265625 26.402344 18.214844 26.390625 18.101562 26.390625 C 18.589844 26.21875 19.019531 26.074219 19.4375 25.914062 C 20.734375 25.425781 22.023438 24.925781 23.316406 24.4375 C 23.703125 24.292969 24.101562 24.164062 24.539062 24.257812 " fill-opacity="1" fill-rule="nonzero"/></svg>