<svg xmlns="http://www.w3.org/2000/svg" xmlns:xlink="http://www.w3.org/1999/xlink" width="60" zoomAndPan="magnify" viewBox="0 0 45 44.999999" height="60" preserveAspectRatio="xMidYMid meet" version="1.0"><defs><clipPath id="887475416a"><path d="M 2.277344 2.3125 L 39 2.3125 L 39 18 L 2.277344 18 Z M 2.277344 2.3125 " clip-rule="nonzero"/></clipPath><clipPath id="b36b7624b1"><path d="M 2.277344 6 L 39 6 L 39 18 L 2.277344 18 Z M 2.277344 6 " clip-rule="nonzero"/></clipPath><clipPath id="d8b5260214"><path d="M 2.277344 31 L 22 31 L 22 39 L 2.277344 39 Z M 2.277344 31 " clip-rule="nonzero"/></clipPath><clipPath id="f1eac5f21d"><path d="M 22 22 L 42.777344 22 L 42.777344 42.8125 L 22 42.8125 Z M 22 22 " clip-rule="nonzero"/></clipPath></defs><g clip-path="url(#887475416a)"><path fill="#000000" d="M 37.46875 17.277344 L 3.480469 17.277344 C 2.894531 17.277344 2.421875 16.800781 2.421875 16.214844 L 2.421875 11.957031 C 2.421875 11.554688 2.648438 11.1875 3.007812 11.007812 L 20 2.496094 C 20.300781 2.347656 20.652344 2.347656 20.949219 2.496094 L 37.941406 11.007812 C 38.304688 11.1875 38.53125 11.554688 38.53125 11.957031 L 38.53125 16.214844 C 38.53125 16.800781 38.054688 17.277344 37.46875 17.277344 Z M 4.542969 15.148438 L 36.40625 15.148438 L 36.40625 12.617188 L 20.476562 4.636719 L 4.542969 12.617188 Z M 4.542969 15.148438 " fill-opacity="1" fill-rule="nonzero"/></g><path fill="#000000" d="M 21.183594 13.730469 L 19.765625 13.730469 C 19.179688 13.730469 18.703125 13.253906 18.703125 12.667969 C 18.703125 12.082031 19.179688 11.605469 19.765625 11.605469 L 21.183594 11.605469 C 21.769531 11.605469 22.246094 12.082031 22.246094 12.667969 C 22.246094 13.253906 21.769531 13.730469 21.183594 13.730469 Z M 21.183594 13.730469 " fill-opacity="1" fill-rule="nonzero"/><g clip-path="url(#b36b7624b1)"><path fill="#000000" d="M 37.46875 17.277344 C 37.308594 17.277344 37.144531 17.242188 36.992188 17.164062 L 20.476562 8.890625 L 3.957031 17.164062 C 3.433594 17.425781 2.792969 17.214844 2.53125 16.6875 C 2.269531 16.164062 2.484375 15.523438 3.007812 15.261719 L 20 6.75 C 20.300781 6.601562 20.652344 6.601562 20.949219 6.75 L 37.941406 15.261719 C 38.46875 15.523438 38.679688 16.164062 38.417969 16.6875 C 38.230469 17.0625 37.855469 17.277344 37.46875 17.277344 Z M 37.46875 17.277344 " fill-opacity="1" fill-rule="nonzero"/></g><g clip-path="url(#d8b5260214)"><path fill="#000000" d="M 20.476562 38.554688 L 3.480469 38.554688 C 2.894531 38.554688 2.421875 38.078125 2.421875 37.492188 L 2.421875 32.527344 C 2.421875 31.941406 2.894531 31.464844 3.480469 31.464844 L 19.765625 31.464844 C 20.355469 31.464844 20.828125 31.941406 20.828125 32.527344 C 20.828125 33.113281 20.355469 33.589844 19.765625 33.589844 L 4.542969 33.589844 L 4.542969 36.429688 L 20.476562 36.429688 C 21.0625 36.429688 21.539062 36.90625 21.539062 37.492188 C 21.539062 38.078125 21.0625 38.554688 20.476562 38.554688 Z M 20.476562 38.554688 " fill-opacity="1" fill-rule="nonzero"/></g><path fill="#000000" d="M 11.269531 33.589844 C 10.683594 33.589844 10.207031 33.113281 10.207031 32.527344 L 10.207031 16.214844 C 10.207031 15.625 10.683594 15.148438 11.269531 15.148438 C 11.855469 15.148438 12.332031 15.625 12.332031 16.214844 L 12.332031 32.527344 C 12.332031 33.113281 11.855469 33.589844 11.269531 33.589844 Z M 11.269531 33.589844 " fill-opacity="1" fill-rule="nonzero"/><path fill="#000000" d="M 5.605469 33.589844 C 5.019531 33.589844 4.542969 33.113281 4.542969 32.527344 L 4.542969 16.214844 C 4.542969 15.625 5.019531 15.148438 5.605469 15.148438 C 6.191406 15.148438 6.667969 15.625 6.667969 16.214844 L 6.667969 32.527344 C 6.667969 33.113281 6.191406 33.589844 5.605469 33.589844 Z M 5.605469 33.589844 " fill-opacity="1" fill-rule="nonzero"/><path fill="#000000" d="M 23.308594 25.082031 C 22.71875 25.082031 22.246094 24.605469 22.246094 24.015625 L 22.246094 16.214844 C 22.246094 15.625 22.71875 15.148438 23.308594 15.148438 C 23.894531 15.148438 24.371094 15.625 24.371094 16.214844 L 24.371094 24.015625 C 24.371094 24.605469 23.894531 25.082031 23.308594 25.082031 Z M 23.308594 25.082031 " fill-opacity="1" fill-rule="nonzero"/><path fill="#000000" d="M 17.644531 33.589844 C 17.054688 33.589844 16.582031 33.113281 16.582031 32.527344 L 16.582031 16.214844 C 16.582031 15.625 17.054688 15.148438 17.644531 15.148438 C 18.230469 15.148438 18.703125 15.625 18.703125 16.214844 L 18.703125 32.527344 C 18.703125 33.113281 18.230469 33.589844 17.644531 33.589844 Z M 17.644531 33.589844 " fill-opacity="1" fill-rule="nonzero"/><path fill="#000000" d="M 35.34375 25.128906 C 34.757812 25.128906 34.28125 24.652344 34.28125 24.066406 L 34.28125 16.214844 C 34.28125 15.625 34.757812 15.148438 35.34375 15.148438 C 35.929688 15.148438 36.40625 15.625 36.40625 16.214844 L 36.40625 24.066406 C 36.40625 24.652344 35.929688 25.128906 35.34375 25.128906 Z M 35.34375 25.128906 " fill-opacity="1" fill-rule="nonzero"/><path fill="#000000" d="M 29.679688 25.25 C 29.09375 25.25 28.617188 24.773438 28.617188 24.1875 L 28.617188 16.214844 C 28.617188 15.625 29.09375 15.148438 29.679688 15.148438 C 30.265625 15.148438 30.742188 15.625 30.742188 16.214844 L 30.742188 24.1875 C 30.742188 24.773438 30.265625 25.25 29.679688 25.25 Z M 29.679688 25.25 " fill-opacity="1" fill-rule="nonzero"/><g clip-path="url(#f1eac5f21d)"><path fill="#000000" d="M 32.691406 22.605469 C 27.132812 22.605469 22.605469 27.136719 22.605469 32.707031 C 22.605469 38.277344 27.132812 42.8125 32.691406 42.8125 C 38.253906 42.8125 42.777344 38.28125 42.777344 32.707031 C 42.777344 27.136719 38.253906 22.605469 32.691406 22.605469 Z M 35.746094 34.589844 C 35.746094 35.816406 34.914062 36.855469 33.753906 37.261719 L 33.753906 38.027344 C 33.753906 38.613281 33.28125 39.089844 32.691406 39.089844 C 32.105469 39.089844 31.628906 38.613281 31.628906 38.027344 L 31.628906 37.242188 C 30.9375 36.96875 30.367188 36.449219 30.089844 35.769531 C 29.871094 35.222656 30.132812 34.601562 30.675781 34.382812 C 31.21875 34.160156 31.839844 34.421875 32.058594 34.964844 C 32.144531 35.175781 32.40625 35.320312 32.691406 35.320312 C 33.195312 35.320312 33.621094 34.988281 33.621094 34.589844 L 33.621094 34.503906 C 33.621094 33.996094 32.523438 33.757812 32.511719 33.757812 C 31.449219 33.578125 29.640625 32.78125 29.640625 30.914062 L 29.640625 30.828125 C 29.640625 29.601562 30.472656 28.5625 31.628906 28.15625 L 31.628906 27.390625 C 31.628906 26.800781 32.105469 26.324219 32.691406 26.324219 C 33.28125 26.324219 33.753906 26.800781 33.753906 27.390625 L 33.753906 28.175781 C 34.449219 28.445312 35.019531 28.96875 35.292969 29.648438 C 35.515625 30.195312 35.253906 30.816406 34.710938 31.035156 C 34.164062 31.257812 33.546875 30.996094 33.324219 30.453125 C 33.242188 30.242188 32.980469 30.09375 32.691406 30.09375 C 32.1875 30.09375 31.761719 30.429688 31.761719 30.828125 L 31.761719 30.914062 C 31.761719 31.417969 32.863281 31.660156 32.875 31.660156 C 33.9375 31.835938 35.746094 32.636719 35.746094 34.503906 Z M 35.746094 34.589844 " fill-opacity="1" fill-rule="nonzero"/></g></svg>