<svg xmlns="http://www.w3.org/2000/svg" xmlns:xlink="http://www.w3.org/1999/xlink" width="60" zoomAndPan="magnify" viewBox="0 0 45 44.999999" height="60" preserveAspectRatio="xMidYMid meet" version="1.0"><defs><clipPath id="8efeab49af"><path d="M 2.710938 7 L 40.210938 7 L 40.210938 42.28125 L 2.710938 42.28125 Z M 2.710938 7 " clip-rule="nonzero"/></clipPath></defs><path fill="#000000" d="M 14.085938 22.449219 C 12.851562 21.527344 11.398438 21.101562 11.335938 21.082031 C 11.277344 21.058594 11.214844 21.054688 11.148438 21.066406 C 11.085938 21.074219 11.027344 21.097656 10.976562 21.140625 C 10.925781 21.179688 10.886719 21.226562 10.859375 21.289062 C 10.832031 21.347656 10.820312 21.410156 10.824219 21.476562 L 10.824219 24.65625 C 10.824219 24.859375 10.921875 24.992188 11.113281 25.050781 C 12.003906 25.332031 12.839844 25.738281 13.609375 26.273438 C 13.957031 26.457031 14.25 26.214844 14.25 25.945312 L 14.25 22.777344 C 14.25 22.640625 14.195312 22.53125 14.085938 22.449219 Z M 13.445312 25.203125 C 12.867188 24.859375 12.261719 24.578125 11.628906 24.359375 L 11.628906 22.046875 C 12.269531 22.289062 12.875 22.601562 13.445312 22.988281 Z M 13.445312 25.203125 " fill-opacity="1" fill-rule="nonzero"/><path fill="#000000" d="M 11.136719 13.117188 C 11.261719 13.144531 11.578125 13.222656 11.613281 13.222656 C 12.070312 13.226562 12.167969 12.535156 11.714844 12.417969 C 11.582031 12.382812 11.449219 12.351562 11.316406 12.320312 C 11.207031 12.292969 11.105469 12.3125 11.011719 12.371094 C 10.921875 12.433594 10.859375 12.519531 10.835938 12.628906 C 10.8125 12.738281 10.828125 12.839844 10.886719 12.933594 C 10.945312 13.03125 11.03125 13.089844 11.136719 13.117188 Z M 11.136719 13.117188 " fill-opacity="1" fill-rule="nonzero"/><path fill="#000000" d="M 13.898438 14.125 C 16.488281 15.292969 18.332031 17.316406 18.351562 17.335938 C 18.535156 17.488281 18.722656 17.5 18.921875 17.363281 C 19.003906 17.289062 19.050781 17.195312 19.054688 17.078125 C 19.058594 16.964844 19.023438 16.867188 18.945312 16.785156 C 18.867188 16.699219 16.972656 14.617188 14.222656 13.378906 C 14.121094 13.335938 14.019531 13.332031 13.917969 13.375 C 13.816406 13.414062 13.742188 13.488281 13.699219 13.589844 C 13.652344 13.691406 13.648438 13.792969 13.6875 13.898438 C 13.726562 14.003906 13.796875 14.078125 13.898438 14.125 Z M 13.898438 14.125 " fill-opacity="1" fill-rule="nonzero"/><path fill="#000000" d="M 11.136719 16.132812 C 15.1875 17.0625 18.324219 20.332031 18.359375 20.359375 C 18.433594 20.445312 18.527344 20.488281 18.640625 20.488281 C 18.753906 20.492188 18.847656 20.453125 18.925781 20.371094 C 19.003906 20.292969 19.042969 20.195312 19.046875 20.085938 C 19.046875 19.972656 19.011719 19.875 18.9375 19.792969 C 18.804688 19.652344 15.605469 16.320312 11.316406 15.335938 C 11.207031 15.3125 11.105469 15.328125 11.011719 15.386719 C 10.917969 15.449219 10.859375 15.535156 10.835938 15.644531 C 10.808594 15.753906 10.828125 15.855469 10.886719 15.953125 C 10.945312 16.046875 11.03125 16.105469 11.136719 16.132812 Z M 11.136719 16.132812 " fill-opacity="1" fill-rule="nonzero"/><path fill="#000000" d="M 11.316406 18.351562 C 11.207031 18.328125 11.105469 18.34375 11.011719 18.40625 C 10.917969 18.464844 10.859375 18.550781 10.835938 18.660156 C 10.808594 18.769531 10.828125 18.871094 10.886719 18.96875 C 10.945312 19.0625 11.03125 19.125 11.136719 19.148438 C 15.1875 20.078125 18.328125 23.34375 18.359375 23.378906 C 18.546875 23.53125 18.734375 23.535156 18.925781 23.386719 C 19.011719 23.3125 19.050781 23.214844 19.054688 23.101562 C 19.054688 22.988281 19.019531 22.890625 18.9375 22.8125 C 18.804688 22.667969 15.605469 19.339844 11.316406 18.351562 Z M 11.316406 18.351562 " fill-opacity="1" fill-rule="nonzero"/><path fill="#000000" d="M 16.023438 23.464844 C 15.925781 23.414062 15.824219 23.402344 15.71875 23.433594 C 15.613281 23.464844 15.535156 23.53125 15.480469 23.625 C 15.429688 23.722656 15.414062 23.828125 15.445312 23.933594 C 15.476562 24.042969 15.539062 24.125 15.632812 24.179688 C 17.066406 24.988281 18.339844 26.375 18.355469 26.386719 C 18.433594 26.476562 18.726562 26.582031 18.921875 26.410156 C 19.003906 26.332031 19.046875 26.238281 19.050781 26.125 C 19.054688 26.011719 19.019531 25.914062 18.945312 25.832031 C 18.886719 25.773438 17.570312 24.339844 16.023438 23.464844 Z M 16.023438 23.464844 " fill-opacity="1" fill-rule="nonzero"/><path fill="#000000" d="M 16.023438 26.480469 C 15.925781 26.429688 15.824219 26.417969 15.71875 26.449219 C 15.613281 26.480469 15.535156 26.546875 15.480469 26.644531 C 15.429688 26.742188 15.414062 26.84375 15.445312 26.949219 C 15.476562 27.058594 15.539062 27.140625 15.632812 27.195312 C 17.0625 28.003906 18.339844 29.390625 18.355469 29.402344 C 18.433594 29.492188 18.734375 29.601562 18.921875 29.425781 C 19.003906 29.347656 19.046875 29.253906 19.050781 29.140625 C 19.054688 29.027344 19.019531 28.929688 18.945312 28.847656 C 18.886719 28.789062 17.570312 27.355469 16.023438 26.480469 Z M 16.023438 26.480469 " fill-opacity="1" fill-rule="nonzero"/><g clip-path="url(#8efeab49af)"><path fill="#000000" d="M 39.96875 16.273438 C 39.324219 15.945312 38.664062 15.65625 37.988281 15.40625 C 37.882812 15.367188 37.78125 15.371094 37.679688 15.417969 C 37.582031 15.46875 37.511719 15.542969 37.472656 15.652344 C 37.4375 15.757812 37.441406 15.859375 37.488281 15.960938 C 37.535156 16.066406 37.609375 16.136719 37.714844 16.171875 C 38.269531 16.378906 38.828125 16.617188 39.386719 16.890625 L 39.386719 37.738281 C 32.867188 34.800781 26.628906 35.824219 21.804688 37.757812 L 21.804688 16.898438 C 22.074219 16.773438 22.582031 16.554688 23.285156 16.308594 C 23.390625 16.273438 23.46875 16.207031 23.519531 16.101562 C 23.570312 16 23.578125 15.894531 23.539062 15.785156 C 23.503906 15.679688 23.433594 15.597656 23.332031 15.550781 C 23.230469 15.5 23.128906 15.496094 23.019531 15.535156 C 22.371094 15.765625 21.875 15.96875 21.574219 16.105469 C 18.871094 11.859375 14.5625 8.589844 7.089844 7.90625 C 6.972656 7.898438 6.875 7.933594 6.789062 8.015625 C 6.703125 8.09375 6.660156 8.195312 6.660156 8.3125 L 6.660156 14.847656 C 5.980469 15.039062 4.292969 15.546875 2.929688 16.277344 C 2.789062 16.355469 2.71875 16.472656 2.71875 16.636719 L 2.71875 41.816406 C 2.71875 41.953125 2.773438 42.066406 2.878906 42.148438 C 2.984375 42.234375 3.101562 42.257812 3.234375 42.226562 C 13.183594 39.398438 19.921875 41.859375 21.402344 42.214844 C 22.882812 41.859375 29.734375 39.398438 39.679688 42.226562 C 40.007812 42.289062 40.191406 42.117188 40.191406 41.820312 L 40.191406 16.636719 C 40.191406 16.46875 40.117188 16.347656 39.96875 16.273438 Z M 3.523438 16.886719 C 4.539062 16.402344 5.582031 16.003906 6.660156 15.695312 L 6.660156 30.027344 C 6.660156 30.132812 6.695312 30.226562 6.769531 30.304688 C 6.839844 30.382812 6.929688 30.425781 7.03125 30.433594 C 13.863281 31.066406 17.679688 33.808594 20.417969 37.515625 C 15.421875 35.734375 10.03125 34.902344 3.523438 37.738281 Z M 21 41.261719 C 15.9375 39.828125 10.816406 39.453125 3.523438 41.296875 L 3.523438 40.421875 C 11.335938 36.964844 19.742188 39.933594 21 40.414062 Z M 21 39.542969 C 16.292969 37.90625 9.792969 36.957031 3.523438 39.535156 L 3.523438 38.640625 C 9.808594 35.554688 16.5625 36.691406 21 38.644531 Z M 21 36.929688 C 20.476562 36.1875 16.816406 30.339844 7.464844 29.652344 L 7.464844 8.757812 C 14.335938 9.421875 18.738281 12.878906 21 16.738281 Z M 39.386719 41.296875 C 33.296875 39.484375 25.914062 39.949219 21.804688 41.261719 L 21.804688 40.421875 C 22.988281 39.96875 31.523438 36.941406 39.386719 40.421875 Z M 39.386719 39.535156 C 33.128906 36.945312 26.492188 37.917969 21.804688 39.550781 L 21.804688 38.648438 C 23.238281 38 31.351562 34.695312 39.386719 38.640625 Z M 39.386719 39.535156 " fill-opacity="1" fill-rule="nonzero"/></g><path fill="#000000" d="M 39.527344 10.382812 C 39.402344 8.0625 37.210938 6.226562 34.945312 6.5625 C 33.164062 3.292969 28.371094 3.285156 26.578125 6.550781 C 21.605469 6.089844 20.363281 13.578125 25.003906 14.722656 C 25.273438 14.769531 25.492188 14.902344 25.667969 15.113281 C 25.84375 15.324219 25.933594 15.566406 25.9375 15.84375 L 25.9375 21.191406 C 25.9375 21.429688 25.980469 21.65625 26.070312 21.875 C 26.160156 22.089844 26.285156 22.285156 26.449219 22.449219 C 26.613281 22.617188 26.804688 22.746094 27.019531 22.835938 C 27.234375 22.925781 27.457031 22.972656 27.6875 22.972656 L 33.824219 22.972656 C 34.058594 22.972656 34.28125 22.925781 34.496094 22.835938 C 34.710938 22.746094 34.902344 22.617188 35.066406 22.449219 C 35.230469 22.285156 35.355469 22.089844 35.445312 21.875 C 35.535156 21.65625 35.578125 21.429688 35.578125 21.191406 L 35.578125 15.855469 C 35.582031 15.589844 35.664062 15.355469 35.828125 15.148438 C 35.992188 14.941406 36.199219 14.804688 36.457031 14.746094 C 38.246094 14.308594 39.652344 12.308594 39.527344 10.382812 Z M 33.824219 22.15625 L 27.6875 22.15625 C 26.984375 22.128906 26.675781 21.554688 26.742188 20.894531 C 27.339844 21.070312 28.566406 21.308594 30.824219 21.308594 C 33.007812 21.308594 34.195312 21.242188 34.773438 21.195312 C 34.773438 21.460938 34.679688 21.6875 34.496094 21.875 C 34.3125 22.0625 34.085938 22.15625 33.824219 22.15625 Z M 36.265625 13.953125 C 36.253906 13.957031 35.191406 14.207031 33.546875 14.132812 C 33.015625 14.117188 32.984375 14.910156 33.511719 14.945312 C 34.007812 14.96875 34.507812 14.964844 35.003906 14.933594 C 34.851562 15.222656 34.773438 15.53125 34.773438 15.855469 L 34.773438 20.375 C 34.515625 20.398438 34.089844 20.425781 33.449219 20.449219 L 33.449219 17.613281 C 33.449219 17.5 33.410156 17.402344 33.332031 17.324219 C 33.253906 17.242188 33.15625 17.203125 33.046875 17.203125 C 32.933594 17.203125 32.839844 17.242188 32.761719 17.324219 C 32.683594 17.402344 32.644531 17.5 32.644531 17.613281 L 32.644531 20.472656 C 32.230469 20.484375 31.757812 20.488281 31.214844 20.492188 L 31.214844 17.613281 C 31.214844 17.5 31.175781 17.402344 31.097656 17.324219 C 31.019531 17.242188 30.925781 17.203125 30.8125 17.203125 C 30.703125 17.203125 30.605469 17.242188 30.527344 17.324219 C 30.449219 17.402344 30.410156 17.5 30.410156 17.613281 L 30.410156 20.488281 C 29.867188 20.480469 29.390625 20.457031 28.980469 20.425781 L 28.980469 17.613281 C 28.980469 17.5 28.941406 17.402344 28.863281 17.324219 C 28.785156 17.242188 28.691406 17.203125 28.578125 17.203125 C 28.46875 17.203125 28.375 17.242188 28.292969 17.324219 C 28.214844 17.402344 28.175781 17.5 28.175781 17.613281 L 28.175781 20.34375 C 27.6875 20.292969 27.207031 20.191406 26.738281 20.035156 L 26.738281 15.84375 C 26.738281 15.617188 26.695312 15.394531 26.621094 15.179688 C 26.542969 14.96875 26.429688 14.773438 26.289062 14.597656 C 26.144531 14.421875 25.976562 14.277344 25.785156 14.160156 C 25.589844 14.046875 25.382812 13.964844 25.164062 13.921875 C 23.507812 13.578125 22.914062 12.011719 22.914062 10.660156 C 22.914062 10.210938 23.003906 9.78125 23.175781 9.367188 C 23.347656 8.957031 23.589844 8.59375 23.90625 8.28125 C 24.226562 7.96875 24.589844 7.734375 25 7.570312 C 25.414062 7.410156 25.839844 7.335938 26.28125 7.351562 C 26.210938 7.6875 26.179688 8.03125 26.183594 8.378906 C 26.199219 8.914062 26.984375 8.90625 26.988281 8.371094 C 26.976562 7.957031 27.035156 7.554688 27.164062 7.164062 C 28.609375 4.160156 32.933594 4.175781 34.363281 7.1875 C 34.492188 7.570312 34.550781 7.964844 34.535156 8.371094 C 34.539062 8.90625 35.328125 8.914062 35.339844 8.375 C 35.347656 8.03125 35.3125 7.691406 35.246094 7.355469 C 37.003906 7.203125 38.625 8.648438 38.726562 10.4375 C 38.824219 11.964844 37.675781 13.609375 36.265625 13.953125 Z M 36.265625 13.953125 " fill-opacity="1" fill-rule="nonzero"/><path fill="#000000" d="M 33.792969 29.546875 C 34.574219 29.679688 35.261719 29.476562 35.855469 28.945312 L 37.085938 27.847656 C 37.171875 27.773438 37.21875 27.679688 37.226562 27.566406 C 37.234375 27.453125 37.203125 27.351562 37.128906 27.269531 C 37.054688 27.183594 36.960938 27.136719 36.847656 27.128906 C 36.738281 27.125 36.640625 27.160156 36.554688 27.234375 L 35.324219 28.332031 C 34.308594 29.230469 33.441406 28.28125 32.230469 29.066406 L 31.777344 28.714844 C 32.152344 28.308594 32.371094 27.828125 32.433594 27.273438 C 32.449219 26.761719 32.640625 26.328125 33.011719 25.976562 L 34.378906 24.726562 C 34.460938 24.652344 34.507812 24.558594 34.511719 24.445312 C 34.519531 24.332031 34.484375 24.234375 34.410156 24.148438 C 34.335938 24.066406 34.242188 24.019531 34.132812 24.015625 C 34.019531 24.007812 33.921875 24.042969 33.839844 24.121094 L 32.472656 25.371094 C 31.332031 26.390625 31.984375 27.359375 31.132812 28.214844 L 26.148438 24.347656 C 26.09375 24.304688 26.035156 24.277344 25.964844 24.269531 C 25.898438 24.257812 25.832031 24.265625 25.765625 24.289062 C 25.703125 24.3125 25.644531 24.351562 25.601562 24.40625 C 25.554688 24.457031 25.527344 24.519531 25.511719 24.585938 C 24.847656 27.542969 26.015625 29.710938 28.609375 30.265625 L 25.734375 32.496094 C 24.703125 33.359375 25.847656 34.914062 26.953125 34.152344 L 30.296875 31.679688 C 30.71875 31.359375 30.257812 30.710938 29.824219 31.019531 L 26.480469 33.492188 C 26.367188 33.578125 26.265625 33.5625 26.179688 33.449219 C 26.09375 33.332031 26.109375 33.230469 26.222656 33.144531 L 29.730469 30.421875 C 30.128906 30.421875 30.527344 30.488281 30.84375 30.734375 L 35.429688 34.152344 C 35.65625 34.316406 35.90625 34.378906 36.179688 34.335938 C 36.457031 34.296875 36.675781 34.160156 36.84375 33.933594 C 37.011719 33.710938 37.074219 33.457031 37.039062 33.175781 C 37 32.894531 36.871094 32.667969 36.652344 32.496094 L 32.949219 29.625 C 33.226562 29.527344 33.503906 29.5 33.792969 29.546875 Z M 36.160156 33.144531 C 36.269531 33.230469 36.285156 33.328125 36.207031 33.441406 C 36.175781 33.492188 36.128906 33.523438 36.070312 33.535156 C 36.007812 33.546875 35.953125 33.53125 35.90625 33.492188 L 31.320312 30.078125 C 30.921875 29.78125 30.472656 29.628906 29.980469 29.617188 C 27.710938 29.574219 25.765625 28.398438 26.191406 25.40625 Z M 36.160156 33.144531 " fill-opacity="1" fill-rule="nonzero"/><path fill="#000000" d="M 33.070312 28.109375 C 33.144531 28.195312 33.234375 28.242188 33.347656 28.253906 C 33.457031 28.261719 33.554688 28.230469 33.640625 28.15625 L 35.667969 26.402344 C 35.75 26.328125 35.796875 26.238281 35.804688 26.125 C 35.816406 26.011719 35.78125 25.914062 35.710938 25.828125 C 35.640625 25.742188 35.546875 25.695312 35.4375 25.6875 C 35.328125 25.675781 35.230469 25.707031 35.144531 25.78125 L 33.117188 27.535156 C 33.03125 27.609375 32.984375 27.699219 32.976562 27.8125 C 32.96875 27.925781 33 28.023438 33.070312 28.109375 Z M 33.070312 28.109375 " fill-opacity="1" fill-rule="nonzero"/></svg>