<svg xmlns="http://www.w3.org/2000/svg" xmlns:xlink="http://www.w3.org/1999/xlink" width="60" zoomAndPan="magnify" viewBox="0 0 45 44.999999" height="60" preserveAspectRatio="xMidYMid meet" version="1.0"><defs><clipPath id="62877a4495"><path d="M 8.019531 1.664062 L 37.269531 1.664062 L 37.269531 43.664062 L 8.019531 43.664062 Z M 8.019531 1.664062 " clip-rule="nonzero"/></clipPath></defs><g clip-path="url(#62877a4495)"><path fill="#000000" d="M 35.109375 1.664062 L 10.175781 1.664062 C 8.988281 1.664062 8.019531 2.632812 8.019531 3.816406 L 8.019531 41.507812 C 8.019531 42.691406 8.988281 43.660156 10.175781 43.660156 L 35.109375 43.660156 C 36.296875 43.660156 37.269531 42.691406 37.269531 41.507812 L 37.269531 3.816406 C 37.269531 2.632812 36.296875 1.664062 35.109375 1.664062 Z M 36.554688 41.507812 C 36.554688 42.300781 35.902344 42.949219 35.109375 42.949219 L 10.175781 42.949219 C 9.382812 42.949219 8.730469 42.300781 8.730469 41.507812 L 8.730469 3.816406 C 8.730469 3.023438 9.382812 2.375 10.175781 2.375 L 35.109375 2.375 C 35.902344 2.375 36.554688 3.023438 36.554688 3.816406 Z M 36.554688 41.507812 " fill-opacity="1" fill-rule="nonzero"/></g><path fill="#000000" d="M 11.941406 21.59375 L 19.789062 21.59375 C 19.984375 21.59375 20.144531 21.433594 20.144531 21.238281 L 20.144531 11.984375 C 20.144531 11.789062 19.984375 11.628906 19.789062 11.628906 L 11.941406 11.628906 C 11.746094 11.628906 11.585938 11.789062 11.585938 11.984375 L 11.585938 21.238281 C 11.585938 21.433594 11.746094 21.59375 11.941406 21.59375 Z M 15.867188 16.613281 C 15.082031 16.613281 14.4375 15.972656 14.4375 15.1875 C 14.4375 14.40625 15.082031 13.765625 15.867188 13.765625 C 16.652344 13.765625 17.292969 14.40625 17.292969 15.1875 C 17.292969 15.972656 16.652344 16.613281 15.867188 16.613281 Z M 16.488281 17.324219 C 17.328125 17.324219 18.007812 18 18.007812 18.835938 L 18.007812 20.882812 L 13.726562 20.882812 L 13.726562 18.835938 C 13.726562 18 14.402344 17.324219 15.242188 17.324219 Z M 12.296875 12.339844 L 19.433594 12.339844 L 19.433594 20.882812 L 18.71875 20.882812 L 18.71875 18.835938 C 18.71875 17.902344 18.128906 17.09375 17.308594 16.773438 C 17.738281 16.382812 18.007812 15.820312 18.007812 15.199219 C 18.007812 14.023438 17.042969 13.0625 15.867188 13.0625 C 14.6875 13.0625 13.726562 14.023438 13.726562 15.199219 C 13.726562 15.820312 13.992188 16.382812 14.421875 16.773438 C 13.589844 17.09375 13.011719 17.902344 13.011719 18.835938 L 13.011719 20.882812 L 12.296875 20.882812 Z M 12.296875 12.339844 " fill-opacity="1" fill-rule="nonzero"/><path fill="#000000" d="M 12.273438 7.546875 L 12.796875 7.546875 C 13.304688 7.5625 13.539062 7.785156 13.664062 8.382812 C 13.789062 8.914062 13.878906 9.289062 13.949219 9.414062 L 14.527344 9.414062 C 14.4375 9.246094 14.332031 8.828125 14.199219 8.230469 C 14.089844 7.785156 13.894531 7.472656 13.566406 7.359375 L 13.566406 7.339844 C 14.019531 7.1875 14.375 6.808594 14.375 6.238281 C 14.375 5.90625 14.25 5.605469 14.039062 5.417969 C 13.769531 5.179688 13.386719 5.0625 12.789062 5.0625 C 12.40625 5.0625 11.996094 5.097656 11.71875 5.152344 L 11.71875 9.414062 L 12.28125 9.414062 L 12.28125 7.546875 Z M 12.273438 5.542969 C 12.359375 5.515625 12.558594 5.488281 12.824219 5.488281 C 13.414062 5.5 13.824219 5.738281 13.824219 6.300781 C 13.824219 6.789062 13.449219 7.117188 12.851562 7.117188 L 12.28125 7.117188 L 12.28125 5.542969 Z M 12.273438 5.542969 " fill-opacity="1" fill-rule="nonzero"/><path fill="#000000" d="M 17.605469 8.949219 L 15.730469 8.949219 L 15.730469 7.394531 L 17.410156 7.394531 L 17.410156 6.929688 L 15.730469 6.929688 L 15.730469 5.5625 L 17.507812 5.5625 L 17.507812 5.097656 L 15.171875 5.097656 L 15.171875 9.414062 L 17.605469 9.414062 Z M 17.605469 8.949219 " fill-opacity="1" fill-rule="nonzero"/><path fill="#000000" d="M 19.253906 9.023438 C 18.871094 9.023438 18.503906 8.898438 18.253906 8.738281 L 18.113281 9.210938 C 18.34375 9.359375 18.800781 9.484375 19.21875 9.484375 C 20.234375 9.484375 20.734375 8.90625 20.734375 8.238281 C 20.734375 7.609375 20.359375 7.25 19.628906 6.96875 C 19.03125 6.734375 18.773438 6.539062 18.773438 6.128906 C 18.773438 5.835938 18.996094 5.480469 19.585938 5.480469 C 19.976562 5.480469 20.261719 5.605469 20.40625 5.6875 L 20.554688 5.230469 C 20.359375 5.125 20.039062 5.019531 19.601562 5.019531 C 18.765625 5.019531 18.203125 5.515625 18.203125 6.191406 C 18.203125 6.796875 18.640625 7.164062 19.34375 7.421875 C 19.933594 7.644531 20.15625 7.875 20.15625 8.273438 C 20.164062 8.71875 19.824219 9.023438 19.253906 9.023438 Z M 19.253906 9.023438 " fill-opacity="1" fill-rule="nonzero"/><path fill="#000000" d="M 23.042969 9.484375 C 23.980469 9.484375 24.683594 8.941406 24.683594 7.617188 L 24.683594 5.097656 L 24.125 5.097656 L 24.125 7.652344 C 24.125 8.605469 23.714844 9.03125 23.070312 9.03125 C 22.492188 9.03125 22.0625 8.621094 22.0625 7.652344 L 22.0625 5.097656 L 21.5 5.097656 L 21.5 7.644531 C 21.492188 8.976562 22.152344 9.484375 23.042969 9.484375 Z M 23.042969 9.484375 " fill-opacity="1" fill-rule="nonzero"/><path fill="#000000" d="M 26.183594 7.5625 C 26.21875 6.914062 26.253906 6.191406 26.265625 5.648438 L 26.273438 5.648438 C 26.398438 6.167969 26.566406 6.71875 26.773438 7.332031 L 27.46875 9.386719 L 27.894531 9.386719 L 28.664062 7.296875 C 28.875 6.699219 29.0625 6.167969 29.207031 5.660156 L 29.222656 5.660156 C 29.214844 6.191406 29.261719 6.921875 29.285156 7.527344 L 29.394531 9.421875 L 29.9375 9.421875 L 29.671875 5.105469 L 28.957031 5.105469 L 28.191406 7.199219 C 27.992188 7.742188 27.84375 8.210938 27.734375 8.648438 L 27.726562 8.648438 C 27.621094 8.203125 27.46875 7.722656 27.289062 7.199219 L 26.550781 5.105469 L 25.835938 5.105469 L 25.53125 9.421875 L 26.066406 9.421875 Z M 26.183594 7.5625 " fill-opacity="1" fill-rule="nonzero"/><path fill="#000000" d="M 33.246094 8.949219 L 31.375 8.949219 L 31.375 7.394531 L 33.050781 7.394531 L 33.050781 6.929688 L 31.375 6.929688 L 31.375 5.5625 L 33.148438 5.5625 L 33.148438 5.097656 L 30.8125 5.097656 L 30.8125 9.414062 L 33.246094 9.414062 Z M 33.246094 8.949219 " fill-opacity="1" fill-rule="nonzero"/><path fill="#000000" d="M 33.34375 11.984375 L 24.070312 11.984375 C 23.675781 11.984375 23.355469 12.304688 23.355469 12.695312 C 23.355469 13.089844 23.675781 13.410156 24.070312 13.410156 L 33.34375 13.410156 C 33.738281 13.410156 34.058594 13.089844 34.058594 12.695312 C 34.058594 12.304688 33.738281 11.984375 33.34375 11.984375 Z M 33.34375 11.984375 " fill-opacity="1" fill-rule="nonzero"/><path fill="#000000" d="M 24.070312 15.902344 L 29.0625 15.902344 C 29.261719 15.902344 29.421875 15.742188 29.421875 15.542969 C 29.421875 15.347656 29.261719 15.1875 29.0625 15.1875 L 24.070312 15.1875 C 23.875 15.1875 23.714844 15.347656 23.714844 15.542969 C 23.714844 15.742188 23.875 15.902344 24.070312 15.902344 Z M 24.070312 15.902344 " fill-opacity="1" fill-rule="nonzero"/><path fill="#000000" d="M 24.070312 18.035156 L 29.0625 18.035156 C 29.261719 18.035156 29.421875 17.875 29.421875 17.679688 C 29.421875 17.484375 29.261719 17.324219 29.0625 17.324219 L 24.070312 17.324219 C 23.875 17.324219 23.714844 17.484375 23.714844 17.679688 C 23.714844 17.875 23.875 18.035156 24.070312 18.035156 Z M 24.070312 18.035156 " fill-opacity="1" fill-rule="nonzero"/><path fill="#000000" d="M 24.070312 20.171875 L 29.0625 20.171875 C 29.261719 20.171875 29.421875 20.011719 29.421875 19.816406 C 29.421875 19.621094 29.261719 19.460938 29.0625 19.460938 L 24.070312 19.460938 C 23.875 19.460938 23.714844 19.621094 23.714844 19.816406 C 23.714844 20.011719 23.875 20.171875 24.070312 20.171875 Z M 24.070312 20.171875 " fill-opacity="1" fill-rule="nonzero"/><path fill="#000000" d="M 11.226562 28 L 26.210938 28 C 26.40625 28 26.566406 27.839844 26.566406 27.644531 C 26.566406 27.449219 26.40625 27.289062 26.210938 27.289062 L 11.226562 27.289062 C 11.03125 27.289062 10.871094 27.449219 10.871094 27.644531 C 10.871094 27.839844 11.03125 28 11.226562 28 Z M 11.226562 28 " fill-opacity="1" fill-rule="nonzero"/><path fill="#000000" d="M 11.226562 30.136719 L 26.210938 30.136719 C 26.40625 30.136719 26.566406 29.976562 26.566406 29.78125 C 26.566406 29.585938 26.40625 29.425781 26.210938 29.425781 L 11.226562 29.425781 C 11.03125 29.425781 10.871094 29.585938 10.871094 29.78125 C 10.871094 29.976562 11.03125 30.136719 11.226562 30.136719 Z M 11.226562 30.136719 " fill-opacity="1" fill-rule="nonzero"/><path fill="#000000" d="M 11.226562 32.273438 L 26.210938 32.273438 C 26.40625 32.273438 26.566406 32.113281 26.566406 31.917969 C 26.566406 31.722656 26.40625 31.5625 26.210938 31.5625 L 11.226562 31.5625 C 11.03125 31.5625 10.871094 31.722656 10.871094 31.917969 C 10.871094 32.113281 11.03125 32.273438 11.226562 32.273438 Z M 11.226562 32.273438 " fill-opacity="1" fill-rule="nonzero"/><path fill="#000000" d="M 11.226562 37.96875 L 24.785156 37.96875 C 24.980469 37.96875 25.140625 37.808594 25.140625 37.609375 C 25.140625 37.414062 24.980469 37.253906 24.785156 37.253906 L 11.226562 37.253906 C 11.03125 37.253906 10.871094 37.414062 10.871094 37.609375 C 10.871094 37.808594 11.03125 37.96875 11.226562 37.96875 Z M 11.226562 37.96875 " fill-opacity="1" fill-rule="nonzero"/><path fill="#000000" d="M 32.632812 39.390625 L 11.226562 39.390625 C 11.03125 39.390625 10.871094 39.550781 10.871094 39.746094 C 10.871094 39.941406 11.03125 40.101562 11.226562 40.101562 L 32.632812 40.101562 C 32.828125 40.101562 32.988281 39.941406 32.988281 39.746094 C 32.988281 39.550781 32.828125 39.390625 32.632812 39.390625 Z M 32.632812 39.390625 " fill-opacity="1" fill-rule="nonzero"/><path fill="#000000" d="M 11.941406 25.511719 L 18.363281 25.511719 C 18.753906 25.511719 19.074219 25.191406 19.074219 24.796875 C 19.074219 24.40625 18.753906 24.085938 18.363281 24.085938 L 11.941406 24.085938 C 11.550781 24.085938 11.226562 24.40625 11.226562 24.796875 C 11.226562 25.191406 11.550781 25.511719 11.941406 25.511719 Z M 11.941406 25.511719 " fill-opacity="1" fill-rule="nonzero"/><path fill="#000000" d="M 11.941406 34.050781 C 11.550781 34.050781 11.226562 34.371094 11.226562 34.765625 C 11.226562 35.15625 11.550781 35.476562 11.941406 35.476562 L 18.363281 35.476562 C 18.753906 35.476562 19.074219 35.15625 19.074219 34.765625 C 19.074219 34.371094 18.753906 34.050781 18.363281 34.050781 Z M 11.941406 34.050781 " fill-opacity="1" fill-rule="nonzero"/></svg>