<svg xmlns="http://www.w3.org/2000/svg" xmlns:xlink="http://www.w3.org/1999/xlink" width="60" zoomAndPan="magnify" viewBox="0 0 45 44.999999" height="60" preserveAspectRatio="xMidYMid meet" version="1.0"><defs><clipPath id="23abe3f1d3"><path d="M 5.671875 5 L 40.171875 5 L 40.171875 40.5 L 5.671875 40.5 Z M 5.671875 5 " clip-rule="nonzero"/></clipPath></defs><g clip-path="url(#23abe3f1d3)"><path fill="#000000" d="M 39.316406 35.015625 L 35.03125 30.148438 C 34.722656 29.800781 34.304688 29.605469 33.84375 29.570312 C 33.386719 29.53125 32.925781 29.683594 32.582031 29.992188 L 31.855469 30.648438 L 30.246094 28.796875 C 33.84375 25.28125 35.144531 20.066406 33.613281 15.238281 L 36.867188 11.953125 L 37.746094 12.84375 C 37.898438 12.996094 38.128906 13.035156 38.320312 12.996094 C 38.511719 12.921875 38.664062 12.765625 38.703125 12.535156 L 39.660156 6.507812 C 39.699219 6.316406 39.621094 6.121094 39.507812 6.007812 C 39.390625 5.890625 39.199219 5.8125 39.007812 5.851562 L 33.078125 6.816406 C 32.847656 6.855469 32.695312 7.011719 32.621094 7.203125 C 32.542969 7.398438 32.621094 7.628906 32.773438 7.785156 L 33.652344 8.671875 L 31.355469 10.949219 C 31.242188 10.796875 31.089844 10.640625 30.972656 10.488281 C 26.191406 5.039062 17.886719 4.5 12.457031 9.328125 C 11.726562 9.984375 11.117188 10.679688 10.582031 11.414062 C 10.582031 11.414062 10.542969 11.453125 10.542969 11.453125 C 9.816406 12.457031 9.242188 13.578125 8.820312 14.734375 C 8.78125 14.890625 8.742188 14.96875 8.742188 15.046875 C 7.519531 18.714844 7.902344 22.847656 10.007812 26.285156 L 6.257812 26.285156 C 5.949219 26.246094 5.683594 26.515625 5.683594 26.828125 L 5.683594 38.335938 C 5.683594 38.644531 5.949219 38.917969 6.257812 38.917969 L 25.695312 38.917969 C 26 38.917969 26.269531 38.644531 26.269531 38.335938 L 26.269531 31.421875 C 27.378906 30.960938 28.449219 30.300781 29.40625 29.53125 L 31.011719 31.382812 L 30.285156 32.039062 C 29.941406 32.351562 29.75 32.773438 29.710938 33.238281 C 29.671875 33.703125 29.828125 34.164062 30.132812 34.511719 L 34.417969 39.378906 C 35.070312 40.113281 35.949219 40.5 36.867188 40.5 C 37.632812 40.5 38.398438 40.230469 39.007812 39.6875 C 39.660156 39.109375 40.042969 38.296875 40.082031 37.449219 C 40.15625 36.519531 39.890625 35.671875 39.316406 35.015625 Z M 34.878906 8.285156 L 34.378906 7.785156 L 38.472656 7.125 L 37.824219 11.257812 L 37.324219 10.757812 C 37.097656 10.527344 36.753906 10.527344 36.523438 10.757812 L 32.582031 14.660156 L 26.382812 20.917969 L 23.285156 17.789062 C 23.054688 17.554688 22.710938 17.554688 22.480469 17.789062 L 17.621094 22.65625 L 9.96875 14.96875 C 10.234375 14.195312 10.617188 13.460938 11.039062 12.804688 L 17.199219 19.023438 C 17.429688 19.253906 17.773438 19.253906 18.003906 19.023438 L 22.863281 14.15625 L 25.960938 17.285156 C 26.191406 17.515625 26.535156 17.515625 26.765625 17.285156 L 34.839844 9.171875 C 34.953125 9.058594 34.992188 8.902344 34.992188 8.75 C 34.992188 8.59375 34.953125 8.402344 34.878906 8.285156 Z M 13.21875 10.253906 C 18.15625 5.851562 25.730469 6.316406 30.09375 11.296875 C 30.246094 11.453125 30.398438 11.644531 30.515625 11.839844 L 26.382812 16.011719 L 23.285156 12.882812 C 23.054688 12.648438 22.710938 12.648438 22.480469 12.882812 L 17.621094 17.75 L 11.726562 11.839844 C 12.1875 11.257812 12.683594 10.71875 13.21875 10.253906 Z M 25.121094 37.757812 L 6.832031 37.757812 L 6.832031 27.40625 L 25.121094 27.40625 Z M 25.695312 26.246094 L 11.382812 26.246094 C 9.28125 23.273438 8.707031 19.5625 9.585938 16.203125 L 17.199219 23.890625 C 17.316406 24.007812 17.46875 24.046875 17.621094 24.046875 C 17.773438 24.046875 17.925781 24.007812 18.042969 23.890625 L 22.902344 19.023438 L 26 22.152344 C 26.230469 22.382812 26.574219 22.382812 26.804688 22.152344 L 32.734375 16.203125 C 33.882812 20.605469 32.503906 25.28125 29.097656 28.332031 C 28.257812 29.105469 27.300781 29.722656 26.304688 30.1875 L 26.304688 26.863281 C 26.269531 26.515625 26 26.246094 25.695312 26.246094 Z M 38.28125 38.800781 C 37.402344 39.574219 36.0625 39.496094 35.296875 38.605469 L 31.011719 33.703125 C 30.898438 33.585938 30.859375 33.429688 30.859375 33.277344 C 30.859375 33.121094 30.9375 32.96875 31.050781 32.890625 L 33.347656 30.84375 C 33.460938 30.765625 33.574219 30.6875 33.730469 30.6875 C 33.730469 30.6875 33.765625 30.6875 33.765625 30.6875 C 33.921875 30.6875 34.074219 30.765625 34.148438 30.882812 L 38.433594 35.789062 C 38.816406 36.210938 38.972656 36.753906 38.972656 37.332031 C 38.933594 37.910156 38.664062 38.414062 38.28125 38.800781 Z M 38.28125 38.800781 " fill-opacity="1" fill-rule="nonzero"/></g><path fill="#000000" d="M 8.359375 31.230469 C 8.359375 32.3125 9.242188 33.160156 10.273438 33.160156 L 10.582031 33.160156 C 11 33.160156 11.34375 33.507812 11.34375 33.933594 C 11.34375 34.359375 11 34.707031 10.582031 34.707031 L 8.933594 34.707031 C 8.628906 34.707031 8.359375 34.976562 8.359375 35.285156 C 8.359375 35.59375 8.628906 35.863281 8.933594 35.863281 L 10.582031 35.863281 C 11.652344 35.863281 12.492188 35.015625 12.492188 33.933594 C 12.492188 32.851562 11.613281 32.003906 10.582031 32.003906 L 10.273438 32.003906 C 9.851562 32.003906 9.507812 31.65625 9.507812 31.230469 C 9.507812 30.804688 9.851562 30.457031 10.273438 30.457031 L 11.917969 30.457031 C 12.226562 30.457031 12.492188 30.1875 12.492188 29.878906 C 12.492188 29.570312 12.226562 29.296875 11.917969 29.296875 L 10.273438 29.296875 C 9.242188 29.296875 8.359375 30.148438 8.359375 31.230469 Z M 8.359375 31.230469 " fill-opacity="1" fill-rule="nonzero"/><path fill="#000000" d="M 14.484375 35.863281 L 17.46875 35.863281 C 17.773438 35.863281 18.042969 35.59375 18.042969 35.285156 C 18.042969 34.976562 17.773438 34.707031 17.46875 34.707031 L 15.058594 34.707031 L 15.058594 33.160156 L 17.46875 33.160156 C 17.773438 33.160156 18.042969 32.890625 18.042969 32.582031 C 18.042969 32.273438 17.773438 32.003906 17.46875 32.003906 L 15.058594 32.003906 L 15.058594 30.457031 L 17.46875 30.457031 C 17.773438 30.457031 18.042969 30.1875 18.042969 29.878906 C 18.042969 29.570312 17.773438 29.296875 17.46875 29.296875 L 14.484375 29.296875 C 14.175781 29.296875 13.910156 29.570312 13.910156 29.878906 L 13.910156 35.285156 C 13.910156 35.59375 14.175781 35.863281 14.484375 35.863281 Z M 14.484375 35.863281 " fill-opacity="1" fill-rule="nonzero"/><path fill="#000000" d="M 21.523438 35.863281 C 22.671875 35.863281 23.589844 34.9375 23.589844 33.777344 L 23.589844 31.34375 C 23.589844 30.1875 22.671875 29.257812 21.523438 29.257812 C 20.375 29.257812 19.457031 30.1875 19.457031 31.34375 L 19.457031 33.777344 C 19.457031 34.9375 20.375 35.863281 21.523438 35.863281 Z M 20.605469 31.382812 C 20.605469 30.882812 21.027344 30.457031 21.523438 30.457031 C 22.019531 30.457031 22.441406 30.882812 22.441406 31.382812 L 22.441406 33.816406 C 22.441406 34.320312 22.019531 34.746094 21.523438 34.746094 C 21.027344 34.746094 20.605469 34.320312 20.605469 33.816406 Z M 20.605469 31.382812 " fill-opacity="1" fill-rule="nonzero"/></svg>