<svg xmlns="http://www.w3.org/2000/svg" xmlns:xlink="http://www.w3.org/1999/xlink" width="60" zoomAndPan="magnify" viewBox="0 0 45 44.999999" height="60" preserveAspectRatio="xMidYMid meet" version="1.0"><defs><clipPath id="4d545249d5"><path d="M 4 5.683594 L 33 5.683594 L 33 40 L 4 40 Z M 4 5.683594 " clip-rule="nonzero"/></clipPath><clipPath id="bbf10e79ac"><path d="M 37 20 L 42.167969 20 L 42.167969 40 L 37 40 Z M 37 20 " clip-rule="nonzero"/></clipPath></defs><g clip-path="url(#4d545249d5)"><path fill="#000000" d="M 17.621094 5.757812 C 17.265625 5.753906 16.90625 5.765625 16.554688 5.789062 C 12.300781 6.09375 8.359375 8.417969 6.140625 12.253906 C 3.195312 17.347656 3.972656 23.671875 8.21875 27.988281 C 10.160156 29.964844 10.484375 31.863281 10.039062 34.40625 L 9.234375 39.03125 C 9.082031 39.84375 10.308594 40.058594 10.441406 39.242188 L 11.25 34.617188 C 11.734375 31.84375 11.28125 29.359375 9.089844 27.128906 C 5.210938 23.191406 4.523438 17.5 7.203125 12.867188 C 9.882812 8.234375 15.335938 6.023438 20.542969 7.363281 C 22.371094 7.832031 24.597656 9.019531 26.316406 10.90625 C 28.039062 12.789062 29.269531 15.347656 29.207031 18.660156 C 29.207031 18.757812 29.226562 18.855469 29.269531 18.941406 L 31.503906 23.550781 C 31.695312 23.953125 31.648438 24.191406 31.398438 24.285156 L 29.300781 25.082031 C 29.046875 25.175781 28.882812 25.429688 28.902344 25.699219 L 29.042969 27.527344 L 25.761719 27.8125 C 25.441406 27.839844 25.199219 28.105469 25.199219 28.417969 C 25.199219 29.230469 25.589844 30 26.253906 30.515625 C 26.75 30.90625 27.507812 31.019531 28.257812 31.125 L 28.035156 32.984375 C 27.980469 33.433594 27.5625 33.554688 27.21875 33.664062 C 26.628906 33.851562 25.671875 33.835938 24.550781 33.671875 L 18.097656 31.839844 C 16.878906 31.496094 16.460938 31.023438 15.808594 29.898438 C 15.695312 29.699219 15.480469 29.574219 15.25 29.582031 C 14.78125 29.597656 14.5 30.109375 14.742188 30.507812 C 15.457031 31.742188 16.28125 32.597656 17.761719 33.015625 L 23.710938 34.707031 L 22.878906 39.019531 C 22.699219 39.839844 23.953125 40.078125 24.085938 39.25 L 24.929688 34.871094 C 25.886719 34.96875 26.816406 35.03125 27.527344 34.84375 C 28.507812 34.585938 29.152344 34.007812 29.257812 33.128906 L 29.535156 30.789062 C 29.578125 30.425781 29.296875 30.105469 28.925781 30.105469 C 28.050781 30.105469 27.410156 29.875 27.011719 29.558594 C 26.800781 29.394531 26.800781 29.160156 26.703125 28.957031 L 29.757812 28.691406 C 30.089844 28.660156 30.335938 28.367188 30.3125 28.035156 L 30.164062 26.058594 L 31.839844 25.425781 C 32.875 25.035156 33.039062 23.902344 32.613281 23.019531 L 30.398438 18.453125 C 30.398438 14.941406 29.082031 12.113281 27.226562 10.082031 C 25.332031 8.003906 22.925781 6.710938 20.851562 6.175781 C 19.777344 5.902344 18.695312 5.765625 17.621094 5.757812 Z M 17.621094 5.757812 " fill-opacity="1" fill-rule="evenodd"/></g><path fill="#000000" d="M 33.910156 26.398438 C 33.445312 26.417969 33.167969 26.921875 33.40625 27.320312 C 34.382812 29.007812 34.382812 31.085938 33.40625 32.773438 C 33.21875 33.070312 33.3125 33.460938 33.617188 33.632812 C 33.921875 33.8125 34.308594 33.695312 34.472656 33.382812 C 35.664062 31.320312 35.664062 28.773438 34.472656 26.714844 C 34.359375 26.511719 34.140625 26.390625 33.910156 26.398438 Z M 33.910156 26.398438 " fill-opacity="1" fill-rule="evenodd"/><path fill="#000000" d="M 35.25 22.867188 C 34.695312 22.867188 34.421875 23.535156 34.816406 23.921875 C 36.449219 25.546875 37.367188 27.75 37.367188 30.046875 C 37.367188 32.347656 36.449219 34.554688 34.816406 36.179688 C 34.238281 36.761719 35.109375 37.625 35.691406 37.046875 C 37.546875 35.191406 38.59375 32.671875 38.59375 30.046875 C 38.59375 27.425781 37.546875 24.910156 35.691406 23.054688 C 35.574219 22.9375 35.417969 22.871094 35.25 22.867188 Z M 35.25 22.867188 " fill-opacity="1" fill-rule="evenodd"/><g clip-path="url(#bbf10e79ac)"><path fill="#000000" d="M 37.78125 20.339844 C 37.230469 20.339844 36.957031 21.007812 37.355469 21.394531 C 39.652344 23.6875 40.941406 26.800781 40.941406 30.046875 C 40.941406 33.296875 39.652344 36.410156 37.355469 38.707031 C 37.09375 38.941406 37.082031 39.34375 37.332031 39.589844 C 37.578125 39.835938 37.984375 39.828125 38.21875 39.566406 C 40.75 37.042969 42.175781 33.621094 42.175781 30.046875 C 42.175781 26.480469 40.75 23.054688 38.21875 20.527344 C 38.105469 20.410156 37.945312 20.34375 37.78125 20.339844 Z M 37.78125 20.339844 " fill-opacity="1" fill-rule="evenodd"/></g></svg>