<svg xmlns="http://www.w3.org/2000/svg" xmlns:xlink="http://www.w3.org/1999/xlink" width="60" zoomAndPan="magnify" viewBox="0 0 45 44.999999" height="60" preserveAspectRatio="xMidYMid meet" version="1.0"><defs><clipPath id="a2f1511ea0"><path d="M 28 2.925781 L 43.273438 2.925781 L 43.273438 18 L 28 18 Z M 28 2.925781 " clip-rule="nonzero"/></clipPath><clipPath id="af454ad4e7"><path d="M 2.023438 29 L 17 29 L 17 44.175781 L 2.023438 44.175781 Z M 2.023438 29 " clip-rule="nonzero"/></clipPath></defs><path fill="#000000" d="M 13.863281 18.1875 C 14.546875 17.53125 15.097656 16.773438 15.507812 15.917969 C 15.921875 15.066406 16.171875 14.164062 16.257812 13.21875 L 11.488281 13.21875 C 11.6875 15.160156 12.476562 16.816406 13.863281 18.1875 Z M 13.863281 18.1875 " fill-opacity="1" fill-rule="nonzero"/><path fill="#000000" d="M 24.011719 22.769531 L 24.011719 6.820312 C 24.015625 6.53125 23.960938 6.257812 23.851562 5.992188 C 23.742188 5.722656 23.589844 5.488281 23.386719 5.285156 C 23.1875 5.078125 22.953125 4.921875 22.6875 4.808594 C 22.425781 4.695312 22.148438 4.636719 21.859375 4.632812 L 5.914062 4.632812 C 5.625 4.632812 5.34375 4.6875 5.078125 4.800781 C 4.808594 4.910156 4.574219 5.070312 4.367188 5.273438 C 4.164062 5.480469 4.003906 5.714844 3.894531 5.984375 C 3.785156 6.25 3.726562 6.53125 3.730469 6.820312 L 3.730469 22.769531 C 3.730469 23.058594 3.789062 23.332031 3.902344 23.597656 C 4.011719 23.863281 4.171875 24.09375 4.375 24.296875 C 4.582031 24.5 4.816406 24.652344 5.082031 24.761719 C 5.347656 24.871094 5.625 24.921875 5.914062 24.921875 L 21.855469 24.921875 C 22.140625 24.921875 22.417969 24.863281 22.679688 24.753906 C 22.941406 24.644531 23.175781 24.488281 23.378906 24.289062 C 23.578125 24.085938 23.734375 23.855469 23.84375 23.59375 C 23.957031 23.328125 24.011719 23.054688 24.011719 22.769531 Z M 19.582031 20.511719 C 19.820312 20.515625 20.023438 20.601562 20.1875 20.769531 C 20.355469 20.9375 20.441406 21.136719 20.445312 21.375 C 20.445312 21.613281 20.363281 21.816406 20.195312 21.984375 C 20.023438 22.152344 19.820312 22.238281 19.582031 22.238281 C 17.480469 22.242188 15.574219 21.636719 13.863281 20.417969 C 12.164062 21.636719 10.273438 22.246094 8.183594 22.238281 C 7.945312 22.238281 7.738281 22.15625 7.570312 21.984375 C 7.402344 21.816406 7.316406 21.613281 7.320312 21.375 C 7.324219 21.136719 7.410156 20.9375 7.578125 20.769531 C 7.742188 20.601562 7.945312 20.515625 8.183594 20.511719 C 9.738281 20.507812 11.179688 20.09375 12.496094 19.265625 C 11.699219 18.449219 11.0625 17.519531 10.585938 16.480469 C 10.109375 15.445312 9.820312 14.355469 9.71875 13.21875 L 8.1875 13.21875 C 7.957031 13.210938 7.761719 13.121094 7.605469 12.953125 C 7.445312 12.785156 7.363281 12.585938 7.363281 12.355469 C 7.363281 12.125 7.445312 11.925781 7.605469 11.757812 C 7.761719 11.589844 7.957031 11.503906 8.1875 11.492188 L 13.003906 11.492188 L 13.003906 8.179688 C 13.007812 7.945312 13.09375 7.742188 13.257812 7.574219 C 13.425781 7.40625 13.625 7.320312 13.863281 7.3125 C 14.101562 7.3125 14.304688 7.398438 14.476562 7.566406 C 14.644531 7.734375 14.730469 7.941406 14.726562 8.179688 L 14.726562 11.492188 L 19.570312 11.492188 C 19.800781 11.503906 19.996094 11.589844 20.15625 11.757812 C 20.316406 11.925781 20.394531 12.125 20.394531 12.355469 C 20.394531 12.585938 20.316406 12.785156 20.15625 12.953125 C 19.996094 13.121094 19.800781 13.210938 19.570312 13.21875 L 18.019531 13.21875 C 17.929688 14.355469 17.648438 15.445312 17.175781 16.484375 C 16.703125 17.523438 16.066406 18.449219 15.269531 19.265625 C 16.585938 20.101562 18.023438 20.515625 19.582031 20.511719 Z M 19.582031 20.511719 " fill-opacity="1" fill-rule="nonzero"/><path fill="#000000" d="M 39.402344 22.179688 L 25.742188 22.179688 L 25.742188 22.769531 C 25.738281 23.285156 25.640625 23.777344 25.441406 24.253906 C 25.242188 24.726562 24.960938 25.144531 24.597656 25.507812 C 24.234375 25.871094 23.816406 26.152344 23.339844 26.347656 C 22.867188 26.546875 22.371094 26.644531 21.855469 26.648438 L 21.296875 26.648438 L 21.296875 40.3125 C 21.296875 40.597656 21.351562 40.875 21.460938 41.136719 C 21.570312 41.402344 21.726562 41.636719 21.929688 41.835938 C 22.132812 42.039062 22.367188 42.195312 22.632812 42.304688 C 22.898438 42.410156 23.171875 42.464844 23.457031 42.464844 L 39.402344 42.464844 C 39.6875 42.464844 39.960938 42.410156 40.226562 42.300781 C 40.488281 42.191406 40.722656 42.035156 40.925781 41.832031 C 41.125 41.632812 41.28125 41.398438 41.390625 41.136719 C 41.5 40.871094 41.554688 40.597656 41.554688 40.3125 L 41.554688 24.363281 C 41.558594 24.074219 41.507812 23.796875 41.398438 23.53125 C 41.292969 23.261719 41.136719 23.027344 40.9375 22.820312 C 40.734375 22.617188 40.5 22.457031 40.234375 22.347656 C 39.96875 22.234375 39.691406 22.179688 39.402344 22.179688 Z M 36.109375 39.039062 C 35.886719 39.121094 35.667969 39.113281 35.449219 39.015625 C 35.230469 38.917969 35.078125 38.761719 34.988281 38.539062 L 33.953125 35.671875 L 28.925781 35.671875 L 27.875 38.539062 C 27.8125 38.707031 27.703125 38.839844 27.558594 38.941406 C 27.410156 39.042969 27.246094 39.09375 27.070312 39.09375 C 26.960938 39.09375 26.859375 39.074219 26.757812 39.039062 C 26.539062 38.957031 26.378906 38.808594 26.28125 38.597656 C 26.183594 38.382812 26.179688 38.167969 26.261719 37.949219 L 30.625 26.125 C 30.683594 25.953125 30.785156 25.8125 30.933594 25.703125 C 31.078125 25.597656 31.242188 25.542969 31.425781 25.539062 C 31.613281 25.539062 31.78125 25.59375 31.933594 25.699219 C 32.085938 25.808594 32.195312 25.949219 32.261719 26.125 L 36.613281 37.949219 C 36.699219 38.167969 36.691406 38.386719 36.59375 38.601562 C 36.492188 38.816406 36.332031 38.964844 36.109375 39.042969 Z M 36.109375 39.039062 " fill-opacity="1" fill-rule="nonzero"/><path fill="#000000" d="M 29.5625 33.953125 L 33.292969 33.953125 L 31.417969 28.890625 Z M 29.5625 33.953125 " fill-opacity="1" fill-rule="nonzero"/><g clip-path="url(#a2f1511ea0)"><path fill="#000000" d="M 43.285156 16.394531 C 43.285156 15.507812 43.195312 14.632812 43.023438 13.761719 C 42.851562 12.894531 42.59375 12.050781 42.257812 11.234375 C 41.917969 10.414062 41.503906 9.640625 41.011719 8.902344 C 40.519531 8.167969 39.960938 7.484375 39.332031 6.859375 C 38.707031 6.234375 38.027344 5.671875 37.289062 5.183594 C 36.554688 4.691406 35.777344 4.273438 34.957031 3.933594 C 34.140625 3.597656 33.296875 3.339844 32.429688 3.167969 C 31.5625 2.992188 30.683594 2.90625 29.796875 2.90625 C 29.5625 2.910156 29.359375 3 29.191406 3.167969 C 29.027344 3.335938 28.941406 3.535156 28.9375 3.773438 C 28.9375 4.011719 29.019531 4.214844 29.1875 4.382812 C 29.355469 4.550781 29.5625 4.636719 29.796875 4.632812 C 30.546875 4.632812 31.289062 4.703125 32.023438 4.847656 C 32.761719 4.988281 33.476562 5.199219 34.171875 5.476562 C 34.867188 5.757812 35.527344 6.097656 36.15625 6.503906 C 36.785156 6.910156 37.371094 7.371094 37.914062 7.886719 C 38.453125 8.40625 38.941406 8.96875 39.375 9.582031 C 39.808594 10.191406 40.179688 10.839844 40.488281 11.519531 C 40.796875 12.203125 41.039062 12.90625 41.214844 13.636719 C 41.386719 14.363281 41.492188 15.101562 41.523438 15.851562 L 38.574219 15.851562 C 38.335938 15.847656 38.128906 15.933594 37.960938 16.101562 C 37.789062 16.273438 37.707031 16.476562 37.707031 16.71875 C 37.710938 16.953125 37.796875 17.15625 37.964844 17.324219 C 38.136719 17.488281 38.335938 17.574219 38.574219 17.578125 L 42.417969 17.578125 C 42.65625 17.578125 42.859375 17.496094 43.03125 17.328125 C 43.199219 17.160156 43.285156 16.957031 43.285156 16.71875 C 43.277344 16.660156 43.265625 16.609375 43.25 16.554688 C 43.265625 16.503906 43.277344 16.449219 43.285156 16.394531 Z M 43.285156 16.394531 " fill-opacity="1" fill-rule="nonzero"/></g><g clip-path="url(#af454ad4e7)"><path fill="#000000" d="M 15.492188 42.464844 C 14.742188 42.464844 14.003906 42.390625 13.269531 42.25 C 12.535156 42.105469 11.824219 41.894531 11.128906 41.617188 C 10.4375 41.339844 9.777344 40.996094 9.148438 40.59375 C 8.519531 40.1875 7.933594 39.730469 7.394531 39.214844 C 6.851562 38.699219 6.367188 38.136719 5.933594 37.527344 C 5.5 36.917969 5.125 36.273438 4.8125 35.59375 C 4.503906 34.917969 4.257812 34.214844 4.082031 33.488281 C 3.902344 32.761719 3.796875 32.027344 3.757812 31.28125 L 6.742188 31.28125 C 6.976562 31.277344 7.179688 31.191406 7.347656 31.023438 C 7.515625 30.855469 7.601562 30.65625 7.605469 30.417969 C 7.605469 30.179688 7.523438 29.976562 7.355469 29.808594 C 7.183594 29.636719 6.980469 29.554688 6.742188 29.554688 L 2.863281 29.554688 C 2.628906 29.558594 2.429688 29.644531 2.265625 29.8125 C 2.101562 29.980469 2.019531 30.183594 2.023438 30.417969 C 2.027344 30.460938 2.035156 30.503906 2.046875 30.542969 C 2.039062 30.597656 2.03125 30.652344 2.023438 30.707031 C 2.027344 31.589844 2.113281 32.46875 2.285156 33.335938 C 2.457031 34.203125 2.714844 35.046875 3.054688 35.863281 C 3.390625 36.679688 3.804688 37.457031 4.296875 38.191406 C 4.789062 38.929688 5.347656 39.609375 5.972656 40.234375 C 6.597656 40.863281 7.277344 41.421875 8.015625 41.914062 C 8.75 42.40625 9.527344 42.820312 10.34375 43.160156 C 11.160156 43.5 12.003906 43.757812 12.871094 43.929688 C 13.738281 44.105469 14.613281 44.191406 15.5 44.191406 C 15.738281 44.199219 15.945312 44.117188 16.113281 43.945312 C 16.285156 43.773438 16.367188 43.566406 16.359375 43.328125 C 16.359375 43.085938 16.273438 42.882812 16.105469 42.714844 C 15.933594 42.546875 15.730469 42.464844 15.492188 42.464844 Z M 15.492188 42.464844 " fill-opacity="1" fill-rule="nonzero"/></g></svg>