<svg xmlns="http://www.w3.org/2000/svg" xmlns:xlink="http://www.w3.org/1999/xlink" width="60" zoomAndPan="magnify" viewBox="0 0 45 44.999999" height="60" preserveAspectRatio="xMidYMid meet" version="1.0"><defs><clipPath id="c732863853"><path d="M 3 4.5 L 40 4.5 L 40 41.25 L 3 41.25 Z M 3 4.5 " clip-rule="nonzero"/></clipPath></defs><g clip-path="url(#c732863853)"><path fill="#000000" d="M 35.441406 33.363281 C 34.402344 32.800781 33.222656 32.3125 31.941406 31.90625 L 31.820312 32.898438 C 32.910156 33.257812 33.917969 33.675781 34.816406 34.148438 C 32.402344 37.003906 29.09375 39.0625 25.332031 39.875 C 25.988281 39.347656 26.609375 38.675781 27.191406 37.867188 C 27.050781 37.679688 26.949219 37.460938 26.898438 37.222656 L 26.789062 36.703125 C 25.457031 38.800781 23.875 40.027344 22.214844 40.230469 L 22.214844 36.261719 C 22.0625 36.515625 21.851562 36.734375 21.589844 36.890625 L 21.347656 37.03125 C 21.3125 37.050781 21.273438 37.070312 21.234375 37.085938 L 21.234375 40.230469 C 19.230469 39.984375 17.339844 38.257812 15.867188 35.296875 C 15.382812 34.324219 14.964844 33.253906 14.613281 32.113281 C 15.285156 31.976562 15.976562 31.859375 16.683594 31.761719 C 16.710938 31.632812 16.746094 31.503906 16.796875 31.378906 L 16.328125 30.816406 C 15.648438 30.914062 14.984375 31.027344 14.339844 31.164062 C 13.707031 28.789062 13.355469 26.132812 13.316406 23.371094 L 19.429688 23.371094 L 18.433594 22.464844 C 18.402344 22.4375 18.378906 22.410156 18.351562 22.378906 L 13.316406 22.378906 C 13.355469 19.632812 13.703125 16.992188 14.328125 14.625 C 16.480469 15.074219 18.820312 15.328125 21.234375 15.359375 L 21.234375 18.980469 C 21.464844 19.011719 21.6875 19.070312 21.90625 19.164062 L 22.214844 19.292969 L 22.214844 15.359375 C 24.628906 15.328125 26.972656 15.074219 29.121094 14.625 C 29.71875 16.882812 30.058594 19.390625 30.121094 22.007812 L 31.039062 21.46875 C 31.054688 21.460938 31.070312 21.453125 31.085938 21.445312 C 30.988281 18.960938 30.648438 16.578125 30.078125 14.410156 C 32.105469 13.917969 33.9375 13.246094 35.464844 12.414062 C 37.550781 15.203125 38.824219 18.648438 38.929688 22.378906 L 36.753906 22.378906 C 36.820312 22.707031 36.800781 23.042969 36.707031 23.371094 L 38.929688 23.371094 C 38.824219 27.117188 37.542969 30.570312 35.441406 33.363281 Z M 8.632812 34.148438 C 10.066406 33.394531 11.769531 32.78125 13.652344 32.328125 C 14.027344 33.550781 14.472656 34.699219 14.992188 35.738281 C 15.890625 37.546875 16.953125 38.941406 18.117188 39.875 C 14.355469 39.0625 11.046875 37.003906 8.632812 34.148438 Z M 4.519531 23.371094 L 12.339844 23.371094 C 12.375 26.203125 12.734375 28.929688 13.382812 31.378906 C 11.359375 31.867188 9.53125 32.539062 8.007812 33.363281 C 5.90625 30.570312 4.625 27.117188 4.519531 23.371094 Z M 7.984375 12.417969 C 9.511719 13.246094 11.34375 13.917969 13.371094 14.410156 C 12.730469 16.851562 12.375 19.5625 12.339844 22.378906 L 4.519531 22.378906 C 4.625 18.648438 5.898438 15.207031 7.984375 12.417969 Z M 21.234375 5.519531 L 21.234375 14.367188 C 18.914062 14.339844 16.664062 14.097656 14.601562 13.675781 C 14.957031 12.519531 15.378906 11.4375 15.867188 10.453125 C 17.339844 7.492188 19.230469 5.765625 21.234375 5.519531 Z M 18.117188 5.875 C 16.953125 6.808594 15.890625 8.203125 14.992188 10.011719 C 14.46875 11.0625 14.015625 12.222656 13.640625 13.460938 C 11.75 13.003906 10.042969 12.390625 8.609375 11.632812 C 11.023438 8.761719 14.34375 6.691406 18.117188 5.875 Z M 22.214844 5.519531 C 24.21875 5.765625 26.109375 7.492188 27.582031 10.453125 C 28.070312 11.4375 28.492188 12.519531 28.847656 13.675781 C 26.785156 14.097656 24.535156 14.339844 22.214844 14.367188 Z M 34.839844 11.628906 C 33.40625 12.386719 31.699219 13.003906 29.808594 13.460938 C 29.433594 12.222656 28.980469 11.0625 28.457031 10.011719 C 27.558594 8.203125 26.496094 6.808594 25.332031 5.875 C 29.105469 6.691406 32.425781 8.761719 34.839844 11.628906 Z M 21.726562 4.5 C 11.695312 4.5 3.53125 12.742188 3.53125 22.875 C 3.53125 33.007812 11.695312 41.25 21.726562 41.25 C 31.757812 41.25 39.917969 33.007812 39.917969 22.875 C 39.917969 12.742188 31.757812 4.5 21.726562 4.5 " fill-opacity="1" fill-rule="nonzero"/></g><path fill="#000000" d="M 21.359375 27.414062 C 21.4375 27.355469 21.515625 27.296875 21.59375 27.238281 C 21.59375 27.238281 21.851562 27.050781 21.914062 27.007812 L 22.214844 26.703125 L 22.214844 25.902344 L 21.234375 25.011719 L 21.234375 27.507812 L 21.359375 27.414062 " fill-opacity="1" fill-rule="nonzero"/><path fill="#000000" d="M 16.667969 32.46875 C 13.960938 33.644531 11.398438 34.585938 9.128906 35.234375 C 4.289062 36.609375 2.109375 36.246094 1.679688 35.449219 C 1.273438 34.691406 2.074219 32.753906 5.542969 29.601562 L 4.890625 28.867188 C 1.386719 32.050781 0.015625 34.425781 0.820312 35.921875 C 1.273438 36.769531 2.359375 37.144531 3.890625 37.144531 C 6.960938 37.144531 11.828125 35.636719 17.039062 33.375 C 16.898438 33.179688 16.789062 32.957031 16.71875 32.714844 C 16.695312 32.632812 16.679688 32.550781 16.667969 32.46875 " fill-opacity="1" fill-rule="nonzero"/><path fill="#000000" d="M 43.871094 12.335938 C 43.074219 10.847656 40.382812 10.707031 35.878906 11.914062 L 36.132812 12.867188 C 40.585938 11.675781 42.605469 12.054688 43.011719 12.808594 C 43.4375 13.605469 42.550781 15.648438 38.769531 18.996094 C 37.953125 19.714844 37.050781 20.457031 36.078125 21.207031 C 36.09375 21.21875 36.109375 21.234375 36.125 21.246094 C 36.160156 21.28125 36.191406 21.3125 36.21875 21.34375 C 36.238281 21.359375 36.253906 21.378906 36.269531 21.394531 C 36.308594 21.4375 36.34375 21.484375 36.378906 21.53125 L 36.410156 21.578125 C 36.449219 21.628906 36.484375 21.6875 36.519531 21.742188 C 36.566406 21.828125 36.609375 21.917969 36.644531 22.007812 C 41.714844 18.125 44.980469 14.40625 43.871094 12.335938 " fill-opacity="1" fill-rule="nonzero"/><path fill="#000000" d="M 26.585938 29.492188 L 28.175781 36.945312 C 28.226562 37.175781 28.484375 37.292969 28.6875 37.171875 L 29.484375 36.707031 C 29.859375 36.484375 30.113281 36.097656 30.167969 35.664062 L 31.25 26.769531 L 33.371094 25.53125 C 33.425781 25.5 33.476562 25.464844 33.527344 25.433594 C 33.539062 25.425781 33.550781 25.417969 33.5625 25.410156 C 33.613281 25.378906 33.664062 25.34375 33.710938 25.3125 C 33.71875 25.304688 33.726562 25.296875 33.738281 25.292969 C 33.78125 25.261719 33.820312 25.230469 33.863281 25.199219 C 33.875 25.191406 33.882812 25.183594 33.894531 25.175781 C 33.941406 25.140625 33.984375 25.101562 34.027344 25.066406 C 34.039062 25.054688 34.054688 25.042969 34.0625 25.035156 C 34.105469 25 34.144531 24.964844 34.183594 24.929688 C 34.1875 24.925781 34.195312 24.917969 34.203125 24.914062 C 34.242188 24.875 34.285156 24.835938 34.324219 24.792969 C 34.335938 24.78125 34.351562 24.769531 34.363281 24.753906 C 34.402344 24.714844 34.441406 24.675781 34.476562 24.632812 C 34.488281 24.621094 34.5 24.613281 34.507812 24.601562 C 34.539062 24.566406 34.570312 24.53125 34.597656 24.496094 C 34.609375 24.484375 34.621094 24.46875 34.632812 24.453125 C 34.667969 24.414062 34.703125 24.371094 34.734375 24.328125 C 34.746094 24.3125 34.757812 24.296875 34.769531 24.28125 C 34.796875 24.246094 34.824219 24.210938 34.847656 24.171875 C 34.859375 24.160156 34.867188 24.148438 34.875 24.132812 C 34.910156 24.085938 34.941406 24.039062 34.96875 23.992188 C 34.984375 23.972656 34.996094 23.953125 35.007812 23.929688 C 35.03125 23.898438 35.050781 23.867188 35.070312 23.832031 C 35.082031 23.8125 35.09375 23.792969 35.105469 23.769531 C 35.128906 23.730469 35.152344 23.6875 35.175781 23.644531 C 35.179688 23.632812 35.1875 23.621094 35.191406 23.609375 C 35.21875 23.558594 35.246094 23.503906 35.273438 23.449219 C 35.28125 23.429688 35.289062 23.414062 35.296875 23.394531 C 35.316406 23.355469 35.332031 23.3125 35.351562 23.273438 C 35.359375 23.253906 35.367188 23.238281 35.375 23.21875 C 35.398438 23.160156 35.417969 23.105469 35.441406 23.046875 C 35.523438 22.820312 35.492188 22.589844 35.386719 22.402344 C 35.375 22.378906 35.359375 22.359375 35.347656 22.339844 C 35.34375 22.335938 35.339844 22.332031 35.335938 22.324219 C 35.324219 22.308594 35.308594 22.289062 35.292969 22.273438 C 35.289062 22.269531 35.285156 22.265625 35.28125 22.261719 C 35.269531 22.246094 35.257812 22.234375 35.246094 22.222656 C 35.238281 22.21875 35.230469 22.210938 35.226562 22.207031 C 35.210938 22.191406 35.195312 22.179688 35.179688 22.167969 C 35.167969 22.160156 35.160156 22.15625 35.152344 22.148438 C 35.140625 22.140625 35.128906 22.136719 35.117188 22.128906 C 35.109375 22.121094 35.101562 22.117188 35.09375 22.113281 C 35.074219 22.101562 35.054688 22.09375 35.035156 22.085938 C 35.023438 22.078125 35.015625 22.078125 35.003906 22.074219 C 34.992188 22.066406 34.976562 22.0625 34.960938 22.058594 C 34.953125 22.054688 34.941406 22.050781 34.933594 22.046875 C 34.910156 22.042969 34.886719 22.035156 34.859375 22.03125 C 33.769531 21.847656 32.652344 22.050781 31.695312 22.609375 L 31.453125 22.75 L 30.316406 23.417969 L 29.574219 23.851562 L 21.398438 20.378906 C 20.996094 20.207031 20.539062 20.238281 20.164062 20.457031 L 19.363281 20.925781 C 19.160156 21.042969 19.132812 21.328125 19.304688 21.484375 L 24.917969 26.582031 C 24.667969 26.738281 24.417969 26.894531 24.171875 27.054688 C 24.015625 27.15625 23.859375 27.257812 23.703125 27.363281 C 23.699219 27.363281 23.695312 27.367188 23.691406 27.371094 C 23.539062 27.472656 23.390625 27.574219 23.242188 27.679688 C 23.234375 27.683594 23.226562 27.6875 23.21875 27.691406 C 23.066406 27.796875 22.914062 27.90625 22.761719 28.015625 C 22.671875 28.082031 22.582031 28.144531 22.492188 28.210938 C 22.449219 28.242188 22.40625 28.273438 22.363281 28.304688 C 22.289062 28.359375 22.214844 28.417969 22.136719 28.472656 C 22.070312 28.523438 22.003906 28.574219 21.941406 28.625 C 21.882812 28.667969 21.824219 28.710938 21.769531 28.753906 C 21.644531 28.851562 21.515625 28.949219 21.390625 29.050781 L 19.988281 30.164062 L 17.191406 28.429688 C 17.050781 28.34375 16.875 28.34375 16.734375 28.425781 L 16.492188 28.566406 C 16.390625 28.628906 16.355469 28.761719 16.414062 28.859375 C 16.421875 28.871094 16.425781 28.882812 16.4375 28.890625 L 18.480469 31.359375 L 18.269531 31.527344 C 18.023438 31.722656 17.890625 32.050781 17.976562 32.355469 C 18.105469 32.820312 18.589844 33.039062 19 32.871094 L 19.285156 32.757812 L 20.386719 35.777344 C 20.390625 35.789062 20.394531 35.800781 20.402344 35.8125 C 20.460938 35.910156 20.589844 35.949219 20.691406 35.890625 L 20.933594 35.746094 C 21.078125 35.664062 21.160156 35.507812 21.15625 35.34375 L 21.0625 32.03125 L 22.714844 31.355469 C 24.042969 30.816406 25.335938 30.191406 26.585938 29.492188 " fill-opacity="1" fill-rule="nonzero"/></svg>