<svg xmlns="http://www.w3.org/2000/svg" xmlns:xlink="http://www.w3.org/1999/xlink" width="60" zoomAndPan="magnify" viewBox="0 0 45 44.999999" height="60" preserveAspectRatio="xMidYMid meet" version="1.0"><defs><clipPath id="f75ae53a5a"><path d="M 0 2.25 L 45 2.25 L 45 44.25 L 0 44.25 Z M 0 2.25 " clip-rule="nonzero"/></clipPath></defs><g clip-path="url(#f75ae53a5a)"><path fill="#000000" d="M 27.929688 19.5625 L 40.023438 2.25 L 34.015625 2.25 L 24.921875 15.269531 L 16.792969 3.730469 L 15.738281 2.292969 L 15.738281 2.25 L -1.28125 2.25 L 2.585938 7.699219 L 16.414062 27.433594 L 4.660156 44.25 L 10.664062 44.25 L 19.421875 31.722656 L 27.136719 42.738281 L 28.179688 44.25 L 45.21875 44.25 L 41.351562 38.695312 Z M 38.496094 40.796875 L 29.992188 40.796875 L 5.441406 6.078125 L 14.105469 6.078125 L 14.0625 5.941406 L 38.503906 40.796875 Z M 38.496094 40.796875 " fill-opacity="1" fill-rule="nonzero"/></g></svg>