<svg xmlns="http://www.w3.org/2000/svg" xmlns:xlink="http://www.w3.org/1999/xlink" width="60" zoomAndPan="magnify" viewBox="0 0 45 44.999999" height="60" preserveAspectRatio="xMidYMid meet" version="1.0"><defs><clipPath id="a89be0bb9c"><path d="M 0.632812 1.035156 L 43 1.035156 L 43 13 L 0.632812 13 Z M 0.632812 1.035156 " clip-rule="nonzero"/></clipPath><clipPath id="100972c706"><path d="M 38 14 L 44.132812 14 L 44.132812 20.535156 L 38 20.535156 Z M 38 14 " clip-rule="nonzero"/></clipPath><clipPath id="b2afaf1854"><path d="M 9 9 L 34 9 L 34 20.535156 L 9 20.535156 Z M 9 9 " clip-rule="nonzero"/></clipPath><clipPath id="a701632efc"><path d="M 7.453125 20.664062 L 37.453125 20.664062 L 37.453125 43.914062 L 7.453125 43.914062 Z M 7.453125 20.664062 " clip-rule="nonzero"/></clipPath></defs><g clip-path="url(#a89be0bb9c)"><path fill="#1a1a1a" d="M 41.84375 9.78125 C 42.074219 9.691406 42.21875 9.496094 42.21875 9.257812 C 42.21875 9.109375 42.164062 8.96875 42.0625 8.867188 C 42.003906 8.808594 41.929688 8.761719 41.84375 8.726562 L 41.171875 8.46875 L 25.539062 2.449219 L 25.226562 2.328125 L 24.917969 2.210938 L 22.320312 1.210938 C 22.027344 1.097656 21.714844 1.039062 21.40625 1.039062 C 21.101562 1.039062 20.789062 1.089844 20.496094 1.207031 L 17.625 2.304688 L 17.3125 2.425781 L 17.007812 2.542969 L 1.585938 8.4375 L 1.011719 8.660156 C 0.882812 8.707031 0.789062 8.785156 0.722656 8.878906 C 0.664062 8.96875 0.632812 9.070312 0.632812 9.183594 C 0.632812 9.425781 0.777344 9.621094 1.011719 9.71875 L 8.839844 12.734375 L 8.957031 12.65625 C 12.664062 10.238281 16.960938 8.957031 21.363281 8.957031 C 21.371094 8.957031 21.371094 8.957031 21.375 8.957031 C 25.777344 8.957031 30.078125 10.238281 33.8125 12.65625 L 33.976562 12.765625 L 33.976562 12.796875 Z M 41.84375 9.78125 " fill-opacity="1" fill-rule="nonzero"/></g><g clip-path="url(#100972c706)"><path fill="#1a1a1a" d="M 43.875 18.1875 C 42.296875 17.523438 41.363281 16.070312 41.074219 14.707031 C 40.777344 14.910156 40.417969 15.035156 40.027344 15.0625 C 39.980469 15.066406 39.933594 15.066406 39.890625 15.066406 C 39.484375 15.066406 39.097656 14.953125 38.761719 14.738281 C 37.976562 16.4375 38.078125 18.664062 38.753906 19.796875 C 38.910156 20.058594 39.167969 20.253906 39.464844 20.363281 C 39.832031 20.488281 40.246094 20.535156 40.664062 20.519531 C 40.578125 20.429688 40.507812 20.332031 40.4375 20.238281 C 40.269531 20 40.128906 19.746094 40.015625 19.484375 C 39.796875 18.957031 39.675781 18.394531 39.671875 17.835938 C 39.671875 17.757812 39.730469 17.695312 39.808594 17.695312 C 39.878906 17.695312 39.9375 17.75 39.945312 17.824219 C 39.992188 18.34375 40.144531 18.855469 40.375 19.316406 C 40.496094 19.542969 40.640625 19.765625 40.800781 19.957031 C 40.960938 20.148438 41.148438 20.320312 41.34375 20.421875 L 41.351562 20.429688 C 41.351562 20.429688 41.355469 20.433594 41.355469 20.433594 C 41.894531 20.328125 42.421875 20.136719 42.871094 19.871094 C 42.726562 19.800781 42.589844 19.71875 42.464844 19.621094 C 42.21875 19.441406 42.007812 19.238281 41.816406 19.011719 C 41.441406 18.5625 41.164062 18.03125 41.023438 17.46875 C 41.003906 17.398438 41.046875 17.320312 41.125 17.300781 C 41.195312 17.285156 41.265625 17.328125 41.292969 17.390625 C 41.464844 17.898438 41.753906 18.359375 42.117188 18.742188 C 42.300781 18.933594 42.507812 19.101562 42.722656 19.234375 C 42.929688 19.363281 43.15625 19.460938 43.378906 19.515625 C 43.703125 19.246094 43.949219 18.941406 44.066406 18.605469 C 44.132812 18.445312 44.050781 18.257812 43.875 18.1875 Z M 43.875 18.1875 " fill-opacity="1" fill-rule="nonzero"/></g><path fill="#1a1a1a" d="M 40.992188 11.683594 C 40.6875 11.414062 40.296875 11.269531 39.898438 11.269531 C 39.863281 11.269531 39.824219 11.269531 39.789062 11.277344 C 39.761719 11.277344 39.730469 11.28125 39.699219 11.28125 C 39.425781 11.3125 39.160156 11.414062 38.941406 11.574219 C 38.832031 11.648438 38.738281 11.738281 38.648438 11.839844 C 38.355469 12.175781 38.210938 12.597656 38.234375 13.039062 C 38.265625 13.484375 38.460938 13.890625 38.796875 14.183594 C 38.855469 14.230469 38.917969 14.277344 38.976562 14.320312 C 39.273438 14.523438 39.632812 14.617188 40 14.59375 C 40.371094 14.570312 40.71875 14.425781 40.992188 14.183594 C 41.046875 14.132812 41.09375 14.085938 41.140625 14.03125 C 41.433594 13.699219 41.578125 13.273438 41.554688 12.832031 C 41.523438 12.382812 41.328125 11.976562 40.992188 11.683594 Z M 40.992188 11.683594 " fill-opacity="1" fill-rule="nonzero"/><g clip-path="url(#b2afaf1854)"><path fill="#1a1a1a" d="M 9.667969 13.046875 C 9.613281 13.082031 9.558594 13.113281 9.511719 13.148438 L 9.511719 20.21875 C 12.898438 18.742188 16.34375 17.898438 19.789062 17.707031 C 20.113281 17.691406 20.4375 17.679688 20.757812 17.671875 C 20.9375 17.667969 21.117188 17.667969 21.296875 17.667969 C 21.332031 17.667969 21.363281 17.667969 21.398438 17.667969 C 21.636719 17.667969 21.878906 17.671875 22.117188 17.679688 C 22.433594 17.691406 22.75 17.703125 23.066406 17.726562 C 26.441406 17.949219 29.863281 18.785156 33.273438 20.226562 L 33.273438 13.148438 C 33.246094 13.128906 33.214844 13.113281 33.191406 13.09375 C 25.980469 8.5625 16.828125 8.550781 9.667969 13.046875 Z M 9.667969 13.046875 " fill-opacity="1" fill-rule="nonzero"/></g><g clip-path="url(#a701632efc)"><path fill="#000000" d="M 10.328125 20.664062 L 22.203125 20.664062 C 22.988281 20.664062 23.699219 20.984375 24.214844 21.503906 C 24.730469 22.023438 25.050781 22.742188 25.050781 23.53125 L 25.050781 26.996094 L 34.570312 26.996094 C 35.355469 26.996094 36.066406 27.320312 36.582031 27.839844 C 37.097656 28.359375 37.417969 29.078125 37.417969 29.867188 L 37.417969 37.421875 C 37.417969 38.210938 37.097656 38.925781 36.582031 39.449219 C 36.066406 39.96875 35.355469 40.289062 34.570312 40.289062 L 33.847656 40.289062 L 33.847656 43.429688 C 33.847656 43.535156 33.8125 43.636719 33.734375 43.71875 C 33.578125 43.902344 33.304688 43.917969 33.125 43.757812 L 29.261719 40.289062 L 22.695312 40.289062 C 21.910156 40.289062 21.199219 39.96875 20.683594 39.449219 C 20.167969 38.925781 19.847656 38.210938 19.847656 37.421875 L 19.847656 33.957031 L 15.636719 33.957031 L 11.773438 37.421875 C 11.59375 37.582031 11.320312 37.566406 11.164062 37.386719 C 11.089844 37.304688 11.050781 37.199219 11.050781 37.097656 L 11.050781 33.957031 L 10.328125 33.957031 C 9.542969 33.957031 8.832031 33.632812 8.316406 33.113281 C 7.800781 32.59375 7.480469 31.875 7.480469 31.085938 L 7.480469 23.53125 C 7.480469 22.742188 7.800781 22.023438 8.316406 21.503906 C 8.832031 20.984375 9.542969 20.664062 10.328125 20.664062 Z M 25.050781 27.871094 L 25.050781 31.085938 C 25.050781 32.664062 23.769531 33.957031 22.203125 33.957031 L 20.714844 33.957031 L 20.714844 37.421875 C 20.714844 37.96875 20.9375 38.46875 21.296875 38.828125 C 21.65625 39.191406 22.152344 39.414062 22.695312 39.414062 L 29.425781 39.414062 C 29.542969 39.414062 29.652344 39.464844 29.730469 39.539062 L 32.980469 42.457031 L 32.980469 39.851562 C 32.980469 39.613281 33.175781 39.414062 33.414062 39.414062 L 34.570312 39.414062 C 35.117188 39.414062 35.609375 39.191406 35.96875 38.828125 C 36.328125 38.46875 36.550781 37.96875 36.550781 37.421875 L 36.550781 29.867188 C 36.550781 29.320312 36.328125 28.820312 35.96875 28.457031 C 35.609375 28.09375 35.117188 27.871094 34.570312 27.871094 Z M 22.203125 21.535156 L 10.328125 21.535156 C 9.78125 21.535156 9.289062 21.761719 8.929688 22.125 C 8.570312 22.484375 8.347656 22.984375 8.347656 23.53125 L 8.347656 31.085938 C 8.347656 31.632812 8.570312 32.132812 8.929688 32.496094 C 9.289062 32.855469 9.78125 33.082031 10.328125 33.082031 L 11.484375 33.082031 C 11.726562 33.082031 11.917969 33.277344 11.917969 33.519531 L 11.917969 36.125 L 15.167969 33.207031 C 15.246094 33.128906 15.355469 33.082031 15.472656 33.082031 L 22.203125 33.082031 C 23.292969 33.082031 24.183594 32.183594 24.183594 31.085938 L 24.183594 23.53125 C 24.183594 22.984375 23.960938 22.484375 23.601562 22.125 C 23.242188 21.761719 22.746094 21.535156 22.203125 21.535156 Z M 22.203125 21.535156 " fill-opacity="1" fill-rule="nonzero"/></g><path fill="#000000" d="M 28.3125 31.121094 C 28.3125 31.117188 28.3125 31.117188 28.316406 31.113281 C 28.316406 31.113281 28.316406 31.113281 28.316406 31.109375 C 28.316406 31.105469 28.320312 31.105469 28.320312 31.101562 C 28.335938 31.0625 28.359375 31.027344 28.390625 31 C 28.390625 30.996094 28.390625 30.996094 28.390625 30.996094 C 28.390625 30.996094 28.394531 30.992188 28.394531 30.992188 C 28.421875 30.964844 28.457031 30.941406 28.496094 30.921875 C 28.5 30.921875 28.5 30.921875 28.503906 30.921875 L 28.507812 30.917969 C 28.507812 30.917969 28.507812 30.917969 28.511719 30.917969 C 28.511719 30.917969 28.515625 30.917969 28.515625 30.914062 C 28.542969 30.90625 28.566406 30.902344 28.59375 30.898438 C 28.597656 30.898438 28.597656 30.898438 28.601562 30.894531 L 28.605469 30.894531 C 28.605469 30.894531 28.609375 30.894531 28.609375 30.894531 L 28.613281 30.894531 C 28.613281 30.894531 28.617188 30.894531 28.617188 30.894531 L 28.621094 30.894531 C 28.621094 30.894531 28.625 30.894531 28.625 30.894531 L 28.628906 30.894531 C 28.632812 30.894531 28.632812 30.894531 28.632812 30.894531 C 28.636719 30.894531 28.636719 30.894531 28.636719 30.894531 L 28.640625 30.894531 C 28.644531 30.894531 28.644531 30.894531 28.648438 30.894531 L 28.652344 30.894531 C 28.652344 30.894531 28.65625 30.894531 28.65625 30.894531 L 28.660156 30.894531 C 28.660156 30.894531 28.664062 30.894531 28.664062 30.894531 L 28.667969 30.894531 C 28.671875 30.898438 28.671875 30.898438 28.675781 30.898438 C 28.703125 30.902344 28.726562 30.90625 28.75 30.914062 L 28.753906 30.914062 C 28.753906 30.917969 28.757812 30.917969 28.757812 30.917969 C 28.761719 30.917969 28.761719 30.917969 28.761719 30.917969 L 28.765625 30.921875 C 28.769531 30.921875 28.769531 30.921875 28.773438 30.921875 C 28.8125 30.941406 28.847656 30.964844 28.875 30.992188 C 28.875 30.992188 28.875 30.996094 28.878906 30.996094 C 28.878906 30.996094 28.878906 30.996094 28.878906 31 C 28.910156 31.027344 28.929688 31.0625 28.949219 31.101562 C 28.949219 31.105469 28.953125 31.105469 28.953125 31.109375 C 28.953125 31.113281 28.953125 31.113281 28.953125 31.113281 C 28.957031 31.117188 28.957031 31.117188 28.957031 31.121094 C 28.960938 31.128906 28.960938 31.128906 28.960938 31.132812 L 30.558594 35.953125 C 30.617188 36.132812 30.519531 36.332031 30.339844 36.390625 C 30.160156 36.453125 29.964844 36.355469 29.90625 36.171875 L 29.304688 34.359375 L 27.964844 34.359375 L 27.363281 36.171875 C 27.300781 36.355469 27.109375 36.453125 26.925781 36.390625 C 26.746094 36.332031 26.648438 36.132812 26.710938 35.953125 L 28.308594 31.132812 C 28.308594 31.128906 28.308594 31.128906 28.3125 31.121094 Z M 29.074219 33.664062 L 28.632812 32.335938 L 28.195312 33.664062 Z M 29.074219 33.664062 " fill-opacity="1" fill-rule="nonzero"/><path fill="#000000" d="M 16.265625 24.203125 C 16.917969 24.203125 17.5 24.554688 17.914062 25.121094 C 18.304688 25.660156 18.550781 26.394531 18.550781 27.199219 C 18.550781 28.007812 18.304688 28.742188 17.914062 29.28125 C 17.898438 29.296875 17.886719 29.316406 17.871094 29.335938 L 18.273438 29.855469 C 18.390625 30.007812 18.363281 30.222656 18.214844 30.34375 C 18.066406 30.460938 17.847656 30.433594 17.734375 30.28125 L 17.378906 29.824219 C 17.046875 30.0625 16.671875 30.199219 16.265625 30.199219 C 15.613281 30.199219 15.03125 29.847656 14.617188 29.28125 C 14.222656 28.742188 13.980469 28.007812 13.980469 27.199219 C 13.980469 26.394531 14.222656 25.660156 14.617188 25.121094 C 15.03125 24.554688 15.613281 24.203125 16.265625 24.203125 Z M 16.523438 28.71875 C 16.40625 28.566406 16.433594 28.347656 16.582031 28.230469 C 16.730469 28.113281 16.945312 28.140625 17.0625 28.292969 L 17.429688 28.765625 C 17.695312 28.351562 17.859375 27.804688 17.859375 27.199219 C 17.859375 26.546875 17.667969 25.957031 17.359375 25.53125 C 17.074219 25.140625 16.683594 24.898438 16.265625 24.898438 C 15.84375 24.898438 15.457031 25.140625 15.171875 25.53125 C 14.863281 25.957031 14.671875 26.546875 14.671875 27.199219 C 14.671875 27.859375 14.863281 28.449219 15.171875 28.871094 C 15.457031 29.261719 15.84375 29.503906 16.265625 29.503906 C 16.511719 29.503906 16.742188 29.421875 16.953125 29.273438 Z M 16.523438 28.71875 " fill-opacity="1" fill-rule="nonzero"/></svg>