<svg xmlns="http://www.w3.org/2000/svg" xmlns:xlink="http://www.w3.org/1999/xlink" width="50" zoomAndPan="magnify" viewBox="0 0 37.5 37.499999" height="50" preserveAspectRatio="xMidYMid meet" version="1.0"><defs><filter x="0%" y="0%" width="100%" height="100%" id="4bd30ac436"><feColorMatrix values="0 0 0 0 1 0 0 0 0 1 0 0 0 0 1 0 0 0 1 0" color-interpolation-filters="sRGB"/></filter><mask id="54456b8556"><g filter="url(#4bd30ac436)"><rect x="-3.75" width="45" fill="#000000" y="-3.75" height="44.999999" fill-opacity="0.77"/></g></mask><clipPath id="08ebc73732"><path d="M 0.726562 1.007812 L 34.578125 1.007812 L 34.578125 31.351562 L 0.726562 31.351562 Z M 0.726562 1.007812 " clip-rule="nonzero"/></clipPath><clipPath id="2132559fb3"><rect x="0" width="35" y="0" height="32"/></clipPath><mask id="a2d327c0ae"><g filter="url(#4bd30ac436)"><rect x="-3.75" width="45" fill="#000000" y="-3.75" height="44.999999" fill-opacity="0.44"/></g></mask><clipPath id="819b63bbd4"><path d="M 0.429688 0.210938 L 34.238281 0.210938 L 34.238281 30.558594 L 0.429688 30.558594 Z M 0.429688 0.210938 " clip-rule="nonzero"/></clipPath><clipPath id="8121cd31bc"><rect x="0" width="35" y="0" height="31"/></clipPath></defs><g mask="url(#54456b8556)"><g transform="matrix(1, 0, 0, 1, 0.000000000000000111, 0)"><g clip-path="url(#2132559fb3)"><g clip-path="url(#08ebc73732)"><path fill="#000000" d="M 2.175781 15.113281 C 2.980469 15.113281 3.628906 15.761719 3.628906 16.5625 C 3.628906 17.367188 2.980469 18.015625 2.175781 18.015625 C 1.375 18.015625 0.726562 17.367188 0.726562 16.5625 C 0.726562 15.761719 1.375 15.113281 2.175781 15.113281 M 3.101562 6.949219 C 3.785156 6.949219 4.339844 7.503906 4.339844 8.191406 C 4.339844 8.875 3.785156 9.429688 3.101562 9.429688 C 2.414062 9.429688 1.859375 8.875 1.859375 8.191406 C 1.859375 7.503906 2.414062 6.949219 3.101562 6.949219 Z M 8.425781 10.710938 C 9.503906 10.710938 10.382812 11.585938 10.382812 12.664062 C 10.382812 13.742188 9.503906 14.617188 8.425781 14.617188 C 7.347656 14.617188 6.472656 13.742188 6.472656 12.664062 C 6.472656 11.585938 7.347656 10.710938 8.425781 10.710938 Z M 10.683594 3.191406 C 11.683594 3.191406 12.492188 4 12.492188 5 C 12.492188 5.996094 11.683594 6.808594 10.683594 6.808594 C 9.6875 6.808594 8.875 5.996094 8.875 5 C 8.875 4 9.6875 3.191406 10.683594 3.191406 Z M 21.386719 4.464844 L 24.953125 9.695312 L 25.097656 9.691406 C 26.890625 9.691406 28.347656 11.148438 28.347656 12.945312 C 28.347656 14.738281 26.890625 16.195312 25.097656 16.195312 C 24.253906 16.195312 23.457031 15.867188 22.859375 15.300781 L 20.90625 16.007812 C 20.703125 16.699219 20.226562 17.277344 19.605469 17.609375 C 20.117188 17.78125 20.566406 18.109375 20.882812 18.546875 L 23.328125 18.535156 C 23.800781 17.921875 24.535156 17.546875 25.335938 17.546875 C 26.730469 17.546875 27.863281 18.675781 27.863281 20.070312 C 27.863281 21.464844 26.730469 22.597656 25.335938 22.597656 C 24.539062 22.597656 23.808594 22.222656 23.335938 21.617188 L 20.863281 21.625 C 20.472656 22.148438 19.894531 22.503906 19.246094 22.621094 L 18.324219 24.601562 C 18.425781 24.875 18.480469 25.164062 18.480469 25.460938 C 18.480469 26.222656 18.125 26.902344 17.570312 27.339844 C 19.171875 27.792969 20.605469 28.730469 21.671875 30.039062 L 26.941406 30.039062 L 28.851562 26.273438 C 31.480469 25.613281 33.335938 25.710938 32.382812 22.511719 C 33.230469 21.699219 33.753906 21.40625 32.796875 20.695312 C 33.195312 20.492188 33.320312 20.292969 33.378906 20.019531 L 32.6875 18.710938 C 34.070312 17.917969 34.703125 17.128906 34.214844 16.566406 L 31.0625 12.949219 C 30.527344 6.351562 26.210938 3.363281 21.582031 3.109375 C 21.585938 3.183594 21.589844 3.257812 21.589844 3.332031 C 21.589844 3.71875 21.519531 4.101562 21.386719 4.464844 Z M 20.648438 3.097656 C 20.53125 1.925781 19.539062 1.011719 18.339844 1.011719 C 17.054688 1.011719 16.015625 2.050781 16.015625 3.332031 C 16.015625 3.582031 16.054688 3.824219 16.128906 4.050781 C 16.429688 4.980469 17.304688 5.65625 18.339844 5.65625 C 18.726562 5.65625 19.09375 5.558594 19.414062 5.390625 L 23.449219 11.308594 C 23.03125 11.726562 22.773438 12.304688 22.773438 12.941406 L 22.777344 13.042969 L 19.710938 14.152344 C 19.386719 13.746094 18.890625 13.484375 18.328125 13.484375 C 17.359375 13.484375 16.570312 14.273438 16.570312 15.246094 C 16.570312 16.21875 17.359375 17.003906 18.328125 17.003906 C 19.277344 17.003906 20.050781 16.253906 20.089844 15.320312 L 23.148438 14.207031 C 23.5625 14.84375 24.28125 15.265625 25.097656 15.265625 C 26.378906 15.265625 27.421875 14.226562 27.421875 12.941406 C 27.421875 11.660156 26.378906 10.621094 25.097656 10.621094 C 24.894531 10.621094 24.699219 10.644531 24.511719 10.695312 L 20.320312 4.546875 C 20.535156 4.191406 20.660156 3.777344 20.660156 3.332031 C 20.660156 3.253906 20.65625 3.175781 20.648438 3.097656 Z M 15.257812 24.242188 C 14.867188 24.507812 14.613281 24.953125 14.613281 25.457031 C 14.613281 26.222656 15.191406 26.847656 15.933594 26.921875 C 15.984375 26.925781 16.03125 26.929688 16.082031 26.929688 C 16.894531 26.929688 17.554688 26.269531 17.554688 25.457031 C 17.554688 25.148438 17.457031 24.859375 17.292969 24.621094 L 18.640625 21.726562 L 18.789062 21.734375 C 19.484375 21.734375 20.082031 21.308594 20.328125 20.699219 L 23.863281 20.683594 C 24.101562 21.261719 24.671875 21.667969 25.335938 21.667969 C 26.21875 21.667969 26.933594 20.953125 26.933594 20.070312 C 26.933594 19.1875 26.21875 18.472656 25.335938 18.472656 C 24.667969 18.472656 24.097656 18.882812 23.859375 19.460938 L 20.34375 19.476562 C 20.105469 18.851562 19.5 18.40625 18.789062 18.40625 C 18.238281 18.40625 17.753906 18.671875 17.449219 19.082031 L 14.539062 17.488281 C 14.570312 17.351562 14.585938 17.207031 14.585938 17.0625 C 14.585938 16.4375 14.300781 15.878906 13.859375 15.503906 L 15.074219 12.496094 C 15.203125 12.511719 15.332031 12.519531 15.460938 12.519531 C 17.125 12.519531 18.46875 11.171875 18.46875 9.511719 C 18.46875 7.847656 17.121094 6.5 15.460938 6.5 C 13.800781 6.5 12.453125 7.847656 12.453125 9.511719 C 12.453125 10.609375 13.039062 11.566406 13.917969 12.09375 L 12.726562 15.039062 L 12.558594 15.035156 C 11.4375 15.035156 10.527344 15.941406 10.527344 17.0625 C 10.527344 18.179688 11.4375 19.089844 12.558594 19.089844 C 13.085938 19.089844 13.570312 18.886719 13.933594 18.550781 L 17.140625 20.308594 C 17.191406 20.640625 17.335938 20.941406 17.546875 21.179688 L 16.234375 23.996094 L 16.082031 23.988281 C 15.777344 23.988281 15.492188 24.082031 15.257812 24.242188 Z M 18.328125 12.558594 C 18.914062 12.558594 19.472656 12.746094 19.929688 13.085938 L 21.894531 12.375 C 21.964844 11.984375 22.101562 11.613281 22.304688 11.277344 L 19.050781 6.503906 C 18.816406 6.558594 18.578125 6.585938 18.339844 6.585938 L 18.082031 6.574219 C 18.890625 7.296875 19.398438 8.34375 19.398438 9.511719 C 19.398438 10.757812 18.820312 11.867188 17.914062 12.589844 C 18.050781 12.566406 18.1875 12.558594 18.328125 12.558594 Z M 15.226562 28.207031 C 16.160156 28.207031 16.914062 28.960938 16.914062 29.894531 C 16.914062 30.828125 16.160156 31.585938 15.226562 31.585938 C 14.292969 31.585938 13.535156 30.828125 13.535156 29.894531 C 13.535156 28.960938 14.292969 28.207031 15.226562 28.207031 Z M 9.972656 25.644531 C 10.902344 25.644531 11.660156 26.402344 11.660156 27.335938 C 11.660156 28.269531 10.902344 29.023438 9.972656 29.023438 C 9.039062 29.023438 8.28125 28.269531 8.28125 27.335938 C 8.28125 26.402344 9.039062 25.644531 9.972656 25.644531 Z M 7.359375 19.785156 C 8.148438 19.785156 8.785156 20.421875 8.785156 21.210938 C 8.785156 21.996094 8.148438 22.632812 7.359375 22.632812 C 6.574219 22.632812 5.9375 21.996094 5.9375 21.210938 C 5.9375 20.421875 6.574219 19.785156 7.359375 19.785156 Z M 7.359375 19.785156 " fill-opacity="1" fill-rule="evenodd"/></g></g></g></g><g mask="url(#a2d327c0ae)"><g transform="matrix(1, 0, 0, 1, 2, 3)"><g clip-path="url(#8121cd31bc)"><g clip-path="url(#819b63bbd4)"><path fill="#000000" d="M 1.882812 14.316406 C 2.683594 14.316406 3.335938 14.964844 3.335938 15.769531 C 3.335938 16.570312 2.683594 17.21875 1.882812 17.21875 C 1.082031 17.21875 0.429688 16.570312 0.429688 15.769531 C 0.429688 14.96875 1.082031 14.316406 1.882812 14.316406 M 2.804688 6.152344 C 3.492188 6.152344 4.046875 6.707031 4.046875 7.394531 C 4.046875 8.078125 3.492188 8.636719 2.804688 8.636719 C 2.121094 8.636719 1.566406 8.078125 1.566406 7.394531 C 1.566406 6.707031 2.121094 6.152344 2.804688 6.152344 Z M 8.132812 9.914062 C 9.210938 9.914062 10.085938 10.789062 10.085938 11.871094 C 10.085938 12.949219 9.210938 13.824219 8.132812 13.824219 C 7.050781 13.824219 6.175781 12.949219 6.175781 11.871094 C 6.179688 10.789062 7.050781 9.914062 8.132812 9.914062 Z M 10.390625 2.394531 C 11.386719 2.394531 12.199219 3.203125 12.199219 4.203125 C 12.199219 5.203125 11.386719 6.011719 10.390625 6.011719 C 9.390625 6.011719 8.582031 5.203125 8.582031 4.203125 C 8.582031 3.203125 9.390625 2.394531 10.390625 2.394531 Z M 21.09375 3.667969 L 24.660156 8.898438 L 24.800781 8.898438 C 26.597656 8.898438 28.054688 10.351562 28.054688 12.148438 C 28.054688 13.941406 26.597656 15.398438 24.800781 15.398438 C 23.957031 15.398438 23.160156 15.074219 22.5625 14.507812 L 20.613281 15.214844 C 20.40625 15.90625 19.933594 16.480469 19.308594 16.816406 C 19.824219 16.984375 20.273438 17.3125 20.589844 17.75 L 23.035156 17.742188 C 23.503906 17.125 24.242188 16.75 25.042969 16.75 C 26.4375 16.75 27.566406 17.878906 27.566406 19.277344 C 27.566406 20.671875 26.4375 21.800781 25.042969 21.800781 C 24.246094 21.800781 23.511719 21.429688 23.042969 20.820312 L 20.566406 20.832031 C 20.175781 21.351562 19.597656 21.710938 18.953125 21.828125 L 18.027344 23.808594 C 18.132812 24.078125 18.1875 24.367188 18.1875 24.664062 C 18.1875 25.425781 17.832031 26.105469 17.277344 26.546875 C 18.875 27 20.3125 27.933594 21.378906 29.246094 L 26.648438 29.246094 L 28.558594 25.476562 C 31.1875 24.816406 33.042969 24.914062 32.085938 21.714844 C 32.933594 20.90625 33.457031 20.609375 32.503906 19.902344 C 32.902344 19.695312 33.027344 19.496094 33.085938 19.222656 L 32.394531 17.914062 C 33.773438 17.125 34.40625 16.332031 33.921875 15.769531 L 30.769531 12.152344 C 30.234375 5.558594 25.917969 2.566406 21.285156 2.316406 C 21.292969 2.386719 21.292969 2.460938 21.292969 2.535156 C 21.292969 2.925781 21.226562 3.308594 21.09375 3.667969 Z M 20.355469 2.300781 C 20.234375 1.128906 19.246094 0.214844 18.042969 0.214844 C 16.761719 0.214844 15.71875 1.253906 15.71875 2.535156 C 15.71875 2.789062 15.761719 3.03125 15.832031 3.257812 C 16.136719 4.1875 17.011719 4.859375 18.042969 4.859375 C 18.433594 4.859375 18.796875 4.765625 19.121094 4.597656 L 23.152344 10.511719 C 22.738281 10.933594 22.480469 11.511719 22.480469 12.148438 L 22.480469 12.246094 L 19.414062 13.359375 C 19.09375 12.949219 18.59375 12.6875 18.035156 12.6875 C 17.0625 12.6875 16.273438 13.476562 16.273438 14.449219 C 16.273438 15.421875 17.0625 16.210938 18.035156 16.210938 C 18.980469 16.210938 19.753906 15.460938 19.792969 14.523438 L 22.855469 13.414062 C 23.269531 14.050781 23.984375 14.472656 24.800781 14.472656 C 26.085938 14.472656 27.125 13.429688 27.125 12.148438 C 27.125 10.863281 26.085938 9.824219 24.800781 9.824219 C 24.601562 9.824219 24.402344 9.851562 24.21875 9.898438 L 20.023438 3.75 C 20.242188 3.398438 20.367188 2.980469 20.367188 2.535156 C 20.367188 2.457031 20.363281 2.378906 20.355469 2.300781 Z M 14.960938 23.449219 C 14.574219 23.710938 14.316406 24.160156 14.316406 24.664062 C 14.316406 25.425781 14.898438 26.050781 15.640625 26.125 C 15.6875 26.132812 15.738281 26.132812 15.789062 26.132812 C 16.601562 26.132812 17.257812 25.476562 17.257812 24.664062 C 17.257812 24.351562 17.160156 24.0625 16.996094 23.824219 L 18.347656 20.933594 L 18.492188 20.9375 C 19.191406 20.9375 19.785156 20.511719 20.035156 19.902344 L 23.566406 19.890625 C 23.808594 20.464844 24.378906 20.871094 25.042969 20.871094 C 25.925781 20.871094 26.640625 20.15625 26.640625 19.273438 C 26.640625 18.394531 25.925781 17.675781 25.042969 17.675781 C 24.375 17.675781 23.804688 18.085938 23.566406 18.664062 L 20.050781 18.679688 C 19.808594 18.054688 19.203125 17.613281 18.496094 17.613281 C 17.945312 17.613281 17.457031 17.878906 17.15625 18.289062 L 14.246094 16.695312 C 14.273438 16.554688 14.289062 16.414062 14.289062 16.265625 C 14.289062 15.640625 14.007812 15.082031 13.5625 14.710938 L 14.78125 11.699219 C 14.90625 11.714844 15.035156 11.722656 15.167969 11.722656 C 16.828125 11.722656 18.175781 10.378906 18.175781 8.714844 C 18.175781 7.054688 16.828125 5.707031 15.167969 5.707031 C 13.503906 5.707031 12.15625 7.054688 12.15625 8.714844 C 12.15625 9.8125 12.746094 10.773438 13.621094 11.296875 L 12.429688 14.246094 L 12.261719 14.238281 C 11.140625 14.238281 10.234375 15.144531 10.234375 16.265625 C 10.234375 17.386719 11.140625 18.292969 12.261719 18.292969 C 12.792969 18.292969 13.277344 18.089844 13.636719 17.757812 L 16.847656 19.515625 C 16.894531 19.847656 17.039062 20.144531 17.253906 20.382812 L 15.9375 23.199219 L 15.789062 23.195312 C 15.480469 23.191406 15.195312 23.285156 14.960938 23.449219 Z M 18.035156 11.761719 C 18.617188 11.761719 19.179688 11.949219 19.636719 12.289062 L 21.601562 11.578125 C 21.671875 11.191406 21.808594 10.820312 22.007812 10.484375 L 18.753906 5.710938 C 18.523438 5.761719 18.285156 5.789062 18.042969 5.789062 L 17.789062 5.777344 C 18.59375 6.5 19.101562 7.546875 19.101562 8.714844 C 19.101562 9.960938 18.523438 11.070312 17.621094 11.792969 C 17.753906 11.773438 17.894531 11.761719 18.035156 11.761719 Z M 14.929688 27.410156 C 15.863281 27.410156 16.621094 28.167969 16.621094 29.101562 C 16.621094 30.03125 15.863281 30.789062 14.929688 30.789062 C 14 30.789062 13.242188 30.03125 13.242188 29.101562 C 13.242188 28.167969 14 27.410156 14.929688 27.410156 Z M 9.675781 24.851562 C 10.609375 24.851562 11.367188 25.605469 11.367188 26.539062 C 11.367188 27.472656 10.609375 28.230469 9.675781 28.230469 C 8.742188 28.230469 7.988281 27.472656 7.988281 26.539062 C 7.988281 25.605469 8.742188 24.851562 9.675781 24.851562 Z M 7.066406 18.988281 C 7.851562 18.988281 8.492188 19.628906 8.492188 20.414062 C 8.492188 21.203125 7.851562 21.839844 7.066406 21.839844 C 6.277344 21.839844 5.640625 21.199219 5.640625 20.414062 C 5.640625 19.625 6.277344 18.988281 7.066406 18.988281 Z M 7.066406 18.988281 " fill-opacity="1" fill-rule="evenodd"/></g></g></g></g></svg>