<svg xmlns="http://www.w3.org/2000/svg" xmlns:xlink="http://www.w3.org/1999/xlink" width="320" zoomAndPan="magnify" viewBox="0 0 240 60" height="80" preserveAspectRatio="xMidYMid meet" version="1.0"><defs><filter x="0%" y="0%" width="100%" height="100%" id="7e32a3c1ae"><feColorMatrix values="0 0 0 0 1 0 0 0 0 1 0 0 0 0 1 0 0 0 1 0" color-interpolation-filters="sRGB"/></filter><g/><mask id="763ffcc132"><g filter="url(#7e32a3c1ae)"><rect x="-24" width="288" fill="#000000" y="-6" height="72" fill-opacity="0.77"/></g></mask><clipPath id="0be5141a3d"><path d="M 0.300781 0.730469 L 42.359375 0.730469 L 42.359375 38.835938 L 0.300781 38.835938 Z M 0.300781 0.730469 " clip-rule="nonzero"/></clipPath><clipPath id="9075df2770"><rect x="0" width="43" y="0" height="40"/></clipPath><mask id="ac50cd6499"><g filter="url(#7e32a3c1ae)"><rect x="-24" width="288" fill="#000000" y="-6" height="72" fill-opacity="0.44"/></g></mask><clipPath id="75c0ba72a9"><path d="M 0.425781 0.480469 L 42.519531 0.480469 L 42.519531 38.585938 L 0.425781 38.585938 Z M 0.425781 0.480469 " clip-rule="nonzero"/></clipPath><clipPath id="f81a4550e3"><rect x="0" width="43" y="0" height="39"/></clipPath></defs><g mask="url(#763ffcc132)"><g transform="matrix(1, 0, 0, 1, 3, 11)"><g clip-path="url(#9075df2770)"><g clip-path="url(#0be5141a3d)"><path fill="#000000" d="M 2.109375 18.328125 C 3.109375 18.328125 3.921875 19.136719 3.921875 20.136719 C 3.921875 21.136719 3.109375 21.949219 2.109375 21.949219 C 1.109375 21.949219 0.300781 21.136719 0.300781 20.136719 C 0.300781 19.136719 1.109375 18.328125 2.109375 18.328125 M 3.261719 8.144531 C 4.117188 8.144531 4.808594 8.835938 4.808594 9.691406 C 4.808594 10.546875 4.117188 11.238281 3.261719 11.238281 C 2.40625 11.238281 1.714844 10.546875 1.714844 9.691406 C 1.714844 8.835938 2.40625 8.144531 3.261719 8.144531 Z M 9.90625 12.835938 C 11.253906 12.835938 12.34375 13.925781 12.34375 15.273438 C 12.34375 16.621094 11.253906 17.710938 9.90625 17.710938 C 8.558594 17.710938 7.46875 16.617188 7.46875 15.273438 C 7.46875 13.925781 8.558594 12.835938 9.90625 12.835938 Z M 12.722656 3.453125 C 13.96875 3.453125 14.980469 4.464844 14.980469 5.710938 C 14.980469 6.957031 13.96875 7.964844 12.722656 7.964844 C 11.476562 7.964844 10.46875 6.957031 10.46875 5.710938 C 10.46875 4.464844 11.476562 3.453125 12.722656 3.453125 Z M 26.074219 5.042969 L 30.523438 11.570312 L 30.703125 11.566406 C 32.945312 11.566406 34.757812 13.382812 34.757812 15.621094 C 34.757812 17.859375 32.945312 19.675781 30.703125 19.675781 C 29.648438 19.675781 28.65625 19.269531 27.910156 18.5625 L 25.476562 19.445312 C 25.222656 20.308594 24.628906 21.027344 23.851562 21.445312 C 24.492188 21.65625 25.050781 22.066406 25.449219 22.613281 L 28.5 22.597656 C 29.085938 21.832031 30.003906 21.363281 31 21.363281 C 32.742188 21.363281 34.152344 22.773438 34.152344 24.511719 C 34.152344 26.253906 32.742188 27.664062 31 27.664062 C 30.007812 27.664062 29.09375 27.199219 28.507812 26.441406 L 25.421875 26.453125 C 24.933594 27.105469 24.214844 27.550781 23.40625 27.695312 L 22.253906 30.167969 C 22.382812 30.503906 22.449219 30.867188 22.449219 31.234375 C 22.449219 32.1875 22.007812 33.035156 21.3125 33.582031 C 23.308594 34.148438 25.101562 35.316406 26.429688 36.953125 L 33.007812 36.953125 L 35.386719 32.25 C 38.667969 31.429688 40.980469 31.546875 39.792969 27.558594 C 40.851562 26.546875 41.503906 26.175781 40.3125 25.292969 C 40.808594 25.039062 40.964844 24.789062 41.035156 24.449219 L 40.175781 22.816406 C 41.898438 21.828125 42.6875 20.84375 42.078125 20.140625 L 38.148438 15.625 C 37.480469 7.398438 32.09375 3.667969 26.316406 3.355469 C 26.324219 3.445312 26.328125 3.539062 26.328125 3.628906 C 26.328125 4.113281 26.242188 4.59375 26.074219 5.042969 Z M 25.15625 3.335938 C 25.007812 1.875 23.773438 0.734375 22.269531 0.734375 C 20.671875 0.734375 19.371094 2.03125 19.371094 3.628906 C 19.371094 3.945312 19.421875 4.246094 19.515625 4.527344 C 19.890625 5.6875 20.984375 6.527344 22.269531 6.527344 C 22.757812 6.527344 23.210938 6.410156 23.613281 6.199219 L 28.648438 13.582031 C 28.125 14.105469 27.804688 14.824219 27.804688 15.621094 L 27.808594 15.742188 L 23.984375 17.128906 C 23.582031 16.621094 22.960938 16.296875 22.261719 16.296875 C 21.050781 16.296875 20.066406 17.28125 20.066406 18.492188 C 20.066406 19.703125 21.050781 20.6875 22.261719 20.6875 C 23.441406 20.6875 24.40625 19.753906 24.453125 18.585938 L 28.273438 17.199219 C 28.789062 17.992188 29.6875 18.519531 30.703125 18.519531 C 32.304688 18.519531 33.601562 17.21875 33.601562 15.621094 C 33.601562 14.019531 32.304688 12.722656 30.703125 12.722656 C 30.453125 12.722656 30.207031 12.753906 29.972656 12.816406 L 24.742188 5.144531 C 25.015625 4.703125 25.167969 4.183594 25.167969 3.628906 C 25.167969 3.53125 25.164062 3.433594 25.15625 3.335938 Z M 18.425781 29.71875 C 17.941406 30.046875 17.625 30.605469 17.625 31.234375 C 17.625 32.183594 18.347656 32.96875 19.273438 33.0625 C 19.335938 33.066406 19.394531 33.070312 19.457031 33.070312 C 20.472656 33.070312 21.292969 32.246094 21.292969 31.234375 C 21.292969 30.847656 21.171875 30.484375 20.964844 30.1875 L 22.648438 26.582031 L 22.832031 26.589844 C 23.703125 26.589844 24.445312 26.054688 24.757812 25.296875 L 29.164062 25.277344 C 29.460938 26 30.171875 26.503906 31.003906 26.503906 C 32.101562 26.503906 32.996094 25.613281 32.996094 24.511719 C 32.996094 23.414062 32.101562 22.519531 31.003906 22.519531 C 30.171875 22.519531 29.457031 23.027344 29.160156 23.753906 L 24.773438 23.773438 C 24.476562 22.992188 23.71875 22.4375 22.835938 22.4375 C 22.148438 22.4375 21.542969 22.769531 21.164062 23.28125 L 17.53125 21.292969 C 17.570312 21.121094 17.589844 20.941406 17.589844 20.757812 C 17.589844 19.976562 17.238281 19.28125 16.683594 18.816406 L 18.199219 15.0625 C 18.359375 15.082031 18.519531 15.09375 18.683594 15.09375 C 20.757812 15.09375 22.4375 13.410156 22.4375 11.339844 C 22.4375 9.265625 20.753906 7.585938 18.683594 7.585938 C 16.609375 7.585938 14.929688 9.265625 14.929688 11.339844 C 14.929688 12.707031 15.660156 13.90625 16.753906 14.5625 L 15.269531 18.238281 L 15.058594 18.230469 C 13.664062 18.230469 12.527344 19.359375 12.527344 20.757812 C 12.527344 22.15625 13.664062 23.289062 15.058594 23.289062 C 15.722656 23.289062 16.324219 23.035156 16.773438 22.617188 L 20.78125 24.8125 C 20.839844 25.226562 21.019531 25.597656 21.285156 25.894531 L 19.644531 29.410156 L 19.457031 29.402344 C 19.074219 29.398438 18.71875 29.519531 18.425781 29.71875 Z M 22.261719 15.140625 C 22.988281 15.140625 23.6875 15.375 24.257812 15.800781 L 26.710938 14.910156 C 26.796875 14.425781 26.96875 13.964844 27.21875 13.542969 L 23.160156 7.589844 C 22.871094 7.652344 22.570312 7.6875 22.269531 7.6875 L 21.953125 7.675781 C 22.960938 8.574219 23.59375 9.882812 23.59375 11.339844 C 23.59375 12.890625 22.871094 14.277344 21.742188 15.179688 C 21.910156 15.152344 22.085938 15.140625 22.261719 15.140625 Z M 18.390625 34.660156 C 19.554688 34.660156 20.496094 35.605469 20.496094 36.769531 C 20.496094 37.933594 19.554688 38.878906 18.390625 38.878906 C 17.226562 38.878906 16.28125 37.933594 16.28125 36.769531 C 16.28125 35.605469 17.226562 34.660156 18.390625 34.660156 Z M 11.832031 31.46875 C 12.996094 31.46875 13.941406 32.410156 13.941406 33.574219 C 13.941406 34.738281 12.996094 35.683594 11.832031 35.683594 C 10.667969 35.683594 9.726562 34.738281 9.726562 33.574219 C 9.726562 32.410156 10.667969 31.46875 11.832031 31.46875 Z M 8.578125 24.15625 C 9.558594 24.15625 10.355469 24.953125 10.355469 25.933594 C 10.355469 26.914062 9.558594 27.710938 8.578125 27.710938 C 7.59375 27.710938 6.800781 26.914062 6.800781 25.933594 C 6.800781 24.953125 7.59375 24.15625 8.578125 24.15625 Z M 8.578125 24.15625 " fill-opacity="1" fill-rule="evenodd"/></g></g></g></g><g mask="url(#ac50cd6499)"><g transform="matrix(1, 0, 0, 1, 5, 14)"><g clip-path="url(#f81a4550e3)"><g clip-path="url(#75c0ba72a9)"><path fill="#000000" d="M 2.238281 18.078125 C 3.238281 18.078125 4.046875 18.886719 4.046875 19.886719 C 4.046875 20.886719 3.238281 21.699219 2.238281 21.699219 C 1.238281 21.699219 0.425781 20.886719 0.425781 19.886719 C 0.425781 18.886719 1.238281 18.078125 2.238281 18.078125 M 3.390625 7.894531 C 4.242188 7.894531 4.9375 8.585938 4.9375 9.441406 C 4.9375 10.296875 4.242188 10.988281 3.390625 10.988281 C 2.535156 10.988281 1.839844 10.296875 1.839844 9.441406 C 1.839844 8.585938 2.535156 7.894531 3.390625 7.894531 Z M 10.035156 12.585938 C 11.378906 12.585938 12.472656 13.675781 12.472656 15.023438 C 12.472656 16.371094 11.378906 17.460938 10.035156 17.460938 C 8.6875 17.460938 7.59375 16.371094 7.59375 15.023438 C 7.597656 13.675781 8.6875 12.585938 10.035156 12.585938 Z M 12.851562 3.203125 C 14.097656 3.203125 15.105469 4.214844 15.105469 5.460938 C 15.105469 6.707031 14.097656 7.714844 12.851562 7.714844 C 11.605469 7.714844 10.59375 6.707031 10.59375 5.460938 C 10.59375 4.214844 11.605469 3.203125 12.851562 3.203125 Z M 26.203125 4.792969 L 30.652344 11.320312 L 30.832031 11.316406 C 33.070312 11.316406 34.886719 13.132812 34.886719 15.371094 C 34.886719 17.609375 33.070312 19.429688 30.832031 19.429688 C 29.777344 19.429688 28.78125 19.019531 28.039062 18.3125 L 25.605469 19.195312 C 25.347656 20.058594 24.753906 20.777344 23.980469 21.195312 C 24.617188 21.40625 25.179688 21.816406 25.574219 22.363281 L 28.625 22.347656 C 29.210938 21.582031 30.132812 21.113281 31.128906 21.113281 C 32.867188 21.113281 34.28125 22.523438 34.28125 24.261719 C 34.28125 26.003906 32.871094 27.414062 31.128906 27.414062 C 30.136719 27.414062 29.222656 26.949219 28.636719 26.191406 L 25.546875 26.203125 C 25.058594 26.855469 24.339844 27.300781 23.535156 27.445312 L 22.378906 29.917969 C 22.511719 30.253906 22.578125 30.617188 22.578125 30.984375 C 22.578125 31.9375 22.132812 32.785156 21.441406 33.332031 C 23.4375 33.898438 25.230469 35.066406 26.558594 36.703125 L 33.132812 36.703125 L 35.515625 32 C 38.796875 31.179688 41.109375 31.296875 39.917969 27.308594 C 40.976562 26.296875 41.628906 25.925781 40.4375 25.042969 C 40.933594 24.789062 41.09375 24.539062 41.164062 24.199219 L 40.300781 22.566406 C 42.023438 21.578125 42.816406 20.59375 42.207031 19.890625 L 38.273438 15.375 C 37.609375 7.148438 32.222656 3.421875 26.445312 3.105469 C 26.449219 3.195312 26.453125 3.289062 26.453125 3.382812 C 26.453125 3.867188 26.367188 4.34375 26.203125 4.792969 Z M 25.28125 3.085938 C 25.132812 1.625 23.898438 0.484375 22.398438 0.484375 C 20.796875 0.484375 19.5 1.78125 19.5 3.382812 C 19.5 3.695312 19.550781 3.996094 19.640625 4.277344 C 20.019531 5.4375 21.109375 6.28125 22.398438 6.28125 C 22.882812 6.28125 23.339844 6.160156 23.742188 5.949219 L 28.773438 13.332031 C 28.253906 13.855469 27.933594 14.574219 27.933594 15.371094 L 27.9375 15.492188 L 24.109375 16.882812 C 23.707031 16.375 23.085938 16.046875 22.386719 16.046875 C 21.175781 16.046875 20.191406 17.03125 20.191406 18.242188 C 20.191406 19.457031 21.175781 20.4375 22.386719 20.4375 C 23.570312 20.4375 24.535156 19.503906 24.582031 18.335938 L 28.402344 16.949219 C 28.917969 17.742188 29.8125 18.269531 30.832031 18.269531 C 32.429688 18.269531 33.730469 16.96875 33.730469 15.371094 C 33.730469 13.769531 32.433594 12.472656 30.832031 12.472656 C 30.578125 12.472656 30.335938 12.503906 30.101562 12.566406 L 24.871094 4.894531 C 25.140625 4.453125 25.296875 3.933594 25.296875 3.382812 C 25.296875 3.28125 25.292969 3.183594 25.28125 3.085938 Z M 18.554688 29.46875 C 18.070312 29.796875 17.75 30.355469 17.75 30.984375 C 17.75 31.9375 18.476562 32.71875 19.402344 32.8125 C 19.460938 32.816406 19.523438 32.820312 19.585938 32.820312 C 20.597656 32.820312 21.421875 32 21.421875 30.984375 C 21.421875 30.597656 21.300781 30.234375 21.09375 29.9375 L 22.777344 26.332031 L 22.960938 26.339844 C 23.828125 26.339844 24.574219 25.804688 24.882812 25.046875 L 29.289062 25.027344 C 29.589844 25.75 30.300781 26.253906 31.128906 26.253906 C 32.230469 26.253906 33.121094 25.363281 33.121094 24.261719 C 33.121094 23.164062 32.230469 22.269531 31.128906 22.269531 C 30.296875 22.269531 29.585938 22.777344 29.285156 23.503906 L 24.902344 23.523438 C 24.601562 22.742188 23.847656 22.1875 22.960938 22.1875 C 22.277344 22.1875 21.667969 22.519531 21.289062 23.03125 L 17.660156 21.042969 C 17.695312 20.871094 17.714844 20.691406 17.714844 20.507812 C 17.714844 19.730469 17.363281 19.03125 16.808594 18.566406 L 18.328125 14.8125 C 18.484375 14.832031 18.648438 14.84375 18.808594 14.84375 C 20.882812 14.84375 22.5625 13.164062 22.5625 11.089844 C 22.5625 9.015625 20.882812 7.335938 18.808594 7.335938 C 16.738281 7.335938 15.054688 9.015625 15.054688 11.089844 C 15.054688 12.457031 15.789062 13.65625 16.882812 14.3125 L 15.394531 17.988281 L 15.1875 17.980469 C 13.789062 17.980469 12.65625 19.109375 12.65625 20.507812 C 12.65625 21.90625 13.789062 23.039062 15.1875 23.039062 C 15.847656 23.039062 16.453125 22.785156 16.902344 22.367188 L 20.90625 24.5625 C 20.964844 24.976562 21.148438 25.347656 21.414062 25.648438 L 19.773438 29.160156 L 19.585938 29.152344 C 19.203125 29.152344 18.847656 29.269531 18.554688 29.46875 Z M 22.386719 14.890625 C 23.117188 14.890625 23.8125 15.125 24.386719 15.550781 L 26.835938 14.660156 C 26.921875 14.175781 27.097656 13.714844 27.347656 13.292969 L 23.289062 7.339844 C 22.996094 7.40625 22.699219 7.4375 22.398438 7.4375 L 22.082031 7.425781 C 23.085938 8.324219 23.722656 9.632812 23.722656 11.089844 C 23.722656 12.644531 23 14.027344 21.871094 14.929688 C 22.039062 14.902344 22.210938 14.890625 22.386719 14.890625 Z M 18.515625 34.414062 C 19.679688 34.414062 20.625 35.355469 20.625 36.519531 C 20.625 37.683594 19.679688 38.628906 18.515625 38.628906 C 17.351562 38.628906 16.410156 37.683594 16.410156 36.519531 C 16.410156 35.355469 17.351562 34.414062 18.515625 34.414062 Z M 11.960938 31.21875 C 13.125 31.21875 14.066406 32.164062 14.066406 33.328125 C 14.066406 34.492188 13.125 35.433594 11.960938 35.433594 C 10.796875 35.433594 9.851562 34.492188 9.851562 33.328125 C 9.851562 32.164062 10.796875 31.21875 11.960938 31.21875 Z M 8.703125 23.90625 C 9.6875 23.90625 10.480469 24.703125 10.480469 25.683594 C 10.480469 26.664062 9.6875 27.460938 8.703125 27.460938 C 7.722656 27.460938 6.925781 26.664062 6.925781 25.683594 C 6.925781 24.703125 7.722656 23.90625 8.703125 23.90625 Z M 8.703125 23.90625 " fill-opacity="1" fill-rule="evenodd"/></g></g></g></g><g fill="#545454" fill-opacity="1"><g transform="translate(50.690762, 41.568926)"><g><path d="M 2.25 -17.875 L 7.8125 -17.875 C 10.1875 -17.875 11.984375 -17.535156 13.203125 -16.859375 C 14.429688 -16.191406 15.046875 -15.019531 15.046875 -13.34375 C 15.046875 -12.664062 14.9375 -12.050781 14.71875 -11.5 C 14.5 -10.957031 14.1875 -10.507812 13.78125 -10.15625 C 13.375 -9.8125 12.878906 -9.585938 12.296875 -9.484375 L 12.296875 -9.359375 C 12.890625 -9.234375 13.425781 -9.019531 13.90625 -8.71875 C 14.382812 -8.425781 14.769531 -8 15.0625 -7.4375 C 15.351562 -6.875 15.5 -6.125 15.5 -5.1875 C 15.5 -4.101562 15.234375 -3.171875 14.703125 -2.390625 C 14.171875 -1.617188 13.414062 -1.023438 12.4375 -0.609375 C 11.457031 -0.203125 10.289062 0 8.9375 0 L 2.25 0 Z M 6.03125 -10.796875 L 8.234375 -10.796875 C 9.335938 -10.796875 10.097656 -10.96875 10.515625 -11.3125 C 10.941406 -11.65625 11.15625 -12.164062 11.15625 -12.84375 C 11.15625 -13.53125 10.90625 -14.019531 10.40625 -14.3125 C 9.90625 -14.613281 9.113281 -14.765625 8.03125 -14.765625 L 6.03125 -14.765625 Z M 6.03125 -7.78125 L 6.03125 -3.125 L 8.5 -3.125 C 9.644531 -3.125 10.441406 -3.34375 10.890625 -3.78125 C 11.335938 -4.226562 11.5625 -4.820312 11.5625 -5.5625 C 11.5625 -6 11.460938 -6.382812 11.265625 -6.71875 C 11.066406 -7.050781 10.738281 -7.3125 10.28125 -7.5 C 9.820312 -7.6875 9.191406 -7.78125 8.390625 -7.78125 Z M 6.03125 -7.78125 "/></g></g></g><g fill="#545454" fill-opacity="1"><g transform="translate(67.508667, 41.568926)"><g><path d="M 9.578125 -13.921875 C 9.765625 -13.921875 9.984375 -13.910156 10.234375 -13.890625 C 10.484375 -13.867188 10.6875 -13.84375 10.84375 -13.8125 L 10.5625 -10.3125 C 10.4375 -10.351562 10.257812 -10.382812 10.03125 -10.40625 C 9.8125 -10.425781 9.617188 -10.4375 9.453125 -10.4375 C 8.972656 -10.4375 8.503906 -10.375 8.046875 -10.25 C 7.597656 -10.132812 7.195312 -9.9375 6.84375 -9.65625 C 6.488281 -9.382812 6.207031 -9.023438 6 -8.578125 C 5.789062 -8.140625 5.6875 -7.597656 5.6875 -6.953125 L 5.6875 0 L 1.953125 0 L 1.953125 -13.671875 L 4.78125 -13.671875 L 5.328125 -11.359375 L 5.515625 -11.359375 C 5.785156 -11.828125 6.117188 -12.253906 6.515625 -12.640625 C 6.921875 -13.023438 7.378906 -13.332031 7.890625 -13.5625 C 8.410156 -13.800781 8.972656 -13.921875 9.578125 -13.921875 Z M 9.578125 -13.921875 "/></g></g></g><g fill="#e61616" fill-opacity="1"><g transform="translate(78.87586, 41.568926)"><g><path d="M 7.546875 -13.953125 C 9.378906 -13.953125 10.785156 -13.550781 11.765625 -12.75 C 12.742188 -11.945312 13.234375 -10.734375 13.234375 -9.109375 L 13.234375 0 L 10.640625 0 L 9.90625 -1.859375 L 9.8125 -1.859375 C 9.425781 -1.367188 9.023438 -0.96875 8.609375 -0.65625 C 8.203125 -0.351562 7.734375 -0.128906 7.203125 0.015625 C 6.679688 0.171875 6.039062 0.25 5.28125 0.25 C 4.46875 0.25 3.742188 0.09375 3.109375 -0.21875 C 2.472656 -0.53125 1.96875 -1.003906 1.59375 -1.640625 C 1.226562 -2.285156 1.046875 -3.097656 1.046875 -4.078125 C 1.046875 -5.535156 1.554688 -6.609375 2.578125 -7.296875 C 3.597656 -7.984375 5.125 -8.363281 7.15625 -8.4375 L 9.53125 -8.5 L 9.53125 -9.109375 C 9.53125 -9.828125 9.34375 -10.351562 8.96875 -10.6875 C 8.59375 -11.019531 8.070312 -11.1875 7.40625 -11.1875 C 6.75 -11.1875 6.101562 -11.09375 5.46875 -10.90625 C 4.832031 -10.71875 4.195312 -10.476562 3.5625 -10.1875 L 2.328125 -12.71875 C 3.046875 -13.09375 3.851562 -13.390625 4.75 -13.609375 C 5.65625 -13.835938 6.585938 -13.953125 7.546875 -13.953125 Z M 9.53125 -6.328125 L 8.09375 -6.28125 C 6.882812 -6.25 6.046875 -6.03125 5.578125 -5.625 C 5.109375 -5.226562 4.875 -4.707031 4.875 -4.0625 C 4.875 -3.488281 5.039062 -3.082031 5.375 -2.84375 C 5.707031 -2.601562 6.144531 -2.484375 6.6875 -2.484375 C 7.488281 -2.484375 8.160156 -2.71875 8.703125 -3.1875 C 9.253906 -3.664062 9.53125 -4.335938 9.53125 -5.203125 Z M 9.53125 -6.328125 "/></g></g></g><g fill="#e61616" fill-opacity="1"><g transform="translate(93.994869, 41.568926)"><g><path d="M 5.6875 -13.671875 L 5.6875 0 L 1.953125 0 L 1.953125 -13.671875 Z M 3.828125 -19.015625 C 4.378906 -19.015625 4.851562 -18.882812 5.25 -18.625 C 5.65625 -18.375 5.859375 -17.898438 5.859375 -17.203125 C 5.859375 -16.503906 5.65625 -16.019531 5.25 -15.75 C 4.851562 -15.488281 4.378906 -15.359375 3.828125 -15.359375 C 3.265625 -15.359375 2.785156 -15.488281 2.390625 -15.75 C 1.992188 -16.019531 1.796875 -16.503906 1.796875 -17.203125 C 1.796875 -17.898438 1.992188 -18.375 2.390625 -18.625 C 2.785156 -18.882812 3.265625 -19.015625 3.828125 -19.015625 Z M 3.828125 -19.015625 "/></g></g></g><g fill="#545454" fill-opacity="1"><g transform="translate(101.643971, 41.568926)"><g><path d="M 9.71875 -13.921875 C 11.175781 -13.921875 12.347656 -13.519531 13.234375 -12.71875 C 14.117188 -11.925781 14.5625 -10.65625 14.5625 -8.90625 L 14.5625 0 L 10.84375 0 L 10.84375 -7.984375 C 10.84375 -8.960938 10.664062 -9.695312 10.3125 -10.1875 C 9.957031 -10.6875 9.398438 -10.9375 8.640625 -10.9375 C 7.503906 -10.9375 6.726562 -10.546875 6.3125 -9.765625 C 5.894531 -8.992188 5.6875 -7.878906 5.6875 -6.421875 L 5.6875 0 L 1.953125 0 L 1.953125 -13.671875 L 4.796875 -13.671875 L 5.296875 -11.921875 L 5.515625 -11.921875 C 5.804688 -12.390625 6.171875 -12.769531 6.609375 -13.0625 C 7.046875 -13.351562 7.53125 -13.566406 8.0625 -13.703125 C 8.59375 -13.847656 9.144531 -13.921875 9.71875 -13.921875 Z M 9.71875 -13.921875 "/></g></g></g><g fill="#545454" fill-opacity="1"><g transform="translate(118.095207, 41.568926)"><g><path d="M 5.6875 -13.671875 L 5.6875 0 L 1.953125 0 L 1.953125 -13.671875 Z M 3.828125 -19.015625 C 4.378906 -19.015625 4.851562 -18.882812 5.25 -18.625 C 5.65625 -18.375 5.859375 -17.898438 5.859375 -17.203125 C 5.859375 -16.503906 5.65625 -16.019531 5.25 -15.75 C 4.851562 -15.488281 4.378906 -15.359375 3.828125 -15.359375 C 3.265625 -15.359375 2.785156 -15.488281 2.390625 -15.75 C 1.992188 -16.019531 1.796875 -16.503906 1.796875 -17.203125 C 1.796875 -17.898438 1.992188 -18.375 2.390625 -18.625 C 2.785156 -18.882812 3.265625 -19.015625 3.828125 -19.015625 Z M 3.828125 -19.015625 "/></g></g></g><g fill="#545454" fill-opacity="1"><g transform="translate(125.734159, 41.568926)"><g><path d="M 7.546875 -13.953125 C 9.378906 -13.953125 10.785156 -13.550781 11.765625 -12.75 C 12.742188 -11.945312 13.234375 -10.734375 13.234375 -9.109375 L 13.234375 0 L 10.640625 0 L 9.90625 -1.859375 L 9.8125 -1.859375 C 9.425781 -1.367188 9.023438 -0.96875 8.609375 -0.65625 C 8.203125 -0.351562 7.734375 -0.128906 7.203125 0.015625 C 6.679688 0.171875 6.039062 0.25 5.28125 0.25 C 4.46875 0.25 3.742188 0.09375 3.109375 -0.21875 C 2.472656 -0.53125 1.96875 -1.003906 1.59375 -1.640625 C 1.226562 -2.285156 1.046875 -3.097656 1.046875 -4.078125 C 1.046875 -5.535156 1.554688 -6.609375 2.578125 -7.296875 C 3.597656 -7.984375 5.125 -8.363281 7.15625 -8.4375 L 9.53125 -8.5 L 9.53125 -9.109375 C 9.53125 -9.828125 9.34375 -10.351562 8.96875 -10.6875 C 8.59375 -11.019531 8.070312 -11.1875 7.40625 -11.1875 C 6.75 -11.1875 6.101562 -11.09375 5.46875 -10.90625 C 4.832031 -10.71875 4.195312 -10.476562 3.5625 -10.1875 L 2.328125 -12.71875 C 3.046875 -13.09375 3.851562 -13.390625 4.75 -13.609375 C 5.65625 -13.835938 6.585938 -13.953125 7.546875 -13.953125 Z M 9.53125 -6.328125 L 8.09375 -6.28125 C 6.882812 -6.25 6.046875 -6.03125 5.578125 -5.625 C 5.109375 -5.226562 4.875 -4.707031 4.875 -4.0625 C 4.875 -3.488281 5.039062 -3.082031 5.375 -2.84375 C 5.707031 -2.601562 6.144531 -2.484375 6.6875 -2.484375 C 7.488281 -2.484375 8.160156 -2.71875 8.703125 -3.1875 C 9.253906 -3.664062 9.53125 -4.335938 9.53125 -5.203125 Z M 9.53125 -6.328125 "/></g></g></g><g fill="#545454" fill-opacity="1"><g transform="translate(140.853168, 41.568926)"><g><path d="M 7.5 0.25 C 6.144531 0.25 4.988281 0.00390625 4.03125 -0.484375 C 3.082031 -0.984375 2.359375 -1.75 1.859375 -2.78125 C 1.367188 -3.820312 1.125 -5.148438 1.125 -6.765625 C 1.125 -8.429688 1.40625 -9.789062 1.96875 -10.84375 C 2.539062 -11.90625 3.328125 -12.679688 4.328125 -13.171875 C 5.335938 -13.671875 6.503906 -13.921875 7.828125 -13.921875 C 8.773438 -13.921875 9.59375 -13.828125 10.28125 -13.640625 C 10.96875 -13.460938 11.570312 -13.25 12.09375 -13 L 10.984375 -10.109375 C 10.398438 -10.347656 9.851562 -10.539062 9.34375 -10.6875 C 8.84375 -10.84375 8.335938 -10.921875 7.828125 -10.921875 C 7.179688 -10.921875 6.640625 -10.765625 6.203125 -10.453125 C 5.773438 -10.148438 5.453125 -9.691406 5.234375 -9.078125 C 5.023438 -8.472656 4.921875 -7.707031 4.921875 -6.78125 C 4.921875 -5.875 5.035156 -5.125 5.265625 -4.53125 C 5.492188 -3.9375 5.820312 -3.492188 6.25 -3.203125 C 6.6875 -2.921875 7.210938 -2.78125 7.828125 -2.78125 C 8.609375 -2.78125 9.296875 -2.878906 9.890625 -3.078125 C 10.492188 -3.285156 11.082031 -3.578125 11.65625 -3.953125 L 11.65625 -0.765625 C 11.082031 -0.410156 10.484375 -0.15625 9.859375 0 C 9.242188 0.164062 8.457031 0.25 7.5 0.25 Z M 7.5 0.25 "/></g></g></g><g fill="#545454" fill-opacity="1"><g transform="translate(153.72327, 41.568926)"><g/></g></g><g fill="#545454" fill-opacity="1"><g transform="translate(160.225542, 41.568926)"><g><path d="M 9.8125 0 L 5.515625 -14.015625 L 5.40625 -14.015625 C 5.414062 -13.679688 5.4375 -13.175781 5.46875 -12.5 C 5.507812 -11.832031 5.546875 -11.117188 5.578125 -10.359375 C 5.617188 -9.609375 5.640625 -8.925781 5.640625 -8.3125 L 5.640625 0 L 2.25 0 L 2.25 -17.875 L 7.40625 -17.875 L 11.640625 -4.203125 L 11.703125 -4.203125 L 16.1875 -17.875 L 21.359375 -17.875 L 21.359375 0 L 17.8125 0 L 17.8125 -8.453125 C 17.8125 -9.015625 17.820312 -9.660156 17.84375 -10.390625 C 17.863281 -11.128906 17.890625 -11.832031 17.921875 -12.5 C 17.960938 -13.164062 17.988281 -13.664062 18 -14 L 17.890625 -14 L 13.28125 0 Z M 9.8125 0 "/></g></g></g><g fill="#545454" fill-opacity="1"><g transform="translate(183.826837, 41.568926)"><g><path d="M 7.59375 -13.921875 C 8.851562 -13.921875 9.9375 -13.675781 10.84375 -13.1875 C 11.757812 -12.707031 12.46875 -12.003906 12.96875 -11.078125 C 13.46875 -10.160156 13.71875 -9.039062 13.71875 -7.71875 L 13.71875 -5.90625 L 4.90625 -5.90625 C 4.945312 -4.851562 5.257812 -4.023438 5.84375 -3.421875 C 6.4375 -2.828125 7.257812 -2.53125 8.3125 -2.53125 C 9.1875 -2.53125 9.984375 -2.617188 10.703125 -2.796875 C 11.429688 -2.972656 12.175781 -3.242188 12.9375 -3.609375 L 12.9375 -0.71875 C 12.257812 -0.382812 11.550781 -0.140625 10.8125 0.015625 C 10.082031 0.171875 9.191406 0.25 8.140625 0.25 C 6.773438 0.25 5.5625 0 4.5 -0.5 C 3.445312 -1.007812 2.617188 -1.78125 2.015625 -2.8125 C 1.421875 -3.851562 1.125 -5.160156 1.125 -6.734375 C 1.125 -8.328125 1.394531 -9.65625 1.9375 -10.71875 C 2.476562 -11.78125 3.234375 -12.578125 4.203125 -13.109375 C 5.171875 -13.648438 6.300781 -13.921875 7.59375 -13.921875 Z M 7.609375 -11.265625 C 6.890625 -11.265625 6.289062 -11.03125 5.8125 -10.5625 C 5.332031 -10.101562 5.054688 -9.378906 4.984375 -8.390625 L 10.21875 -8.390625 C 10.207031 -8.941406 10.101562 -9.429688 9.90625 -9.859375 C 9.71875 -10.296875 9.4375 -10.640625 9.0625 -10.890625 C 8.6875 -11.140625 8.203125 -11.265625 7.609375 -11.265625 Z M 7.609375 -11.265625 "/></g></g></g><g fill="#545454" fill-opacity="1"><g transform="translate(198.615838, 41.568926)"><g><path d="M 6.28125 0.25 C 4.757812 0.25 3.519531 -0.347656 2.5625 -1.546875 C 1.601562 -2.742188 1.125 -4.5 1.125 -6.8125 C 1.125 -9.144531 1.609375 -10.910156 2.578125 -12.109375 C 3.546875 -13.316406 4.8125 -13.921875 6.375 -13.921875 C 7.03125 -13.921875 7.601562 -13.832031 8.09375 -13.65625 C 8.59375 -13.476562 9.023438 -13.238281 9.390625 -12.9375 C 9.753906 -12.632812 10.0625 -12.296875 10.3125 -11.921875 L 10.4375 -11.921875 C 10.382812 -12.179688 10.320312 -12.5625 10.25 -13.0625 C 10.1875 -13.570312 10.15625 -14.097656 10.15625 -14.640625 L 10.15625 -19.015625 L 13.890625 -19.015625 L 13.890625 0 L 11.03125 0 L 10.3125 -1.765625 L 10.15625 -1.765625 C 9.914062 -1.390625 9.617188 -1.050781 9.265625 -0.75 C 8.910156 -0.445312 8.488281 -0.203125 8 -0.015625 C 7.507812 0.160156 6.9375 0.25 6.28125 0.25 Z M 7.59375 -2.71875 C 8.613281 -2.71875 9.332031 -3.019531 9.75 -3.625 C 10.164062 -4.238281 10.382812 -5.15625 10.40625 -6.375 L 10.40625 -6.78125 C 10.40625 -8.113281 10.203125 -9.128906 9.796875 -9.828125 C 9.390625 -10.535156 8.632812 -10.890625 7.53125 -10.890625 C 6.707031 -10.890625 6.0625 -10.535156 5.59375 -9.828125 C 5.132812 -9.117188 4.90625 -8.097656 4.90625 -6.765625 C 4.90625 -5.421875 5.140625 -4.410156 5.609375 -3.734375 C 6.078125 -3.054688 6.738281 -2.71875 7.59375 -2.71875 Z M 7.59375 -2.71875 "/></g></g></g><g fill="#545454" fill-opacity="1"><g transform="translate(214.455958, 41.568926)"><g><path d="M 5.6875 -13.671875 L 5.6875 0 L 1.953125 0 L 1.953125 -13.671875 Z M 3.828125 -19.015625 C 4.378906 -19.015625 4.851562 -18.882812 5.25 -18.625 C 5.65625 -18.375 5.859375 -17.898438 5.859375 -17.203125 C 5.859375 -16.503906 5.65625 -16.019531 5.25 -15.75 C 4.851562 -15.488281 4.378906 -15.359375 3.828125 -15.359375 C 3.265625 -15.359375 2.785156 -15.488281 2.390625 -15.75 C 1.992188 -16.019531 1.796875 -16.503906 1.796875 -17.203125 C 1.796875 -17.898438 1.992188 -18.375 2.390625 -18.625 C 2.785156 -18.882812 3.265625 -19.015625 3.828125 -19.015625 Z M 3.828125 -19.015625 "/></g></g></g><g fill="#545454" fill-opacity="1"><g transform="translate(222.09491, 41.568926)"><g><path d="M 7.546875 -13.953125 C 9.378906 -13.953125 10.785156 -13.550781 11.765625 -12.75 C 12.742188 -11.945312 13.234375 -10.734375 13.234375 -9.109375 L 13.234375 0 L 10.640625 0 L 9.90625 -1.859375 L 9.8125 -1.859375 C 9.425781 -1.367188 9.023438 -0.96875 8.609375 -0.65625 C 8.203125 -0.351562 7.734375 -0.128906 7.203125 0.015625 C 6.679688 0.171875 6.039062 0.25 5.28125 0.25 C 4.46875 0.25 3.742188 0.09375 3.109375 -0.21875 C 2.472656 -0.53125 1.96875 -1.003906 1.59375 -1.640625 C 1.226562 -2.285156 1.046875 -3.097656 1.046875 -4.078125 C 1.046875 -5.535156 1.554688 -6.609375 2.578125 -7.296875 C 3.597656 -7.984375 5.125 -8.363281 7.15625 -8.4375 L 9.53125 -8.5 L 9.53125 -9.109375 C 9.53125 -9.828125 9.34375 -10.351562 8.96875 -10.6875 C 8.59375 -11.019531 8.070312 -11.1875 7.40625 -11.1875 C 6.75 -11.1875 6.101562 -11.09375 5.46875 -10.90625 C 4.832031 -10.71875 4.195312 -10.476562 3.5625 -10.1875 L 2.328125 -12.71875 C 3.046875 -13.09375 3.851562 -13.390625 4.75 -13.609375 C 5.65625 -13.835938 6.585938 -13.953125 7.546875 -13.953125 Z M 9.53125 -6.328125 L 8.09375 -6.28125 C 6.882812 -6.25 6.046875 -6.03125 5.578125 -5.625 C 5.109375 -5.226562 4.875 -4.707031 4.875 -4.0625 C 4.875 -3.488281 5.039062 -3.082031 5.375 -2.84375 C 5.707031 -2.601562 6.144531 -2.484375 6.6875 -2.484375 C 7.488281 -2.484375 8.160156 -2.71875 8.703125 -3.1875 C 9.253906 -3.664062 9.53125 -4.335938 9.53125 -5.203125 Z M 9.53125 -6.328125 "/></g></g></g></svg>